<?xml version="1.0" encoding="utf-8"?>
<!-- Generator: Adobe Illustrator 16.0.0, SVG Export Plug-In . SVG Version: 6.00 Build 0)  -->
<!DOCTYPE svg PUBLIC "-//W3C//DTD SVG 1.1//EN" "http://www.w3.org/Graphics/SVG/1.1/DTD/svg11.dtd">
<svg version="1.1" id="Capa_1" xmlns="http://www.w3.org/2000/svg" xmlns:xlink="http://www.w3.org/1999/xlink" x="0px" y="0px"
	 width="130px" height="128.167px" viewBox="0 0 130 128.167" enable-background="new 0 0 130 128.167" xml:space="preserve">
<g>
	<polygon fill="#645F54" points="98.02,116.952 103.22,117.295 97.615,111.752 	"/>
</g>
<g>
	<g>
		<path fill="#645F54" d="M104.807,110.088c-0.314-0.313-0.821-0.31-1.131,0.004c-0.313,0.315-0.324,0.837-0.009,1.148
			c0.313,0.311,0.806,0.322,1.117,0.007l0.028-0.029C105.123,110.904,105.121,110.399,104.807,110.088z"/>
	</g>
	<g>
		<path fill="#645F54" d="M108.687,21.446l0.108,0.129c0.281,0.343,0.231,0.848-0.11,1.126c-0.341,0.281-0.845,0.234-1.126-0.11
			l-0.093-0.113c-0.286-0.338-0.243-0.842,0.093-1.129c0.32-0.269,0.789-0.246,1.081,0.041
			C108.656,21.41,108.674,21.426,108.687,21.446z M112.643,26.702l0.083,0.125c0.249,0.365,0.154,0.862-0.212,1.111
			c-0.363,0.247-0.859,0.157-1.109-0.215l-0.096-0.137c-0.244-0.37-0.145-0.866,0.225-1.109c0.322-0.212,0.742-0.165,1.006,0.096
			C112.577,26.611,112.611,26.655,112.643,26.702z M116.048,32.301l0.079,0.146c0.21,0.389,0.063,0.873-0.325,1.082
			c-0.39,0.209-0.876,0.065-1.087-0.326l-0.068-0.132c-0.215-0.387-0.072-0.874,0.314-1.088c0.317-0.174,0.703-0.11,0.948,0.134
			C115.964,32.17,116.01,32.231,116.048,32.301z M118.895,38.226l0.061,0.145c0.169,0.409-0.026,0.878-0.435,1.049
			c-0.407,0.168-0.876-0.023-1.044-0.434l-0.062-0.146c-0.171-0.407,0.023-0.875,0.432-1.046c0.308-0.128,0.649-0.05,0.87,0.169
			C118.791,38.036,118.852,38.125,118.895,38.226z M121.137,44.388l0.045,0.157c0.13,0.423-0.109,0.87-0.533,0.998
			c-0.422,0.128-0.869-0.11-0.998-0.534l-0.045-0.146c-0.131-0.422,0.104-0.87,0.527-1c0.293-0.093,0.598-0.005,0.801,0.196
			C121.024,44.147,121.095,44.259,121.137,44.388z M122.762,50.745l0.033,0.165c0.086,0.435-0.197,0.855-0.631,0.939
			c-0.434,0.088-0.854-0.197-0.939-0.63l-0.03-0.144c-0.091-0.434,0.187-0.858,0.618-0.947c0.273-0.058,0.545,0.031,0.729,0.213
			C122.649,50.446,122.727,50.584,122.762,50.745z M123.76,57.241l0.016,0.157c0.046,0.438-0.276,0.832-0.715,0.875
			c-0.438,0.042-0.834-0.277-0.876-0.718l-0.017-0.157c-0.045-0.439,0.277-0.833,0.717-0.875c0.245-0.023,0.479,0.067,0.643,0.229
			C123.654,56.878,123.742,57.046,123.76,57.241z M124.12,63.791l0.001,0.158c0.002,0.443-0.355,0.805-0.797,0.806
			c-0.443,0.004-0.803-0.353-0.805-0.796l-0.001-0.158c-0.002-0.441,0.355-0.803,0.796-0.806c0.223,0,0.422,0.09,0.566,0.234
			C124.027,63.372,124.119,63.57,124.12,63.791z M123.838,70.366l-0.014,0.139c-0.038,0.441-0.428,0.768-0.867,0.728
			c-0.442-0.041-0.765-0.432-0.727-0.87l0.016-0.174c0.05-0.439,0.443-0.756,0.885-0.709c0.186,0.021,0.352,0.105,0.475,0.228
			C123.773,69.873,123.866,70.111,123.838,70.366z M122.919,76.864l-0.017,0.086l-0.014,0.062c-0.086,0.435-0.5,0.688-0.934,0.604
			c-0.434-0.085-0.71-0.534-0.625-0.969l0.02-0.107c0.09-0.433,0.514-0.711,0.948-0.622c0.157,0.034,0.294,0.109,0.4,0.215
			C122.885,76.315,122.977,76.587,122.919,76.864z M121.372,83.228l-0.047,0.157c-0.128,0.423-0.574,0.665-0.997,0.539
			c-0.424-0.13-0.662-0.574-0.538-0.997l0.044-0.146c0.123-0.426,0.568-0.67,0.99-0.546c0.134,0.039,0.25,0.107,0.342,0.198
			C121.369,82.634,121.457,82.935,121.372,83.228z M119.197,89.436l-0.059,0.143c-0.168,0.408-0.635,0.603-1.043,0.437
			c-0.404-0.167-0.605-0.635-0.438-1.044l0.064-0.154c0.171-0.408,0.638-0.597,1.047-0.428c0.099,0.041,0.181,0.099,0.253,0.17
			C119.246,88.782,119.326,89.126,119.197,89.436z M116.425,95.392l-0.07,0.13c-0.204,0.393-0.687,0.544-1.079,0.34
			s-0.543-0.688-0.338-1.082l0.078-0.149c0.21-0.39,0.697-0.533,1.086-0.322c0.069,0.035,0.131,0.082,0.182,0.134
			C116.53,94.685,116.599,95.072,116.425,95.392z M113.079,101.038l-0.087,0.132c-0.244,0.368-0.738,0.469-1.107,0.225
			c-0.364-0.247-0.469-0.74-0.226-1.109l0.091-0.134c0.244-0.368,0.74-0.467,1.108-0.222c0.044,0.029,0.083,0.061,0.12,0.097
			C113.246,100.291,113.297,100.714,113.079,101.038z M109.146,106.392c-0.003,0.003-0.051,0.063-0.051,0.063
			c-0.281,0.34-0.762,0.359-1.102,0.08c-0.32-0.278-0.367-0.812-0.091-1.152l0.058-0.07c0.282-0.341,0.764-0.359,1.104-0.075
			c0.016,0.013,0.033,0.027,0.048,0.042C109.406,105.57,109.415,106.068,109.146,106.392z"/>
	</g>
	<g>
		<path fill="#645F54" d="M104.291,16.655l-0.028-0.029c-0.315-0.313-0.822-0.309-1.132,0.005c-0.313,0.315-0.31,0.821,0.006,1.132
			c0.313,0.311,0.836,0.324,1.146,0.009C104.594,17.459,104.607,16.966,104.291,16.655z"/>
	</g>
</g>
<path fill="#D8D6D2" d="M119.71,64.584c0,30.988-25.121,56.109-56.109,56.109c-30.984,0-56.107-25.121-56.107-56.109
	c0-30.988,25.123-56.109,56.107-56.109C94.589,8.476,119.71,33.597,119.71,64.584z"/>
<image overflow="visible" width="318" height="159" xlink:href="D:\SITIOS LOCALES\CHAIDE Y CHAIDE\NEW WEBSITE\images.jpg"  transform="matrix(1 0 0 1 613.75 -51.0005)">
</image>
<path fill="#FFFFFF" d="M21.422,77.243l31.002-5.895c3.283-0.783,5,0,5,0l44.73,7.871l0.498,0.594L72.408,92.447
	c-2.785,0.896-4.078,0-4.078,0l-45.9-14.325c-1.045-0.299-1.082-0.635-1.082-0.635L21.422,77.243z"/>
<path fill="none" stroke="#BABABA" stroke-miterlimit="10" d="M102.652,79.813L74.1,91.802c0,0-1.99,1.593-7.363,0L21.348,77.487"/>
<g>
	<path fill="#F2F2F2" d="M68.362,82.447c0,0,1.293,0.896,4.079,0l30.243-12.634l0.248-1.996c0,0,0.225-0.299-0.746-0.598
		l-44.729-7.871c0,0-1.717-0.783-5,0l-31.002,5.895c0,0-0.41,0.111-0.41,1.604l0.336,0.641c0,0,0.037,0.336,1.082,0.635
		L68.362,82.447z"/>
</g>
<g>
	<path fill="#C9C8C7" d="M68.362,74.447c0,0,1.293,0.896,4.079,0l30.243-12.634l0.248-1.996c0,0,0.225-0.299-0.746-0.598
		l-44.729-7.871c0,0-1.717-0.783-5,0l-31.002,5.895c0,0-0.41,0.111-0.41,1.604l0.336,0.641c0,0,0.037,0.336,1.082,0.635
		L68.362,74.447z"/>
</g>
<path fill="#FFFFFF" d="M21.422,51.243l31.002-5.895c3.283-0.783,5,0,5,0l44.73,7.871l0.498,0.594L72.408,66.447
	c-2.785,0.896-4.078,0-4.078,0l-45.9-14.325c-1.045-0.299-1.082-0.635-1.082-0.635L21.422,51.243z"/>
<path fill="none" stroke="#BABABA" stroke-miterlimit="10" d="M102.652,53.813L74.1,65.802c0,0-1.99,1.593-7.363,0L21.348,51.487"/>
</svg>
