<?xml version="1.0" encoding="utf-8"?>
<!-- Generator: Adobe Illustrator 16.0.0, SVG Export Plug-In . SVG Version: 6.00 Build 0)  -->
<!DOCTYPE svg PUBLIC "-//W3C//DTD SVG 1.1//EN" "http://www.w3.org/Graphics/SVG/1.1/DTD/svg11.dtd">
<svg version="1.1" id="Capa_1" xmlns="http://www.w3.org/2000/svg" xmlns:xlink="http://www.w3.org/1999/xlink" x="0px" y="0px"
	 width="39.426px" height="39.426px" viewBox="0 0 39.426 39.426" enable-background="new 0 0 39.426 39.426" xml:space="preserve">
<g>
	<path fill="#FFFFFF" d="M16.181,7.411c-6.368,0-11.529,4.155-11.529,9.28c0,2.678,1.412,5.09,3.667,6.783l0.012,5.886l4.892-3.701
		c0.944,0.201,1.936,0.31,2.959,0.31c6.368,0,11.529-4.155,11.529-9.277C27.71,11.566,22.549,7.411,16.181,7.411z"/>
	<path fill="#FFFFFF" d="M34.773,21.057c0-3.658-2.816-6.784-6.798-8.055c0.532,1.149,0.827,2.392,0.827,3.69
		c0,5.701-5.628,10.341-12.558,10.368c1.959,1.643,4.714,2.667,7.764,2.667c1.034,0,2.034-0.124,2.981-0.341L31.379,33l0.251-5.821
		C33.572,25.612,34.773,23.448,34.773,21.057z"/>
</g>
</svg>
