<?xml version="1.0" encoding="utf-8"?>
<!-- Generator: Adobe Illustrator 16.0.0, SVG Export Plug-In . SVG Version: 6.00 Build 0)  -->
<!DOCTYPE svg PUBLIC "-//W3C//DTD SVG 1.1//EN" "http://www.w3.org/Graphics/SVG/1.1/DTD/svg11.dtd">
<svg version="1.1" id="Capa_1" xmlns="http://www.w3.org/2000/svg" xmlns:xlink="http://www.w3.org/1999/xlink" x="0px" y="0px"
	 width="39.426px" height="39.426px" viewBox="0 0 39.426 39.426" enable-background="new 0 0 39.426 39.426" xml:space="preserve">
<path fill="#FFFFFF" d="M32.964,29.859c0,0.649-0.118,1.096-0.354,1.343c-0.234,0.248-0.623,0.371-1.164,0.371H8.682
	c-0.416,0-0.759-0.123-1.03-0.371c-0.325-0.305-0.487-0.752-0.487-1.343V12.445c0-0.425,0.157-0.795,0.474-1.105
	c0.315-0.308,0.664-0.465,1.043-0.465h22.764c0.506,0,0.885,0.146,1.138,0.438c0.253,0.29,0.38,0.668,0.38,1.133V29.859
	L32.964,29.859z M15.424,21.216l-6.747-7.107v14.415L15.424,21.216L15.424,21.216z M30.377,12.411H9.755l8.638,9.201
	c0.755,0.804,1.313,1.206,1.673,1.206c0.358,0,0.917-0.402,1.672-1.206L30.377,12.411L30.377,12.411z M30.323,29.848l-6.774-7.223
	l-1.107,1.168c-0.648,0.683-1.439,1.024-2.375,1.024c-0.937,0-1.729-0.342-2.375-1.024l-1.107-1.168l-6.775,7.223H30.323
	L30.323,29.848z M31.456,28.523V14.108l-6.747,7.107L31.456,28.523L31.456,28.523z"/>
</svg>
