<?xml version="1.0" encoding="utf-8"?>
<!-- Generator: Adobe Illustrator 16.0.0, SVG Export Plug-In . SVG Version: 6.00 Build 0)  -->
<!DOCTYPE svg PUBLIC "-//W3C//DTD SVG 1.1//EN" "http://www.w3.org/Graphics/SVG/1.1/DTD/svg11.dtd">
<svg version="1.1" id="Layer_1" xmlns="http://www.w3.org/2000/svg" xmlns:xlink="http://www.w3.org/1999/xlink" x="0px" y="0px"
	 width="151.797px" height="103.168px" viewBox="0 0 151.797 103.168" enable-background="new 0 0 151.797 103.168"
	 xml:space="preserve">
<g>
	<g>
		<polygon fill="#08819D" points="151.797,87.18 75.892,103.168 -0.011,87.18 -0.011,0 151.797,0 		"/>
		<g>
			<path fill="none" stroke="#FFFFFF" stroke-width="2.6438" d="M93.023,27.694c3.059,9.179-1.812,19.062-10.868,22.079
				c-9.063,3.011-18.884-1.979-21.939-11.152c-3.056-9.172,1.815-19.063,10.876-22.075C80.15,13.527,89.973,18.517,93.023,27.694z"
				/>
			<g>
				<g>
					<g>
						<g>
							<defs>
								<path id="SVGID_1_" d="M71.091,16.545c-9.061,3.013-13.932,12.903-10.876,22.075c3.059,9.173,12.879,14.164,21.939,11.152
									c9.06-3.017,13.927-12.9,10.868-22.079c-2.446-7.362-9.256-12.03-16.526-12.03C74.703,15.664,72.881,15.948,71.091,16.545"
									/>
							</defs>
							<clipPath id="SVGID_2_">
								<use xlink:href="#SVGID_1_"  overflow="visible"/>
							</clipPath>
							
								<radialGradient id="SVGID_3_" cx="-670.6023" cy="-249.1768" r="0.5332" gradientTransform="matrix(18.63 27.1351 -27.1351 18.63 5801.0859 22861.2012)" gradientUnits="userSpaceOnUse">
								<stop  offset="0" style="stop-color:#2BACE2"/>
								<stop  offset="0.3156" style="stop-color:#1F8ECB"/>
								<stop  offset="0.7803" style="stop-color:#0C6BB0"/>
								<stop  offset="1" style="stop-color:#015EA7"/>
							</radialGradient>
							<polygon clip-path="url(#SVGID_2_)" fill="url(#SVGID_3_)" points="83.613,-2.498 113.402,40.892 69.629,70.945 
								39.839,27.556 							"/>
						</g>
					</g>
				</g>
			</g>
			<g>
				<g>
					<g>
						<g>
							<defs>
								<path id="SVGID_4_" d="M70.943,20.727c-6.556,3.417-9.183,11.59-5.866,18.262c3.31,6.666,11.305,9.301,17.854,5.889
									c2.943-1.537,5.1-4.041,6.271-6.929c-4.384,2.055-9.322,1.476-13.051-1.139c0.979-1.025,1.354-2.221,1.354-2.221
									c-10.592-2.096-6.058-13.95-6.058-13.95c-0.04,0.061-0.079,0.114-0.122,0.175c0.043-0.11,0.082-0.222,0.126-0.334
									C71.282,20.559,71.11,20.639,70.943,20.727"/>
							</defs>
							<clipPath id="SVGID_5_">
								<use xlink:href="#SVGID_4_"  overflow="visible"/>
							</clipPath>
							
								<radialGradient id="SVGID_6_" cx="-670.5955" cy="-249.1865" r="0.5327" gradientTransform="matrix(18.6302 27.1354 -27.1354 18.6302 5800.8447 22861.4453)" gradientUnits="userSpaceOnUse">
								<stop  offset="0" style="stop-color:#FFFFFF"/>
								<stop  offset="0.3813" style="stop-color:#EAEAEA"/>
								<stop  offset="1" style="stop-color:#D2D3D4"/>
							</radialGradient>
							<polygon clip-path="url(#SVGID_5_)" fill="url(#SVGID_6_)" points="80.413,7.677 102.178,39.381 70.552,61.094 48.787,29.39 
															"/>
						</g>
					</g>
				</g>
			</g>
			<path fill="#FFFFFF" d="M43.874,61.167c-0.701-3.651-2.668-5.338-5.759-5.338c-3.65,0-6.74,2.248-6.74,8.989
				c0,4.214,1.966,8.427,6.74,8.427c2.809,0,4.773-1.404,6.317-3.933l0.563,0.42c-1.825,3.513-4.354,4.638-7.726,4.638
				c-5.338,0-8.708-4.215-8.708-9.552c0-5.618,3.934-10.112,8.708-10.112c3.091,0,5.447,1.012,6.461,2.248
				c0.699,0.842,0.699,2.526,0.699,4.213H43.874z"/>
			<path fill="#FFFFFF" d="M61.849,70.438c0,1.686,0.281,2.809,1.97,2.809h0.562v0.563h-2.528c-1.965,0-2.524-0.563-2.524-3.371
				V64.82h-8.431v8.988h-2.527v-15.17c0-1.687-0.281-2.812-1.967-2.812h-0.563v-0.563h2.528c1.966,0,2.525,0.563,2.525,3.37v5.058
				h8.429v-8.428h2.524v15.172h0.003V70.438z"/>
			<path fill="#FFFFFF" d="M83.197,73.809c-0.28,0.084-0.703,0.141-1.123,0.141c-1.267,0-3.539-0.422-4.776-3.652l-0.701-1.822
				h-7.862l-2.246,5.338h-1.269l7.865-18.539h0.842l6.185,15.023c0.87,2.108,1.543,2.813,3.089,2.949L83.197,73.809L83.197,73.809z
				 M69.153,67.346h6.881L72.662,59.2L69.153,67.346z"/>
			<path fill="#FFFFFF" d="M84.88,55.268h2.527v15.17c0,1.686,0.282,2.809,1.967,2.809h0.563v0.563h-2.529
				c-1.965,0-2.527-0.563-2.527-3.371L84.88,55.268L84.88,55.268z"/>
			<path fill="#FFFFFF" d="M97.856,55.268c7.417,0,11.04,3.541,11.04,9.156c0,5.479-3.515,9.385-10.313,9.385h-5.561v-15.17
				c0-1.686-0.281-2.811-1.97-2.811h-0.562v-0.563L97.856,55.268L97.856,55.268z M95.637,72.458
				c1.151,0.254,2.106,0.367,2.864,0.367c4.157,0,7.332-3.203,7.332-8.287c0-4.972-3.091-8.285-7.388-8.285
				c-0.815,0-1.798,0.142-2.812,0.449L95.637,72.458L95.637,72.458z"/>
			<path fill="#FFFFFF" d="M121.983,55.268c1.967,0,2.389,1.125,2.389,2.248v2.107h-0.563c0-2.248-1.264-3.23-3.513-3.23h-5.224
				v7.303h7.585v1.125h-7.585v7.865h4.916c2.525,0,3.932-0.846,4.771-3.094l0.563,0.143l-0.983,2.67
				c-0.309,0.842-0.979,1.404-2.104,1.404h-9.69v-15.17c0-1.686-0.281-2.811-1.966-2.811h-0.563v-0.563L121.983,55.268
				L121.983,55.268z"/>
			<path fill="#FFFFFF" d="M29.987,80.766h-0.088c-0.135-0.004-0.266-0.021-0.396-0.057c-0.132-0.033-0.259-0.084-0.381-0.146
				c-0.125-0.064-0.236-0.146-0.332-0.236c-0.096-0.092-0.171-0.188-0.227-0.291l0.516-0.266c0.025,0.047,0.063,0.098,0.12,0.146
				c0.055,0.049,0.119,0.094,0.19,0.135c0.073,0.041,0.154,0.074,0.243,0.102c0.088,0.023,0.184,0.039,0.276,0.039h0.01h0.01
				c0.074,0.006,0.165-0.002,0.272-0.025c0.104-0.021,0.211-0.061,0.311-0.115c0.212-0.117,0.325-0.275,0.336-0.475
				c0.013-0.131-0.021-0.232-0.096-0.311c-0.071-0.078-0.175-0.139-0.313-0.182c-0.14-0.043-0.293-0.064-0.47-0.064
				c-0.05,0-0.12-0.002-0.212-0.012c-0.09-0.006-0.187-0.021-0.289-0.047c-0.256-0.063-0.459-0.172-0.604-0.32
				c-0.084-0.096-0.146-0.199-0.188-0.314c-0.043-0.117-0.061-0.246-0.055-0.385c0.016-0.277,0.114-0.514,0.3-0.691
				c0.076-0.08,0.166-0.146,0.271-0.203c0.104-0.056,0.216-0.096,0.338-0.125c0.147-0.035,0.305-0.049,0.462-0.041
				c0.156,0.01,0.313,0.035,0.463,0.08c0.162,0.053,0.307,0.125,0.431,0.215c0.124,0.088,0.221,0.191,0.286,0.313l-0.5,0.284
				c-0.033-0.056-0.081-0.104-0.146-0.147c-0.067-0.045-0.149-0.082-0.24-0.11c-0.104-0.033-0.203-0.052-0.313-0.056
				c-0.105-0.006-0.211,0.004-0.311,0.024c-0.292,0.067-0.444,0.229-0.457,0.49c-0.008,0.073,0,0.133,0.021,0.172
				c0.021,0.039,0.041,0.071,0.063,0.096c0.075,0.07,0.178,0.125,0.309,0.154c0.136,0.028,0.263,0.047,0.381,0.047
				c0.265,0,0.494,0.035,0.701,0.108c0.207,0.074,0.375,0.183,0.503,0.318c0.193,0.205,0.275,0.455,0.25,0.752
				c-0.018,0.215-0.091,0.405-0.216,0.571c-0.104,0.146-0.244,0.267-0.415,0.361c-0.122,0.065-0.254,0.118-0.396,0.155
				C30.26,80.749,30.12,80.766,29.987,80.766"/>
			<path fill="#FFFFFF" d="M34.011,80.756c-0.218,0-0.405-0.023-0.567-0.07s-0.306-0.104-0.416-0.182
				c-0.116-0.07-0.213-0.154-0.29-0.248c-0.078-0.09-0.141-0.18-0.186-0.268c-0.052-0.096-0.092-0.193-0.121-0.289
				c-0.025-0.1-0.05-0.191-0.062-0.279c-0.013-0.086-0.021-0.164-0.022-0.234c-0.001-0.069-0.001-0.123-0.001-0.162V76.96h0.577
				v2.063c0,0.031,0,0.074,0.002,0.127c0.002,0.054,0.007,0.108,0.018,0.175c0.008,0.063,0.021,0.127,0.041,0.198
				c0.02,0.065,0.046,0.134,0.082,0.196c0.156,0.308,0.476,0.455,0.945,0.455c0.475,0,0.789-0.147,0.948-0.455
				c0.036-0.063,0.063-0.131,0.083-0.196c0.021-0.071,0.033-0.14,0.041-0.198c0.007-0.064,0.013-0.121,0.015-0.175
				c0-0.053,0.001-0.096,0.001-0.127V76.96h0.579v2.063c0,0.039-0.002,0.093-0.002,0.162c-0.002,0.069-0.011,0.147-0.021,0.233
				c-0.017,0.088-0.035,0.183-0.064,0.279c-0.024,0.096-0.065,0.192-0.12,0.288c-0.045,0.089-0.104,0.179-0.182,0.269
				c-0.077,0.095-0.174,0.179-0.289,0.248c-0.116,0.074-0.256,0.136-0.417,0.183C34.421,80.732,34.231,80.756,34.011,80.756"/>
			<polygon fill="#FFFFFF" points="37.576,77.542 37.576,78.456 39.175,78.456 39.175,79.032 37.576,79.032 37.576,80.105 
				39.229,80.105 39.229,80.684 36.997,80.684 36.997,76.961 39.229,76.961 39.229,77.542 			"/>
			<path fill="#FFFFFF" d="M41.063,78.157v2.526h-0.577v-3.896l2.793,2.723v-2.549h0.578v3.916L41.063,78.157z M42.489,77.198
				c-0.102,0-0.193-0.019-0.279-0.056c-0.087-0.039-0.164-0.093-0.229-0.156l-0.061-0.062c-0.028-0.026-0.063-0.043-0.104-0.043
				c-0.015,0-0.027,0.002-0.049,0.009c-0.018,0.006-0.031,0.017-0.049,0.028c-0.015,0.017-0.03,0.035-0.06,0.063
				c-0.024,0.031-0.054,0.065-0.086,0.104l-0.442-0.375c0.025-0.026,0.058-0.06,0.089-0.098c0.033-0.039,0.063-0.07,0.083-0.099
				c0.064-0.067,0.144-0.123,0.23-0.158c0.088-0.034,0.18-0.053,0.273-0.059h0.007c0.097,0,0.188,0.02,0.277,0.057
				s0.168,0.091,0.235,0.155l0.059,0.06c0.02,0.021,0.033,0.031,0.055,0.035c0.02,0.006,0.033,0.009,0.049,0.009
				c0.01,0,0.021-0.003,0.044-0.009c0.018-0.004,0.037-0.019,0.057-0.035c0.022-0.022,0.047-0.049,0.073-0.077
				c0.026-0.027,0.048-0.056,0.067-0.076l0.44,0.365c-0.01,0.016-0.032,0.045-0.065,0.086c-0.034,0.039-0.07,0.077-0.105,0.112
				c-0.071,0.063-0.149,0.117-0.236,0.155C42.675,77.18,42.585,77.198,42.489,77.198"/>
			<path fill="#FFFFFF" d="M47.93,80.809l-0.497-1.039H45.87l-0.491,1.039l-0.519-0.246l1.791-3.793l1.802,3.793L47.93,80.809z
				 M46.143,79.191h1.019l-0.51-1.073L46.143,79.191z"/>
			<path fill="#FFFFFF" d="M53.247,80.756c-0.26,0-0.512-0.053-0.751-0.154c-0.23-0.098-0.438-0.23-0.616-0.414
				c-0.181-0.18-0.315-0.387-0.415-0.617c-0.103-0.238-0.151-0.488-0.151-0.75c0-0.26,0.052-0.512,0.151-0.758
				c0.1-0.23,0.234-0.438,0.415-0.607c0.177-0.178,0.382-0.313,0.616-0.42c0.118-0.053,0.239-0.09,0.365-0.113
				c0.126-0.021,0.254-0.037,0.386-0.037c0.266,0,0.519,0.053,0.757,0.15c0.112,0.051,0.22,0.109,0.322,0.178
				c0.102,0.068,0.199,0.146,0.288,0.236l-0.403,0.406c-0.132-0.127-0.28-0.227-0.443-0.291c-0.16-0.066-0.337-0.104-0.521-0.104
				c-0.188,0-0.362,0.037-0.526,0.105c-0.167,0.072-0.31,0.168-0.433,0.291c-0.122,0.125-0.22,0.27-0.291,0.436
				c-0.072,0.166-0.107,0.342-0.107,0.525c0,0.187,0.035,0.361,0.107,0.527c0.071,0.166,0.169,0.311,0.291,0.432
				c0.123,0.123,0.266,0.221,0.433,0.291c0.164,0.072,0.343,0.107,0.526,0.107s0.357-0.033,0.521-0.1
				c0.163-0.068,0.313-0.166,0.443-0.293l0.403,0.402c-0.182,0.182-0.384,0.314-0.61,0.412
				C53.759,80.706,53.507,80.756,53.247,80.756"/>
			<path fill="#FFFFFF" d="M57.466,80.775c-0.263,0-0.516-0.051-0.76-0.153c-0.231-0.097-0.439-0.236-0.622-0.418
				c-0.184-0.185-0.322-0.392-0.419-0.621c-0.103-0.244-0.154-0.498-0.154-0.763c0-0.264,0.055-0.521,0.154-0.762
				c0.097-0.229,0.235-0.438,0.419-0.619c0.183-0.187,0.391-0.323,0.622-0.42c0.244-0.104,0.497-0.156,0.76-0.156
				c0.267,0,0.521,0.054,0.765,0.156c0.229,0.097,0.438,0.233,0.618,0.42c0.187,0.183,0.323,0.39,0.419,0.619
				c0.104,0.241,0.154,0.498,0.154,0.762c0,0.265-0.051,0.519-0.154,0.763c-0.096,0.229-0.232,0.438-0.419,0.621
				c-0.184,0.182-0.392,0.321-0.618,0.418C57.985,80.725,57.73,80.775,57.466,80.775 M57.466,77.441
				c-0.188,0-0.367,0.037-0.534,0.106c-0.167,0.074-0.313,0.175-0.438,0.3s-0.224,0.271-0.296,0.438
				c-0.071,0.166-0.108,0.344-0.108,0.533c0,0.188,0.037,0.367,0.108,0.535c0.072,0.168,0.171,0.313,0.296,0.438
				s0.271,0.227,0.438,0.297c0.167,0.072,0.348,0.109,0.534,0.109c0.189,0,0.368-0.037,0.535-0.109
				c0.166-0.07,0.313-0.172,0.438-0.297c0.127-0.125,0.224-0.27,0.297-0.438c0.069-0.168,0.105-0.35,0.105-0.535
				c0-0.189-0.036-0.367-0.105-0.533c-0.073-0.168-0.17-0.313-0.297-0.438c-0.125-0.125-0.271-0.226-0.438-0.3
				C57.834,77.479,57.656,77.441,57.466,77.441"/>
			<polygon fill="#FFFFFF" points="61.121,78.154 61.121,80.684 60.544,80.684 60.544,76.788 63.338,79.508 63.338,76.961 
				63.915,76.961 63.915,80.875 			"/>
			<path fill="#FFFFFF" d="M68.962,80.756c-0.219,0-0.408-0.023-0.569-0.07s-0.303-0.104-0.419-0.182
				c-0.111-0.07-0.212-0.154-0.285-0.248c-0.077-0.09-0.141-0.18-0.186-0.268c-0.052-0.096-0.092-0.193-0.121-0.289
				c-0.025-0.1-0.05-0.191-0.063-0.279c-0.016-0.086-0.021-0.164-0.021-0.234c-0.001-0.068-0.002-0.123-0.002-0.162v-2.063h0.577
				v2.063c0,0.031,0,0.074,0.003,0.127c0.001,0.055,0.007,0.109,0.014,0.176c0.011,0.063,0.022,0.127,0.041,0.197
				c0.021,0.066,0.046,0.135,0.082,0.197c0.161,0.307,0.479,0.455,0.949,0.455c0.473,0,0.788-0.148,0.948-0.455
				c0.036-0.063,0.063-0.131,0.082-0.197c0.02-0.07,0.033-0.139,0.041-0.197c0.008-0.063,0.014-0.121,0.016-0.176
				c0.001-0.053,0.001-0.096,0.001-0.127v-2.063h0.578v2.063c0,0.039,0,0.094-0.003,0.162c-0.001,0.07-0.009,0.148-0.021,0.234
				c-0.016,0.088-0.034,0.182-0.063,0.279c-0.029,0.096-0.069,0.193-0.121,0.289c-0.045,0.088-0.104,0.178-0.183,0.268
				c-0.078,0.094-0.174,0.178-0.289,0.248c-0.115,0.074-0.255,0.135-0.416,0.182C69.37,80.732,69.18,80.756,68.962,80.756"/>
			<polygon fill="#FFFFFF" points="72.588,78.154 72.588,80.684 72.01,80.684 72.01,76.788 74.803,79.508 74.803,76.961 
				75.382,76.961 75.382,80.875 			"/>
			<polygon fill="#FFFFFF" points="79.563,78.434 78.926,80.775 78.367,80.625 79.404,76.827 80.781,79.577 82.153,76.823 
				83.198,80.629 82.639,80.782 81.994,78.43 80.781,80.868 			"/>
			<path fill="#FFFFFF" d="M85.862,80.756c-0.221,0-0.409-0.023-0.57-0.07c-0.162-0.047-0.301-0.104-0.417-0.182
				c-0.114-0.07-0.212-0.154-0.289-0.248c-0.076-0.09-0.137-0.18-0.182-0.268c-0.055-0.096-0.092-0.193-0.121-0.289
				c-0.03-0.1-0.051-0.191-0.063-0.279c-0.014-0.086-0.021-0.164-0.021-0.234c-0.003-0.068-0.004-0.123-0.004-0.162v-2.063h0.579
				v2.063c0,0.031,0.001,0.074,0.002,0.127c0.002,0.055,0.008,0.109,0.015,0.176c0.008,0.063,0.022,0.127,0.041,0.197
				c0.021,0.066,0.047,0.135,0.082,0.197c0.161,0.307,0.478,0.455,0.948,0.455c0.473,0,0.789-0.148,0.946-0.455
				c0.036-0.063,0.063-0.131,0.083-0.197c0.021-0.07,0.032-0.139,0.04-0.197c0.01-0.064,0.016-0.121,0.018-0.176
				c0.001-0.053,0.003-0.096,0.003-0.127v-2.063h0.578v2.063c0,0.039-0.002,0.094-0.004,0.162c-0.001,0.07-0.011,0.148-0.021,0.234
				c-0.012,0.088-0.032,0.182-0.063,0.279c-0.028,0.096-0.069,0.193-0.12,0.289c-0.046,0.088-0.105,0.178-0.186,0.268
				c-0.074,0.094-0.174,0.178-0.289,0.248c-0.113,0.074-0.255,0.135-0.417,0.182C86.271,80.732,86.081,80.756,85.862,80.756"/>
			<polygon fill="#FFFFFF" points="89.489,78.154 89.489,80.684 88.91,80.684 88.91,76.788 91.703,79.508 91.703,76.961 
				92.281,76.961 92.281,80.875 			"/>
			<path fill="#FFFFFF" d="M94.839,80.684h-1.295v-3.723h1.295c0.267,0,0.513,0.045,0.747,0.137s0.439,0.227,0.615,0.396
				c0.174,0.174,0.307,0.373,0.396,0.598c0.098,0.227,0.145,0.463,0.145,0.713c0,0.258-0.047,0.5-0.133,0.726
				c-0.089,0.224-0.221,0.425-0.393,0.597c-0.168,0.176-0.371,0.313-0.604,0.41C95.37,80.633,95.112,80.684,94.839,80.684
				 M94.121,80.107h0.718c0.196,0,0.375-0.032,0.537-0.101c0.162-0.063,0.301-0.151,0.42-0.266c0.115-0.115,0.207-0.252,0.271-0.41
				c0.063-0.16,0.097-0.334,0.097-0.526c0-0.185-0.032-0.353-0.1-0.507c-0.066-0.151-0.157-0.289-0.276-0.399
				c-0.118-0.112-0.259-0.203-0.419-0.269c-0.161-0.063-0.338-0.092-0.53-0.092h-0.718V80.107z"/>
			<path fill="#FFFFFF" d="M99.592,80.775c-0.264,0-0.517-0.051-0.76-0.153c-0.231-0.097-0.438-0.236-0.622-0.418
				c-0.184-0.185-0.323-0.392-0.419-0.621c-0.103-0.244-0.154-0.498-0.154-0.763c0-0.264,0.055-0.521,0.154-0.762
				c0.096-0.229,0.235-0.438,0.419-0.619c0.187-0.187,0.391-0.323,0.622-0.42c0.243-0.104,0.496-0.156,0.76-0.156
				c0.268,0,0.521,0.054,0.765,0.156c0.229,0.097,0.438,0.233,0.618,0.42c0.187,0.183,0.322,0.39,0.423,0.619
				c0.102,0.241,0.15,0.498,0.15,0.762c0,0.265-0.052,0.519-0.15,0.763c-0.101,0.229-0.236,0.438-0.423,0.621
				c-0.183,0.182-0.39,0.321-0.618,0.418C100.11,80.725,99.857,80.775,99.592,80.775 M99.592,77.441
				c-0.188,0-0.366,0.037-0.534,0.106c-0.167,0.074-0.313,0.175-0.438,0.3c-0.126,0.125-0.225,0.271-0.297,0.438
				c-0.072,0.166-0.108,0.344-0.108,0.533c0,0.188,0.036,0.367,0.108,0.535s0.171,0.313,0.297,0.438
				c0.124,0.125,0.271,0.227,0.438,0.297c0.168,0.072,0.349,0.109,0.534,0.109c0.189,0,0.368-0.037,0.535-0.109
				c0.167-0.07,0.313-0.172,0.438-0.297c0.126-0.125,0.226-0.27,0.297-0.438c0.069-0.168,0.104-0.35,0.104-0.535
				c0-0.189-0.035-0.367-0.104-0.533c-0.071-0.168-0.171-0.313-0.297-0.438c-0.125-0.125-0.271-0.226-0.438-0.3
				C99.96,77.479,99.781,77.441,99.592,77.441"/>
			<polygon fill="#FFFFFF" points="105.483,78.434 104.847,80.775 104.288,80.625 105.323,76.827 106.701,79.577 108.074,76.823 
				109.119,80.629 108.559,80.782 107.914,78.43 106.701,80.868 			"/>
			<polygon fill="#FFFFFF" points="110.655,77.542 110.655,78.456 112.254,78.456 112.254,79.032 110.655,79.032 110.655,80.105 
				112.306,80.105 112.306,80.684 110.075,80.684 110.075,76.961 112.306,76.961 112.306,77.542 			"/>
			<path fill="#FFFFFF" d="M114.509,80.756c-0.168,0-0.313-0.02-0.437-0.059s-0.229-0.086-0.318-0.143
				c-0.088-0.059-0.161-0.115-0.219-0.174c-0.058-0.063-0.104-0.107-0.135-0.146l-0.018-0.008l0.444-0.377l0.008,0.008
				c0.026,0.033,0.06,0.064,0.092,0.104c0.036,0.037,0.08,0.07,0.136,0.104c0.054,0.035,0.112,0.059,0.188,0.08
				c0.074,0.021,0.159,0.029,0.259,0.029c0.388,0,0.645-0.111,0.771-0.342c0.059-0.102,0.092-0.199,0.104-0.301
				c0.014-0.104,0.02-0.18,0.02-0.229V79.26v-2.303h0.578v2.318v0.014v0.027c0,0.031-0.002,0.076-0.009,0.135
				c-0.003,0.06-0.011,0.123-0.021,0.195c-0.014,0.07-0.032,0.146-0.061,0.229c-0.022,0.082-0.063,0.162-0.108,0.242
				c-0.042,0.072-0.096,0.146-0.163,0.223c-0.068,0.074-0.152,0.143-0.254,0.201c-0.104,0.063-0.224,0.109-0.363,0.148
				C114.858,80.738,114.695,80.756,114.509,80.756"/>
			<path fill="#FFFFFF" d="M118.987,80.775c-0.266,0-0.519-0.051-0.763-0.153c-0.229-0.097-0.438-0.236-0.619-0.418
				c-0.187-0.185-0.322-0.392-0.422-0.621c-0.102-0.244-0.151-0.498-0.151-0.763c0-0.264,0.053-0.521,0.151-0.762
				c0.1-0.229,0.235-0.438,0.422-0.619c0.184-0.187,0.391-0.323,0.619-0.42c0.244-0.104,0.497-0.156,0.763-0.156
				c0.264,0,0.518,0.054,0.762,0.156c0.231,0.097,0.438,0.233,0.622,0.42c0.182,0.183,0.322,0.39,0.418,0.619
				c0.103,0.241,0.154,0.498,0.154,0.762c0,0.265-0.055,0.519-0.154,0.763c-0.096,0.229-0.236,0.438-0.418,0.621
				c-0.188,0.182-0.391,0.321-0.622,0.418C119.504,80.725,119.25,80.775,118.987,80.775 M118.987,77.441
				c-0.188,0-0.367,0.037-0.533,0.106c-0.167,0.074-0.313,0.175-0.439,0.3c-0.125,0.125-0.224,0.271-0.296,0.438
				c-0.069,0.166-0.105,0.344-0.105,0.533c0,0.188,0.036,0.367,0.105,0.535c0.072,0.168,0.171,0.313,0.296,0.438
				c0.126,0.125,0.272,0.227,0.439,0.297c0.166,0.072,0.345,0.109,0.533,0.109c0.188,0,0.367-0.037,0.535-0.109
				c0.167-0.07,0.313-0.172,0.438-0.297c0.126-0.125,0.223-0.27,0.296-0.438c0.072-0.168,0.107-0.35,0.107-0.535
				c0-0.189-0.035-0.367-0.107-0.533c-0.073-0.168-0.17-0.313-0.296-0.438c-0.125-0.125-0.271-0.226-0.438-0.3
				C119.354,77.479,119.176,77.441,118.987,77.441"/>
			<path fill="#FFFFFF" d="M124.233,80.805l-1.065-1.271h-0.607v1.147h-0.575V76.96h1.231c0.41,0,0.744,0.099,1.001,0.297
				c0.146,0.109,0.254,0.244,0.325,0.402c0.073,0.159,0.108,0.336,0.108,0.53c0,0.188-0.031,0.362-0.099,0.53
				c-0.065,0.16-0.162,0.302-0.281,0.425c-0.131,0.125-0.275,0.22-0.438,0.278l0.843,1.002L124.233,80.805z M122.559,78.956h0.656
				c0.134,0.006,0.257-0.013,0.368-0.052c0.11-0.04,0.204-0.098,0.281-0.17c0.139-0.142,0.207-0.317,0.207-0.541
				c0-0.211-0.07-0.37-0.212-0.479c-0.073-0.055-0.165-0.098-0.274-0.127c-0.11-0.032-0.23-0.045-0.37-0.045h-0.656V78.956z"/>
		</g>
	</g>
	
		<linearGradient id="SVGID_7_" gradientUnits="userSpaceOnUse" x1="62.6096" y1="-718.1792" x2="82.376" y2="-638.6742" gradientTransform="matrix(1 0 0 -1 0.4805 -637.5576)">
		<stop  offset="0" style="stop-color:#FFFFFF;stop-opacity:0.7"/>
		<stop  offset="0.7944" style="stop-color:#FFFFFF;stop-opacity:0"/>
	</linearGradient>
	<path opacity="0.38" fill="url(#SVGID_7_)" enable-background="new    " d="M151.797,0v58.249
		C128.007,75.1,88.776,78.938,49.434,65.57C29.985,58.96,13.114,49.028-0.01,37.304V0H151.797z"/>
</g>
</svg>
