<?xml version="1.0" encoding="utf-8"?>
<!-- Generator: Adobe Illustrator 16.0.0, SVG Export Plug-In . SVG Version: 6.00 Build 0)  -->
<!DOCTYPE svg PUBLIC "-//W3C//DTD SVG 1.1//EN" "http://www.w3.org/Graphics/SVG/1.1/DTD/svg11.dtd">
<svg version="1.1" id="Layer_1" xmlns="http://www.w3.org/2000/svg" xmlns:xlink="http://www.w3.org/1999/xlink" x="0px" y="0px"
	 width="151.797px" height="103.168px" viewBox="0 0 151.797 103.168" enable-background="new 0 0 151.797 103.168"
	 xml:space="preserve">
<g>
	<g>
		<polygon fill="#005F92" points="151.906,87.178 76.002,103.168 0.098,87.178 0.098,-0.001 151.906,-0.001 		"/>
		<g>
			<path fill="none" stroke="#FFFFFF" stroke-width="2.6438" d="M95.85,20.492c3.687,11.062-2.18,22.971-13.096,26.607
				c-10.919,3.629-22.758-2.386-26.439-13.439C52.631,22.607,58.501,10.688,69.42,7.058C80.336,3.42,92.176,9.433,95.85,20.492z"/>
			<g>
				<defs>
					<path id="SVGID_1_" d="M69.42,7.058c-10.918,3.63-16.789,15.549-13.105,26.602c3.681,11.054,15.52,17.068,26.439,13.439
						C93.67,43.463,99.536,31.553,95.85,20.492C92.902,11.62,84.7,5.996,75.935,5.996C73.774,5.996,71.578,6.337,69.42,7.058"/>
				</defs>
				<clipPath id="SVGID_2_">
					<use xlink:href="#SVGID_1_"  overflow="visible"/>
				</clipPath>
				
					<radialGradient id="SVGID_3_" cx="-343.3599" cy="355.3516" r="0.6423" gradientTransform="matrix(18.63 27.1351 27.1351 -18.63 -3178.5498 15951.1484)" gradientUnits="userSpaceOnUse">
					<stop  offset="0" style="stop-color:#00AEEF"/>
					<stop  offset="0.6496" style="stop-color:#0076BD"/>
					<stop  offset="1" style="stop-color:#005DA6"/>
				</radialGradient>
				<polygon clip-path="url(#SVGID_2_)" fill="url(#SVGID_3_)" points="84.51,-15.891 120.408,36.397 67.66,72.613 31.759,20.326 
									"/>
			</g>
			<g>
				<defs>
					<path id="SVGID_4_" d="M69.241,12.096c-7.896,4.118-11.062,13.968-7.067,22.007C66.16,42.136,75.796,45.312,83.69,41.2
						c3.548-1.852,6.141-4.87,7.558-8.35c-5.284,2.477-11.233,1.778-15.728-1.372c1.182-1.236,1.632-2.677,1.632-2.677
						c-12.764-2.525-7.301-16.811-7.301-16.811c-0.047,0.073-0.095,0.138-0.146,0.212c0.052-0.133,0.099-0.268,0.151-0.403
						C69.65,11.895,69.443,11.99,69.241,12.096"/>
				</defs>
				<clipPath id="SVGID_5_">
					<use xlink:href="#SVGID_4_"  overflow="visible"/>
				</clipPath>
				
					<radialGradient id="SVGID_6_" cx="-343.354" cy="355.3613" r="0.6423" gradientTransform="matrix(18.6302 27.1354 27.1354 -18.6302 -3178.9092 15951.3379)" gradientUnits="userSpaceOnUse">
					<stop  offset="0" style="stop-color:#FFFFFF"/>
					<stop  offset="0.4197" style="stop-color:#EAEBEB"/>
					<stop  offset="1" style="stop-color:#D1D3D4"/>
				</radialGradient>
				<polygon clip-path="url(#SVGID_5_)" fill="url(#SVGID_6_)" points="80.654,-3.63 106.883,34.576 68.772,60.743 42.543,22.536 
									"/>
			</g>
			<path fill="#FFFFFF" d="M36.621,60.831c-0.844-4.401-3.214-6.433-6.938-6.433c-4.399,0-8.123,2.709-8.123,10.834
				c0,5.077,2.368,10.153,8.123,10.153c3.384,0,5.754-1.692,7.617-4.738l0.677,0.507c-2.2,4.231-5.247,5.586-9.311,5.586
				c-6.43,0-10.493-5.077-10.493-11.508c0-6.771,4.74-12.187,10.493-12.187c3.726,0,6.569,1.217,7.786,2.709
				C37.3,56.77,37.3,58.8,37.3,60.831H36.621z"/>
			<path fill="#FFFFFF" d="M58.285,72.001c0,2.029,0.339,3.385,2.37,3.385h0.675v0.679h-3.045c-2.368,0-3.045-0.679-3.045-4.063
				v-6.769H45.083v10.832h-3.046V57.783c0-2.028-0.338-3.385-2.37-3.385h-0.676v-0.677h3.045c2.37,0,3.046,0.677,3.046,4.062v6.094
				h10.156V53.722h3.045V72.001z"/>
			<path fill="#FFFFFF" d="M84.009,76.064c-0.338,0.101-0.848,0.168-1.354,0.168c-1.521,0-4.265-0.508-5.755-4.401l-0.845-2.198
				h-9.478l-2.707,6.432h-1.525l9.479-22.342h1.015l7.449,18.108c1.047,2.541,1.859,3.386,3.722,3.555V76.064z M67.085,68.276h8.292
				l-4.062-9.815L67.085,68.276z"/>
			<path fill="#FFFFFF" d="M86.037,53.722h3.046v18.279c0,2.029,0.341,3.385,2.37,3.385h0.678v0.679h-3.048
				c-2.368,0-3.046-0.679-3.046-4.063V53.722z"/>
			<path fill="#FFFFFF" d="M101.675,53.722c8.938,0,13.304,4.266,13.304,11.035c0,6.601-4.232,11.308-12.423,11.308h-6.701V57.783
				c0-2.028-0.34-3.385-2.371-3.385h-0.678v-0.677H101.675z M99.001,74.438c1.389,0.307,2.539,0.441,3.453,0.441
				c5.008,0,8.835-3.858,8.835-9.985c0-5.991-3.726-9.984-8.903-9.984c-0.981,0-2.165,0.169-3.385,0.54V74.438z"/>
			<path fill="#FFFFFF" d="M130.75,53.722c2.37,0,2.878,1.354,2.878,2.708v2.541h-0.677c0-2.708-1.523-3.895-4.232-3.895h-6.296
				v8.801h9.142v1.355h-9.142v9.479h5.924c3.048,0,4.738-1.018,5.755-3.727l0.678,0.171l-1.186,3.217
				c-0.372,1.014-1.184,1.692-2.538,1.692h-11.679V57.783c0-2.028-0.339-3.385-2.367-3.385h-0.679v-0.677H130.75z"/>
			<path fill="#FFFFFF" d="M19.887,84.448h-0.106c-0.16-0.004-0.317-0.025-0.476-0.066c-0.16-0.041-0.313-0.102-0.458-0.179
				c-0.15-0.08-0.285-0.175-0.4-0.286c-0.115-0.11-0.207-0.227-0.273-0.351l0.622-0.318c0.03,0.056,0.077,0.116,0.144,0.176
				c0.065,0.061,0.144,0.113,0.233,0.161c0.089,0.05,0.185,0.091,0.294,0.122c0.105,0.028,0.216,0.045,0.332,0.045h0.012h0.012
				c0.09,0.008,0.201-0.001,0.33-0.03c0.127-0.027,0.254-0.071,0.374-0.139c0.255-0.143,0.391-0.333,0.405-0.573
				c0.011-0.155-0.026-0.279-0.116-0.372c-0.086-0.094-0.211-0.166-0.378-0.216c-0.165-0.054-0.354-0.08-0.563-0.08
				c-0.058,0-0.146-0.002-0.254-0.013c-0.108-0.008-0.226-0.027-0.348-0.057c-0.309-0.078-0.553-0.207-0.732-0.389
				c-0.102-0.113-0.174-0.239-0.223-0.381c-0.052-0.142-0.073-0.296-0.066-0.461c0.019-0.336,0.137-0.617,0.36-0.835
				c0.092-0.097,0.2-0.179,0.325-0.245c0.125-0.065,0.259-0.116,0.407-0.15c0.181-0.042,0.367-0.059,0.556-0.05
				c0.188,0.012,0.376,0.042,0.558,0.097c0.195,0.063,0.37,0.151,0.521,0.259c0.148,0.105,0.261,0.232,0.343,0.379l-0.602,0.344
				c-0.04-0.067-0.097-0.127-0.18-0.182c-0.082-0.054-0.181-0.099-0.289-0.133c-0.122-0.041-0.245-0.063-0.377-0.066
				c-0.129-0.008-0.254,0.004-0.374,0.031c-0.351,0.082-0.534,0.279-0.551,0.592c-0.009,0.089,0,0.16,0.026,0.207
				c0.026,0.047,0.049,0.086,0.071,0.112c0.092,0.088,0.214,0.151,0.372,0.189c0.16,0.035,0.313,0.055,0.458,0.055
				c0.316,0,0.596,0.044,0.845,0.134c0.25,0.088,0.452,0.217,0.607,0.382c0.233,0.247,0.332,0.55,0.301,0.907
				c-0.022,0.258-0.111,0.489-0.262,0.689c-0.129,0.174-0.294,0.319-0.499,0.436c-0.148,0.081-0.306,0.144-0.48,0.188
				C20.216,84.426,20.047,84.448,19.887,84.448"/>
			<path fill="#FFFFFF" d="M24.738,84.438c-0.263,0-0.492-0.028-0.687-0.086c-0.195-0.056-0.365-0.127-0.502-0.217
				c-0.141-0.087-0.256-0.188-0.351-0.299c-0.094-0.109-0.164-0.216-0.219-0.323c-0.063-0.114-0.11-0.232-0.146-0.347
				c-0.035-0.121-0.061-0.232-0.075-0.338c-0.014-0.104-0.023-0.197-0.025-0.283c-0.003-0.084-0.003-0.15-0.003-0.196v-2.484h0.697
				v2.484c0,0.039,0,0.089,0.002,0.153c0.002,0.063,0.007,0.134,0.016,0.209c0.01,0.075,0.026,0.153,0.05,0.24
				c0.023,0.081,0.057,0.16,0.099,0.239c0.192,0.368,0.574,0.549,1.144,0.549c0.569,0,0.951-0.181,1.142-0.549
				c0.044-0.079,0.077-0.158,0.101-0.239c0.021-0.087,0.04-0.165,0.049-0.24c0.007-0.075,0.014-0.146,0.017-0.209
				c0-0.064,0.002-0.114,0.002-0.153v-2.484h0.696v2.484c0,0.046-0.002,0.112-0.002,0.196c-0.002,0.086-0.012,0.18-0.026,0.283
				c-0.016,0.105-0.042,0.217-0.077,0.338c-0.033,0.114-0.083,0.232-0.144,0.347c-0.054,0.107-0.127,0.214-0.219,0.323
				c-0.094,0.11-0.209,0.212-0.349,0.299c-0.141,0.09-0.309,0.161-0.503,0.217C25.23,84.409,25.001,84.438,24.738,84.438"/>
			<polygon fill="#FFFFFF" points="29.033,80.563 29.033,81.663 30.958,81.663 30.958,82.359 29.033,82.359 29.033,83.653 
				31.024,83.653 31.024,84.35 28.334,84.35 28.334,79.864 31.024,79.864 31.024,80.563 			"/>
			<path fill="#FFFFFF" d="M33.234,81.304v3.047h-0.696v-4.697l3.366,3.28v-3.069H36.6v4.718L33.234,81.304z M34.953,80.147
				c-0.12,0-0.233-0.021-0.336-0.065c-0.106-0.047-0.198-0.109-0.28-0.188l-0.068-0.072c-0.036-0.034-0.078-0.051-0.13-0.051
				c-0.014,0-0.033,0.003-0.054,0.009c-0.021,0.006-0.042,0.018-0.059,0.037c-0.019,0.019-0.04,0.042-0.073,0.079
				c-0.028,0.035-0.063,0.077-0.104,0.125l-0.532-0.451c0.031-0.033,0.066-0.071,0.106-0.118c0.04-0.046,0.073-0.085,0.101-0.116
				c0.078-0.082,0.169-0.149,0.278-0.192c0.106-0.041,0.217-0.063,0.332-0.068h0.004c0.118,0,0.231,0.021,0.339,0.067
				c0.108,0.043,0.202,0.107,0.282,0.188l0.07,0.07c0.021,0.023,0.04,0.037,0.063,0.043c0.024,0.006,0.042,0.009,0.059,0.009
				c0.012,0,0.029-0.003,0.052-0.009c0.021-0.006,0.044-0.02,0.069-0.043c0.027-0.027,0.056-0.059,0.089-0.095
				c0.031-0.032,0.057-0.064,0.08-0.091l0.535,0.439c-0.012,0.021-0.038,0.055-0.083,0.104c-0.04,0.048-0.084,0.095-0.127,0.137
				c-0.084,0.079-0.179,0.142-0.285,0.188C35.179,80.127,35.068,80.147,34.953,80.147"/>
			<path fill="#FFFFFF" d="M41.51,84.5l-0.598-1.252h-1.888L38.434,84.5l-0.626-0.297l2.158-4.57l2.173,4.57L41.51,84.5z
				 M39.357,82.551h1.224l-0.615-1.295L39.357,82.551z"/>
			<path fill="#FFFFFF" d="M47.917,84.438c-0.313,0-0.616-0.063-0.904-0.188c-0.277-0.115-0.527-0.28-0.744-0.498
				c-0.216-0.217-0.383-0.465-0.499-0.743c-0.125-0.291-0.187-0.593-0.187-0.905c0-0.313,0.062-0.617,0.187-0.912
				c0.115-0.28,0.282-0.525,0.499-0.735c0.214-0.212,0.461-0.38,0.744-0.507c0.142-0.061,0.288-0.105,0.44-0.134
				c0.15-0.03,0.306-0.045,0.463-0.045c0.32,0,0.626,0.059,0.914,0.179c0.134,0.062,0.264,0.135,0.388,0.217
				c0.123,0.082,0.24,0.175,0.346,0.283l-0.485,0.492c-0.16-0.153-0.339-0.271-0.535-0.352c-0.197-0.082-0.407-0.125-0.628-0.125
				c-0.223,0-0.435,0.045-0.633,0.13c-0.202,0.087-0.375,0.202-0.522,0.351c-0.146,0.151-0.264,0.323-0.351,0.523
				c-0.087,0.199-0.13,0.412-0.13,0.635c0,0.224,0.042,0.436,0.13,0.636c0.087,0.2,0.205,0.372,0.351,0.52
				c0.148,0.147,0.32,0.265,0.522,0.352c0.198,0.086,0.41,0.129,0.633,0.129c0.222,0,0.431-0.04,0.628-0.119
				c0.196-0.083,0.375-0.2,0.535-0.354l0.485,0.486c-0.214,0.218-0.461,0.383-0.734,0.498C48.536,84.375,48.23,84.438,47.917,84.438
				"/>
			<path fill="#FFFFFF" d="M53.001,84.461c-0.315,0-0.621-0.063-0.916-0.187c-0.278-0.115-0.529-0.286-0.748-0.504
				c-0.221-0.222-0.389-0.472-0.506-0.749c-0.123-0.295-0.186-0.6-0.186-0.918c0-0.317,0.063-0.624,0.186-0.918
				c0.118-0.277,0.285-0.527,0.506-0.746c0.219-0.222,0.47-0.391,0.748-0.507c0.295-0.124,0.601-0.188,0.916-0.188
				c0.317,0,0.626,0.063,0.917,0.188c0.278,0.116,0.527,0.285,0.749,0.507c0.221,0.219,0.39,0.469,0.506,0.746
				c0.125,0.294,0.186,0.601,0.186,0.918c0,0.318-0.061,0.623-0.186,0.918c-0.116,0.277-0.285,0.527-0.506,0.749
				c-0.222,0.218-0.471,0.389-0.749,0.504C53.627,84.398,53.318,84.461,53.001,84.461 M53.001,80.441
				c-0.229,0-0.442,0.045-0.643,0.132c-0.203,0.09-0.379,0.207-0.53,0.358c-0.15,0.15-0.269,0.326-0.355,0.528
				c-0.087,0.201-0.132,0.415-0.132,0.644c0,0.227,0.045,0.443,0.132,0.645c0.087,0.203,0.205,0.378,0.355,0.527
				c0.151,0.15,0.327,0.271,0.53,0.357c0.2,0.087,0.414,0.132,0.643,0.132s0.445-0.045,0.645-0.132
				c0.2-0.086,0.376-0.207,0.527-0.357c0.153-0.149,0.271-0.324,0.357-0.527c0.088-0.201,0.132-0.418,0.132-0.645
				c0-0.229-0.044-0.442-0.132-0.644c-0.087-0.202-0.204-0.378-0.357-0.528c-0.151-0.151-0.327-0.269-0.527-0.358
				C53.446,80.486,53.229,80.441,53.001,80.441"/>
			<polygon fill="#FFFFFF" points="57.407,81.302 57.407,84.35 56.71,84.35 56.71,79.653 60.078,82.934 60.078,79.864 
				60.772,79.864 60.772,84.582 			"/>
			<path fill="#FFFFFF" d="M66.854,84.438c-0.264,0-0.492-0.028-0.685-0.086c-0.198-0.056-0.365-0.127-0.506-0.217
				c-0.136-0.087-0.254-0.188-0.346-0.299c-0.095-0.109-0.167-0.216-0.222-0.323c-0.061-0.114-0.11-0.232-0.146-0.347
				c-0.033-0.121-0.059-0.232-0.075-0.338c-0.014-0.104-0.023-0.197-0.026-0.283c0-0.084-0.002-0.15-0.002-0.196v-2.484h0.697v2.484
				c0,0.039,0,0.089,0.002,0.153c0.002,0.063,0.009,0.134,0.017,0.209c0.009,0.075,0.028,0.153,0.049,0.24
				c0.023,0.081,0.056,0.16,0.099,0.239c0.195,0.368,0.576,0.549,1.144,0.549c0.57,0,0.951-0.181,1.144-0.549
				c0.043-0.079,0.076-0.158,0.099-0.239c0.023-0.087,0.04-0.165,0.05-0.24c0.009-0.075,0.016-0.146,0.019-0.209
				c0-0.064,0-0.114,0-0.153v-2.484h0.696v2.484c0,0.046,0,0.112-0.002,0.196c-0.002,0.086-0.012,0.18-0.026,0.283
				c-0.014,0.105-0.04,0.217-0.075,0.338c-0.036,0.114-0.083,0.232-0.146,0.347c-0.054,0.107-0.127,0.214-0.219,0.323
				c-0.094,0.11-0.21,0.212-0.349,0.299c-0.139,0.09-0.308,0.161-0.501,0.217C67.347,84.409,67.119,84.438,66.854,84.438"/>
			<polygon fill="#FFFFFF" points="71.225,81.302 71.225,84.35 70.529,84.35 70.529,79.653 73.895,82.934 73.895,79.864 
				74.591,79.864 74.591,84.582 			"/>
			<polygon fill="#FFFFFF" points="79.63,81.638 78.863,84.461 78.189,84.278 79.438,79.7 81.097,83.014 82.752,79.695 
				84.011,84.286 83.337,84.466 82.561,81.635 81.097,84.569 			"/>
			<path fill="#FFFFFF" d="M87.221,84.438c-0.264,0-0.494-0.028-0.687-0.086c-0.196-0.056-0.363-0.127-0.505-0.217
				c-0.136-0.087-0.254-0.188-0.348-0.299c-0.092-0.109-0.165-0.216-0.219-0.323c-0.062-0.114-0.111-0.232-0.146-0.347
				c-0.036-0.121-0.062-0.232-0.074-0.338c-0.017-0.104-0.025-0.197-0.027-0.283c-0.002-0.084-0.005-0.15-0.005-0.196v-2.484h0.698
				v2.484c0,0.039,0,0.089,0.004,0.153c0.002,0.063,0.009,0.134,0.016,0.209c0.01,0.075,0.028,0.153,0.05,0.24
				c0.025,0.081,0.056,0.16,0.1,0.239c0.194,0.368,0.575,0.549,1.143,0.549c0.569,0,0.951-0.181,1.145-0.549
				c0.042-0.079,0.075-0.158,0.099-0.239c0.023-0.087,0.04-0.165,0.049-0.24c0.008-0.075,0.015-0.146,0.017-0.209
				c0.003-0.064,0.005-0.114,0.005-0.153v-2.484h0.697v2.484c0,0.046-0.003,0.112-0.005,0.196c-0.002,0.086-0.01,0.18-0.026,0.283
				c-0.014,0.105-0.04,0.217-0.075,0.338c-0.035,0.114-0.084,0.232-0.146,0.347c-0.055,0.107-0.127,0.214-0.22,0.323
				c-0.093,0.11-0.209,0.212-0.348,0.299c-0.141,0.09-0.309,0.161-0.504,0.217C87.712,84.409,87.485,84.438,87.221,84.438"/>
			<polygon fill="#FFFFFF" points="91.592,81.302 91.592,84.35 90.895,84.35 90.895,79.653 94.261,82.934 94.261,79.864 
				94.957,79.864 94.957,84.582 			"/>
			<path fill="#FFFFFF" d="M98.038,84.351h-1.56v-4.486h1.56c0.318,0,0.619,0.055,0.902,0.164c0.281,0.109,0.528,0.27,0.741,0.479
				c0.209,0.209,0.369,0.448,0.48,0.721c0.114,0.271,0.171,0.557,0.171,0.857c0,0.311-0.057,0.601-0.16,0.873
				c-0.108,0.269-0.263,0.51-0.47,0.717c-0.203,0.214-0.448,0.376-0.73,0.494C98.679,84.289,98.368,84.351,98.038,84.351
				 M97.175,83.654h0.863c0.238,0,0.452-0.04,0.647-0.117s0.362-0.185,0.506-0.321c0.14-0.138,0.25-0.303,0.328-0.493
				c0.076-0.193,0.116-0.403,0.116-0.637c0-0.22-0.04-0.423-0.119-0.609c-0.08-0.186-0.19-0.348-0.335-0.483
				c-0.141-0.137-0.31-0.245-0.503-0.32c-0.195-0.075-0.408-0.11-0.641-0.11h-0.863V83.654z"/>
			<path fill="#FFFFFF" d="M103.768,84.461c-0.317,0-0.624-0.063-0.916-0.187c-0.28-0.115-0.529-0.286-0.75-0.504
				c-0.222-0.222-0.389-0.472-0.505-0.749c-0.124-0.295-0.186-0.6-0.186-0.918c0-0.317,0.062-0.624,0.186-0.918
				c0.116-0.277,0.283-0.527,0.505-0.746c0.221-0.222,0.47-0.391,0.75-0.507c0.292-0.124,0.599-0.188,0.916-0.188
				s0.623,0.063,0.917,0.188c0.278,0.116,0.528,0.285,0.749,0.507c0.221,0.219,0.389,0.469,0.506,0.746
				c0.123,0.294,0.184,0.601,0.184,0.918c0,0.318-0.061,0.623-0.184,0.918c-0.117,0.277-0.285,0.527-0.506,0.749
				c-0.221,0.218-0.471,0.389-0.749,0.504C104.391,84.398,104.085,84.461,103.768,84.461 M103.768,80.441
				c-0.229,0-0.442,0.045-0.645,0.132c-0.201,0.09-0.377,0.207-0.528,0.358c-0.15,0.15-0.271,0.326-0.357,0.528
				c-0.087,0.201-0.129,0.415-0.129,0.644c0,0.227,0.042,0.443,0.129,0.645c0.087,0.203,0.207,0.378,0.357,0.527
				c0.151,0.15,0.327,0.271,0.528,0.357c0.202,0.087,0.416,0.132,0.645,0.132s0.441-0.045,0.645-0.132
				c0.2-0.086,0.376-0.207,0.527-0.357c0.15-0.149,0.271-0.324,0.357-0.527c0.087-0.201,0.13-0.418,0.13-0.645
				c0-0.229-0.043-0.442-0.13-0.644c-0.086-0.202-0.207-0.378-0.357-0.528c-0.151-0.151-0.327-0.269-0.527-0.358
				C104.209,80.486,103.996,80.441,103.768,80.441"/>
			<polygon fill="#FFFFFF" points="110.866,81.638 110.102,84.461 109.425,84.278 110.674,79.7 112.335,83.014 113.989,79.695 
				115.249,84.286 114.573,84.466 113.796,81.635 112.335,84.569 			"/>
			<polygon fill="#FFFFFF" points="117.099,80.563 117.099,81.663 119.026,81.663 119.026,82.359 117.099,82.359 117.099,83.653 
				119.09,83.653 119.09,84.35 116.399,84.35 116.399,79.864 119.09,79.864 119.09,80.563 			"/>
			<path fill="#FFFFFF" d="M121.742,84.438c-0.203,0-0.377-0.022-0.524-0.069c-0.15-0.049-0.277-0.104-0.385-0.173
				c-0.105-0.066-0.194-0.137-0.263-0.207c-0.071-0.073-0.124-0.131-0.162-0.178l-0.02-0.01l0.537-0.455l0.009,0.011
				c0.031,0.04,0.069,0.081,0.111,0.127c0.042,0.044,0.096,0.084,0.159,0.123c0.063,0.041,0.14,0.069,0.227,0.096
				c0.088,0.025,0.19,0.037,0.311,0.037c0.464,0,0.775-0.136,0.928-0.411c0.07-0.12,0.11-0.24,0.127-0.362
				c0.012-0.123,0.019-0.213,0.019-0.275v-0.053v-2.773h0.697v2.795v0.015v0.035c0,0.037-0.002,0.092-0.008,0.16
				c-0.002,0.071-0.011,0.147-0.028,0.236c-0.017,0.087-0.037,0.177-0.067,0.278c-0.031,0.1-0.076,0.196-0.135,0.292
				c-0.052,0.09-0.114,0.179-0.197,0.269c-0.082,0.088-0.184,0.169-0.306,0.242c-0.123,0.076-0.267,0.133-0.438,0.182
				C122.164,84.415,121.966,84.438,121.742,84.438"/>
			<path fill="#FFFFFF" d="M127.14,84.461c-0.317,0-0.622-0.063-0.915-0.187c-0.281-0.115-0.53-0.286-0.752-0.504
				c-0.221-0.222-0.388-0.472-0.504-0.749c-0.122-0.295-0.186-0.6-0.186-0.918c0-0.317,0.063-0.624,0.186-0.918
				c0.116-0.277,0.283-0.527,0.504-0.746c0.222-0.222,0.471-0.391,0.752-0.507c0.293-0.124,0.598-0.188,0.915-0.188
				s0.623,0.063,0.917,0.188c0.278,0.116,0.528,0.285,0.75,0.507c0.218,0.219,0.387,0.469,0.503,0.746
				c0.125,0.294,0.187,0.601,0.187,0.918c0,0.318-0.062,0.623-0.187,0.918c-0.116,0.277-0.285,0.527-0.503,0.749
				c-0.222,0.218-0.472,0.389-0.75,0.504C127.763,84.398,127.457,84.461,127.14,84.461 M127.14,80.441
				c-0.229,0-0.442,0.045-0.643,0.132c-0.203,0.09-0.379,0.207-0.53,0.358c-0.15,0.15-0.271,0.326-0.357,0.528
				c-0.087,0.201-0.129,0.415-0.129,0.644c0,0.227,0.042,0.443,0.129,0.645c0.087,0.203,0.207,0.378,0.357,0.527
				c0.151,0.15,0.327,0.271,0.53,0.357c0.2,0.087,0.414,0.132,0.643,0.132c0.228,0,0.441-0.045,0.645-0.132
				c0.2-0.086,0.376-0.207,0.528-0.357c0.152-0.149,0.267-0.324,0.357-0.527c0.086-0.201,0.129-0.418,0.129-0.645
				c0-0.229-0.043-0.442-0.129-0.644c-0.091-0.202-0.205-0.378-0.357-0.528c-0.152-0.151-0.328-0.269-0.528-0.358
				C127.581,80.486,127.367,80.441,127.14,80.441"/>
			<path fill="#FFFFFF" d="M133.461,84.495l-1.285-1.532h-0.731v1.387h-0.697v-4.485h1.488c0.494,0,0.896,0.119,1.207,0.358
				c0.175,0.133,0.306,0.295,0.391,0.485c0.09,0.192,0.133,0.404,0.133,0.641c0,0.226-0.038,0.438-0.116,0.64
				c-0.082,0.193-0.195,0.362-0.344,0.511c-0.153,0.151-0.332,0.263-0.527,0.338l1.015,1.206L133.461,84.495z M131.444,82.266h0.791
				c0.162,0.009,0.311-0.013,0.445-0.061c0.131-0.049,0.243-0.116,0.338-0.205c0.167-0.167,0.25-0.384,0.25-0.651
				c0-0.254-0.085-0.448-0.257-0.579c-0.088-0.066-0.197-0.118-0.329-0.154c-0.135-0.037-0.283-0.053-0.447-0.053h-0.791V82.266z"/>
		</g>
	</g>
	<linearGradient id="SVGID_7_" gradientUnits="userSpaceOnUse" x1="63.1992" y1="80.6182" x2="82.9653" y2="1.1144">
		<stop  offset="0" style="stop-color:#FFFFFF;stop-opacity:0.7"/>
		<stop  offset="0.7944" style="stop-color:#FFFFFF;stop-opacity:0"/>
	</linearGradient>
	<path opacity="0.38" fill="url(#SVGID_7_)" d="M151.906-0.001v58.248c-23.791,16.85-63.023,20.688-102.363,7.322
		C30.092,58.959,13.221,49.028,0.098,37.302V-0.001H151.906z"/>
</g>
<linearGradient id="SVGID_8_" gradientUnits="userSpaceOnUse" x1="-534.4702" y1="-1208.1973" x2="-514.7039" y2="-1128.6926" gradientTransform="matrix(1 0 0 -1 598.5605 -1128.71)">
	<stop  offset="0" style="stop-color:#FFFFFF;stop-opacity:0.7"/>
	<stop  offset="0.7944" style="stop-color:#FFFFFF;stop-opacity:0"/>
</linearGradient>
<path opacity="0.38" fill="url(#SVGID_8_)" enable-background="new    " d="M152.797-1.135v58.249
	c-23.79,16.851-63.021,20.688-102.363,7.321c-19.449-6.61-36.32-16.542-49.444-28.266V-1.135H152.797z"/>
</svg>
