<?xml version="1.0" encoding="utf-8"?>
<!-- Generator: Adobe Illustrator 16.0.0, SVG Export Plug-In . SVG Version: 6.00 Build 0)  -->
<!DOCTYPE svg PUBLIC "-//W3C//DTD SVG 1.1//EN" "http://www.w3.org/Graphics/SVG/1.1/DTD/svg11.dtd">
<svg version="1.1" id="Layer_1" xmlns="http://www.w3.org/2000/svg" xmlns:xlink="http://www.w3.org/1999/xlink" x="0px" y="0px"
	 width="151.797px" height="103.168px" viewBox="0 0 151.797 103.168" enable-background="new 0 0 151.797 103.168"
	 xml:space="preserve">
<polygon fill="#08819D" points="151.797,87.18 75.892,103.168 -0.011,87.18 -0.011,0 151.797,0 "/>
<g>
	<path fill="none" stroke="#FFFFFF" stroke-width="2.6438" d="M94.847,21.338c3.603,10.815-2.136,22.459-12.807,26.015
		C71.363,50.9,59.792,45.02,56.192,34.212c-3.6-10.806,2.139-22.46,12.814-26.009C79.68,4.646,91.252,10.526,94.847,21.338z"/>
	<g>
		<g>
			<g>
				<g>
					<g>
						<defs>
							<path id="SVGID_1_" d="M69.005,8.202c-10.676,3.55-16.415,15.203-12.814,26.01C59.795,45.02,71.365,50.9,82.04,47.351
								c10.675-3.555,16.408-15.199,12.805-26.014C91.964,12.663,83.938,7.163,75.374,7.163C73.261,7.164,71.114,7.499,69.005,8.202
								"/>
						</defs>
						<clipPath id="SVGID_2_">
							<use xlink:href="#SVGID_1_"  overflow="visible"/>
						</clipPath>
						
							<radialGradient id="SVGID_3_" cx="-1062.354" cy="585.7334" r="0.6282" gradientTransform="matrix(18.63 27.1351 27.1351 -18.63 3964.4883 39754.1172)" gradientUnits="userSpaceOnUse">
							<stop  offset="0" style="stop-color:#2BACE2"/>
							<stop  offset="0.3156" style="stop-color:#1F8ECB"/>
							<stop  offset="0.7803" style="stop-color:#0C6BB0"/>
							<stop  offset="1" style="stop-color:#015EA7"/>
						</radialGradient>
						<polygon clip-path="url(#SVGID_2_)" fill="url(#SVGID_3_)" points="83.76,-14.235 118.857,36.889 67.282,72.297 
							32.184,21.176 						"/>
					</g>
				</g>
			</g>
		</g>
	</g>
	<g>
		<g>
			<g>
				<g>
					<g>
						<defs>
							<path id="SVGID_4_" d="M68.831,13.129c-7.724,4.026-10.82,13.655-6.912,21.517c3.9,7.854,13.319,10.958,21.037,6.938
								c3.466-1.811,6.009-4.762,7.388-8.164c-5.165,2.42-10.983,1.738-15.376-1.342c1.153-1.208,1.595-2.617,1.595-2.617
								c-12.48-2.469-7.138-16.436-7.138-16.436c-0.046,0.072-0.093,0.133-0.143,0.206c0.05-0.13,0.097-0.262,0.148-0.394
								C69.23,12.931,69.027,13.026,68.831,13.129"/>
						</defs>
						<clipPath id="SVGID_5_">
							<use xlink:href="#SVGID_4_"  overflow="visible"/>
						</clipPath>
						
							<radialGradient id="SVGID_6_" cx="-1062.3472" cy="585.7432" r="0.6279" gradientTransform="matrix(18.6302 27.1354 27.1354 -18.6302 3964.2188 39754.5547)" gradientUnits="userSpaceOnUse">
							<stop  offset="0" style="stop-color:#FFFFFF"/>
							<stop  offset="0.3813" style="stop-color:#EAEAEA"/>
							<stop  offset="1" style="stop-color:#D2D3D4"/>
						</radialGradient>
						<polygon clip-path="url(#SVGID_5_)" fill="url(#SVGID_6_)" points="79.989,-2.247 105.632,35.108 68.37,60.69 42.727,23.336 
													"/>
					</g>
				</g>
			</g>
		</g>
	</g>
	<path fill="#FFFFFF" d="M36.938,60.776c-0.826-4.303-3.143-6.289-6.785-6.289c-4.301,0-7.941,2.649-7.941,10.592
		c0,4.964,2.316,9.929,7.941,9.929c3.31,0,5.624-1.655,7.442-4.635l0.664,0.496c-2.15,4.139-5.13,5.464-9.104,5.464
		c-6.289,0-10.26-4.968-10.26-11.254c0-6.619,4.635-11.915,10.26-11.915c3.643,0,6.417,1.192,7.613,2.649
		c0.824,0.992,0.824,2.976,0.824,4.963H36.938z"/>
	<path fill="#FFFFFF" d="M58.116,71.699c0,1.987,0.331,3.311,2.321,3.311h0.662v0.664h-2.978c-2.315,0-2.974-0.664-2.974-3.972
		v-6.62h-9.935v10.589h-2.977V57.797c0-1.987-0.331-3.313-2.317-3.313h-0.663v-0.663h2.979c2.316,0,2.975,0.663,2.975,3.971v5.959
		h9.931v-9.93h2.974v17.875h0.003L58.116,71.699L58.116,71.699z"/>
	<path fill="#FFFFFF" d="M83.269,75.671c-0.329,0.099-0.827,0.168-1.323,0.168c-1.492,0-4.169-0.499-5.628-4.304l-0.824-2.146
		h-9.264l-2.646,6.29h-1.495l9.267-21.844h0.992l7.286,17.7c1.027,2.483,1.818,3.314,3.642,3.475L83.269,75.671L83.269,75.671z
		 M66.722,68.057h8.107l-3.973-9.597L66.722,68.057z"/>
	<path fill="#FFFFFF" d="M85.251,53.826h2.978v17.873c0,1.987,0.334,3.311,2.317,3.311h0.665v0.664h-2.98
		c-2.315,0-2.978-0.664-2.978-3.972L85.251,53.826L85.251,53.826z"/>
	<path fill="#FFFFFF" d="M100.54,53.826c8.74,0,13.009,4.171,13.009,10.787c0,6.456-4.144,11.058-12.151,11.058h-6.553V57.797
		c0-1.984-0.33-3.311-2.321-3.311h-0.662v-0.663L100.54,53.826L100.54,53.826z M97.926,74.08c1.356,0.299,2.48,0.432,3.375,0.432
		c4.898,0,8.639-3.773,8.639-9.764c0-5.856-3.643-9.762-8.705-9.762c-0.96,0-2.12,0.168-3.314,0.53L97.926,74.08L97.926,74.08z"/>
	<path fill="#FFFFFF" d="M128.967,53.826c2.318,0,2.816,1.324,2.816,2.647v2.483h-0.665c0-2.648-1.489-3.807-4.138-3.807h-6.155
		v8.605h8.937v1.326h-8.937v9.266h5.792c2.976,0,4.632-0.996,5.62-3.646l0.664,0.169l-1.159,3.146
		c-0.364,0.993-1.152,1.654-2.479,1.654h-11.416V57.797c0-1.984-0.332-3.311-2.316-3.311h-0.664v-0.663L128.967,53.826
		L128.967,53.826z"/>
	<path fill="#FFFFFF" d="M20.576,83.869h-0.104c-0.159-0.006-0.313-0.025-0.466-0.068c-0.156-0.038-0.305-0.098-0.449-0.172
		c-0.147-0.074-0.278-0.171-0.392-0.277c-0.113-0.109-0.201-0.222-0.267-0.344l0.608-0.313c0.029,0.055,0.074,0.116,0.141,0.173
		c0.065,0.058,0.14,0.11,0.224,0.159c0.086,0.049,0.181,0.087,0.286,0.12c0.104,0.026,0.217,0.045,0.326,0.045h0.011h0.012
		c0.087,0.009,0.194-0.002,0.321-0.028c0.123-0.024,0.248-0.073,0.366-0.136c0.25-0.137,0.383-0.323,0.396-0.56
		c0.015-0.155-0.025-0.272-0.113-0.367c-0.083-0.092-0.206-0.163-0.369-0.214c-0.165-0.051-0.346-0.076-0.554-0.076
		c-0.059,0-0.141-0.002-0.25-0.014c-0.106-0.007-0.221-0.025-0.34-0.056c-0.302-0.073-0.542-0.201-0.712-0.377
		c-0.099-0.113-0.172-0.235-0.222-0.368c-0.051-0.139-0.072-0.291-0.065-0.455c0.02-0.326,0.134-0.606,0.354-0.814
		c0.09-0.094,0.196-0.171,0.319-0.238c0.123-0.066,0.255-0.113,0.398-0.148c0.173-0.04,0.359-0.058,0.545-0.048
		c0.183,0.013,0.369,0.042,0.545,0.094c0.191,0.064,0.362,0.148,0.508,0.254c0.146,0.105,0.26,0.225,0.337,0.369l-0.589,0.334
		c-0.039-0.066-0.096-0.122-0.172-0.173c-0.079-0.052-0.176-0.096-0.282-0.129c-0.123-0.038-0.239-0.063-0.369-0.066
		c-0.124-0.007-0.248,0.004-0.366,0.028c-0.345,0.079-0.524,0.271-0.539,0.576c-0.01,0.086,0,0.156,0.025,0.203
		c0.024,0.046,0.048,0.085,0.074,0.114c0.088,0.081,0.209,0.146,0.364,0.181c0.16,0.033,0.31,0.055,0.448,0.055
		c0.313,0,0.583,0.042,0.826,0.128c0.244,0.088,0.442,0.215,0.592,0.375c0.228,0.242,0.325,0.536,0.295,0.886
		c-0.021,0.253-0.108,0.478-0.255,0.673c-0.123,0.172-0.287,0.314-0.488,0.427c-0.144,0.076-0.299,0.137-0.467,0.181
		C20.897,83.849,20.732,83.869,20.576,83.869"/>
	<path fill="#FFFFFF" d="M25.317,83.856c-0.257,0-0.477-0.028-0.668-0.082c-0.19-0.056-0.36-0.123-0.49-0.216
		c-0.136-0.082-0.25-0.181-0.342-0.291c-0.091-0.106-0.165-0.212-0.219-0.314c-0.061-0.113-0.108-0.229-0.142-0.341
		c-0.03-0.118-0.059-0.227-0.073-0.33c-0.016-0.101-0.025-0.192-0.026-0.275c-0.002-0.081-0.002-0.145-0.002-0.191v-2.432h0.68
		v2.432c0,0.037,0,0.088,0.002,0.149c0.002,0.063,0.008,0.127,0.021,0.206c0.01,0.075,0.025,0.15,0.049,0.234
		c0.023,0.074,0.054,0.157,0.097,0.229c0.184,0.363,0.561,0.536,1.113,0.536c0.56,0,0.929-0.173,1.117-0.536
		c0.042-0.073,0.074-0.155,0.097-0.229c0.025-0.084,0.04-0.166,0.049-0.234c0.008-0.077,0.015-0.143,0.018-0.206
		c0-0.062,0.001-0.112,0.001-0.149v-2.432h0.682v2.432c0,0.047-0.003,0.109-0.003,0.191c-0.002,0.08-0.012,0.173-0.024,0.272
		c-0.02,0.104-0.041,0.218-0.076,0.329c-0.028,0.113-0.076,0.227-0.141,0.339c-0.053,0.106-0.123,0.212-0.215,0.317
		c-0.091,0.113-0.205,0.212-0.341,0.293c-0.136,0.087-0.301,0.161-0.491,0.217C25.8,83.828,25.576,83.856,25.317,83.856"/>
	<polygon fill="#FFFFFF" points="29.518,80.07 29.518,81.147 31.401,81.147 31.401,81.825 29.518,81.825 29.518,83.09 31.465,83.09 
		31.465,83.771 28.835,83.771 28.835,79.385 31.465,79.385 31.465,80.07 	"/>
	<path fill="#FFFFFF" d="M33.625,80.795v2.977h-0.68v-4.591l3.291,3.208v-3.004h0.681v4.614L33.625,80.795z M35.306,79.664
		c-0.121,0-0.228-0.021-0.329-0.065c-0.103-0.045-0.193-0.109-0.27-0.183l-0.072-0.075c-0.033-0.029-0.074-0.05-0.123-0.05
		c-0.018,0-0.031,0.002-0.057,0.012c-0.021,0.007-0.038,0.021-0.059,0.032c-0.017,0.021-0.035,0.041-0.07,0.073
		c-0.029,0.037-0.064,0.077-0.102,0.124l-0.521-0.442c0.03-0.031,0.069-0.07,0.105-0.116c0.04-0.046,0.075-0.082,0.098-0.115
		c0.076-0.081,0.17-0.146,0.271-0.188c0.104-0.04,0.212-0.062,0.322-0.069h0.009c0.114,0,0.221,0.024,0.326,0.067
		c0.105,0.044,0.198,0.106,0.277,0.184l0.069,0.071c0.023,0.023,0.04,0.036,0.065,0.04c0.024,0.007,0.04,0.01,0.058,0.01
		c0.012,0,0.025-0.003,0.052-0.01c0.021-0.004,0.043-0.023,0.067-0.04c0.026-0.027,0.055-0.058,0.086-0.092
		c0.031-0.033,0.057-0.065,0.08-0.091l0.518,0.43c-0.012,0.021-0.038,0.055-0.077,0.104c-0.041,0.045-0.083,0.09-0.124,0.132
		c-0.084,0.073-0.176,0.139-0.278,0.183C35.525,79.643,35.419,79.664,35.306,79.664"/>
	<path fill="#FFFFFF" d="M41.717,83.919l-0.585-1.225H39.29l-0.579,1.225l-0.612-0.29l2.111-4.469l2.124,4.469L41.717,83.919z
		 M39.611,82.013h1.201l-0.602-1.264L39.611,82.013z"/>
	<path fill="#FFFFFF" d="M47.981,83.856c-0.307,0-0.604-0.063-0.885-0.182c-0.271-0.116-0.516-0.271-0.727-0.487
		c-0.212-0.212-0.37-0.455-0.489-0.727c-0.121-0.28-0.177-0.575-0.177-0.885c0-0.307,0.062-0.603,0.177-0.893
		c0.119-0.271,0.277-0.516,0.489-0.715c0.209-0.211,0.451-0.37,0.727-0.494c0.138-0.064,0.281-0.107,0.43-0.135
		c0.148-0.023,0.3-0.043,0.455-0.043c0.313,0,0.611,0.063,0.892,0.178c0.133,0.06,0.259,0.128,0.38,0.209
		c0.12,0.08,0.234,0.171,0.339,0.278l-0.475,0.478c-0.155-0.15-0.33-0.268-0.522-0.343c-0.188-0.077-0.396-0.122-0.613-0.122
		c-0.222,0-0.427,0.044-0.62,0.124c-0.197,0.085-0.365,0.198-0.51,0.343c-0.144,0.147-0.26,0.317-0.343,0.514
		c-0.085,0.195-0.125,0.401-0.125,0.619c0,0.22,0.041,0.425,0.125,0.621c0.083,0.195,0.199,0.366,0.343,0.509
		c0.145,0.145,0.313,0.26,0.51,0.343c0.193,0.085,0.404,0.125,0.62,0.125s0.421-0.038,0.613-0.117
		c0.192-0.081,0.369-0.195,0.522-0.345l0.475,0.473c-0.214,0.216-0.453,0.371-0.719,0.486
		C48.584,83.799,48.288,83.856,47.981,83.856"/>
	<path fill="#FFFFFF" d="M52.952,83.88c-0.309,0-0.607-0.06-0.895-0.181c-0.272-0.113-0.517-0.278-0.733-0.493
		c-0.217-0.217-0.379-0.46-0.494-0.73c-0.122-0.289-0.181-0.587-0.181-0.899c0-0.311,0.064-0.614,0.181-0.897
		c0.114-0.271,0.277-0.517,0.494-0.73c0.216-0.221,0.461-0.38,0.733-0.494c0.288-0.122,0.586-0.185,0.895-0.185
		c0.315,0,0.614,0.064,0.902,0.185c0.27,0.114,0.516,0.273,0.728,0.494c0.221,0.216,0.38,0.459,0.493,0.73
		c0.123,0.283,0.182,0.587,0.182,0.897c0,0.313-0.06,0.61-0.182,0.899c-0.113,0.271-0.272,0.516-0.493,0.73
		c-0.217,0.215-0.462,0.38-0.728,0.493C53.563,83.82,53.263,83.88,52.952,83.88 M52.952,79.952c-0.222,0-0.432,0.043-0.628,0.124
		c-0.197,0.087-0.369,0.207-0.516,0.354c-0.147,0.146-0.264,0.318-0.349,0.515c-0.083,0.196-0.128,0.405-0.128,0.629
		c0,0.222,0.044,0.433,0.128,0.631c0.085,0.198,0.202,0.367,0.349,0.515s0.319,0.268,0.516,0.351
		c0.196,0.085,0.41,0.129,0.628,0.129c0.223,0,0.434-0.044,0.631-0.129c0.195-0.083,0.369-0.203,0.516-0.351
		c0.149-0.147,0.264-0.316,0.35-0.515c0.082-0.198,0.124-0.414,0.124-0.631c0-0.224-0.042-0.433-0.124-0.629
		c-0.085-0.198-0.2-0.368-0.35-0.515c-0.147-0.147-0.319-0.268-0.516-0.354C53.386,79.995,53.176,79.952,52.952,79.952"/>
	<polygon fill="#FFFFFF" points="57.259,80.791 57.259,83.771 56.579,83.771 56.579,79.182 59.871,82.386 59.871,79.385 
		60.551,79.385 60.551,83.998 	"/>
	<path fill="#FFFFFF" d="M66.497,83.856c-0.258,0-0.48-0.028-0.67-0.082c-0.189-0.056-0.357-0.123-0.493-0.216
		c-0.131-0.082-0.25-0.181-0.336-0.291c-0.09-0.106-0.166-0.212-0.219-0.314c-0.061-0.113-0.108-0.229-0.143-0.341
		c-0.029-0.118-0.059-0.227-0.075-0.33c-0.018-0.101-0.024-0.192-0.024-0.275c-0.001-0.08-0.002-0.145-0.002-0.191v-2.431h0.68
		v2.431c0,0.037,0,0.088,0.003,0.149c0.001,0.066,0.008,0.129,0.017,0.208c0.012,0.075,0.025,0.149,0.048,0.232
		c0.024,0.077,0.054,0.158,0.097,0.231c0.189,0.361,0.564,0.536,1.118,0.536c0.558,0,0.929-0.175,1.118-0.536
		c0.042-0.073,0.074-0.154,0.097-0.231c0.023-0.083,0.039-0.164,0.048-0.232c0.009-0.074,0.016-0.142,0.019-0.208
		c0.001-0.062,0.001-0.112,0.001-0.149v-2.431h0.681v2.431c0,0.047,0,0.111-0.003,0.191c-0.001,0.083-0.01,0.175-0.024,0.275
		c-0.02,0.104-0.041,0.215-0.075,0.33c-0.034,0.112-0.081,0.228-0.143,0.341c-0.053,0.103-0.122,0.208-0.216,0.314
		c-0.091,0.11-0.205,0.209-0.34,0.291c-0.135,0.089-0.301,0.16-0.49,0.216C66.978,83.828,66.754,83.856,66.497,83.856"/>
	<polygon fill="#FFFFFF" points="70.769,80.791 70.769,83.771 70.088,83.771 70.088,79.182 73.379,82.386 73.379,79.385 
		74.061,79.385 74.061,83.998 	"/>
	<polygon fill="#FFFFFF" points="78.987,81.12 78.236,83.88 77.578,83.703 78.801,79.228 80.423,82.468 82.038,79.224 83.27,83.707 
		82.611,83.887 81.852,81.116 80.423,83.989 	"/>
	<path fill="#FFFFFF" d="M86.408,83.856c-0.26,0-0.481-0.028-0.671-0.082c-0.191-0.056-0.354-0.123-0.491-0.216
		c-0.134-0.082-0.249-0.181-0.341-0.291c-0.09-0.106-0.161-0.212-0.214-0.314c-0.064-0.113-0.108-0.229-0.144-0.341
		c-0.035-0.118-0.059-0.227-0.073-0.33c-0.017-0.101-0.025-0.192-0.025-0.275c-0.003-0.08-0.003-0.145-0.003-0.191v-2.431h0.681
		v2.431c0,0.037,0.002,0.088,0.002,0.149c0.002,0.066,0.011,0.129,0.018,0.208c0.01,0.075,0.025,0.149,0.05,0.232
		c0.024,0.077,0.054,0.158,0.096,0.231c0.19,0.361,0.563,0.536,1.116,0.536c0.558,0,0.929-0.175,1.115-0.536
		c0.042-0.073,0.075-0.154,0.097-0.231c0.026-0.083,0.038-0.164,0.05-0.232c0.011-0.074,0.018-0.142,0.02-0.208
		c0.002-0.062,0.004-0.112,0.004-0.149v-2.431h0.68v2.431c0,0.047-0.002,0.111-0.004,0.191c0,0.083-0.013,0.175-0.025,0.275
		c-0.014,0.104-0.037,0.215-0.074,0.33c-0.032,0.112-0.08,0.228-0.141,0.341c-0.056,0.103-0.124,0.208-0.22,0.314
		c-0.086,0.11-0.204,0.209-0.339,0.291c-0.134,0.089-0.302,0.16-0.493,0.216C86.891,83.828,86.666,83.856,86.408,83.856"/>
	<polygon fill="#FFFFFF" points="90.682,80.791 90.682,83.771 90.001,83.771 90.001,79.182 93.29,82.386 93.29,79.385 
		93.972,79.385 93.972,83.998 	"/>
	<path fill="#FFFFFF" d="M96.985,83.771H95.46v-4.387h1.525c0.313,0,0.604,0.054,0.881,0.162c0.275,0.107,0.518,0.268,0.724,0.467
		c0.206,0.205,0.362,0.439,0.467,0.704c0.115,0.268,0.171,0.545,0.171,0.84c0,0.305-0.056,0.59-0.156,0.856
		c-0.106,0.263-0.26,0.5-0.464,0.703c-0.197,0.208-0.436,0.369-0.712,0.483C97.611,83.712,97.307,83.771,96.985,83.771
		 M96.14,83.093h0.846c0.231,0,0.441-0.038,0.634-0.12c0.19-0.073,0.354-0.177,0.494-0.312c0.135-0.137,0.244-0.298,0.318-0.484
		c0.074-0.189,0.115-0.394,0.115-0.619c0-0.218-0.037-0.416-0.116-0.598c-0.079-0.178-0.186-0.342-0.327-0.471
		c-0.14-0.132-0.305-0.239-0.493-0.317c-0.189-0.073-0.398-0.108-0.625-0.108H96.14V83.093z"/>
	<path fill="#FFFFFF" d="M102.585,83.88c-0.31,0-0.608-0.06-0.895-0.181c-0.271-0.113-0.516-0.278-0.733-0.493
		c-0.217-0.217-0.381-0.46-0.494-0.73c-0.121-0.289-0.181-0.587-0.181-0.899c0-0.311,0.064-0.614,0.181-0.897
		c0.113-0.271,0.277-0.517,0.494-0.73c0.22-0.221,0.462-0.38,0.733-0.494c0.286-0.122,0.585-0.185,0.895-0.185
		c0.315,0,0.615,0.064,0.902,0.185c0.27,0.114,0.515,0.273,0.728,0.494c0.221,0.216,0.38,0.459,0.499,0.73
		c0.12,0.283,0.176,0.587,0.176,0.897c0,0.313-0.061,0.61-0.176,0.899c-0.119,0.271-0.278,0.516-0.499,0.73
		c-0.215,0.215-0.459,0.38-0.728,0.493C103.194,83.82,102.898,83.88,102.585,83.88 M102.585,79.952c-0.221,0-0.43,0.043-0.628,0.124
		c-0.198,0.087-0.37,0.207-0.516,0.354c-0.149,0.146-0.267,0.318-0.351,0.515c-0.085,0.196-0.128,0.405-0.128,0.629
		c0,0.222,0.043,0.433,0.128,0.631c0.084,0.198,0.201,0.367,0.351,0.515c0.145,0.147,0.317,0.268,0.516,0.351
		c0.198,0.085,0.411,0.129,0.628,0.129c0.224,0,0.435-0.044,0.631-0.129c0.197-0.083,0.369-0.203,0.516-0.351
		c0.149-0.147,0.268-0.316,0.35-0.515c0.083-0.198,0.123-0.414,0.123-0.631c0-0.224-0.04-0.433-0.123-0.629
		c-0.082-0.198-0.2-0.368-0.35-0.515c-0.146-0.147-0.318-0.268-0.516-0.354C103.02,79.995,102.809,79.952,102.585,79.952"/>
	<polygon fill="#FFFFFF" points="109.526,81.12 108.778,83.88 108.118,83.703 109.339,79.228 110.962,82.468 112.58,79.224 
		113.811,83.707 113.15,83.887 112.391,81.116 110.962,83.989 	"/>
	<polygon fill="#FFFFFF" points="115.619,80.07 115.619,81.147 117.504,81.147 117.504,81.825 115.619,81.825 115.619,83.09 
		117.567,83.09 117.567,83.771 114.938,83.771 114.938,79.385 117.567,79.385 117.567,80.07 	"/>
	<path fill="#FFFFFF" d="M120.16,83.856c-0.197,0-0.369-0.022-0.513-0.069c-0.146-0.045-0.271-0.102-0.376-0.167
		c-0.104-0.071-0.189-0.136-0.258-0.206c-0.069-0.074-0.121-0.126-0.158-0.172l-0.021-0.01l0.522-0.442l0.009,0.008
		c0.031,0.039,0.071,0.075,0.108,0.122c0.043,0.044,0.095,0.084,0.161,0.122c0.063,0.042,0.131,0.07,0.222,0.094
		c0.087,0.025,0.188,0.035,0.304,0.035c0.457,0,0.762-0.131,0.91-0.402c0.068-0.12,0.108-0.234,0.122-0.354
		c0.017-0.123,0.023-0.211,0.023-0.271v-0.05v-2.713h0.681v2.731v0.016v0.033c0,0.036-0.002,0.089-0.011,0.159
		c-0.002,0.07-0.013,0.144-0.024,0.229c-0.017,0.083-0.037,0.172-0.072,0.271c-0.024,0.096-0.073,0.189-0.126,0.285
		c-0.05,0.085-0.113,0.172-0.192,0.262c-0.08,0.088-0.181,0.168-0.3,0.237c-0.122,0.073-0.263,0.129-0.427,0.175
		C120.572,83.836,120.381,83.856,120.16,83.856"/>
	<path fill="#FFFFFF" d="M125.437,83.88c-0.313,0-0.611-0.06-0.898-0.181c-0.271-0.113-0.516-0.278-0.729-0.493
		c-0.222-0.217-0.38-0.46-0.496-0.73c-0.121-0.289-0.18-0.587-0.18-0.899c0-0.311,0.063-0.614,0.18-0.897
		c0.116-0.271,0.274-0.517,0.496-0.73c0.216-0.221,0.461-0.38,0.729-0.494c0.287-0.122,0.585-0.185,0.898-0.185
		c0.312,0,0.61,0.064,0.899,0.185c0.272,0.114,0.517,0.273,0.732,0.494c0.214,0.216,0.38,0.459,0.492,0.73
		c0.122,0.283,0.182,0.587,0.182,0.897c0,0.313-0.064,0.61-0.182,0.899c-0.112,0.271-0.278,0.516-0.492,0.73
		c-0.222,0.215-0.46,0.38-0.732,0.493C126.046,83.82,125.747,83.88,125.437,83.88 M125.437,79.952c-0.221,0-0.432,0.043-0.627,0.124
		c-0.197,0.087-0.37,0.207-0.516,0.354c-0.148,0.146-0.266,0.318-0.351,0.515c-0.08,0.196-0.125,0.405-0.125,0.629
		c0,0.222,0.045,0.433,0.125,0.631c0.085,0.198,0.202,0.367,0.351,0.515c0.146,0.147,0.318,0.268,0.516,0.351
		c0.195,0.085,0.406,0.129,0.627,0.129c0.223,0,0.433-0.044,0.631-0.129c0.198-0.083,0.369-0.203,0.517-0.351
		c0.148-0.147,0.263-0.316,0.349-0.515c0.085-0.198,0.127-0.414,0.127-0.631c0-0.224-0.042-0.433-0.127-0.629
		c-0.086-0.198-0.2-0.368-0.349-0.515c-0.147-0.147-0.318-0.268-0.517-0.354C125.869,79.995,125.66,79.952,125.437,79.952"/>
	<path fill="#FFFFFF" d="M131.617,83.914l-1.254-1.496h-0.716v1.352h-0.677v-4.386h1.45c0.483,0,0.877,0.116,1.18,0.351
		c0.172,0.129,0.3,0.287,0.384,0.473c0.086,0.188,0.125,0.396,0.125,0.626c0,0.222-0.035,0.425-0.115,0.623
		c-0.077,0.189-0.19,0.356-0.331,0.502c-0.153,0.147-0.323,0.26-0.517,0.327l0.994,1.18L131.617,83.914z M129.646,81.736h0.773
		c0.159,0.006,0.303-0.015,0.433-0.061c0.131-0.048,0.241-0.115,0.331-0.201c0.164-0.168,0.244-0.374,0.244-0.637
		c0-0.249-0.082-0.436-0.249-0.564c-0.086-0.066-0.195-0.116-0.323-0.15c-0.13-0.038-0.271-0.053-0.436-0.053h-0.773V81.736z"/>
</g>
<linearGradient id="SVGID_7_" gradientUnits="userSpaceOnUse" x1="3.5693" y1="1295.8398" x2="23.3358" y2="1216.3344" gradientTransform="matrix(1 0 0 1 59.5205 -1215.2178)">
	<stop  offset="0" style="stop-color:#FFFFFF;stop-opacity:0.7"/>
	<stop  offset="0.7944" style="stop-color:#FFFFFF;stop-opacity:0"/>
</linearGradient>
<path opacity="0.38" fill="url(#SVGID_7_)" enable-background="new    " d="M151.797,0v58.249
	C128.007,75.1,88.775,78.938,49.434,65.57C29.985,58.96,13.114,49.028-0.01,37.304V0H151.797z"/>
</svg>
