<?xml version="1.0" encoding="utf-8"?>
<!-- Generator: Adobe Illustrator 16.0.0, SVG Export Plug-In . SVG Version: 6.00 Build 0)  -->
<!DOCTYPE svg PUBLIC "-//W3C//DTD SVG 1.1//EN" "http://www.w3.org/Graphics/SVG/1.1/DTD/svg11.dtd">
<svg version="1.1" id="Capa_1" xmlns="http://www.w3.org/2000/svg" xmlns:xlink="http://www.w3.org/1999/xlink" x="0px" y="0px"
	 width="492.667px" height="114.667px" viewBox="0 0 492.667 114.667" enable-background="new 0 0 492.667 114.667"
	 xml:space="preserve">
<g>
	<g>
		<g>
			<g>
				
					<line fill="none" stroke="#645F54" stroke-width="2" stroke-linecap="round" stroke-linejoin="round" x1="286.333" y1="11.858" x2="286.432" y2="11.858"/>
				
					<line fill="none" stroke="#645F54" stroke-width="2" stroke-linecap="round" stroke-linejoin="round" stroke-dasharray="0.198,7.921" x1="294.353" y1="11.858" x2="485.25" y2="11.858"/>
				
					<line fill="none" stroke="#645F54" stroke-width="2" stroke-linecap="round" stroke-linejoin="round" x1="489.208" y1="11.858" x2="489.308" y2="11.858"/>
			</g>
		</g>
		<g>
			<g>
				
					<line fill="none" stroke="#645F54" stroke-width="2" stroke-linecap="round" stroke-linejoin="round" x1="6.629" y1="11.858" x2="6.729" y2="11.858"/>
				
					<line fill="none" stroke="#645F54" stroke-width="2" stroke-linecap="round" stroke-linejoin="round" stroke-dasharray="0.1975,7.9012" x1="14.63" y1="11.858" x2="196.951" y2="11.858"/>
				
					<line fill="none" stroke="#645F54" stroke-width="2" stroke-linecap="round" stroke-linejoin="round" x1="200.902" y1="11.858" x2="201.002" y2="11.858"/>
			</g>
		</g>
	</g>
	
		<rect x="237.644" y="5.838" transform="matrix(-0.7071 0.7071 -0.7071 -0.7071 424.3365 -152.0574)" fill="#645F54" width="12.032" height="12.033"/>
	<g>
		
			<rect x="261.922" y="8.095" transform="matrix(-0.7071 0.7071 -0.7071 -0.7071 461.9395 -167.6228)" fill="#645F54" width="7.527" height="7.528"/>
		
			<rect x="217.885" y="8.095" transform="matrix(-0.7071 0.7071 -0.7071 -0.7071 386.7626 -136.4835)" fill="#645F54" width="7.527" height="7.528"/>
	</g>
</g>
<g>
	<g>
		
			<line fill="none" stroke="#645F54" stroke-width="2" stroke-linecap="round" stroke-linejoin="round" x1="28.599" y1="106.608" x2="28.699" y2="106.608"/>
		
			<line fill="none" stroke="#645F54" stroke-width="2" stroke-linecap="round" stroke-linejoin="round" stroke-dasharray="0.1987,7.948" x1="36.646" y1="106.608" x2="203.754" y2="106.608"/>
		
			<line fill="none" stroke="#645F54" stroke-width="2" stroke-linecap="round" stroke-linejoin="round" x1="207.728" y1="106.608" x2="207.828" y2="106.608"/>
	</g>
</g>
<g>
	<g>
		
			<line fill="none" stroke="#645F54" stroke-width="2" stroke-linecap="round" stroke-linejoin="round" x1="470.457" y1="106.608" x2="470.357" y2="106.608"/>
		
			<line fill="none" stroke="#645F54" stroke-width="2" stroke-linecap="round" stroke-linejoin="round" stroke-dasharray="0.2025,8.0998" x1="462.255" y1="106.608" x2="283.656" y2="106.608"/>
		
			<line fill="none" stroke="#645F54" stroke-width="2" stroke-linecap="round" stroke-linejoin="round" x1="279.606" y1="106.608" x2="279.505" y2="106.608"/>
	</g>
</g>
<rect x="239.905" y="102.847" transform="matrix(0.7071 0.7071 -0.7071 0.7071 146.7427 -141.0694)" fill="#645F54" width="7.527" height="7.528"/>
<g>
	<path fill="#00809D" d="M21.252,36.779c0-1.409,1.252-2.661,3.208-2.661h15.258c9.624,0,17.136,4.617,17.136,17.214v0.626
		c0,12.52-7.746,17.293-17.605,17.293h-9.703v19.327c0,1.8-2.035,2.738-4.147,2.738c-2.035,0-4.147-0.938-4.147-2.738V36.779z
		 M29.547,41.474v21.205h9.703c5.79,0,9.312-3.286,9.312-10.172v-0.939c0-6.886-3.521-10.094-9.312-10.094H29.547z"/>
	<path fill="#00809D" d="M63.898,36.779c0-1.409,1.096-2.661,2.739-2.661h14.867c9.859,0,17.997,3.834,17.997,15.962
		c0,9.312-4.773,13.928-11.033,15.493l10.955,20.579c0.235,0.391,0.313,0.86,0.313,1.174c0,2.112-2.661,4.225-5.008,4.225
		c-1.409,0-2.504-0.938-3.287-2.425L80.017,66.748h-7.903v21.831c0,1.8-2.035,2.738-4.147,2.738c-2.035,0-4.069-0.938-4.069-2.738
		V36.779z M72.114,41.474v18.623h9.39c5.869,0,9.703-2.504,9.703-9.312c0-6.807-3.834-9.311-9.703-9.311H72.114z"/>
	<path fill="#00809D" d="M107.091,74.337v-22.77c0-12.676,7.59-17.449,17.527-17.449c9.859,0,17.605,4.773,17.605,17.449v22.77
		c0,12.676-7.747,17.449-17.605,17.449C114.681,91.787,107.091,87.013,107.091,74.337z M133.929,51.567
		c0-6.886-3.521-10.094-9.311-10.094c-5.869,0-9.233,3.208-9.233,10.094v22.77c0,6.886,3.365,10.094,9.233,10.094
		c5.79,0,9.311-3.208,9.311-10.094V51.567z"/>
	<path fill="#00809D" d="M182.053,34.118c1.878,0,2.739,1.878,2.739,3.678c0,2.035-0.939,3.913-2.739,3.913h-12.05v46.87
		c0,1.8-2.113,2.738-4.147,2.738c-2.112,0-4.147-0.938-4.147-2.738v-46.87h-12.128c-1.721,0-2.738-1.8-2.738-3.834
		c0-1.799,0.86-3.756,2.738-3.756H182.053z"/>
	<path fill="#00809D" d="M199.345,59.392h12.05c1.722,0,2.739,1.564,2.739,3.364c0,1.487-0.861,3.208-2.739,3.208h-12.05v17.997
		h23.239c1.722,0,2.739,1.722,2.739,3.756c0,1.722-0.861,3.6-2.739,3.6h-27.856c-1.799,0-3.677-0.938-3.677-2.738V36.857
		c0-1.8,1.878-2.739,3.677-2.739h27.856c1.878,0,2.739,1.878,2.739,3.6c0,2.034-1.017,3.756-2.739,3.756h-23.239V59.392z"/>
	<path fill="#00809D" d="M248.408,41.474c-6.025,0-9.39,3.208-9.39,10.094v22.77c0,6.886,3.364,10.094,9.546,10.094
		c7.981,0,8.686-5.399,8.999-8.842c0.156-2.034,1.8-2.738,4.068-2.738c2.896,0,4.226,0.86,4.226,4.303
		c0,8.607-7.12,14.633-17.84,14.633c-9.468,0-17.293-4.773-17.293-17.449v-22.77c0-12.676,7.903-17.449,17.371-17.449
		c10.72,0,17.762,5.869,17.762,14.163c0,3.521-1.33,4.304-4.147,4.304c-2.504,0-4.068-0.86-4.146-2.738
		C257.406,47.107,256.467,41.474,248.408,41.474z"/>
	<path fill="#00809D" d="M304.746,34.118c1.878,0,2.738,1.878,2.738,3.678c0,2.035-0.938,3.913-2.738,3.913h-12.05v46.87
		c0,1.8-2.113,2.738-4.147,2.738c-2.112,0-4.146-0.938-4.146-2.738v-46.87h-12.129c-1.722,0-2.738-1.8-2.738-3.834
		c0-1.799,0.86-3.756,2.738-3.756H304.746z"/>
	<path fill="#00809D" d="M312.179,74.337v-22.77c0-12.676,7.59-17.449,17.527-17.449c9.859,0,17.605,4.773,17.605,17.449v22.77
		c0,12.676-7.746,17.449-17.605,17.449C319.769,91.787,312.179,87.013,312.179,74.337z M339.018,51.567
		c0-6.886-3.521-10.094-9.312-10.094c-5.868,0-9.232,3.208-9.232,10.094v22.77c0,6.886,3.364,10.094,9.232,10.094
		c5.791,0,9.312-3.208,9.312-10.094V51.567z"/>
	<path fill="#00809D" d="M357.015,36.779c0-1.409,1.096-2.661,2.739-2.661h14.866c9.859,0,17.997,3.834,17.997,15.962
		c0,9.312-4.772,13.928-11.032,15.493l10.954,20.579c0.234,0.391,0.313,0.86,0.313,1.174c0,2.112-2.661,4.225-5.008,4.225
		c-1.409,0-2.504-0.938-3.287-2.425l-11.424-22.379h-7.903v21.831c0,1.8-2.034,2.738-4.146,2.738c-2.034,0-4.069-0.938-4.069-2.738
		V36.779z M365.231,41.474v18.623h9.39c5.869,0,9.703-2.504,9.703-9.312c0-6.807-3.834-9.311-9.703-9.311H365.231z"/>
	<path fill="#00809D" d="M409.05,59.392h12.051c1.721,0,2.738,1.564,2.738,3.364c0,1.487-0.86,3.208-2.738,3.208H409.05v17.997
		h23.24c1.721,0,2.738,1.722,2.738,3.756c0,1.722-0.86,3.6-2.738,3.6h-27.856c-1.8,0-3.678-0.938-3.678-2.738V36.857
		c0-1.8,1.878-2.739,3.678-2.739h27.856c1.878,0,2.738,1.878,2.738,3.6c0,2.034-1.018,3.756-2.738,3.756h-23.24V59.392z"/>
	<path fill="#00809D" d="M465.623,76.137c0-13.85-25.43-8.451-25.43-27.23c0-11.58,9.702-15.023,18.075-15.023
		c5.086,0,14.241,1.331,14.241,5.634c0,1.565-1.096,4.46-3.443,4.46c-2.112,0-4.147-2.974-10.798-2.974
		c-5.712,0-9.781,2.191-9.781,7.121c0,11.58,25.431,6.338,25.431,27.151c0,11.189-7.512,16.667-17.841,16.667
		c-10.172,0-17.292-5.32-17.292-9.233c0-1.878,1.643-4.46,3.599-4.46c2.817,0,4.695,6.182,13.381,6.182
		C461.398,84.431,465.623,81.771,465.623,76.137z"/>
</g>
</svg>
