<?xml version="1.0" encoding="utf-8"?>
<!-- Generator: Adobe Illustrator 16.0.0, SVG Export Plug-In . SVG Version: 6.00 Build 0)  -->
<!DOCTYPE svg PUBLIC "-//W3C//DTD SVG 1.1//EN" "http://www.w3.org/Graphics/SVG/1.1/DTD/svg11.dtd">
<svg version="1.1" id="Capa_1" xmlns="http://www.w3.org/2000/svg" xmlns:xlink="http://www.w3.org/1999/xlink" x="0px" y="0px"
	 width="492.667px" height="114.667px" viewBox="0 0 492.667 114.667" enable-background="new 0 0 492.667 114.667"
	 xml:space="preserve">
<g>
	<g>
		<g>
			<g>
				
					<line fill="none" stroke="#645F54" stroke-width="2" stroke-linecap="round" stroke-linejoin="round" x1="286.333" y1="11.858" x2="286.432" y2="11.858"/>
				
					<line fill="none" stroke="#645F54" stroke-width="2" stroke-linecap="round" stroke-linejoin="round" stroke-dasharray="0.198,7.921" x1="294.353" y1="11.858" x2="485.25" y2="11.858"/>
				
					<line fill="none" stroke="#645F54" stroke-width="2" stroke-linecap="round" stroke-linejoin="round" x1="489.208" y1="11.858" x2="489.308" y2="11.858"/>
			</g>
		</g>
		<g>
			<g>
				
					<line fill="none" stroke="#645F54" stroke-width="2" stroke-linecap="round" stroke-linejoin="round" x1="6.629" y1="11.858" x2="6.729" y2="11.858"/>
				
					<line fill="none" stroke="#645F54" stroke-width="2" stroke-linecap="round" stroke-linejoin="round" stroke-dasharray="0.1975,7.9012" x1="14.63" y1="11.858" x2="196.951" y2="11.858"/>
				
					<line fill="none" stroke="#645F54" stroke-width="2" stroke-linecap="round" stroke-linejoin="round" x1="200.902" y1="11.858" x2="201.002" y2="11.858"/>
			</g>
		</g>
	</g>
	
		<rect x="237.644" y="5.838" transform="matrix(-0.7071 0.7071 -0.7071 -0.7071 424.3365 -152.0574)" fill="#645F54" width="12.032" height="12.033"/>
	<g>
		
			<rect x="261.922" y="8.095" transform="matrix(-0.7071 0.7071 -0.7071 -0.7071 461.9395 -167.6228)" fill="#645F54" width="7.527" height="7.528"/>
		
			<rect x="217.885" y="8.095" transform="matrix(-0.7071 0.7071 -0.7071 -0.7071 386.7626 -136.4835)" fill="#645F54" width="7.527" height="7.528"/>
	</g>
</g>
<g>
	<g>
		
			<line fill="none" stroke="#645F54" stroke-width="2" stroke-linecap="round" stroke-linejoin="round" x1="28.599" y1="106.608" x2="28.699" y2="106.608"/>
		
			<line fill="none" stroke="#645F54" stroke-width="2" stroke-linecap="round" stroke-linejoin="round" stroke-dasharray="0.1987,7.948" x1="36.646" y1="106.608" x2="203.754" y2="106.608"/>
		
			<line fill="none" stroke="#645F54" stroke-width="2" stroke-linecap="round" stroke-linejoin="round" x1="207.728" y1="106.608" x2="207.828" y2="106.608"/>
	</g>
</g>
<g>
	<g>
		
			<line fill="none" stroke="#645F54" stroke-width="2" stroke-linecap="round" stroke-linejoin="round" x1="470.457" y1="106.608" x2="470.357" y2="106.608"/>
		
			<line fill="none" stroke="#645F54" stroke-width="2" stroke-linecap="round" stroke-linejoin="round" stroke-dasharray="0.2025,8.0998" x1="462.255" y1="106.608" x2="283.656" y2="106.608"/>
		
			<line fill="none" stroke="#645F54" stroke-width="2" stroke-linecap="round" stroke-linejoin="round" x1="279.606" y1="106.608" x2="279.505" y2="106.608"/>
	</g>
</g>
<rect x="239.905" y="102.847" transform="matrix(0.7071 0.7071 -0.7071 0.7071 146.7427 -141.0694)" fill="#645F54" width="7.527" height="7.528"/>
<g>
	<path fill="#00809D" d="M147.35,36.857c0-1.8,1.799-2.739,3.677-2.739h14.241c8.373,0,15.806,2.504,15.806,13.537
		c0,6.495-2.582,10.877-6.651,12.677c4.852,1.877,8.06,5.086,8.06,13.066v1.487c0,12.128-6.808,16.432-15.571,16.432h-15.884
		c-2.269,0-3.677-1.252-3.677-2.66V36.857z M155.566,57.044h9.312c5.32,0,7.903-2.738,7.903-8.059c0-5.243-3.13-7.512-8.06-7.512
		h-9.155V57.044z M165.347,83.961c5.556,0,8.842-2.974,8.842-9.702v-1.252c0-6.886-3.286-9.39-8.842-9.39h-9.781v20.344H165.347z"/>
	<path fill="#00809D" d="M186.552,87.875c0-0.235,0-0.47,0.078-0.705l15.571-50.704c0.626-1.878,2.895-2.817,5.242-2.817
		c2.348,0,4.695,0.939,5.321,2.817l15.493,50.704c0.078,0.235,0.156,0.47,0.156,0.705c0,1.956-2.895,3.442-5.243,3.442
		c-1.33,0-2.425-0.47-2.816-1.722l-3.208-11.111H197.82l-3.208,11.111c-0.391,1.252-1.487,1.722-2.895,1.722
		C189.447,91.317,186.552,89.909,186.552,87.875z M215.269,71.833l-7.825-26.839l-7.825,26.839H215.269z"/>
	<path fill="#00809D" d="M258.541,76.137c0-13.85-25.431-8.451-25.431-27.23c0-11.58,9.702-15.023,18.075-15.023
		c5.086,0,14.24,1.331,14.24,5.634c0,1.565-1.095,4.46-3.442,4.46c-2.112,0-4.147-2.974-10.798-2.974
		c-5.712,0-9.781,2.191-9.781,7.121c0,11.58,25.431,6.338,25.431,27.151c0,11.189-7.512,16.667-17.841,16.667
		c-10.172,0-17.292-5.32-17.292-9.233c0-1.878,1.643-4.46,3.6-4.46c2.817,0,4.695,6.182,13.38,6.182
		C254.315,84.431,258.541,81.771,258.541,76.137z"/>
	<path fill="#00809D" d="M282.953,59.392h12.051c1.721,0,2.738,1.564,2.738,3.364c0,1.487-0.86,3.208-2.738,3.208h-12.051v17.997
		h23.24c1.721,0,2.738,1.722,2.738,3.756c0,1.722-0.86,3.6-2.738,3.6h-27.856c-1.8,0-3.678-0.938-3.678-2.738V36.857
		c0-1.8,1.878-2.739,3.678-2.739h27.856c1.878,0,2.738,1.878,2.738,3.6c0,2.034-1.018,3.756-2.738,3.756h-23.24V59.392z"/>
	<path fill="#00809D" d="M339.527,76.137c0-13.85-25.431-8.451-25.431-27.23c0-11.58,9.702-15.023,18.075-15.023
		c5.086,0,14.24,1.331,14.24,5.634c0,1.565-1.095,4.46-3.442,4.46c-2.112,0-4.147-2.974-10.798-2.974
		c-5.712,0-9.781,2.191-9.781,7.121c0,11.58,25.431,6.338,25.431,27.151c0,11.189-7.512,16.667-17.841,16.667
		c-10.172,0-17.292-5.32-17.292-9.233c0-1.878,1.643-4.46,3.599-4.46c2.817,0,4.695,6.182,13.381,6.182
		C335.301,84.431,339.527,81.771,339.527,76.137z"/>
</g>
</svg>
