<?xml version="1.0" encoding="utf-8"?>
<!-- Generator: Adobe Illustrator 16.0.0, SVG Export Plug-In . SVG Version: 6.00 Build 0)  -->
<!DOCTYPE svg PUBLIC "-//W3C//DTD SVG 1.1//EN" "http://www.w3.org/Graphics/SVG/1.1/DTD/svg11.dtd">
<svg version="1.1" id="Capa_1" xmlns="http://www.w3.org/2000/svg" xmlns:xlink="http://www.w3.org/1999/xlink" x="0px" y="0px"
	 width="492.667px" height="114.667px" viewBox="0 0 492.667 114.667" enable-background="new 0 0 492.667 114.667"
	 xml:space="preserve">
<g>
	<g>
		<g>
			<g>
				
					<line fill="none" stroke="#645F54" stroke-width="2" stroke-linecap="round" stroke-linejoin="round" x1="286.333" y1="11.858" x2="286.432" y2="11.858"/>
				
					<line fill="none" stroke="#645F54" stroke-width="2" stroke-linecap="round" stroke-linejoin="round" stroke-dasharray="0.198,7.921" x1="294.353" y1="11.858" x2="485.25" y2="11.858"/>
				
					<line fill="none" stroke="#645F54" stroke-width="2" stroke-linecap="round" stroke-linejoin="round" x1="489.208" y1="11.858" x2="489.308" y2="11.858"/>
			</g>
		</g>
		<g>
			<g>
				
					<line fill="none" stroke="#645F54" stroke-width="2" stroke-linecap="round" stroke-linejoin="round" x1="6.629" y1="11.858" x2="6.729" y2="11.858"/>
				
					<line fill="none" stroke="#645F54" stroke-width="2" stroke-linecap="round" stroke-linejoin="round" stroke-dasharray="0.1975,7.9012" x1="14.63" y1="11.858" x2="196.951" y2="11.858"/>
				
					<line fill="none" stroke="#645F54" stroke-width="2" stroke-linecap="round" stroke-linejoin="round" x1="200.902" y1="11.858" x2="201.002" y2="11.858"/>
			</g>
		</g>
	</g>
	
		<rect x="237.644" y="5.838" transform="matrix(-0.7071 0.7071 -0.7071 -0.7071 424.3365 -152.0574)" fill="#645F54" width="12.032" height="12.033"/>
	<g>
		
			<rect x="261.922" y="8.095" transform="matrix(-0.7071 0.7071 -0.7071 -0.7071 461.9395 -167.6228)" fill="#645F54" width="7.527" height="7.528"/>
		
			<rect x="217.885" y="8.095" transform="matrix(-0.7071 0.7071 -0.7071 -0.7071 386.7626 -136.4835)" fill="#645F54" width="7.527" height="7.528"/>
	</g>
</g>
<g>
	<g>
		
			<line fill="none" stroke="#645F54" stroke-width="2" stroke-linecap="round" stroke-linejoin="round" x1="28.599" y1="106.608" x2="28.699" y2="106.608"/>
		
			<line fill="none" stroke="#645F54" stroke-width="2" stroke-linecap="round" stroke-linejoin="round" stroke-dasharray="0.1987,7.948" x1="36.646" y1="106.608" x2="203.754" y2="106.608"/>
		
			<line fill="none" stroke="#645F54" stroke-width="2" stroke-linecap="round" stroke-linejoin="round" x1="207.728" y1="106.608" x2="207.828" y2="106.608"/>
	</g>
</g>
<g>
	<g>
		
			<line fill="none" stroke="#645F54" stroke-width="2" stroke-linecap="round" stroke-linejoin="round" x1="470.457" y1="106.608" x2="470.357" y2="106.608"/>
		
			<line fill="none" stroke="#645F54" stroke-width="2" stroke-linecap="round" stroke-linejoin="round" stroke-dasharray="0.2025,8.0998" x1="462.255" y1="106.608" x2="283.656" y2="106.608"/>
		
			<line fill="none" stroke="#645F54" stroke-width="2" stroke-linecap="round" stroke-linejoin="round" x1="279.606" y1="106.608" x2="279.505" y2="106.608"/>
	</g>
</g>
<rect x="239.905" y="102.847" transform="matrix(0.7071 0.7071 -0.7071 0.7071 146.7427 -141.0694)" fill="#645F54" width="7.527" height="7.528"/>
<g>
	<path fill="#00809D" d="M175.166,78.137c0-13.85-25.43-8.451-25.43-27.23c0-11.58,9.703-15.023,18.075-15.023
		c5.086,0,14.241,1.331,14.241,5.634c0,1.565-1.095,4.46-3.443,4.46c-2.113,0-4.147-2.974-10.798-2.974
		c-5.712,0-9.781,2.191-9.781,7.121c0,11.58,25.431,6.338,25.431,27.151c0,11.189-7.512,16.667-17.841,16.667
		c-10.172,0-17.292-5.32-17.292-9.233c0-1.878,1.643-4.46,3.6-4.46c2.817,0,4.695,6.182,13.38,6.182
		C170.941,86.431,175.166,83.771,175.166,78.137z"/>
	<path fill="#00809D" d="M190.738,76.337v-22.77c0-12.676,7.59-17.449,17.527-17.449c9.859,0,17.605,4.773,17.605,17.449v22.77
		c0,12.676-7.747,17.449-17.605,17.449C198.328,93.787,190.738,89.013,190.738,76.337z M217.577,53.567
		c0-6.886-3.521-10.094-9.312-10.094c-5.869,0-9.233,3.208-9.233,10.094v22.77c0,6.886,3.365,10.094,9.233,10.094
		c5.79,0,9.312-3.208,9.312-10.094V53.567z"/>
	<path fill="#00809D" d="M235.574,38.857c0-1.8,1.878-2.739,3.677-2.739h27.465c1.877,0,2.66,1.878,2.66,3.6
		c0,2.034-0.939,3.756-2.66,3.756h-22.849v17.918h12.128c1.722,0,2.661,1.564,2.661,3.364c0,1.487-0.783,3.208-2.661,3.208h-12.128
		v22.614c0,1.878-2.034,2.738-4.147,2.738c-2.035,0-4.147-0.86-4.147-2.738V38.857z"/>
	<path fill="#00809D" d="M263.667,89.875c0-0.235,0-0.47,0.078-0.705l15.571-50.704c0.626-1.878,2.895-2.817,5.242-2.817
		s4.695,0.939,5.321,2.817l15.492,50.704c0.079,0.235,0.157,0.47,0.157,0.705c0,1.956-2.896,3.442-5.243,3.442
		c-1.33,0-2.426-0.47-2.816-1.722l-3.208-11.111h-19.327l-3.208,11.111c-0.392,1.252-1.487,1.722-2.896,1.722
		C266.561,93.317,263.667,91.909,263.667,89.875z M292.383,73.833l-7.825-26.839l-7.824,26.839H292.383z M282.68,28.606
		c-0.313,0.157-0.626,0.235-0.938,0.235c-1.565,0-2.739-1.722-2.739-3.208c0-0.861,0.313-1.565,1.174-2.035l9.703-4.929
		c0.313-0.079,0.626-0.157,0.86-0.157c1.564,0,2.66,1.721,2.66,3.208c0,0.861-0.313,1.722-1.252,2.113L282.68,28.606z"/>
	<path fill="#00809D" d="M335.654,78.137c0-13.85-25.43-8.451-25.43-27.23c0-11.58,9.702-15.023,18.075-15.023
		c5.086,0,14.241,1.331,14.241,5.634c0,1.565-1.096,4.46-3.443,4.46c-2.112,0-4.147-2.974-10.798-2.974
		c-5.712,0-9.781,2.191-9.781,7.121c0,11.58,25.431,6.338,25.431,27.151c0,11.189-7.512,16.667-17.841,16.667
		c-10.172,0-17.292-5.32-17.292-9.233c0-1.878,1.643-4.46,3.599-4.46c2.817,0,4.695,6.182,13.381,6.182
		C331.429,86.431,335.654,83.771,335.654,78.137z"/>
</g>
</svg>
