<?xml version="1.0" encoding="utf-8"?>
<!-- Generator: Adobe Illustrator 16.0.0, SVG Export Plug-In . SVG Version: 6.00 Build 0)  -->
<!DOCTYPE svg PUBLIC "-//W3C//DTD SVG 1.1//EN" "http://www.w3.org/Graphics/SVG/1.1/DTD/svg11.dtd">
<svg version="1.1" id="Layer_1" xmlns="http://www.w3.org/2000/svg" xmlns:xlink="http://www.w3.org/1999/xlink" x="0px" y="0px"
	 width="463px" height="210px" viewBox="0 0 463 210" enable-background="new 0 0 463 210" xml:space="preserve">
<image overflow="visible" opacity="0.3" enable-background="new    " width="1817" height="879" xlink:href="11D7BF1F.png"  transform="matrix(0.2393 0 0 0.2381 4.9456 -7.0747)">
</image>
<g>
	<g>
		<path fill="#FFFFFF" d="M45.961,141.504l1.182-55.707c0.277-13.058,3.958-22.57,10.995-28.503
			c6.986-5.885,15.848-8.561,26.526-8.064c10.774,0.503,19.161,3.712,25.216,9.597c6.015,5.846,8.917,12.78,8.748,20.831
			c-0.061,2.761-0.51,4.591-1.353,5.489c-0.846,0.9-2.261,1.324-4.245,1.272c-3.432-0.088-5.231-1.583-5.39-4.484
			c-0.076-1.739-0.261-3.422-0.562-5.055c-0.3-1.631-0.93-3.479-1.889-5.542c-0.96-2.063-2.237-3.882-3.824-5.453
			c-1.594-1.569-3.845-2.911-6.749-4.018c-2.92-1.108-6.313-1.744-10.183-1.9c-16.594-0.672-25.205,8.035-25.589,26.125
			l-1.174,55.344c-0.387,18.211,8.08,27.131,25.147,26.771c4.785-0.101,8.768-0.854,11.954-2.263
			c3.176-1.396,5.519-3.387,7.027-5.969c1.504-2.572,2.525-4.76,3.066-6.565c0.538-1.8,1.009-4.15,1.4-7.048
			c0.396-3.012,2.265-4.528,5.584-4.549c1.986-0.014,3.381,0.47,4.187,1.441c0.804,0.973,1.174,2.838,1.116,5.598
			c-0.174,8.17-3.43,15.131-9.801,20.918c-6.419,5.83-15.05,8.904-25.962,9.203c-10.589,0.289-19.223-2.561-25.835-8.582
			C48.892,164.324,45.681,154.686,45.961,141.504z"/>
		<path fill="#FFFFFF" d="M128.314,155.248c0.189-8.99,3.536-15.256,10.017-18.773c6.423-3.49,15.637-5.229,27.545-5.229
			l7.896-0.002l0.085-3.93c0.127-6.004-1.254-11.231-4.146-15.693c-2.908-4.479-7.481-6.771-13.759-6.869
			c-4.215-0.066-8.065,0.679-11.551,2.236c-3.498,1.568-5.362,2.35-5.577,2.348c-1.283-0.018-2.295-0.646-3.017-1.891
			c-0.729-1.24-1.077-2.593-1.045-4.051c0.044-2.162,2.398-4.114,7.041-5.845c4.616-1.717,9.505-2.521,14.665-2.412
			c9.807,0.209,16.844,3.396,21.177,9.534c4.31,6.11,6.357,13.795,6.16,23.087l-0.915,43.141c-0.025,1.219-0.504,2.252-1.438,3.104
			c-0.934,0.854-2.116,1.302-3.546,1.339c-1.329,0.036-2.424-0.351-3.272-1.16c-0.856-0.813-1.271-1.83-1.245-3.056l0.157-7.342
			c-7.095,8.739-15.046,13.254-23.876,13.493c-6.364,0.177-11.56-1.582-15.559-5.293
			C130.092,168.262,128.154,162.68,128.314,155.248z M138.837,154.079c-0.103,4.771,1.105,8.298,3.618,10.571
			c2.507,2.271,5.824,3.354,9.941,3.266c4.938-0.105,9.651-2.167,14.151-6.171c4.471-3.979,6.742-7.909,6.824-11.808l0.227-10.685
			l-6.496,0.034c-4.154,0.021-7.679,0.206-10.562,0.559c-2.9,0.354-5.784,0.99-8.658,1.909c-2.885,0.927-5.101,2.412-6.638,4.465
			C139.708,148.277,138.907,150.9,138.837,154.079z"/>
		<path fill="#FFFFFF" d="M201.27,170.457l1.473-69.407c0.023-1.093,0.487-2.015,1.398-2.764c0.906-0.744,2.052-1.104,3.435-1.077
			c1.28,0.027,2.355,0.437,3.225,1.226c0.868,0.79,1.288,1.735,1.267,2.835l-0.174,8.1c1.843-3.603,4.499-6.636,7.962-9.1
			c3.444-2.449,7.383-3.625,11.802-3.53l5.014,0.107c0.95,0.02,1.794,0.53,2.535,1.523c0.736,0.993,1.091,2.143,1.063,3.446
			c-0.027,1.305-0.432,2.441-1.209,3.406c-0.783,0.967-1.646,1.441-2.598,1.428l-5.012-0.078c-4.998-0.074-9.492,2.042-13.468,6.365
			c-4.003,4.346-6.081,10.055-6.229,17.104l-0.854,40.193c-0.023,1.086-0.512,2.074-1.463,2.965
			c-0.956,0.895-2.121,1.359-3.504,1.396c-1.285,0.034-2.388-0.373-3.31-1.224C201.694,172.523,201.244,171.552,201.27,170.457z"/>
		<path fill="#FFFFFF" d="M244.609,144.339l0.38-17.897c0.17-7.989,2.944-14.854,8.309-20.568
			c5.323-5.675,11.608-8.423,18.834-8.269c6.884,0.147,12.738,2.979,17.578,8.466c4.808,5.455,7.112,12.191,6.942,20.24
			c-0.061,2.881-0.397,5.192-1.008,6.943c-0.61,1.752-1.565,2.988-2.863,3.714c-1.304,0.729-2.485,1.198-3.561,1.41
			c-1.072,0.212-2.545,0.319-4.423,0.329l-30.943,0.152l-0.126,5.879c-0.133,6.251,1.735,11.225,5.596,14.908
			c3.839,3.666,8.819,5.424,14.92,5.293c3.075-0.066,5.77-0.646,8.087-1.734c2.305-1.084,4.069-2.156,5.299-3.219
			c1.224-1.055,2.188-1.592,2.9-1.604c0.977-0.018,1.827,0.51,2.561,1.58c0.729,1.07,1.08,2.122,1.059,3.152
			c-0.048,2.168-1.997,4.458-5.862,6.877c-3.892,2.434-8.723,3.732-14.505,3.893c-8.67,0.236-15.75-2.341-21.204-7.761
			C247.081,160.666,244.417,153.395,244.609,144.339z M254.015,131.232l27.444-0.002c2.691-0.002,4.486-0.336,5.396-1.006
			c0.903-0.67,1.382-2.084,1.431-4.246c0.106-5.15-1.384-9.695-4.476-13.654c-3.104-3.973-7.1-6.002-12-6.08
			c-4.752-0.075-8.854,1.747-12.3,5.475c-3.467,3.742-5.257,8.254-5.367,13.516L254.015,131.232z"/>
		<path fill="#FFFFFF" d="M304.832,161.973c0.021-1.022,0.35-2.057,0.981-3.092c0.63-1.031,1.338-1.559,2.119-1.572
			c0.605-0.01,1.548,0.563,2.823,1.713c1.271,1.148,3.102,2.312,5.483,3.483c2.375,1.169,5.226,1.716,8.544,1.644
			c4.487-0.098,7.794-1.174,9.938-3.229c2.132-2.048,3.232-4.625,3.302-7.731c0.076-3.611-0.929-6.484-3.02-8.625
			c-2.094-2.144-4.648-3.761-7.669-4.842c-3.028-1.089-6.095-2.189-9.189-3.302c-3.112-1.114-5.742-3.073-7.887-5.881
			c-2.154-2.813-3.18-6.58-3.08-11.291c0.119-5.629,1.936-10.494,5.442-14.578c3.492-4.065,8.614-6.018,15.332-5.875
			c4.138,0.09,7.961,0.951,11.479,2.578c3.505,1.621,5.229,3.326,5.191,5.125c-0.021,0.998-0.377,2.092-1.063,3.28
			c-0.693,1.193-1.493,1.781-2.407,1.771c-0.247-0.004-1.771-0.723-4.582-2.169c-2.823-1.447-5.711-2.199-8.666-2.247
			c-4.245-0.065-7.469,1.076-9.661,3.435c-2.194,2.363-3.33,5.045-3.394,8.039c-0.064,3.096,0.999,5.547,3.187,7.35
			c2.182,1.797,4.797,3.236,7.842,4.32c3.029,1.08,6.089,2.168,9.173,3.268c3.077,1.096,5.615,3.268,7.622,6.509
			c1.997,3.235,2.941,7.425,2.833,12.573c-0.126,5.988-1.985,10.742-5.591,14.271c-3.618,3.549-8.627,5.416-15.052,5.592
			c-5.626,0.154-10.387-0.912-14.262-3.207C306.707,166.977,304.779,164.535,304.832,161.973z"/>
		<path fill="#FFFFFF" d="M353.582,160.99c0.021-0.99,0.326-1.99,0.922-2.994c0.591-0.998,1.255-1.508,1.987-1.521
			c0.568-0.01,1.449,0.547,2.646,1.66c1.191,1.114,2.907,2.24,5.144,3.377c2.225,1.133,4.897,1.665,8.013,1.598
			c4.212-0.092,7.314-1.133,9.325-3.123c2.005-1.982,3.04-4.479,3.105-7.49c0.074-3.499-0.868-6.283-2.826-8.355
			c-1.964-2.076-4.362-3.644-7.193-4.695c-2.843-1.053-5.719-2.119-8.624-3.196c-2.917-1.08-5.381-2.978-7.393-5.694
			c-2.014-2.726-2.975-6.371-2.878-10.933c0.114-5.451,1.821-10.164,5.114-14.119c3.274-3.938,8.082-5.834,14.384-5.699
			c3.881,0.083,7.471,0.915,10.774,2.489c3.286,1.569,4.905,3.223,4.868,4.964c-0.021,0.97-0.354,2.027-1.002,3.181
			c-0.648,1.154-1.399,1.727-2.26,1.715c-0.233-0.002-1.666-0.699-4.301-2.1c-2.648-1.402-5.358-2.129-8.133-2.173
			c-3.982-0.063-7.01,1.045-9.063,3.33c-2.063,2.291-3.128,4.89-3.188,7.787c-0.063,2.997,0.933,5.373,2.981,7.117
			c2.044,1.739,4.499,3.133,7.354,4.185c2.842,1.047,5.712,2.102,8.607,3.165c2.886,1.062,5.268,3.166,7.149,6.308
			c1.873,3.137,2.759,7.196,2.65,12.187c-0.124,5.802-1.87,10.407-5.257,13.825c-3.399,3.435-8.104,5.24-14.133,5.406
			c-5.276,0.145-9.739-0.894-13.373-3.119C355.334,165.836,353.529,163.471,353.582,160.99z"/>
		<path fill="#FFFFFF" d="M399.168,151.416c0.16-7.568,2.554-12.841,7.156-15.799c4.572-2.941,11.132-4.405,19.618-4.406h5.64
			l0.069-3.322c0.108-5.074-0.864-9.492-2.921-13.259c-2.061-3.778-5.319-5.705-9.791-5.776c-2.995-0.045-5.74,0.59-8.22,1.912
			c-2.491,1.324-3.815,1.988-3.968,1.986c-0.914-0.012-1.631-0.541-2.139-1.586c-0.513-1.045-0.753-2.184-0.729-3.411
			c0.038-1.821,1.713-3.471,5.014-4.94c3.284-1.46,6.767-2.152,10.438-2.074c6.987,0.15,12.005,2.824,15.085,8.004
			c3.064,5.157,4.509,11.655,4.345,19.519l-0.777,36.498c-0.021,1.03-0.365,1.903-1.037,2.622c-0.671,0.722-1.517,1.095-2.539,1.121
			c-0.95,0.024-1.729-0.306-2.337-0.994c-0.609-0.688-0.902-1.55-0.882-2.586l0.133-6.207c-5.091,7.365-10.771,11.151-17.06,11.323
			c-4.526,0.123-8.209-1.376-11.034-4.516C400.391,162.376,399.034,157.672,399.168,151.416z M406.636,150.449
			c-0.087,4.02,0.764,6.996,2.541,8.919c1.774,1.921,4.13,2.845,7.061,2.78c3.516-0.076,6.88-1.803,10.101-5.172
			c3.207-3.354,4.84-6.67,4.908-9.963l0.192-9.031l-4.642,0.022c-2.963,0.015-5.479,0.168-7.532,0.464
			c-2.063,0.297-4.119,0.831-6.166,1.604c-2.054,0.778-3.63,2.028-4.729,3.757C407.27,145.563,406.693,147.771,406.636,150.449z"/>
	</g>
</g>
</svg>
