<?xml version="1.0" encoding="utf-8"?>
<!-- Generator: Adobe Illustrator 16.0.0, SVG Export Plug-In . SVG Version: 6.00 Build 0)  -->
<!DOCTYPE svg PUBLIC "-//W3C//DTD SVG 1.1//EN" "http://www.w3.org/Graphics/SVG/1.1/DTD/svg11.dtd">
<svg version="1.1" id="Capa_1" xmlns="http://www.w3.org/2000/svg" xmlns:xlink="http://www.w3.org/1999/xlink" x="0px" y="0px"
	 width="492.667px" height="114.667px" viewBox="0 0 492.667 114.667" enable-background="new 0 0 492.667 114.667"
	 xml:space="preserve">
<g>
	<path fill="#00809D" d="M35.703,85.115c-1.495,0-3.055-0.78-3.055-2.275V39.809c0-1.56,1.755-2.21,3.445-2.21
		c1.755,0,3.445,0.65,3.445,2.21v39.196h16.901c1.365,0,2.08,1.495,2.08,3.056c0,1.494-0.715,3.055-2.08,3.055H35.703z"/>
	<path fill="#00809D" d="M64.498,31.358c-0.26,0.13-0.52,0.195-0.78,0.195c-1.3,0-2.275-1.43-2.275-2.665
		c0-0.715,0.26-1.3,0.975-1.69l8.06-4.095c0.26-0.065,0.52-0.13,0.715-0.13c1.3,0,2.21,1.43,2.21,2.666
		c0,0.715-0.26,1.43-1.04,1.755L64.498,31.358z M63.652,39.809c0-1.56,1.755-2.21,3.445-2.21c1.755,0,3.445,0.65,3.445,2.21V82.84
		c0,1.495-1.69,2.275-3.445,2.275c-1.69,0-3.445-0.78-3.445-2.275V39.809z"/>
	<path fill="#00809D" d="M101.547,82.58L86.012,53.004V82.84c0,1.495-1.69,2.275-3.445,2.275c-1.69,0-3.445-0.78-3.445-2.275V39.874
		c0-1.625,1.69-2.275,3.445-2.275c2.47,0,3.64,0.91,5.2,3.9l14.431,28.146V39.809c0-1.56,1.755-2.21,3.445-2.21
		c1.755,0,3.445,0.65,3.445,2.21V82.84c0,1.495-1.69,2.275-3.445,2.275C103.953,85.115,102.458,84.27,101.547,82.58z"/>
	<path fill="#00809D" d="M124.557,58.594h10.01c1.43,0,2.275,1.301,2.275,2.795c0,1.236-0.715,2.666-2.275,2.666h-10.01v14.95
		h19.306c1.43,0,2.275,1.431,2.275,3.12c0,1.43-0.715,2.99-2.275,2.99h-23.141c-1.495,0-3.055-0.78-3.055-2.275V39.874
		c0-1.495,1.56-2.275,3.055-2.275h23.141c1.56,0,2.275,1.56,2.275,2.99c0,1.69-0.845,3.12-2.275,3.12h-19.306V58.594z"/>
	<path fill="#00809D" d="M148.281,82.255c0-0.194,0-0.39,0.065-0.585l12.936-42.122c0.52-1.56,2.405-2.34,4.355-2.34
		s3.9,0.78,4.42,2.34l12.87,42.122c0.065,0.195,0.13,0.391,0.13,0.585c0,1.626-2.405,2.86-4.355,2.86
		c-1.105,0-2.015-0.391-2.34-1.43l-2.665-9.23h-16.056l-2.665,9.23c-0.325,1.039-1.235,1.43-2.405,1.43
		C150.686,85.115,148.281,83.945,148.281,82.255z M172.137,68.93l-6.5-22.296l-6.5,22.296H172.137z"/>
	<path fill="#00809D" d="M201.19,39.809c0-1.17,0.91-2.21,2.275-2.21h12.35c8.19,0,14.951,3.185,14.951,13.26
		c0,7.735-3.965,11.571-9.166,12.871l9.101,17.096c0.195,0.325,0.26,0.715,0.26,0.976c0,1.754-2.21,3.51-4.16,3.51
		c-1.17,0-2.08-0.78-2.73-2.016l-9.49-18.59h-6.565V82.84c0,1.495-1.69,2.275-3.445,2.275c-1.69,0-3.38-0.78-3.38-2.275V39.809z
		 M208.015,43.708V59.18h7.8c4.875,0,8.061-2.081,8.061-7.736s-3.185-7.735-8.061-7.735H208.015z"/>
	<path fill="#00809D" d="M244.415,58.594h10.01c1.431,0,2.274,1.301,2.274,2.795c0,1.236-0.715,2.666-2.274,2.666h-10.01v14.95
		h19.306c1.43,0,2.274,1.431,2.274,3.12c0,1.43-0.715,2.99-2.274,2.99H240.58c-1.495,0-3.055-0.78-3.055-2.275V39.874
		c0-1.495,1.56-2.275,3.055-2.275h23.142c1.56,0,2.274,1.56,2.274,2.99c0,1.69-0.845,3.12-2.274,3.12h-19.306V58.594z"/>
	<path fill="#00809D" d="M291.411,72.505c0-11.505-21.127-7.021-21.127-22.621c0-9.62,8.061-12.48,15.016-12.48
		c4.226,0,11.83,1.105,11.83,4.68c0,1.3-0.909,3.705-2.859,3.705c-1.755,0-3.445-2.47-8.971-2.47c-4.744,0-8.125,1.82-8.125,5.915
		c0,9.621,21.126,5.265,21.126,22.555c0,9.296-6.24,13.846-14.821,13.846c-8.449,0-14.365-4.42-14.365-7.67
		c0-1.561,1.365-3.705,2.99-3.705c2.34,0,3.9,5.135,11.115,5.135C287.9,79.395,291.411,77.186,291.411,72.505z"/>
	<path fill="#00809D" d="M330.67,37.599c1.56,0,2.274,1.56,2.274,3.055c0,1.69-0.78,3.25-2.274,3.25H320.66V82.84
		c0,1.495-1.755,2.275-3.445,2.275c-1.755,0-3.444-0.78-3.444-2.275V43.904h-10.076c-1.43,0-2.275-1.495-2.275-3.185
		c0-1.495,0.715-3.12,2.275-3.12H330.67z"/>
	<path fill="#00809D" d="M336.844,71.01V52.094c0-10.53,6.305-14.495,14.561-14.495c8.189,0,14.625,3.965,14.625,14.495V71.01
		c0,10.53-6.436,14.496-14.625,14.496C343.149,85.506,336.844,81.54,336.844,71.01z M359.139,52.094c0-5.72-2.924-8.385-7.734-8.385
		c-4.875,0-7.67,2.666-7.67,8.385V71.01c0,5.721,2.795,8.385,7.67,8.385c4.811,0,7.734-2.664,7.734-8.385V52.094z"/>
	<path fill="#00809D" d="M396.514,82.58l-15.535-29.576V82.84c0,1.495-1.69,2.275-3.445,2.275c-1.689,0-3.445-0.78-3.445-2.275
		V39.874c0-1.625,1.689-2.275,3.445-2.275c2.471,0,3.641,0.91,5.2,3.9l14.431,28.146V39.809c0-1.56,1.755-2.21,3.445-2.21
		c1.755,0,3.445,0.65,3.445,2.21V82.84c0,1.495-1.69,2.275-3.445,2.275C398.919,85.115,397.424,84.27,396.514,82.58z"/>
	<path fill="#00809D" d="M412.633,39.809c0-1.56,1.755-2.21,3.445-2.21c1.754,0,3.445,0.65,3.445,2.21V82.84
		c0,1.495-1.691,2.275-3.445,2.275c-1.69,0-3.445-0.78-3.445-2.275V39.809z"/>
	<path fill="#00809D" d="M442.336,43.708c-5.004,0-7.799,2.666-7.799,8.385V71.01c0,5.721,2.795,8.385,7.93,8.385
		c6.631,0,7.215-4.484,7.475-7.345c0.131-1.69,1.496-2.275,3.381-2.275c2.404,0,3.51,0.716,3.51,3.575
		c0,7.15-5.914,12.156-14.82,12.156c-7.865,0-14.365-3.966-14.365-14.496V52.094c0-10.53,6.564-14.495,14.43-14.495
		c8.906,0,14.756,4.875,14.756,11.765c0,2.925-1.105,3.575-3.445,3.575c-2.08,0-3.379-0.715-3.445-2.275
		C449.813,48.389,449.032,43.708,442.336,43.708z"/>
</g>
<g>
	<g>
		<g>
			<g>
				
					<line fill="none" stroke="#645F54" stroke-width="2" stroke-linecap="round" stroke-linejoin="round" x1="286.333" y1="11.858" x2="286.432" y2="11.858"/>
				
					<line fill="none" stroke="#645F54" stroke-width="2" stroke-linecap="round" stroke-linejoin="round" stroke-dasharray="0.198,7.921" x1="294.353" y1="11.858" x2="485.249" y2="11.858"/>
				
					<line fill="none" stroke="#645F54" stroke-width="2" stroke-linecap="round" stroke-linejoin="round" x1="489.209" y1="11.858" x2="489.309" y2="11.858"/>
			</g>
		</g>
		<g>
			<g>
				
					<line fill="none" stroke="#645F54" stroke-width="2" stroke-linecap="round" stroke-linejoin="round" x1="6.629" y1="11.858" x2="6.729" y2="11.858"/>
				
					<line fill="none" stroke="#645F54" stroke-width="2" stroke-linecap="round" stroke-linejoin="round" stroke-dasharray="0.1975,7.9012" x1="14.63" y1="11.858" x2="196.951" y2="11.858"/>
				
					<line fill="none" stroke="#645F54" stroke-width="2" stroke-linecap="round" stroke-linejoin="round" x1="200.902" y1="11.858" x2="201.002" y2="11.858"/>
			</g>
		</g>
	</g>
	
		<rect x="237.651" y="5.841" transform="matrix(0.7071 -0.7071 0.7071 0.7071 62.979 175.7667)" fill="#645F54" width="12.032" height="12.033"/>
	<g>
		
			<rect x="261.924" y="8.094" transform="matrix(0.7071 -0.7071 0.7071 0.7071 69.4331 191.3422)" fill="#645F54" width="7.527" height="7.528"/>
		
			<rect x="217.886" y="8.094" transform="matrix(0.7071 -0.7071 0.7071 0.7071 56.5348 160.2029)" fill="#645F54" width="7.527" height="7.528"/>
	</g>
</g>
<g>
	<g>
		
			<line fill="none" stroke="#645F54" stroke-width="2" stroke-linecap="round" stroke-linejoin="round" x1="28.599" y1="106.608" x2="28.699" y2="106.608"/>
		
			<line fill="none" stroke="#645F54" stroke-width="2" stroke-linecap="round" stroke-linejoin="round" stroke-dasharray="0.1987,7.948" x1="36.646" y1="106.608" x2="203.754" y2="106.608"/>
		
			<line fill="none" stroke="#645F54" stroke-width="2" stroke-linecap="round" stroke-linejoin="round" x1="207.728" y1="106.608" x2="207.828" y2="106.608"/>
	</g>
</g>
<g>
	<g>
		
			<line fill="none" stroke="#645F54" stroke-width="2" stroke-linecap="round" stroke-linejoin="round" x1="470.456" y1="106.608" x2="470.356" y2="106.608"/>
		
			<line fill="none" stroke="#645F54" stroke-width="2" stroke-linecap="round" stroke-linejoin="round" stroke-dasharray="0.2025,8.0998" x1="462.255" y1="106.608" x2="283.656" y2="106.608"/>
		
			<line fill="none" stroke="#645F54" stroke-width="2" stroke-linecap="round" stroke-linejoin="round" x1="279.606" y1="106.608" x2="279.506" y2="106.608"/>
	</g>
</g>
<rect x="239.904" y="102.844" transform="matrix(-0.7071 -0.7071 0.7071 -0.7071 340.5829 354.2908)" fill="#645F54" width="7.527" height="7.528"/>
</svg>
