<?xml version="1.0" encoding="utf-8"?>
<!-- Generator: Adobe Illustrator 16.0.0, SVG Export Plug-In . SVG Version: 6.00 Build 0)  -->
<!DOCTYPE svg PUBLIC "-//W3C//DTD SVG 1.1//EN" "http://www.w3.org/Graphics/SVG/1.1/DTD/svg11.dtd">
<svg version="1.1" id="Capa_1" xmlns="http://www.w3.org/2000/svg" xmlns:xlink="http://www.w3.org/1999/xlink" x="0px" y="0px"
	 width="492.667px" height="114.667px" viewBox="0 0 492.667 114.667" enable-background="new 0 0 492.667 114.667"
	 xml:space="preserve">
<g>
	<g>
		<g>
			<g>
				
					<line fill="none" stroke="#645F54" stroke-width="2" stroke-linecap="round" stroke-linejoin="round" x1="286.333" y1="11.858" x2="286.432" y2="11.858"/>
				
					<line fill="none" stroke="#645F54" stroke-width="2" stroke-linecap="round" stroke-linejoin="round" stroke-dasharray="0.198,7.921" x1="294.353" y1="11.858" x2="485.25" y2="11.858"/>
				
					<line fill="none" stroke="#645F54" stroke-width="2" stroke-linecap="round" stroke-linejoin="round" x1="489.208" y1="11.858" x2="489.308" y2="11.858"/>
			</g>
		</g>
		<g>
			<g>
				
					<line fill="none" stroke="#645F54" stroke-width="2" stroke-linecap="round" stroke-linejoin="round" x1="6.629" y1="11.858" x2="6.729" y2="11.858"/>
				
					<line fill="none" stroke="#645F54" stroke-width="2" stroke-linecap="round" stroke-linejoin="round" stroke-dasharray="0.1975,7.9012" x1="14.63" y1="11.858" x2="196.951" y2="11.858"/>
				
					<line fill="none" stroke="#645F54" stroke-width="2" stroke-linecap="round" stroke-linejoin="round" x1="200.902" y1="11.858" x2="201.002" y2="11.858"/>
			</g>
		</g>
	</g>
	
		<rect x="237.644" y="5.838" transform="matrix(-0.7071 0.7071 -0.7071 -0.7071 424.3365 -152.0574)" fill="#645F54" width="12.032" height="12.033"/>
	<g>
		
			<rect x="261.922" y="8.095" transform="matrix(-0.7071 0.7071 -0.7071 -0.7071 461.9395 -167.6228)" fill="#645F54" width="7.527" height="7.528"/>
		
			<rect x="217.885" y="8.095" transform="matrix(-0.7071 0.7071 -0.7071 -0.7071 386.7626 -136.4835)" fill="#645F54" width="7.527" height="7.528"/>
	</g>
</g>
<g>
	<g>
		
			<line fill="none" stroke="#645F54" stroke-width="2" stroke-linecap="round" stroke-linejoin="round" x1="28.599" y1="106.608" x2="28.699" y2="106.608"/>
		
			<line fill="none" stroke="#645F54" stroke-width="2" stroke-linecap="round" stroke-linejoin="round" stroke-dasharray="0.1987,7.948" x1="36.646" y1="106.608" x2="203.754" y2="106.608"/>
		
			<line fill="none" stroke="#645F54" stroke-width="2" stroke-linecap="round" stroke-linejoin="round" x1="207.728" y1="106.608" x2="207.828" y2="106.608"/>
	</g>
</g>
<g>
	<g>
		
			<line fill="none" stroke="#645F54" stroke-width="2" stroke-linecap="round" stroke-linejoin="round" x1="470.457" y1="106.608" x2="470.357" y2="106.608"/>
		
			<line fill="none" stroke="#645F54" stroke-width="2" stroke-linecap="round" stroke-linejoin="round" stroke-dasharray="0.2025,8.0998" x1="462.255" y1="106.608" x2="283.656" y2="106.608"/>
		
			<line fill="none" stroke="#645F54" stroke-width="2" stroke-linecap="round" stroke-linejoin="round" x1="279.606" y1="106.608" x2="279.505" y2="106.608"/>
	</g>
</g>
<rect x="239.905" y="102.847" transform="matrix(0.7071 0.7071 -0.7071 0.7071 146.7427 -141.0694)" fill="#645F54" width="7.527" height="7.528"/>
<g>
	<path fill="#00809D" d="M124.58,79.137c0-13.85-25.43-8.451-25.43-27.23c0-11.58,9.703-15.023,18.075-15.023
		c5.086,0,14.241,1.331,14.241,5.634c0,1.565-1.096,4.46-3.443,4.46c-2.113,0-4.147-2.974-10.798-2.974
		c-5.712,0-9.781,2.191-9.781,7.121c0,11.58,25.43,6.338,25.43,27.151c0,11.189-7.512,16.667-17.84,16.667
		c-10.172,0-17.293-5.32-17.293-9.233c0-1.878,1.644-4.46,3.6-4.46c2.817,0,4.695,6.182,13.38,6.182
		C120.354,87.431,124.58,84.771,124.58,79.137z"/>
	<path fill="#00809D" d="M136.63,90.875c0-0.235,0-0.47,0.078-0.705l15.571-50.704c0.626-1.878,2.895-2.817,5.242-2.817
		c2.348,0,4.695,0.939,5.321,2.817l15.493,50.704c0.078,0.235,0.156,0.47,0.156,0.705c0,1.956-2.895,3.442-5.243,3.442
		c-1.33,0-2.425-0.47-2.816-1.722l-3.208-11.111h-19.327l-3.208,11.111c-0.391,1.252-1.487,1.722-2.895,1.722
		C139.525,94.317,136.63,92.909,136.63,90.875z M165.347,74.833l-7.825-26.839l-7.825,26.839H165.347z M155.644,29.606
		c-0.313,0.157-0.626,0.235-0.939,0.235c-1.565,0-2.739-1.722-2.739-3.208c0-0.861,0.313-1.565,1.174-2.035l9.703-4.929
		c0.313-0.079,0.626-0.157,0.861-0.157c1.565,0,2.66,1.721,2.66,3.208c0,0.861-0.313,1.722-1.252,2.113L155.644,29.606z"/>
	<path fill="#00809D" d="M184.674,39.857c0-1.8,1.8-2.739,3.678-2.739h14.241c8.372,0,15.806,2.504,15.806,13.537
		c0,6.495-2.582,10.877-6.651,12.677c4.851,1.877,8.06,5.086,8.06,13.066v1.487c0,12.128-6.808,16.432-15.571,16.432h-15.884
		c-2.269,0-3.678-1.252-3.678-2.66V39.857z M192.891,60.044h9.311c5.321,0,7.903-2.738,7.903-8.059c0-5.243-3.13-7.512-8.06-7.512
		h-9.155V60.044z M202.671,86.961c5.556,0,8.842-2.974,8.842-9.702v-1.252c0-6.886-3.286-9.39-8.842-9.39h-9.781v20.344H202.671z"/>
	<path fill="#00809D" d="M223.876,90.875c0-0.235,0-0.47,0.079-0.705l15.571-50.704c0.626-1.878,2.896-2.817,5.243-2.817
		c2.347,0,4.694,0.939,5.32,2.817l15.493,50.704c0.078,0.235,0.156,0.47,0.156,0.705c0,1.956-2.896,3.442-5.242,3.442
		c-1.33,0-2.426-0.47-2.817-1.722l-3.208-11.111h-19.327l-3.208,11.111c-0.391,1.252-1.486,1.722-2.895,1.722
		C226.772,94.317,223.876,92.909,223.876,90.875z M252.593,74.833l-7.824-26.839l-7.825,26.839H252.593z"/>
	<path fill="#00809D" d="M298.916,91.265l-18.701-35.603v35.916c0,1.8-2.034,2.738-4.146,2.738c-2.034,0-4.147-0.938-4.147-2.738
		V39.857c0-1.956,2.034-2.739,4.147-2.739c2.974,0,4.382,1.096,6.26,4.695l17.371,33.881V39.779c0-1.878,2.112-2.661,4.146-2.661
		c2.113,0,4.147,0.783,4.147,2.661v51.8c0,1.8-2.034,2.738-4.147,2.738C301.811,94.317,300.011,93.299,298.916,91.265z"/>
	<path fill="#00809D" d="M314.252,90.875c0-0.235,0-0.47,0.078-0.705l15.571-50.704c0.626-1.878,2.895-2.817,5.242-2.817
		s4.695,0.939,5.321,2.817l15.492,50.704c0.079,0.235,0.157,0.47,0.157,0.705c0,1.956-2.896,3.442-5.243,3.442
		c-1.33,0-2.426-0.47-2.816-1.722l-3.208-11.111H325.52l-3.208,11.111c-0.392,1.252-1.487,1.722-2.896,1.722
		C317.147,94.317,314.252,92.909,314.252,90.875z M342.969,74.833l-7.825-26.839l-7.824,26.839H342.969z"/>
	<path fill="#00809D" d="M386.24,79.137c0-13.85-25.43-8.451-25.43-27.23c0-11.58,9.702-15.023,18.075-15.023
		c5.086,0,14.241,1.331,14.241,5.634c0,1.565-1.096,4.46-3.443,4.46c-2.112,0-4.147-2.974-10.798-2.974
		c-5.712,0-9.781,2.191-9.781,7.121c0,11.58,25.431,6.338,25.431,27.151c0,11.189-7.512,16.667-17.841,16.667
		c-10.172,0-17.292-5.32-17.292-9.233c0-1.878,1.643-4.46,3.599-4.46c2.817,0,4.695,6.182,13.381,6.182
		C382.015,87.431,386.24,84.771,386.24,79.137z"/>
</g>
</svg>
