<?xml version="1.0" encoding="utf-8"?>
<!-- Generator: Adobe Illustrator 16.0.0, SVG Export Plug-In . SVG Version: 6.00 Build 0)  -->
<!DOCTYPE svg PUBLIC "-//W3C//DTD SVG 1.1//EN" "http://www.w3.org/Graphics/SVG/1.1/DTD/svg11.dtd">
<svg version="1.1" id="Capa_1" xmlns="http://www.w3.org/2000/svg" xmlns:xlink="http://www.w3.org/1999/xlink" x="0px" y="0px"
	 width="492.667px" height="114.667px" viewBox="0 0 492.667 114.667" enable-background="new 0 0 492.667 114.667"
	 xml:space="preserve">
<g>
	<g>
		<g>
			<g>
				
					<line fill="none" stroke="#645F54" stroke-width="2" stroke-linecap="round" stroke-linejoin="round" x1="286.333" y1="11.858" x2="286.432" y2="11.858"/>
				
					<line fill="none" stroke="#645F54" stroke-width="2" stroke-linecap="round" stroke-linejoin="round" stroke-dasharray="0.198,7.921" x1="294.353" y1="11.858" x2="485.25" y2="11.858"/>
				
					<line fill="none" stroke="#645F54" stroke-width="2" stroke-linecap="round" stroke-linejoin="round" x1="489.208" y1="11.858" x2="489.308" y2="11.858"/>
			</g>
		</g>
		<g>
			<g>
				
					<line fill="none" stroke="#645F54" stroke-width="2" stroke-linecap="round" stroke-linejoin="round" x1="6.629" y1="11.858" x2="6.729" y2="11.858"/>
				
					<line fill="none" stroke="#645F54" stroke-width="2" stroke-linecap="round" stroke-linejoin="round" stroke-dasharray="0.1975,7.9012" x1="14.63" y1="11.858" x2="196.951" y2="11.858"/>
				
					<line fill="none" stroke="#645F54" stroke-width="2" stroke-linecap="round" stroke-linejoin="round" x1="200.902" y1="11.858" x2="201.002" y2="11.858"/>
			</g>
		</g>
	</g>
	
		<rect x="237.644" y="5.838" transform="matrix(-0.7071 0.7071 -0.7071 -0.7071 424.3365 -152.0574)" fill="#645F54" width="12.032" height="12.033"/>
	<g>
		
			<rect x="261.922" y="8.095" transform="matrix(-0.7071 0.7071 -0.7071 -0.7071 461.9395 -167.6228)" fill="#645F54" width="7.527" height="7.528"/>
		
			<rect x="217.885" y="8.095" transform="matrix(-0.7071 0.7071 -0.7071 -0.7071 386.7626 -136.4835)" fill="#645F54" width="7.527" height="7.528"/>
	</g>
</g>
<g>
	<g>
		
			<line fill="none" stroke="#645F54" stroke-width="2" stroke-linecap="round" stroke-linejoin="round" x1="28.599" y1="106.608" x2="28.699" y2="106.608"/>
		
			<line fill="none" stroke="#645F54" stroke-width="2" stroke-linecap="round" stroke-linejoin="round" stroke-dasharray="0.1987,7.948" x1="36.646" y1="106.608" x2="203.754" y2="106.608"/>
		
			<line fill="none" stroke="#645F54" stroke-width="2" stroke-linecap="round" stroke-linejoin="round" x1="207.728" y1="106.608" x2="207.828" y2="106.608"/>
	</g>
</g>
<g>
	<g>
		
			<line fill="none" stroke="#645F54" stroke-width="2" stroke-linecap="round" stroke-linejoin="round" x1="470.457" y1="106.608" x2="470.357" y2="106.608"/>
		
			<line fill="none" stroke="#645F54" stroke-width="2" stroke-linecap="round" stroke-linejoin="round" stroke-dasharray="0.2025,8.0998" x1="462.255" y1="106.608" x2="283.656" y2="106.608"/>
		
			<line fill="none" stroke="#645F54" stroke-width="2" stroke-linecap="round" stroke-linejoin="round" x1="279.606" y1="106.608" x2="279.505" y2="106.608"/>
	</g>
</g>
<rect x="239.905" y="102.847" transform="matrix(0.7071 0.7071 -0.7071 0.7071 146.7427 -141.0694)" fill="#645F54" width="7.527" height="7.528"/>
<g>
	<path fill="#00809D" d="M38.389,35.857c0-1.8,1.8-2.739,3.678-2.739h14.241c8.372,0,15.806,2.504,15.806,13.537
		c0,6.495-2.582,10.877-6.651,12.677c4.851,1.877,8.06,5.086,8.06,13.066v1.487c0,12.128-6.808,16.432-15.571,16.432H42.067
		c-2.269,0-3.678-1.252-3.678-2.66V35.857z M46.605,56.044h9.311c5.321,0,7.903-2.738,7.903-8.059c0-5.243-3.13-7.512-8.06-7.512
		h-9.155V56.044z M56.386,82.961c5.556,0,8.842-2.974,8.842-9.702v-1.252c0-6.886-3.286-9.39-8.842-9.39h-9.781v20.344H56.386z"/>
	<path fill="#00809D" d="M77.591,86.875c0-0.235,0-0.47,0.079-0.705l15.571-50.704c0.626-1.878,2.896-2.817,5.243-2.817
		c2.348,0,4.695,0.939,5.321,2.817l15.493,50.704c0.078,0.235,0.156,0.47,0.156,0.705c0,1.956-2.895,3.442-5.242,3.442
		c-1.331,0-2.426-0.47-2.817-1.722l-3.208-11.111H88.859l-3.208,11.111c-0.391,1.252-1.486,1.722-2.895,1.722
		C80.487,90.317,77.591,88.909,77.591,86.875z M106.308,70.833l-7.825-26.839l-7.825,26.839H106.308z"/>
	<path fill="#00809D" d="M125.636,35.857c0-1.8,1.799-2.739,3.677-2.739h14.241c8.373,0,15.806,2.504,15.806,13.537
		c0,6.495-2.582,10.877-6.651,12.677c4.852,1.877,8.06,5.086,8.06,13.066v1.487c0,12.128-6.808,16.432-15.571,16.432h-15.884
		c-2.269,0-3.677-1.252-3.677-2.66V35.857z M133.852,56.044h9.312c5.32,0,7.903-2.738,7.903-8.059c0-5.243-3.13-7.512-8.06-7.512
		h-9.155V56.044z M143.633,82.961c5.556,0,8.842-2.974,8.842-9.702v-1.252c0-6.886-3.286-9.39-8.842-9.39h-9.781v20.344H143.633z"/>
	<path fill="#00809D" d="M180.802,67.782c0-0.313-0.157-0.626-0.235-0.86L164.37,37.735c-0.234-0.47-0.313-0.861-0.313-1.174
		c0-2.034,3.052-3.443,5.243-3.443c1.33,0,2.034,0.626,2.739,1.878L184.949,59.8l12.833-24.804c0.626-1.252,1.409-1.878,2.739-1.878
		c2.191,0,5.164,1.409,5.164,3.443c0,0.313,0,0.704-0.234,1.174l-16.197,29.187c-0.078,0.234-0.157,0.547-0.157,0.86v19.797
		c0,1.8-2.113,2.738-4.147,2.738c-2.113,0-4.147-0.938-4.147-2.738V67.782z"/>
	<path fill="#00809D" d="M244.652,40.474c-6.025,0-9.39,3.208-9.39,10.094v22.77c0,6.886,3.365,10.094,9.546,10.094
		c7.981,0,8.686-5.399,8.999-8.842c0.156-2.034,1.8-2.738,4.068-2.738c2.896,0,4.226,0.86,4.226,4.303
		c0,8.607-7.12,14.633-17.84,14.633c-9.468,0-17.293-4.773-17.293-17.449v-22.77c0-12.676,7.903-17.449,17.371-17.449
		c10.72,0,17.762,5.869,17.762,14.163c0,3.521-1.33,4.304-4.147,4.304c-2.504,0-4.068-0.86-4.146-2.738
		C253.65,46.107,252.711,40.474,244.652,40.474z"/>
	<path fill="#00809D" d="M297.625,63.948h-19.483v23.631c0,1.8-2.035,2.738-4.147,2.738c-2.034,0-4.147-0.938-4.147-2.738v-51.8
		c0-1.878,2.113-2.661,4.147-2.661c2.112,0,4.147,0.783,4.147,2.661v21.596h19.483V35.779c0-1.878,2.112-2.661,4.146-2.661
		c2.113,0,4.147,0.783,4.147,2.661v51.8c0,1.8-2.034,2.738-4.147,2.738c-2.034,0-4.146-0.938-4.146-2.738V63.948z"/>
	<path fill="#00809D" d="M312.179,86.875c0-0.235,0-0.47,0.078-0.705l15.571-50.704c0.626-1.878,2.895-2.817,5.242-2.817
		s4.695,0.939,5.321,2.817l15.492,50.704c0.078,0.235,0.157,0.47,0.157,0.705c0,1.956-2.896,3.442-5.243,3.442
		c-1.33,0-2.426-0.47-2.816-1.722l-3.208-11.111h-19.327l-3.208,11.111c-0.392,1.252-1.487,1.722-2.896,1.722
		C315.074,90.317,312.179,88.909,312.179,86.875z M340.896,70.833l-7.825-26.839l-7.824,26.839H340.896z"/>
	<path fill="#00809D" d="M360.223,35.779c0-1.878,2.113-2.661,4.147-2.661c2.112,0,4.146,0.783,4.146,2.661v51.8
		c0,1.8-2.034,2.738-4.146,2.738c-2.034,0-4.147-0.938-4.147-2.738V35.779z"/>
	<path fill="#00809D" d="M396.374,33.118c9.938,0,17.605,4.773,17.605,17.449v22.3c0,12.676-7.668,17.449-17.605,17.449h-13.85
		c-2.19,0-3.678-1.252-3.678-2.66V35.779c0-1.409,1.487-2.661,3.678-2.661H396.374z M387.14,40.474v42.488h9.233
		c5.869,0,9.312-3.208,9.312-10.094v-22.3c0-6.886-3.442-10.094-9.312-10.094H387.14z"/>
	<path fill="#00809D" d="M431.976,58.392h12.051c1.721,0,2.738,1.564,2.738,3.364c0,1.487-0.86,3.208-2.738,3.208h-12.051v17.997
		h23.24c1.721,0,2.738,1.722,2.738,3.756c0,1.722-0.86,3.6-2.738,3.6H427.36c-1.8,0-3.678-0.938-3.678-2.738V35.857
		c0-1.8,1.878-2.739,3.678-2.739h27.856c1.878,0,2.738,1.878,2.738,3.6c0,2.034-1.018,3.756-2.738,3.756h-23.24V58.392z"/>
</g>
</svg>
