<?xml version="1.0" encoding="utf-8"?>
<!-- Generator: Adobe Illustrator 16.0.0, SVG Export Plug-In . SVG Version: 6.00 Build 0)  -->
<!DOCTYPE svg PUBLIC "-//W3C//DTD SVG 1.1//EN" "http://www.w3.org/Graphics/SVG/1.1/DTD/svg11.dtd">
<svg version="1.1" id="Capa_1" xmlns="http://www.w3.org/2000/svg" xmlns:xlink="http://www.w3.org/1999/xlink" x="0px" y="0px"
	 width="492.667px" height="114.667px" viewBox="0 0 492.667 114.667" enable-background="new 0 0 492.667 114.667"
	 xml:space="preserve">
<g>
	<g>
		<g>
			<g>
				
					<line fill="none" stroke="#645F54" stroke-width="2" stroke-linecap="round" stroke-linejoin="round" x1="286.333" y1="11.858" x2="286.432" y2="11.858"/>
				
					<line fill="none" stroke="#645F54" stroke-width="2" stroke-linecap="round" stroke-linejoin="round" stroke-dasharray="0.198,7.921" x1="294.353" y1="11.858" x2="485.25" y2="11.858"/>
				
					<line fill="none" stroke="#645F54" stroke-width="2" stroke-linecap="round" stroke-linejoin="round" x1="489.208" y1="11.858" x2="489.308" y2="11.858"/>
			</g>
		</g>
		<g>
			<g>
				
					<line fill="none" stroke="#645F54" stroke-width="2" stroke-linecap="round" stroke-linejoin="round" x1="6.629" y1="11.858" x2="6.729" y2="11.858"/>
				
					<line fill="none" stroke="#645F54" stroke-width="2" stroke-linecap="round" stroke-linejoin="round" stroke-dasharray="0.1975,7.9012" x1="14.63" y1="11.858" x2="196.951" y2="11.858"/>
				
					<line fill="none" stroke="#645F54" stroke-width="2" stroke-linecap="round" stroke-linejoin="round" x1="200.902" y1="11.858" x2="201.002" y2="11.858"/>
			</g>
		</g>
	</g>
	
		<rect x="237.644" y="5.838" transform="matrix(-0.7071 0.7071 -0.7071 -0.7071 424.3365 -152.0574)" fill="#645F54" width="12.032" height="12.033"/>
	<g>
		
			<rect x="261.922" y="8.095" transform="matrix(-0.7071 0.7071 -0.7071 -0.7071 461.9395 -167.6228)" fill="#645F54" width="7.527" height="7.528"/>
		
			<rect x="217.885" y="8.095" transform="matrix(-0.7071 0.7071 -0.7071 -0.7071 386.7626 -136.4835)" fill="#645F54" width="7.527" height="7.528"/>
	</g>
</g>
<g>
	<g>
		
			<line fill="none" stroke="#645F54" stroke-width="2" stroke-linecap="round" stroke-linejoin="round" x1="28.599" y1="106.608" x2="28.699" y2="106.608"/>
		
			<line fill="none" stroke="#645F54" stroke-width="2" stroke-linecap="round" stroke-linejoin="round" stroke-dasharray="0.1987,7.948" x1="36.646" y1="106.608" x2="203.754" y2="106.608"/>
		
			<line fill="none" stroke="#645F54" stroke-width="2" stroke-linecap="round" stroke-linejoin="round" x1="207.728" y1="106.608" x2="207.828" y2="106.608"/>
	</g>
</g>
<g>
	<g>
		
			<line fill="none" stroke="#645F54" stroke-width="2" stroke-linecap="round" stroke-linejoin="round" x1="470.457" y1="106.608" x2="470.357" y2="106.608"/>
		
			<line fill="none" stroke="#645F54" stroke-width="2" stroke-linecap="round" stroke-linejoin="round" stroke-dasharray="0.2025,8.0998" x1="462.255" y1="106.608" x2="283.656" y2="106.608"/>
		
			<line fill="none" stroke="#645F54" stroke-width="2" stroke-linecap="round" stroke-linejoin="round" x1="279.606" y1="106.608" x2="279.505" y2="106.608"/>
	</g>
</g>
<rect x="239.905" y="102.847" transform="matrix(0.7071 0.7071 -0.7071 0.7071 146.7427 -141.0694)" fill="#645F54" width="7.527" height="7.528"/>
<g>
	<path fill="#00809D" d="M48.131,86.875c0-0.235,0-0.47,0.079-0.705l15.571-50.704c0.626-1.878,2.896-2.817,5.243-2.817
		c2.348,0,4.695,0.939,5.321,2.817l15.493,50.704c0.078,0.235,0.156,0.47,0.156,0.705c0,1.956-2.895,3.442-5.242,3.442
		c-1.331,0-2.426-0.47-2.817-1.722l-3.208-11.111H59.399l-3.208,11.111c-0.391,1.252-1.486,1.722-2.895,1.722
		C51.027,90.317,48.131,88.909,48.131,86.875z M76.848,70.833l-7.825-26.839l-7.825,26.839H76.848z"/>
	<path fill="#00809D" d="M99.854,90.317c-1.799,0-3.677-0.938-3.677-2.738v-51.8c0-1.878,2.112-2.661,4.147-2.661
		c2.113,0,4.147,0.783,4.147,2.661v47.183h20.344c1.643,0,2.504,1.8,2.504,3.678c0,1.8-0.861,3.678-2.504,3.678H99.854z"/>
	<path fill="#00809D" d="M158.147,69.425c-0.861,1.408-1.956,1.878-3.051,1.878c-1.018,0-2.113-0.47-2.817-1.878L141.794,49.55
		v38.028c0,1.8-2.035,2.738-4.147,2.738c-2.035,0-4.147-0.938-4.147-2.738V37.265c0-3.051,2.035-4.147,4.147-4.147
		c2.973,0,4.616,1.017,6.573,4.695l10.955,20.735l11.111-20.735c1.957-3.678,3.521-4.695,6.495-4.695
		c2.191,0,4.147,1.096,4.147,4.147v50.313c0,1.8-2.034,2.738-4.147,2.738c-2.034,0-4.147-0.938-4.147-2.738V50.02L158.147,69.425z"
		/>
	<path fill="#00809D" d="M186.709,73.337v-22.77c0-12.676,7.59-17.449,17.527-17.449c9.859,0,17.605,4.773,17.605,17.449v22.77
		c0,12.676-7.747,17.449-17.605,17.449C194.299,90.787,186.709,86.013,186.709,73.337z M213.547,50.567
		c0-6.886-3.521-10.094-9.311-10.094c-5.869,0-9.233,3.208-9.233,10.094v22.77c0,6.886,3.365,10.094,9.233,10.094
		c5.79,0,9.311-3.208,9.311-10.094V50.567z"/>
	<path fill="#00809D" d="M259.323,63.948h-19.484v23.631c0,1.8-2.035,2.738-4.147,2.738c-2.035,0-4.147-0.938-4.147-2.738v-51.8
		c0-1.878,2.113-2.661,4.147-2.661c2.112,0,4.147,0.783,4.147,2.661v21.596h19.484V35.779c0-1.878,2.112-2.661,4.146-2.661
		c2.113,0,4.147,0.783,4.147,2.661v51.8c0,1.8-2.034,2.738-4.147,2.738c-2.034,0-4.146-0.938-4.146-2.738V63.948z"/>
	<path fill="#00809D" d="M273.876,86.875c0-0.235,0-0.47,0.078-0.705l15.571-50.704c0.626-1.878,2.895-2.817,5.242-2.817
		s4.695,0.939,5.321,2.817l15.492,50.704c0.078,0.235,0.157,0.47,0.157,0.705c0,1.956-2.896,3.442-5.243,3.442
		c-1.33,0-2.426-0.47-2.816-1.722l-3.208-11.111h-19.327l-3.208,11.111c-0.392,1.252-1.487,1.722-2.896,1.722
		C276.771,90.317,273.876,88.909,273.876,86.875z M302.593,70.833l-7.825-26.839l-7.824,26.839H302.593z"/>
	<path fill="#00809D" d="M339.448,33.118c9.938,0,17.605,4.773,17.605,17.449v22.3c0,12.676-7.668,17.449-17.605,17.449h-13.85
		c-2.19,0-3.678-1.252-3.678-2.66V35.779c0-1.409,1.487-2.661,3.678-2.661H339.448z M330.214,40.474v42.488h9.233
		c5.869,0,9.312-3.208,9.312-10.094v-22.3c0-6.886-3.442-10.094-9.312-10.094H330.214z"/>
	<path fill="#00809D" d="M362.689,86.875c0-0.235,0-0.47,0.078-0.705l15.571-50.704c0.626-1.878,2.895-2.817,5.242-2.817
		s4.695,0.939,5.321,2.817l15.492,50.704c0.078,0.235,0.157,0.47,0.157,0.705c0,1.956-2.896,3.442-5.243,3.442
		c-1.33,0-2.426-0.47-2.816-1.722l-3.208-11.111h-19.327l-3.208,11.111c-0.392,1.252-1.487,1.722-2.896,1.722
		C365.583,90.317,362.689,88.909,362.689,86.875z M391.406,70.833l-7.825-26.839l-7.824,26.839H391.406z"/>
	<path fill="#00809D" d="M434.677,75.137c0-13.85-25.431-8.451-25.431-27.23c0-11.58,9.702-15.023,18.075-15.023
		c5.086,0,14.24,1.331,14.24,5.634c0,1.565-1.095,4.46-3.442,4.46c-2.112,0-4.147-2.974-10.798-2.974
		c-5.712,0-9.781,2.191-9.781,7.121c0,11.58,25.431,6.338,25.431,27.151c0,11.189-7.512,16.667-17.841,16.667
		c-10.172,0-17.292-5.32-17.292-9.233c0-1.878,1.643-4.46,3.599-4.46c2.817,0,4.695,6.182,13.381,6.182
		C430.452,83.431,434.677,80.771,434.677,75.137z"/>
</g>
</svg>
