<?xml version="1.0" encoding="utf-8"?>
<!-- Generator: Adobe Illustrator 16.0.0, SVG Export Plug-In . SVG Version: 6.00 Build 0)  -->
<!DOCTYPE svg PUBLIC "-//W3C//DTD SVG 1.1//EN" "http://www.w3.org/Graphics/SVG/1.1/DTD/svg11.dtd">
<svg version="1.1" id="Capa_1" xmlns="http://www.w3.org/2000/svg" xmlns:xlink="http://www.w3.org/1999/xlink" x="0px" y="0px"
	 width="492.667px" height="114.667px" viewBox="0 0 492.667 114.667" enable-background="new 0 0 492.667 114.667"
	 xml:space="preserve">
<g>
	<g>
		<g>
			<g>
				
					<line fill="none" stroke="#645F54" stroke-width="2" stroke-linecap="round" stroke-linejoin="round" x1="286.333" y1="11.858" x2="286.432" y2="11.858"/>
				
					<line fill="none" stroke="#645F54" stroke-width="2" stroke-linecap="round" stroke-linejoin="round" stroke-dasharray="0.198,7.921" x1="294.353" y1="11.858" x2="485.25" y2="11.858"/>
				
					<line fill="none" stroke="#645F54" stroke-width="2" stroke-linecap="round" stroke-linejoin="round" x1="489.208" y1="11.858" x2="489.308" y2="11.858"/>
			</g>
		</g>
		<g>
			<g>
				
					<line fill="none" stroke="#645F54" stroke-width="2" stroke-linecap="round" stroke-linejoin="round" x1="6.629" y1="11.858" x2="6.729" y2="11.858"/>
				
					<line fill="none" stroke="#645F54" stroke-width="2" stroke-linecap="round" stroke-linejoin="round" stroke-dasharray="0.1975,7.9012" x1="14.63" y1="11.858" x2="196.951" y2="11.858"/>
				
					<line fill="none" stroke="#645F54" stroke-width="2" stroke-linecap="round" stroke-linejoin="round" x1="200.902" y1="11.858" x2="201.002" y2="11.858"/>
			</g>
		</g>
	</g>
	
		<rect x="237.644" y="5.838" transform="matrix(-0.7071 0.7071 -0.7071 -0.7071 424.3365 -152.0574)" fill="#645F54" width="12.032" height="12.033"/>
	<g>
		
			<rect x="261.922" y="8.095" transform="matrix(-0.7071 0.7071 -0.7071 -0.7071 461.9395 -167.6228)" fill="#645F54" width="7.527" height="7.528"/>
		
			<rect x="217.885" y="8.095" transform="matrix(-0.7071 0.7071 -0.7071 -0.7071 386.7626 -136.4835)" fill="#645F54" width="7.527" height="7.528"/>
	</g>
</g>
<g>
	<g>
		
			<line fill="none" stroke="#645F54" stroke-width="2" stroke-linecap="round" stroke-linejoin="round" x1="28.599" y1="106.608" x2="28.699" y2="106.608"/>
		
			<line fill="none" stroke="#645F54" stroke-width="2" stroke-linecap="round" stroke-linejoin="round" stroke-dasharray="0.1987,7.948" x1="36.646" y1="106.608" x2="203.754" y2="106.608"/>
		
			<line fill="none" stroke="#645F54" stroke-width="2" stroke-linecap="round" stroke-linejoin="round" x1="207.728" y1="106.608" x2="207.828" y2="106.608"/>
	</g>
</g>
<g>
	<g>
		
			<line fill="none" stroke="#645F54" stroke-width="2" stroke-linecap="round" stroke-linejoin="round" x1="470.457" y1="106.608" x2="470.357" y2="106.608"/>
		
			<line fill="none" stroke="#645F54" stroke-width="2" stroke-linecap="round" stroke-linejoin="round" stroke-dasharray="0.2025,8.0998" x1="462.255" y1="106.608" x2="283.656" y2="106.608"/>
		
			<line fill="none" stroke="#645F54" stroke-width="2" stroke-linecap="round" stroke-linejoin="round" x1="279.606" y1="106.608" x2="279.505" y2="106.608"/>
	</g>
</g>
<rect x="239.905" y="102.847" transform="matrix(0.7071 0.7071 -0.7071 0.7071 146.7427 -141.0694)" fill="#645F54" width="7.527" height="7.528"/>
<g>
	<path fill="#00809D" d="M104.586,70.425c-0.86,1.408-1.956,1.878-3.052,1.878c-1.017,0-2.112-0.47-2.816-1.878L88.233,50.55v38.028
		c0,1.8-2.034,2.738-4.147,2.738c-2.035,0-4.147-0.938-4.147-2.738V38.265c0-3.051,2.034-4.147,4.147-4.147
		c2.973,0,4.617,1.017,6.573,4.695l10.955,20.735l11.111-20.735c1.956-3.678,3.521-4.695,6.495-4.695
		c2.191,0,4.147,1.096,4.147,4.147v50.313c0,1.8-2.034,2.738-4.147,2.738c-2.035,0-4.147-0.938-4.147-2.738V51.02L104.586,70.425z"
		/>
	<path fill="#00809D" d="M129.626,87.875c0-0.235,0-0.47,0.079-0.705l15.571-50.704c0.626-1.878,2.896-2.817,5.243-2.817
		c2.348,0,4.695,0.939,5.321,2.817l15.493,50.704c0.078,0.235,0.156,0.47,0.156,0.705c0,1.956-2.895,3.442-5.242,3.442
		c-1.331,0-2.426-0.47-2.817-1.722l-3.208-11.111h-19.327l-3.208,11.111c-0.391,1.252-1.486,1.722-2.895,1.722
		C132.522,91.317,129.626,89.909,129.626,87.875z M158.343,71.833l-7.825-26.839l-7.825,26.839H158.343z"/>
	<path fill="#00809D" d="M201.614,76.137c0-13.85-25.43-8.451-25.43-27.23c0-11.58,9.703-15.023,18.075-15.023
		c5.086,0,14.241,1.331,14.241,5.634c0,1.565-1.095,4.46-3.443,4.46c-2.113,0-4.147-2.974-10.798-2.974
		c-5.712,0-9.781,2.191-9.781,7.121c0,11.58,25.431,6.338,25.431,27.151c0,11.189-7.512,16.667-17.841,16.667
		c-10.172,0-17.292-5.32-17.292-9.233c0-1.878,1.643-4.46,3.6-4.46c2.817,0,4.695,6.182,13.38,6.182
		C197.389,84.431,201.614,81.771,201.614,76.137z"/>
	<path fill="#00809D" d="M234.87,41.474c-6.025,0-9.39,3.208-9.39,10.094v22.77c0,6.886,3.365,10.094,9.546,10.094
		c7.981,0,8.685-5.399,8.999-8.842c0.156-2.034,1.8-2.738,4.068-2.738c2.896,0,4.226,0.86,4.226,4.303
		c0,8.607-7.12,14.633-17.84,14.633c-9.468,0-17.292-4.773-17.292-17.449v-22.77c0-12.676,7.903-17.449,17.371-17.449
		c10.72,0,17.762,5.869,17.762,14.163c0,3.521-1.33,4.304-4.147,4.304c-2.504,0-4.068-0.86-4.146-2.738
		C243.869,47.107,242.929,41.474,234.87,41.474z"/>
	<path fill="#00809D" d="M259.517,74.337v-22.77c0-12.676,7.59-17.449,17.527-17.449c9.859,0,17.605,4.773,17.605,17.449v22.77
		c0,12.676-7.746,17.449-17.605,17.449C267.107,91.787,259.517,87.013,259.517,74.337z M286.356,51.567
		c0-6.886-3.521-10.094-9.312-10.094c-5.868,0-9.232,3.208-9.232,10.094v22.77c0,6.886,3.364,10.094,9.232,10.094
		c5.791,0,9.312-3.208,9.312-10.094V51.567z"/>
	<path fill="#00809D" d="M334.48,34.118c1.878,0,2.738,1.878,2.738,3.678c0,2.035-0.938,3.913-2.738,3.913h-12.05v46.87
		c0,1.8-2.113,2.738-4.147,2.738c-2.112,0-4.146-0.938-4.146-2.738v-46.87h-12.129c-1.722,0-2.738-1.8-2.738-3.834
		c0-1.799,0.86-3.756,2.738-3.756H334.48z"/>
	<path fill="#00809D" d="M334.95,87.875c0-0.235,0-0.47,0.078-0.705l15.571-50.704c0.626-1.878,2.895-2.817,5.242-2.817
		s4.695,0.939,5.321,2.817l15.492,50.704c0.079,0.235,0.157,0.47,0.157,0.705c0,1.956-2.896,3.442-5.243,3.442
		c-1.33,0-2.426-0.47-2.816-1.722l-3.208-11.111h-19.327l-3.208,11.111c-0.392,1.252-1.487,1.722-2.896,1.722
		C337.844,91.317,334.95,89.909,334.95,87.875z M363.667,71.833l-7.825-26.839l-7.824,26.839H363.667z"/>
	<path fill="#00809D" d="M406.937,76.137c0-13.85-25.43-8.451-25.43-27.23c0-11.58,9.702-15.023,18.075-15.023
		c5.086,0,14.241,1.331,14.241,5.634c0,1.565-1.096,4.46-3.443,4.46c-2.112,0-4.147-2.974-10.798-2.974
		c-5.712,0-9.781,2.191-9.781,7.121c0,11.58,25.431,6.338,25.431,27.151c0,11.189-7.512,16.667-17.841,16.667
		c-10.172,0-17.292-5.32-17.292-9.233c0-1.878,1.643-4.46,3.599-4.46c2.817,0,4.695,6.182,13.381,6.182
		C402.712,84.431,406.937,81.771,406.937,76.137z"/>
</g>
</svg>
