<?xml version="1.0" encoding="utf-8"?>
<!-- Generator: Adobe Illustrator 16.0.0, SVG Export Plug-In . SVG Version: 6.00 Build 0)  -->
<!DOCTYPE svg PUBLIC "-//W3C//DTD SVG 1.1//EN" "http://www.w3.org/Graphics/SVG/1.1/DTD/svg11.dtd">
<svg version="1.1" id="Layer_1" xmlns="http://www.w3.org/2000/svg" xmlns:xlink="http://www.w3.org/1999/xlink" x="0px" y="0px"
	 width="40.574px" height="297.706px" viewBox="0 0 40.574 297.706" enable-background="new 0 0 40.574 297.706"
	 xml:space="preserve">
<g>
	<text transform="matrix(0 -1 1 0 27.5391 211.4609)" fill="#FFFFFF" font-family="'Dosis-Regular'" font-size="18.8552">ASESOR DE COMPRAS</text>
	<g>
		<path fill="#FFFFFF" d="M17.32,223.479c-5.345,0-9.68,3.489-9.68,7.793c0,2.249,1.186,4.274,3.081,5.697l0.01,4.942l4.105-3.108
			c0.793,0.169,1.628,0.26,2.484,0.26c5.348,0,9.683-3.488,9.683-7.791C27.003,226.968,22.667,223.479,17.32,223.479z"/>
		<path fill="#FFFFFF" d="M32.935,234.938c0-3.071-2.364-5.696-5.708-6.764c0.447,0.963,0.692,2.007,0.692,3.097
			c0,4.787-4.724,8.684-10.545,8.707c1.645,1.379,3.958,2.237,6.519,2.237c0.869,0,1.708-0.102,2.504-0.284l3.685,3.034l0.211-4.887
			C31.925,238.764,32.935,236.945,32.935,234.938z"/>
	</g>
</g>
</svg>
