<?xml version="1.0" encoding="utf-8"?>
<!-- Generator: Adobe Illustrator 16.0.0, SVG Export Plug-In . SVG Version: 6.00 Build 0)  -->
<!DOCTYPE svg PUBLIC "-//W3C//DTD SVG 1.1//EN" "http://www.w3.org/Graphics/SVG/1.1/DTD/svg11.dtd">
<svg version="1.1" id="Capa_1" xmlns="http://www.w3.org/2000/svg" xmlns:xlink="http://www.w3.org/1999/xlink" x="0px" y="0px"
	 width="130px" height="128.167px" viewBox="0 0 130 128.167" enable-background="new 0 0 130 128.167" xml:space="preserve">
<g>
	<polygon fill="#645F54" points="22.955,19.874 17.77,20.406 24.224,24.931 	"/>
</g>
<g>
	<g>
		<path fill="#645F54" d="M17.414,27.777c0.363,0.255,0.861,0.168,1.115-0.194c0.254-0.363,0.179-0.879-0.185-1.133
			c-0.361-0.253-0.848-0.182-1.103,0.181l-0.023,0.034C16.965,27.026,17.052,27.524,17.414,27.777z"/>
	</g>
	<g>
		<path fill="#645F54" d="M28.454,115.815l-0.128-0.109c-0.334-0.291-0.37-0.797-0.08-1.129c0.289-0.334,0.793-0.373,1.129-0.08
			l0.11,0.096c0.339,0.285,0.382,0.789,0.098,1.129c-0.271,0.318-0.737,0.375-1.073,0.141
			C28.489,115.846,28.469,115.833,28.454,115.815z M23.673,111.297l-0.103-0.109c-0.307-0.318-0.297-0.824,0.022-1.131
			c0.317-0.305,0.821-0.299,1.13,0.025l0.117,0.119c0.302,0.324,0.287,0.83-0.036,1.131c-0.282,0.264-0.704,0.287-1.009,0.074
			C23.752,111.375,23.711,111.338,23.673,111.297z M19.376,106.348l-0.102-0.131c-0.272-0.348-0.209-0.85,0.139-1.121
			c0.349-0.271,0.853-0.211,1.125,0.139l0.091,0.119c0.276,0.346,0.218,0.85-0.127,1.125c-0.285,0.225-0.675,0.227-0.958,0.027
			C19.481,106.463,19.426,106.411,19.376,106.348z M15.577,100.985l-0.083-0.133c-0.236-0.375-0.122-0.87,0.252-1.106
			c0.374-0.234,0.868-0.124,1.102,0.253l0.085,0.133c0.237,0.373,0.124,0.867-0.25,1.104c-0.281,0.178-0.632,0.158-0.887-0.021
			C15.71,101.155,15.636,101.077,15.577,100.985z M12.333,95.286l-0.071-0.147c-0.199-0.396-0.038-0.876,0.357-1.073
			c0.396-0.197,0.876-0.037,1.074,0.359l0.069,0.137c0.199,0.395,0.043,0.875-0.352,1.074c-0.274,0.141-0.589,0.105-0.823-0.059
			C12.484,95.504,12.396,95.406,12.333,95.286z M9.665,89.292l-0.061-0.156c-0.157-0.414,0.051-0.876,0.464-1.032
			c0.413-0.159,0.875,0.051,1.032,0.464l0.054,0.137c0.162,0.412-0.04,0.877-0.45,1.037c-0.261,0.104-0.542,0.062-0.755-0.088
			C9.826,89.567,9.726,89.444,9.665,89.292z M7.592,83.055L7.55,82.903c-0.119-0.425,0.133-0.866,0.558-0.983
			c0.424-0.115,0.868,0.134,0.984,0.562l0.043,0.151c0.118,0.426-0.134,0.868-0.56,0.983c-0.238,0.064-0.483,0.015-0.672-0.117
			C7.756,83.395,7.642,83.244,7.592,83.055z M6.138,76.658L6.11,76.502c-0.076-0.437,0.216-0.853,0.65-0.928
			c0.436-0.078,0.851,0.213,0.927,0.65l0.028,0.155c0.076,0.435-0.216,0.851-0.65,0.928c-0.219,0.037-0.43-0.019-0.597-0.136
			C6.3,77.055,6.176,76.875,6.138,76.658z M5.313,70.128l-0.009-0.14c-0.037-0.441,0.293-0.828,0.733-0.862
			c0.442-0.034,0.826,0.297,0.862,0.735l0.013,0.174c0.025,0.441-0.31,0.82-0.753,0.848c-0.187,0.01-0.364-0.045-0.506-0.145
			C5.459,70.604,5.328,70.385,5.313,70.128z M5.13,63.569l0.002-0.088l0.002-0.063c0.012-0.442,0.378-0.761,0.82-0.751
			c0.442,0.012,0.789,0.408,0.778,0.851l-0.001,0.109c-0.017,0.442-0.388,0.788-0.831,0.773c-0.16-0.008-0.308-0.059-0.431-0.145
			C5.256,64.104,5.12,63.851,5.13,63.569z M5.587,57.035l0.02-0.163c0.055-0.438,0.455-0.752,0.893-0.698
			c0.44,0.056,0.749,0.454,0.697,0.892l-0.019,0.151c-0.05,0.44-0.447,0.755-0.885,0.704c-0.138-0.016-0.264-0.063-0.37-0.138
			C5.69,57.62,5.553,57.338,5.587,57.035z M6.69,50.55l0.034-0.15c0.098-0.43,0.525-0.701,0.955-0.604
			c0.427,0.097,0.704,0.524,0.608,0.955l-0.038,0.163c-0.1,0.431-0.528,0.696-0.96,0.598c-0.104-0.024-0.195-0.067-0.277-0.125
			C6.752,51.204,6.615,50.877,6.69,50.55z M8.425,44.214l0.047-0.141c0.135-0.421,0.585-0.651,1.007-0.516
			c0.421,0.135,0.65,0.587,0.515,1.01l-0.053,0.161c-0.141,0.418-0.598,0.643-1.016,0.5c-0.074-0.023-0.142-0.059-0.202-0.101
			C8.439,44.928,8.307,44.559,8.425,44.214z M10.776,38.087l0.063-0.145c0.179-0.404,0.65-0.586,1.055-0.407
			c0.4,0.183,0.586,0.652,0.408,1.056l-0.066,0.147c-0.179,0.404-0.652,0.585-1.056,0.404c-0.048-0.021-0.092-0.045-0.134-0.075
			C10.737,38.852,10.616,38.442,10.776,38.087z M13.755,32.149c0.002-0.003,0.04-0.07,0.04-0.07c0.22-0.382,0.691-0.482,1.073-0.264
			c0.362,0.22,0.498,0.738,0.282,1.121l-0.044,0.079c-0.222,0.384-0.693,0.483-1.076,0.259c-0.017-0.01-0.037-0.021-0.054-0.033
			C13.637,33.003,13.545,32.514,13.755,32.149z"/>
	</g>
	<g>
		<path fill="#645F54" d="M33.59,119.801l0.034,0.023c0.363,0.256,0.862,0.166,1.115-0.195c0.255-0.363,0.167-0.861-0.196-1.115
			c-0.361-0.254-0.878-0.18-1.133,0.184C33.157,119.059,33.227,119.547,33.59,119.801z"/>
	</g>
</g>
<path fill="#D8D6D2" d="M122.71,64.584c0,30.988-25.121,56.109-56.109,56.109c-30.984,0-56.107-25.121-56.107-56.109
	c0-30.988,25.123-56.109,56.107-56.109C97.589,8.476,122.71,33.597,122.71,64.584z"/>
<image overflow="visible" width="318" height="159" xlink:href="D:\SITIOS LOCALES\CHAIDE Y CHAIDE\NEW WEBSITE\images.jpg"  transform="matrix(1 0 0 1 613.75 -51.0005)">
</image>
<g>
	<path fill="#FFFFFF" d="M72.442,83.447c0,0,1.293,0.896,4.079,0l30.244-12.634l0.248-7.996c0,0,0.225-0.299-0.746-0.598
		l-44.73-7.872c0,0-1.717-0.783-5,0l-31.002,5.895c0,0-0.41,0.112-0.41,1.604l0.336,6.641c0,0,0.037,0.336,1.082,0.635
		L72.442,83.447z"/>
	<path fill="none" stroke="#D8D6D2" stroke-miterlimit="10" d="M107.062,62.655L78.212,72.802c0,0-1.99,1.593-7.362,0l-45.315-12.56
		"/>
</g>
</svg>
