<?xml version="1.0" encoding="utf-8"?>
<!-- Generator: Adobe Illustrator 16.0.0, SVG Export Plug-In . SVG Version: 6.00 Build 0)  -->
<!DOCTYPE svg PUBLIC "-//W3C//DTD SVG 1.1//EN" "http://www.w3.org/Graphics/SVG/1.1/DTD/svg11.dtd">
<svg version="1.1" id="Layer_1" xmlns="http://www.w3.org/2000/svg" xmlns:xlink="http://www.w3.org/1999/xlink" x="0px" y="0px"
	 width="54.529px" height="51.824px" viewBox="0 0 54.529 51.824" enable-background="new 0 0 54.529 51.824" xml:space="preserve">
<g>
	<polygon fill="#D8D7D2" points="23.115,27.907 18.8,27.907 18.8,29.233 20.245,29.233 20.245,37.006 21.649,37.006 21.649,29.233 
		23.115,29.233 	"/>
	<path fill="#D8D7D2" d="M25.407,35.379c-0.113,0.16-0.244,0.283-0.387,0.377c-0.144,0.092-0.24,0.133-0.348,0.133
		c-0.115,0-0.195-0.041-0.24-0.117c-0.059-0.08-0.079-0.178-0.079-0.342V30.29h-1.257v5.613c0,0.398,0.063,0.693,0.223,0.889
		c0.15,0.215,0.35,0.309,0.646,0.309c0.231,0,0.477-0.072,0.733-0.211c0.25-0.137,0.48-0.354,0.709-0.629v0.746h1.256V30.29h-1.256
		V35.379z"/>
	<path fill="#D8D7D2" d="M26.886,22.961c0.196,0,0.378-0.066,0.492-0.186c0.127-0.154,0.182-0.307,0.182-0.549v-4.502
		c0-0.176-0.055-0.342-0.182-0.439c-0.114-0.133-0.296-0.172-0.492-0.172c-0.185,0-0.346,0.039-0.459,0.172
		c-0.109,0.098-0.189,0.264-0.189,0.439v4.502c0,0.242,0.07,0.426,0.189,0.549C26.526,22.895,26.681,22.961,26.886,22.961z"/>
	<path fill="#D8D7D2" d="M30.257,30.209c-0.19,0-0.391,0.053-0.577,0.154c-0.18,0.1-0.373,0.262-0.535,0.473v-2.93h-1.27v9.1h1.27
		v-0.514c0.154,0.201,0.337,0.354,0.521,0.453c0.199,0.109,0.413,0.141,0.67,0.141c0.366,0,0.641-0.123,0.839-0.369
		c0.189-0.26,0.293-0.629,0.293-1.104v-3.727c0-0.551-0.104-0.967-0.311-1.262S30.651,30.209,30.257,30.209z M30.183,35.43
		c0,0.209-0.027,0.367-0.115,0.463c-0.063,0.096-0.169,0.158-0.328,0.158c-0.102,0-0.209-0.037-0.289-0.088
		c-0.109-0.061-0.213-0.115-0.305-0.24v-4.189c0.076-0.084,0.162-0.15,0.25-0.205c0.105-0.033,0.175-0.053,0.262-0.053
		c0.164,0,0.31,0.053,0.397,0.174c0.085,0.115,0.128,0.281,0.128,0.525V35.43z"/>
	<path fill="#D8D7D2" d="M34.308,30.116c-0.555,0-1.01,0.184-1.361,0.551c-0.366,0.375-0.529,0.848-0.529,1.43v3.008
		c0,0.652,0.16,1.156,0.479,1.514c0.318,0.389,0.755,0.584,1.306,0.584c0.63,0,1.1-0.188,1.413-0.525
		c0.304-0.375,0.47-0.879,0.47-1.572v-0.502h-1.283v0.475c0,0.396-0.044,0.646-0.122,0.771c-0.091,0.105-0.229,0.166-0.44,0.166
		c-0.198,0-0.348-0.088-0.412-0.217c-0.084-0.129-0.125-0.367-0.125-0.721v-1.268h2.382v-1.713c0-0.646-0.166-1.119-0.456-1.471
		C35.308,30.29,34.889,30.116,34.308,30.116z M34.801,32.758h-1.099v-0.674c0-0.285,0.041-0.492,0.125-0.602
		c0.079-0.119,0.217-0.188,0.422-0.188c0.202,0,0.324,0.068,0.431,0.188c0.078,0.109,0.122,0.316,0.122,0.602V32.758z"/>
	<path fill="#D8D7D2" d="M8.646,7.575v37.268h37.24V7.575H8.646z M30.449,15.893h1.546v6.354c0,0.189,0.031,0.344,0.084,0.42
		c0.074,0.086,0.178,0.131,0.319,0.131c0.116,0,0.267-0.045,0.433-0.176c0.174-0.109,0.342-0.252,0.488-0.443v-6.285h1.521v8.297
		h-1.521v-0.916c-0.308,0.324-0.588,0.588-0.902,0.758c-0.297,0.18-0.606,0.277-0.886,0.277c-0.355,0-0.638-0.119-0.821-0.377
		c-0.173-0.238-0.261-0.621-0.261-1.107V15.893z M26.951,15.678c0.655,0,1.17,0.215,1.574,0.598c0.413,0.408,0.62,0.924,0.62,1.563
		v4.277c0,0.709-0.207,1.273-0.607,1.688c-0.396,0.398-0.947,0.594-1.652,0.594c-0.684,0-1.218-0.195-1.613-0.637
		c-0.418-0.41-0.613-0.963-0.613-1.68v-4.297c0-0.645,0.204-1.152,0.621-1.537C25.708,15.848,26.255,15.678,26.951,15.678z
		 M20.662,12.94l1.123,4.49h0.118l1.074-4.49h1.749l-2.009,6.578v4.672h-1.734v-4.471l-2.074-6.779H20.662z M37.596,36.395
		c0,1.639-1.343,2.951-2.979,2.951c-2.348,0.088-4.738,0.15-7.176,0.143c-2.443,0.008-4.839-0.055-7.195-0.143
		c-1.633,0-2.972-1.313-2.972-2.951c-0.091-1.283-0.134-2.559-0.134-3.838c0-1.289,0.043-2.586,0.134-3.859
		c0-1.627,1.339-2.951,2.972-2.951c2.356-0.1,4.752-0.133,7.195-0.119c2.438-0.014,4.828,0.02,7.176,0.119
		c1.637,0,2.979,1.324,2.979,2.951c0.097,1.273,0.138,2.57,0.138,3.859C37.733,33.836,37.692,35.112,37.596,36.395z"/>
</g>
</svg>
