<?xml version="1.0" encoding="utf-8"?>
<!-- Generator: Adobe Illustrator 16.0.0, SVG Export Plug-In . SVG Version: 6.00 Build 0)  -->
<!DOCTYPE svg PUBLIC "-//W3C//DTD SVG 1.1//EN" "http://www.w3.org/Graphics/SVG/1.1/DTD/svg11.dtd">
<svg version="1.1" id="Layer_1" xmlns="http://www.w3.org/2000/svg" xmlns:xlink="http://www.w3.org/1999/xlink" x="0px" y="0px"
	 width="89.823px" height="89.471px" viewBox="0 0 89.823 89.471" enable-background="new 0 0 89.823 89.471" xml:space="preserve">
<g>
	<path fill="#FFFFFF" d="M44.081,82.108c7.834,0,14.802-3.772,19.185-9.597c2.987-3.994,4.755-8.95,4.755-14.32
		c0-5.572-1.908-10.692-5.099-14.76c-0.196-0.251-0.396-0.496-0.602-0.738c-1.335-1.57-2.867-2.965-4.561-4.144
		c-0.197-0.14-0.399-0.273-0.601-0.407c-3.761-2.457-8.251-3.892-13.081-3.892c-4.826,0-9.315,1.435-13.076,3.892
		c-0.204,0.134-0.403,0.268-0.602,0.407c-1.693,1.179-3.227,2.573-4.561,4.144c-0.206,0.242-0.406,0.487-0.601,0.738
		c-3.191,4.067-5.1,9.19-5.1,14.76c0,5.37,1.768,10.326,4.754,14.32C29.276,78.335,36.246,82.108,44.081,82.108L44.081,82.108z
		 M41.379,44.735c0.232-0.047,0.423-0.269,0.423-0.505v-1.656c0-0.238,0.188-0.428,0.426-0.428h3.705
		c0.235,0,0.427,0.189,0.427,0.428v1.656c0,0.236,0.189,0.458,0.421,0.505c6.254,1.252,10.979,6.745,10.979,13.371
		c0,7.552-6.127,13.68-13.682,13.68c-7.553,0-13.678-6.128-13.678-13.68C30.4,51.48,35.123,45.987,41.379,44.735L41.379,44.735z
		 M41.379,44.735"/>
	<path fill="#FFFFFF" d="M57.159,35.335c0.201,0.114,0.403,0.227,0.601,0.348c1.65,1.006,3.175,2.193,4.561,3.522
		c0.203,0.196,0.405,0.395,0.602,0.596c0.204,0.208,0.404,0.417,0.601,0.631V26.186c0-10.722-8.721-19.443-19.441-19.443
		c-10.722,0-19.443,8.722-19.443,19.443v14.246c0.195-0.214,0.397-0.423,0.602-0.631c0.197-0.201,0.397-0.399,0.601-0.596
		c1.386-1.329,2.913-2.517,4.561-3.522c0.198-0.121,0.399-0.233,0.602-0.348c0.199-0.113,0.396-0.231,0.601-0.342v-8.808
		c0-6.882,5.599-12.479,12.479-12.479c6.879,0,12.477,5.598,12.477,12.479v8.807C56.761,35.104,56.96,35.219,57.159,35.335
		L57.159,35.335z M57.159,35.335"/>
	<path fill="#FFFFFF" d="M44.081,64.948c3.776,0,6.839-3.065,6.839-6.842c0-2.822-1.72-5.222-4.161-6.266
		c-0.217-0.093-0.399-0.346-0.399-0.583v-1.843c0-0.237-0.189-0.429-0.427-0.429h-3.705c-0.235,0-0.426,0.191-0.426,0.429v1.843
		c0,0.237-0.181,0.49-0.398,0.583c-2.441,1.045-4.164,3.443-4.164,6.266C37.239,61.882,40.303,64.948,44.081,64.948L44.081,64.948z
		 M44.081,64.948"/>
</g>
</svg>
