<?xml version="1.0" encoding="utf-8"?>
<!-- Generator: Adobe Illustrator 16.0.0, SVG Export Plug-In . SVG Version: 6.00 Build 0)  -->
<!DOCTYPE svg PUBLIC "-//W3C//DTD SVG 1.1//EN" "http://www.w3.org/Graphics/SVG/1.1/DTD/svg11.dtd">
<svg version="1.1" id="Layer_1" xmlns="http://www.w3.org/2000/svg" xmlns:xlink="http://www.w3.org/1999/xlink" x="0px" y="0px"
	 width="89.823px" height="89.471px" viewBox="0 0 89.823 89.471" enable-background="new 0 0 89.823 89.471" xml:space="preserve">
<g>
	<path fill="#FFFFFF" d="M21.851,52.877c-5.249,0-9.506,4.329-9.506,9.665s4.257,9.665,9.506,9.665c5.25,0,9.506-4.329,9.506-9.665
		S27.101,52.877,21.851,52.877z M21.851,68.45c-3.209,0-5.811-2.645-5.811-5.907c0-3.264,2.602-5.908,5.811-5.908
		s5.813,2.645,5.813,5.908C27.663,65.805,25.06,68.45,21.851,68.45z"/>
	<path fill="#FFFFFF" d="M67.573,52.878c-5.25,0-9.506,4.328-9.506,9.664s4.256,9.665,9.506,9.665s9.506-4.329,9.506-9.665
		S72.823,52.878,67.573,52.878z M67.573,68.45c-3.211,0-5.813-2.645-5.813-5.907c0-3.264,2.602-5.908,5.813-5.908
		c3.208,0,5.813,2.645,5.813,5.908C73.386,65.805,70.781,68.45,67.573,68.45z"/>
	<g>
		<path fill="#FFFFFF" d="M49.33,46.383H6.309c-0.229,0-0.415-0.186-0.415-0.415V17.059c0-0.229,0.186-0.416,0.415-0.416H49.33
			c0.229,0,0.415,0.187,0.415,0.416v28.909C49.745,46.198,49.56,46.383,49.33,46.383z"/>
	</g>
	<path fill="#FFFFFF" d="M85.104,38.269l-8.08-14.088c-0.073-0.13-0.212-0.209-0.361-0.209H51.998c-0.229,0-0.415,0.186-0.415,0.416
		v23.807H3.418c-0.229,0-0.416,0.187-0.416,0.416v15.992c0,0.23,0.187,0.416,0.416,0.416h7.636c0.003,0,0.005,0,0.009,0
		c0.229,0,0.416-0.186,0.416-0.416c0-0.055-0.01-0.105-0.029-0.154c-0.112-0.634-0.169-1.276-0.169-1.906
		c0-5.93,4.742-10.753,10.571-10.753c5.828,0,10.57,4.823,10.57,10.753c0,0.657-0.062,1.324-0.183,1.986
		c-0.022,0.12,0.01,0.247,0.089,0.34c0.079,0.097,0.197,0.15,0.32,0.15h24.127c0.001,0,0.003,0,0.004,0
		c0.246,0.019,0.421-0.185,0.421-0.416c0-0.055-0.011-0.105-0.029-0.154c-0.112-0.634-0.169-1.276-0.169-1.906
		c0-5.93,4.742-10.753,10.571-10.753s10.57,4.823,10.57,10.753c0,0.657-0.062,1.324-0.183,1.986c-0.022,0.12,0.01,0.247,0.089,0.34
		c0.08,0.097,0.197,0.15,0.32,0.15h6.372c0.23,0,0.416-0.186,0.416-0.416V38.476C85.158,38.402,85.14,38.332,85.104,38.269z
		 M78.71,37.856c-0.073,0.128-0.211,0.205-0.358,0.205H57.236c-0.23,0-0.417-0.187-0.417-0.415v-8.667
		c0-0.229,0.187-0.415,0.417-0.415h16.209c0.15,0,0.289,0.08,0.363,0.209l4.905,8.669C78.785,37.57,78.785,37.728,78.71,37.856z"/>
</g>
</svg>
