<?xml version="1.0" encoding="utf-8"?>
<!-- Generator: Adobe Illustrator 16.0.0, SVG Export Plug-In . SVG Version: 6.00 Build 0)  -->
<!DOCTYPE svg PUBLIC "-//W3C//DTD SVG 1.1//EN" "http://www.w3.org/Graphics/SVG/1.1/DTD/svg11.dtd">
<svg version="1.1" id="Capa_1" xmlns="http://www.w3.org/2000/svg" xmlns:xlink="http://www.w3.org/1999/xlink" x="0px" y="0px"
	 width="39.426px" height="39.426px" viewBox="0 0 39.426 39.426" enable-background="new 0 0 39.426 39.426" xml:space="preserve">
<path fill="#FFFFFF" d="M32.086,12.04c-0.91,0.4-1.895,0.676-2.918,0.801c1.045-0.631,1.85-1.629,2.232-2.814
	c-0.98,0.588-2.074,1.012-3.23,1.238c-0.924-1-2.246-1.605-3.693-1.605c-2.809,0-5.087,2.266-5.087,5.076
	c0,0.393,0.051,0.779,0.142,1.158c-4.218-0.217-7.957-2.232-10.462-5.301c-0.441,0.748-0.691,1.615-0.691,2.551
	c0,1.75,0.891,3.313,2.258,4.219c-0.832-0.027-1.611-0.252-2.299-0.64c0,0.028,0,0.042,0,0.067c0,2.459,1.748,4.512,4.078,4.98
	c-0.432,0.107-0.879,0.174-1.336,0.174c-0.33,0-0.648-0.025-0.959-0.094c0.643,2.021,2.518,3.488,4.74,3.531
	c-1.74,1.359-3.928,2.17-6.309,2.17c-0.4,0-0.807-0.029-1.211-0.07c2.246,1.439,4.922,2.285,7.781,2.285
	c9.337,0,14.437-7.742,14.437-14.457c0-0.211,0-0.424-0.008-0.646C30.545,13.95,31.4,13.052,32.086,12.04z"/>
</svg>
