<?xml version="1.0" encoding="utf-8"?>
<!-- Generator: Adobe Illustrator 16.0.0, SVG Export Plug-In . SVG Version: 6.00 Build 0)  -->
<!DOCTYPE svg PUBLIC "-//W3C//DTD SVG 1.1//EN" "http://www.w3.org/Graphics/SVG/1.1/DTD/svg11.dtd">
<svg version="1.1" id="Capa_1" xmlns="http://www.w3.org/2000/svg" xmlns:xlink="http://www.w3.org/1999/xlink" x="0px" y="0px"
	 width="39.426px" height="39.426px" viewBox="0 0 39.426 39.426" enable-background="new 0 0 39.426 39.426" xml:space="preserve">
<g>
	<path fill="#FFFFFF" d="M20.947,8.515c-0.458-0.434-1.042-0.676-1.782-0.676c-0.789,0-1.408,0.193-1.893,0.643
		c-0.471,0.436-0.703,1.01-0.703,1.74v4.863c0,0.811,0.222,1.437,0.694,1.9c0.449,0.5,1.053,0.721,1.826,0.721
		c0.8,0,1.422-0.221,1.87-0.672c0.453-0.469,0.688-1.107,0.688-1.91v-4.841C21.647,9.561,21.413,8.977,20.947,8.515z M19.852,15.251
		c0,0.273-0.062,0.446-0.206,0.621c-0.128,0.135-0.333,0.209-0.557,0.209c-0.232,0-0.407-0.074-0.52-0.209
		c-0.135-0.14-0.214-0.348-0.214-0.621v-5.096c0-0.199,0.09-0.387,0.214-0.498c0.128-0.15,0.312-0.194,0.52-0.194
		c0.224,0,0.429,0.044,0.557,0.194c0.144,0.111,0.206,0.299,0.206,0.498V15.251z"/>
	<g>
		<path fill="#FFFFFF" d="M22.226,25.493c-0.098,0-0.177,0.022-0.296,0.06c-0.1,0.063-0.197,0.137-0.283,0.232v4.745
			c0.104,0.141,0.224,0.201,0.345,0.27c0.091,0.057,0.213,0.1,0.327,0.1c0.182,0,0.301-0.072,0.372-0.18
			c0.1-0.107,0.13-0.287,0.13-0.523v-3.911c0-0.277-0.049-0.465-0.144-0.596C22.578,25.552,22.412,25.493,22.226,25.493z"/>
		<path fill="#FFFFFF" d="M27.423,25.515c-0.232,0-0.388,0.077-0.478,0.212c-0.096,0.124-0.142,0.358-0.142,0.681v0.763h1.245
			v-0.763c0-0.322-0.049-0.557-0.138-0.681C27.79,25.592,27.654,25.515,27.423,25.515z"/>
		<path fill="#FFFFFF" d="M31.212,22.575c0-1.841-1.521-3.341-3.374-3.341c-2.656-0.112-5.362-0.15-8.121-0.135
			c-2.766-0.016-5.476,0.022-8.144,0.135c-1.848,0-3.362,1.5-3.362,3.341c-0.104,1.441-0.152,2.909-0.152,4.369
			c0,1.446,0.048,2.891,0.152,4.343c0,1.855,1.514,3.34,3.362,3.34c2.668,0.1,5.378,0.17,8.144,0.162
			c2.759,0.008,5.465-0.063,8.121-0.162c1.853,0,3.374-1.484,3.374-3.34c0.108-1.453,0.154-2.897,0.154-4.343
			C31.367,25.484,31.321,24.016,31.212,22.575z M13.163,31.979h-1.589V23.18H9.938v-1.501h4.885v1.501h-1.66V31.979z M18.837,31.979
			h-1.422v-0.844c-0.258,0.311-0.52,0.557-0.803,0.711c-0.289,0.158-0.567,0.24-0.828,0.24c-0.336,0-0.562-0.107-0.732-0.35
			c-0.182-0.223-0.252-0.555-0.252-1.006v-6.354h1.423v5.819c0,0.186,0.022,0.295,0.089,0.387c0.051,0.088,0.142,0.133,0.271,0.133
			c0.122,0,0.232-0.045,0.394-0.15c0.162-0.107,0.31-0.246,0.438-0.428v-5.76h1.422V31.979z M24.278,30.402
			c0,0.537-0.118,0.955-0.332,1.25c-0.226,0.277-0.534,0.418-0.95,0.418c-0.289,0-0.533-0.037-0.758-0.16
			c-0.208-0.113-0.416-0.285-0.591-0.512v0.58H20.21V21.679h1.437v3.316c0.184-0.239,0.402-0.422,0.605-0.535
			c0.21-0.115,0.438-0.175,0.654-0.175c0.444,0,0.787,0.138,1.019,0.471c0.234,0.334,0.353,0.805,0.353,1.429V30.402z M29.501,28.36
			h-2.697v1.435c0,0.401,0.046,0.67,0.142,0.817c0.073,0.145,0.243,0.244,0.466,0.244c0.242,0,0.396-0.068,0.5-0.186
			c0.089-0.141,0.138-0.424,0.138-0.875v-0.537h1.452v0.568c0,0.786-0.188,1.356-0.533,1.78c-0.354,0.383-0.887,0.594-1.598,0.594
			c-0.624,0-1.119-0.221-1.479-0.66c-0.36-0.404-0.541-0.975-0.541-1.713v-3.404c0-0.659,0.186-1.193,0.599-1.618
			c0.398-0.416,0.913-0.624,1.541-0.624c0.658,0,1.132,0.197,1.494,0.577c0.33,0.397,0.518,0.933,0.518,1.665V28.36z"/>
	</g>
	<path fill="#FFFFFF" d="M23.124,8.082h1.749v7.191c0,0.215,0.035,0.389,0.095,0.476c0.084,0.097,0.203,0.147,0.362,0.147
		c0.131,0,0.301-0.051,0.488-0.198c0.197-0.124,0.39-0.286,0.553-0.502V8.082h1.723v9.391h-1.723v-1.036
		c-0.347,0.368-0.665,0.665-1.021,0.857c-0.336,0.204-0.686,0.313-1.002,0.313c-0.402,0-0.723-0.135-0.931-0.425
		c-0.194-0.271-0.294-0.704-0.294-1.255V8.082z"/>
	<polygon fill="#FFFFFF" points="12.046,4.74 13.318,9.822 13.45,9.822 14.666,4.74 16.647,4.74 14.372,12.185 14.372,17.472 
		12.409,17.472 12.409,12.413 10.061,4.74 	"/>
</g>
</svg>
