<?xml version="1.0" encoding="utf-8"?>
<!-- Generator: Adobe Illustrator 16.0.0, SVG Export Plug-In . SVG Version: 6.00 Build 0)  -->
<!DOCTYPE svg PUBLIC "-//W3C//DTD SVG 1.1//EN" "http://www.w3.org/Graphics/SVG/1.1/DTD/svg11.dtd">
<svg version="1.1" id="Layer_1" xmlns="http://www.w3.org/2000/svg" xmlns:xlink="http://www.w3.org/1999/xlink" x="0px" y="0px"
	 width="89.823px" height="89.471px" viewBox="0 0 89.823 89.471" enable-background="new 0 0 89.823 89.471" xml:space="preserve">
<g>
	<g>
		<path fill="#FFFFFF" d="M44.08,82.108c-20.777,0-37.682-16.904-37.682-37.683c0-20.778,16.904-37.683,37.682-37.683
			c20.778,0,37.682,16.904,37.682,37.683C81.762,65.204,64.858,82.108,44.08,82.108z M44.08,8.401
			c-19.863,0-36.023,16.16-36.023,36.024c0,19.865,16.16,36.025,36.023,36.025c19.864,0,36.024-16.16,36.024-36.025
			C80.104,24.561,63.944,8.401,44.08,8.401z"/>
	</g>
	<g>
		<path fill="#FFFFFF" d="M44.08,78.868c-18.992,0-34.443-15.451-34.443-34.443c0-18.991,15.452-34.442,34.443-34.442
			c18.993,0,34.442,15.451,34.442,34.442C78.522,63.417,63.073,78.868,44.08,78.868z M44.08,11.675
			c-18.059,0-32.751,14.691-32.751,32.75c0,18.058,14.692,32.75,32.751,32.75s32.75-14.691,32.75-32.75
			C76.831,26.367,62.139,11.675,44.08,11.675z"/>
	</g>
	<g>
		<path fill="#FFFFFF" d="M44.08,17.55c-0.458,0-0.829-0.371-0.829-0.829v-5.438c0-0.458,0.372-0.829,0.829-0.829
			c0.458,0,0.829,0.371,0.829,0.829v5.438C44.909,17.179,44.539,17.55,44.08,17.55z"/>
	</g>
	<g>
		<path fill="#FFFFFF" d="M44.08,78.183c-0.458,0-0.829-0.371-0.829-0.83v-5.436c0-0.459,0.372-0.83,0.829-0.83
			c0.458,0,0.829,0.371,0.829,0.83v5.436C44.909,77.812,44.539,78.183,44.08,78.183z"/>
	</g>
	<g>
		<path fill="#FFFFFF" d="M77.116,45.147h-5.438c-0.458,0-0.829-0.37-0.829-0.829c0-0.458,0.371-0.829,0.829-0.829h5.438
			c0.458,0,0.828,0.371,0.828,0.829C77.944,44.778,77.574,45.147,77.116,45.147z"/>
	</g>
	<g>
		<path fill="#FFFFFF" d="M16.483,45.147h-5.438c-0.458,0-0.829-0.37-0.829-0.829c0-0.458,0.372-0.829,0.829-0.829h5.438
			c0.458,0,0.829,0.371,0.829,0.829C17.312,44.778,16.941,45.147,16.483,45.147z"/>
	</g>
	<g>
		<path fill="#FFFFFF" d="M30.282,21.249c-0.287,0-0.565-0.149-0.719-0.415l-2.718-4.71c-0.229-0.396-0.093-0.903,0.304-1.133
			c0.396-0.23,0.903-0.093,1.133,0.304L31,20.004c0.229,0.396,0.093,0.903-0.304,1.133C30.566,21.212,30.423,21.249,30.282,21.249z"
			/>
	</g>
	<g>
		<path fill="#FFFFFF" d="M60.598,73.759c-0.287,0-0.565-0.15-0.719-0.416l-2.719-4.709c-0.229-0.396-0.093-0.904,0.303-1.133
			c0.398-0.23,0.904-0.094,1.134,0.303l2.718,4.711c0.23,0.396,0.094,0.902-0.303,1.133C60.881,73.722,60.739,73.759,60.598,73.759z
			"/>
	</g>
	<g>
		<path fill="#FFFFFF" d="M20.18,31.349c-0.141,0-0.283-0.035-0.414-0.111l-4.711-2.719c-0.396-0.229-0.532-0.736-0.304-1.133
			c0.229-0.396,0.735-0.533,1.133-0.304l4.71,2.719c0.397,0.229,0.532,0.736,0.304,1.133C20.745,31.2,20.466,31.349,20.18,31.349z"
			/>
	</g>
	<g>
		<path fill="#FFFFFF" d="M72.688,61.667c-0.141,0-0.283-0.035-0.414-0.111l-4.709-2.721c-0.396-0.229-0.532-0.736-0.303-1.133
			c0.229-0.398,0.735-0.533,1.133-0.303l4.709,2.721c0.396,0.229,0.531,0.736,0.303,1.133
			C73.252,61.519,72.975,61.667,72.688,61.667z"/>
	</g>
	<g>
		<path fill="#FFFFFF" d="M15.471,61.667c-0.287,0-0.565-0.148-0.718-0.416c-0.229-0.396-0.094-0.902,0.303-1.133l4.711-2.719
			c0.395-0.23,0.904-0.096,1.133,0.303c0.229,0.396,0.093,0.904-0.304,1.133l-4.71,2.721C15.754,61.63,15.612,61.667,15.471,61.667z
			"/>
	</g>
	<g>
		<path fill="#FFFFFF" d="M67.981,31.349c-0.287,0-0.566-0.149-0.72-0.415c-0.229-0.396-0.093-0.903,0.304-1.133l4.711-2.718
			c0.396-0.229,0.903-0.092,1.133,0.304c0.229,0.397,0.092,0.904-0.304,1.133l-4.711,2.718
			C68.264,31.314,68.122,31.349,67.981,31.349z"/>
	</g>
	<g>
		<path fill="#FFFFFF" d="M27.562,73.759c-0.141,0-0.284-0.037-0.414-0.111c-0.397-0.23-0.533-0.736-0.304-1.133l2.719-4.711
			c0.229-0.396,0.736-0.533,1.133-0.303c0.396,0.229,0.533,0.736,0.304,1.133l-2.72,4.709C28.126,73.61,27.848,73.759,27.562,73.759
			z"/>
	</g>
	<g>
		<path fill="#FFFFFF" d="M57.877,21.249c-0.14,0-0.282-0.036-0.414-0.111c-0.396-0.229-0.531-0.736-0.303-1.133l2.719-4.71
			c0.229-0.396,0.734-0.534,1.133-0.304c0.396,0.229,0.533,0.736,0.304,1.133l-2.719,4.71
			C58.443,21.099,58.165,21.249,57.877,21.249z"/>
	</g>
	<g>
		<path fill="#FFFFFF" d="M23.423,57.196c-0.287,0-0.565-0.148-0.718-0.416c-0.229-0.396-0.094-0.904,0.303-1.133l20.243-11.701
			V24.425c0-0.459,0.372-0.829,0.829-0.829c0.458,0,0.829,0.37,0.829,0.829v20c0,0.297-0.157,0.57-0.413,0.718L23.838,57.085
			C23.707,57.159,23.564,57.196,23.423,57.196z"/>
	</g>
	<g>
		<circle fill="#FFFFFF" cx="44.08" cy="44.425" r="2.129"/>
	</g>
</g>
</svg>
