<?xml version="1.0" encoding="utf-8"?>
<!-- Generator: Adobe Illustrator 16.0.0, SVG Export Plug-In . SVG Version: 6.00 Build 0)  -->
<!DOCTYPE svg PUBLIC "-//W3C//DTD SVG 1.1//EN" "http://www.w3.org/Graphics/SVG/1.1/DTD/svg11.dtd">
<svg version="1.1" id="Layer_1" xmlns="http://www.w3.org/2000/svg" xmlns:xlink="http://www.w3.org/1999/xlink" x="0px" y="0px"
	 width="54.529px" height="51.824px" viewBox="0 0 54.529 51.824" enable-background="new 0 0 54.529 51.824" xml:space="preserve">
<path fill="#D8D7D2" d="M45.899,44.842H8.646V7.575h37.253V44.842z M39.647,18.5c-0.91,0.4-1.895,0.676-2.917,0.801
	c1.043-0.631,1.849-1.629,2.232-2.814c-0.981,0.588-2.074,1.012-3.231,1.238c-0.923-1-2.246-1.605-3.693-1.605
	c-2.809,0-5.088,2.266-5.088,5.076c0,0.393,0.051,0.779,0.142,1.158c-4.218-0.217-7.957-2.232-10.462-5.301
	c-0.441,0.748-0.691,1.615-0.691,2.551c0,1.75,0.89,3.313,2.257,4.219c-0.831-0.027-1.61-0.252-2.298-0.641c0,0.029,0,0.043,0,0.068
	c0,2.459,1.749,4.512,4.079,4.98c-0.432,0.107-0.879,0.174-1.336,0.174c-0.331,0-0.648-0.025-0.96-0.094
	c0.644,2.021,2.519,3.488,4.741,3.531c-1.74,1.359-3.928,2.17-6.309,2.17c-0.4,0-0.808-0.029-1.211-0.07
	c2.246,1.439,4.922,2.285,7.782,2.285c9.338,0,14.438-7.742,14.438-14.457c0-0.211,0-0.424-0.008-0.646
	C38.106,20.411,38.962,19.512,39.647,18.5z"/>
</svg>
