<?xml version="1.0" encoding="utf-8"?>
<!-- Generator: Adobe Illustrator 16.0.0, SVG Export Plug-In . SVG Version: 6.00 Build 0)  -->
<!DOCTYPE svg PUBLIC "-//W3C//DTD SVG 1.1//EN" "http://www.w3.org/Graphics/SVG/1.1/DTD/svg11.dtd">
<svg version="1.1" id="Layer_1" xmlns="http://www.w3.org/2000/svg" xmlns:xlink="http://www.w3.org/1999/xlink" x="0px" y="0px"
	 width="325px" height="129px" viewBox="0 0 325 129" enable-background="new 0 0 325 129" xml:space="preserve">
<path fill="#8C8C8C" d="M112.289,28.145C113.799,35.223,111.576,23.885,112.289,28.145L112.289,28.145z M291.001,55.434
	c-2.813,0.168-3.775,3.254-1.01,3.525c-0.209-4.871,16.201-0.939,17.518,16.675c0.762,10.189-9.4,21.873-22.369,22.338
	c-0.557,0.068-23.4,1.154-22.639-18.221c0.314-7.908,6.857-15.126,8.77-17.335c0.002-0.004,0.008-0.01,0.008-0.014
	c0.09-0.127,0.184-0.236,0.283-0.34c-1.332,0.277-2.748-0.289-3.984-0.387c-3.059-0.188-4.395,2.105-6.5,6.119
	c-2.48,4.678-5.156,9.359-8.5,13.375c-4.492,5.354-9.748,6.117-8.791-0.574c0.574-3.631,3.15-8.311,3.916-9.648
	c3.439-5.638,8.406-11.275,12.709-13.664c3.537-1.91,7.074-1.146,8.121,2.389c1.625,0.285,2.391-1.338,1.051-2.771
	c-5.445-5.924-16.434-2.387-22.166,4.396c-3.578,4.289-5.822,8.539-7.004,12.347c-1.645,3.137-3.465,6.398-4.941,8.193
	c-2.387,2.871-5.354,4.875-8.598,4.396l-0.666-0.094c3.723-2.484,6.59-6.881,6.781-10.604c0.189-4.209-1.914-7.648-3.439-11.277
	c-1.432-3.439-2.389-10.033,2.004-12.137c0.959-0.479,2.102-0.287,3.061,0.096c1.715,0.859,2.104-0.764,0.381-1.623
	c-0.955-0.479-2.104-0.668-3.533-0.479c-3.344,0.479-6.215,4.492-7.934,8.217c-1.598,3.502-3.471,7.318-5.289,10.894
	c-0.02,0.029-0.045,0.057-0.061,0.094c-0.625,1.221-1.344,2.637-2.102,4.084c-0.059,0.111-0.111,0.219-0.166,0.326
	c-0.201,0.375-0.402,0.756-0.602,1.133c-2.154,0.094-3.777,3.063-3.703,6.189c-0.203,0.281-0.402,0.549-0.596,0.783
	c-2.389,2.871-5.35,4.875-8.6,4.396l-0.668-0.094c3.727-2.484,6.592-6.881,6.785-10.604c0.191-4.209-1.912-7.648-3.441-11.277
	c-1.432-3.439-2.391-10.033,2.008-12.137c0.953-0.479,2.104-0.287,3.059,0.096c1.717,0.859,2.1-0.764,0.381-1.623
	c-0.955-0.479-2.104-0.668-3.535-0.479c-3.344,0.479-6.211,4.492-7.932,8.217c-1.619,3.555-3.527,7.432-5.373,11.052
	c-0.133,0.178-0.256,0.377-0.355,0.604c-0.092,0.213-0.193,0.434-0.291,0.664c-0.758,1.473-1.498,2.895-2.195,4.211
	c-2.109,0.086-3.707,2.938-3.703,5.992c-2.523,3.074-5.705,5.473-9.576,5.473c-6.309,0-4.688-9.65-3.252-13.092
	c2.58,0,8.791-2.006,11.754-4.203c6.113-4.681,8.885-11.177,5.254-13.949c-4.205-3.152-11.467,0.475-16.34,6.211
	c-2.639,3.117-4.902,7.107-6.197,11.064c-2.643,5.15-7.208,13.189-10.425,13.107c-5.734-0.285,4.012-17.771,5.445-20.734
	c1.146-2.387,2.673-6.018,2.003-7.355c-4.677,0.479-9.648,0.574-13.183,0.381c1.627-1.145,4.684-3.729,5.256-6.4
	c1.338-6.4-4.873-8.793-5.828-3.441c-1.412,7.908-4.652,17.848-9.295,26.511c-2.805,5.059-6.912,11.371-9.814,11.232
	c-1.24,0-1.721-1.818-0.955-5.734c1.242-5.828,6.879-15.861,8.885-17.869c-1.336,0.289-2.77-0.285-4.012-0.383
	c-3.057-0.188-4.395,2.105-6.498,6.119c-2.484,4.678-5.162,9.359-8.502,13.375c-4.494,5.354-9.742,6.117-8.795-0.574
	c0.576-3.631,3.156-8.311,3.92-9.648c3.441-5.638,8.408-11.275,12.707-13.664c3.537-1.91,7.072-1.146,8.121,2.389
	c1.625,0.285,2.391-1.338,1.053-2.771c-5.445-5.924-16.434-2.387-22.17,4.396c-14.424,17.294-7.162,34.013,3.824,23.501
	c2.771-2.674,5.352-6.494,6.881-8.98c-2.865,10.035,1.623,12.518,4.777,12.328c2.234-0.188,4.48-2.043,6.561-4.582
	c4.457-4.795,8.734-14.707,10.926-20.451l1.145-3.059c5.35,0.094,8.693,1.334,7.357,4.49c-1.049,2.391-4.488,7.357-5.924,11.273
	c-3.822,9.938,2.008,12.807,5.256,12.039c4.029-0.99,7.494-5.607,10.189-10.287c-0.043,0.537-0.068,1.076-0.063,1.594
	c0.096,6.02,4.393,9.172,9.172,9.172c4.664,0,8.068-2.051,10.725-5c0.865,2.699,3.289,5,8.1,5c1.242,0,2.58-0.381,3.916-0.957
	c5.209,1.57,9.234-0.604,12.41-4.156c0.83,2.746,3.252,5.113,8.135,5.113c1.238,0,2.578-0.381,3.916-0.957
	c6.988,2.104,11.859-2.521,15.377-8.193c-0.389,8.143,5.01,12.164,11.854,5.613c2.773-2.674,5.354-6.494,6.879-8.98
	c-1.4,2.988-1.525,7.383,0.846,11.283c6.648,10.949,15.631,12.035,25.326,12.035c14.002,0,25.691-12.914,24.479-23.584
	C307.47,64.141,300.527,54.875,291.001,55.434z M180.724,62.635c11.752-14.238,12.23-1.814,4.393,4.777
	c-3.439,2.863-8.404,4.201-10.127,4.201C175.853,69.895,178.24,65.69,180.724,62.635z M194.96,86.713
	c-3.727,0-4.967-4.492-1.912-7.549c0.189,3.631,1.816,5.924,3.824,7.166C196.298,86.615,195.63,86.713,194.96,86.713z
	 M198.496,85.469c-2.197-1.051-4.205-3.727-4.014-7.357c0.074-2.455-1.178-2.938-1.74-3.031c0.762-1.568,1.457-3.125,2.131-4.592
	c2.172-4.236,4.758-9.46,6.586-13.109c-0.764,4.297,1.527,12.132,1.238,18.158C202.412,80.596,200.597,83.844,198.496,85.469z
	 M219.423,86.713c-3.732,0-4.973-4.492-1.912-7.549c0.188,3.631,1.814,5.924,3.818,7.166
	C220.759,86.615,220.091,86.713,219.423,86.713z M222.957,85.469c-2.197-1.051-4.205-3.727-4.016-7.357
	c0.078-2.457-1.184-2.939-1.742-3.031c0.838-1.674,1.58-3.318,2.246-4.811c2.148-4.197,4.682-9.304,6.473-12.89
	c-0.764,4.297,1.529,12.132,1.244,18.158C226.875,80.596,225.06,83.844,222.957,85.469z M300.4,40.333
	c-3.215-1.113-5.543,1.766-2.553,3.326c1.736-5.332,17.811,4.705,13.59,28.595c0.287-0.701,0.525-1.416,0.703-2.145
	C315.298,57.25,311.277,44.094,300.4,40.333z M294.433,48.157c-2.883-0.15-4.205,3.02-1.416,3.631
	c0.328-5.201,15.664-0.477,17.125,21.892c0.092-0.701,0.141-1.396,0.139-2.09C310.222,59.317,304.187,48.663,294.433,48.157z
	 M86.172,72.197c-4.805,2.695-7.561,7.885-8.723,13.27c-1.313,4.961-1.609,11.596,1.205,19.424
	c-3.873-0.006-7.65-0.375-11.219-2.004c-3.23-1.475-5.916-3.631-7.926-6.563c-2.039-2.982-3.324-6.432-4.082-9.949
	c-0.402-1.875-0.657-3.781-0.762-5.695c-0.053-0.967-0.188-1.844-0.158-3.025c11.539-1.762,18.273-4.859,24.414-7.703
	c7.115-3.294,13.943-7.476,19.887-12.611c2.107-1.816,4.156-3.727,5.962-5.848c1.799-2.113,3.247-4.486,4.504-6.955
	c2.557-5.012,4.213-10.76,3.014-16.393c-0.527-3.17-2.385-6.014-4.867-8.02c-2.633-2.117-5.926-3.182-9.256-3.504
	c-6.684-0.648-13.561,1.244-19.184,4.813c-7.455,4.738-13.571,11.258-18.209,18.479c-4.748,6.93-8.791,15.904-10.584,27.338
	c-0.432,2.783-0.613,6.095-0.52,8.763c-0.059-0.002-0.117-0.002-0.174-0.002c-1.066-0.035-2.126-0.096-3.187-0.162
	c-2.051-0.139-20.199-1.602-27.391-11.623c-2.238-3.125-4.039-6.75-3.863-10.664c0.354-7.623,6.779-13.189,13.668-15.355
	c2.783-0.877,5.615-1.324,8.488-1.553c1.75-0.092,4.244-0.043,7.047,0.459c4.01,0.713,2.969,2.637,2.969,2.637
	c0.229-0.166,0.503-0.373,0.748-0.635c0.004,0,0.005,0,0.01,0c0.441-0.301,0.729-1.145,0.563-1.684
	c-0.002-0.018-0.002-0.029-0.002-0.045c-0.012-0.057-0.047-0.111-0.098-0.166c-0.373-0.547-1.592-0.82-2.166-1.008
	c-1.797-0.588-3.688-0.766-5.551-1.041c-1.894-0.279-3.83-0.234-5.736-0.158c-1.967,0.08-3.932,0.324-5.85,0.76
	c-6.842,1.566-13.5,5.723-16.104,12.496c-1.299,3.383-1.643,7.033-0.662,10.545c1.01,3.617,3.16,6.883,5.881,9.453
	c5.773,5.449,13.805,7.898,21.498,8.924c3.371,0.447,6.717,0.623,10.096,0.664c1.303,14.389,9.592,25.928,17.869,27.098
	c0.902,0.254,1.613,0.375,2.045,0.467c0.033,0.006,0.064,0.012,0.1,0.018c1.294,0.35,2.621,0.58,3.973,0.686
	c0.957,0.078,1.92,0.105,2.875,0.104c0.461-0.006,0.928-0.016,1.389-0.025c0.367-0.008,0.883-0.197,1.07,0.16
	c1.686,3.219,3.556,6.414,6.5,8.65c2.242,1.703,4.926,2.688,7.732,2.924c2.064,0.178,4.855,0.098,6.254-1.705
	c0.527-0.676,0.791-1.586,0.666-2.432c0.01,0.02,0.016,0.031,0.016,0.031s-0.006-0.014-0.016-0.033
	c-0.055-0.369-0.174-0.725-0.395-1.043c-0.373-0.541-0.952-0.902-1.594-1.035c-0.25-0.051-0.531-0.09-0.791-0.08
	c-0.893,0.018-1.526,1.813-0.678,2.152c0.846,0.34,1.807-1.713,2.555-1.08c0.379,0.426,0.555,1.002,0.504,1.592
	c-0.141,1.68-1.657,2.572-3.164,2.861c-3.416,0.658-7.324-0.439-10.076-2.5c-3.026-2.262-4.807-5.682-6.458-8.984
	c3.87-0.076,7.631-1.406,11.038-3.166c3.281-1.691,6.314-3.869,8.885-6.525c2.467-2.541,4.564-5.561,5.531-9.006
	c0.998-3.555,0.687-7.658-1.107-10.926C101.053,69.645,92.094,68.877,86.172,72.197z M55.686,64.305
	c0.68-3.91,1.896-7.672,3.365-11.354c2.686-6.73,6.285-13.209,10.883-18.828c4.102-5.02,9.123-9.494,15.061-12.205
	c5.631-2.564,12.908-3.75,18.713-1.047c3.172,1.48,5.389,4.248,6.225,7.641c0.705,2.846,0.391,5.623-0.107,8.451
	c-0.807,3.658-2.288,7-4.293,10.166c-2.123,3.355-4.861,6.24-7.793,8.896c-5.623,5.09-12.084,9.246-18.83,12.681
	c-7.631,3.887-15.879,6.055-24.389,7.143C54.406,71.809,54.988,68.277,55.686,64.305z M103.082,82.912
	c-0.211,3.574-1.939,6.816-4.094,9.6c-2.262,2.922-5.023,5.428-8.057,7.531c-3.162,2.199-6.674,4.074-10.42,5.059
	c-0.172,0.047-0.346,0.131-0.502,0.076c-1.338-3.191-1.846-8.127-2.018-11.021c0.021-4.037,0.753-8.867,3.059-13.971
	c0.217-0.357,0.439-0.709,0.682-1.051c1.979-2.813,4.633-5.406,8.076-6.168c3.039-0.67,6.668-0.5,9.348,1.219
	C102.092,76.063,103.277,79.553,103.082,82.912z"/>
<path fill="#FFFFFF" d="M112.042,25.641C113.551,32.719,111.329,21.381,112.042,25.641L112.042,25.641z M290.754,52.93
	c-2.813,0.168-3.775,3.254-1.01,3.525c-0.209-4.871,16.201-0.939,17.518,16.675c0.762,10.189-9.4,21.873-22.369,22.338
	c-0.557,0.068-23.4,1.154-22.639-18.221c0.314-7.908,6.857-15.126,8.77-17.335c0.002-0.004,0.008-0.01,0.008-0.014
	c0.09-0.127,0.184-0.236,0.283-0.34c-1.332,0.277-2.748-0.289-3.984-0.387c-3.059-0.188-4.395,2.105-6.5,6.119
	c-2.48,4.678-5.156,9.359-8.5,13.375c-4.492,5.354-9.748,6.117-8.791-0.574c0.574-3.631,3.15-8.311,3.916-9.648
	c3.439-5.638,8.406-11.275,12.709-13.664c3.537-1.91,7.074-1.146,8.121,2.389c1.625,0.285,2.391-1.338,1.051-2.771
	c-5.445-5.924-16.434-2.387-22.166,4.396c-3.578,4.289-5.822,8.539-7.004,12.347c-1.645,3.137-3.465,6.398-4.941,8.193
	c-2.387,2.871-5.354,4.875-8.598,4.396l-0.666-0.094c3.723-2.484,6.59-6.881,6.781-10.604c0.189-4.209-1.914-7.648-3.439-11.277
	c-1.432-3.439-2.389-10.033,2.004-12.137c0.959-0.479,2.102-0.287,3.061,0.096c1.715,0.859,2.104-0.764,0.381-1.623
	c-0.955-0.479-2.104-0.668-3.533-0.479c-3.344,0.479-6.215,4.492-7.934,8.217c-1.598,3.502-3.471,7.318-5.289,10.894
	c-0.02,0.029-0.045,0.057-0.061,0.094c-0.625,1.221-1.344,2.637-2.102,4.084c-0.059,0.111-0.111,0.219-0.166,0.326
	c-0.201,0.375-0.402,0.756-0.602,1.133c-2.154,0.094-3.777,3.063-3.703,6.189c-0.203,0.281-0.402,0.549-0.596,0.783
	c-2.389,2.871-5.35,4.875-8.6,4.396l-0.668-0.094c3.727-2.484,6.592-6.881,6.785-10.604c0.191-4.209-1.912-7.648-3.441-11.277
	c-1.432-3.439-2.391-10.033,2.008-12.137c0.953-0.479,2.104-0.287,3.059,0.096c1.717,0.859,2.1-0.764,0.381-1.623
	c-0.955-0.479-2.104-0.668-3.535-0.479c-3.344,0.479-6.211,4.492-7.932,8.217c-1.619,3.555-3.527,7.432-5.373,11.052
	c-0.133,0.178-0.256,0.377-0.355,0.604c-0.092,0.213-0.193,0.434-0.291,0.664c-0.758,1.473-1.498,2.895-2.195,4.211
	c-2.109,0.086-3.707,2.938-3.703,5.992c-2.523,3.074-5.705,5.473-9.576,5.473c-6.309,0-4.688-9.65-3.252-13.092
	c2.58,0,8.791-2.006,11.754-4.203c6.113-4.681,8.885-11.177,5.254-13.949c-4.205-3.152-11.467,0.475-16.34,6.211
	c-2.639,3.117-4.902,7.107-6.197,11.064c-2.643,5.15-7.208,13.189-10.425,13.107c-5.734-0.285,4.012-17.771,5.445-20.734
	c1.146-2.387,2.673-6.018,2.003-7.355c-4.677,0.479-9.648,0.574-13.183,0.381c1.627-1.145,4.684-3.729,5.256-6.4
	c1.338-6.4-4.873-8.793-5.828-3.441c-1.412,7.908-4.652,17.848-9.295,26.511c-2.805,5.059-6.912,11.371-9.814,11.232
	c-1.24,0-1.721-1.818-0.955-5.734c1.242-5.828,6.879-15.861,8.885-17.869c-1.336,0.289-2.77-0.285-4.012-0.383
	c-3.057-0.188-4.395,2.105-6.498,6.119c-2.484,4.678-5.162,9.359-8.502,13.375c-4.494,5.354-9.742,6.117-8.795-0.574
	c0.576-3.631,3.156-8.311,3.92-9.648c3.441-5.638,8.408-11.275,12.707-13.664c3.537-1.91,7.072-1.146,8.121,2.389
	c1.625,0.285,2.391-1.338,1.053-2.771c-5.445-5.924-16.434-2.387-22.17,4.396c-14.424,17.294-7.162,34.013,3.824,23.501
	c2.771-2.674,5.352-6.494,6.881-8.98c-2.865,10.035,1.623,12.518,4.777,12.328c2.234-0.188,4.48-2.043,6.561-4.582
	c4.457-4.795,8.734-14.707,10.926-20.451l1.145-3.059c5.35,0.094,8.693,1.334,7.357,4.49c-1.049,2.391-4.488,7.357-5.924,11.273
	c-3.822,9.938,2.008,12.807,5.256,12.039c4.029-0.99,7.494-5.607,10.189-10.287c-0.043,0.537-0.068,1.076-0.063,1.594
	c0.096,6.02,4.393,9.172,9.172,9.172c4.664,0,8.068-2.051,10.725-5c0.865,2.699,3.289,5,8.1,5c1.242,0,2.58-0.381,3.916-0.957
	c5.209,1.57,9.234-0.604,12.41-4.156c0.83,2.746,3.252,5.113,8.135,5.113c1.238,0,2.578-0.381,3.916-0.957
	c6.988,2.104,11.859-2.521,15.377-8.193c-0.389,8.143,5.01,12.164,11.854,5.613c2.773-2.674,5.354-6.494,6.879-8.98
	c-1.4,2.988-1.525,7.383,0.846,11.283c6.648,10.949,15.631,12.035,25.326,12.035c14.002,0,25.691-12.914,24.479-23.584
	C307.223,61.637,300.279,52.372,290.754,52.93z M180.477,60.131c11.752-14.238,12.23-1.814,4.393,4.777
	c-3.439,2.863-8.404,4.201-10.127,4.201C175.605,67.391,177.992,63.186,180.477,60.131z M194.713,84.209
	c-3.727,0-4.967-4.492-1.912-7.549c0.189,3.631,1.816,5.924,3.824,7.166C196.051,84.111,195.383,84.209,194.713,84.209z
	 M198.248,82.965c-2.197-1.051-4.205-3.727-4.014-7.357c0.074-2.455-1.178-2.938-1.74-3.031c0.762-1.568,1.457-3.125,2.131-4.592
	c2.172-4.236,4.758-9.46,6.586-13.109c-0.764,4.297,1.527,12.132,1.238,18.158C202.164,78.092,200.35,81.34,198.248,82.965z
	 M219.176,84.209c-3.732,0-4.973-4.492-1.912-7.549c0.188,3.631,1.814,5.924,3.818,7.166
	C220.512,84.111,219.844,84.209,219.176,84.209z M222.709,82.965c-2.197-1.051-4.205-3.727-4.016-7.357
	c0.078-2.457-1.184-2.939-1.742-3.031c0.838-1.674,1.58-3.318,2.246-4.811c2.148-4.197,4.682-9.304,6.473-12.89
	c-0.764,4.297,1.529,12.132,1.244,18.158C226.627,78.092,224.813,81.34,222.709,82.965z M300.152,37.829
	c-3.215-1.113-5.543,1.766-2.553,3.326c1.736-5.332,17.811,4.705,13.59,28.595c0.287-0.701,0.525-1.416,0.703-2.145
	C315.051,54.747,311.029,41.59,300.152,37.829z M294.186,45.653c-2.883-0.15-4.205,3.02-1.416,3.631
	c0.328-5.201,15.664-0.477,17.125,21.892c0.092-0.701,0.141-1.396,0.139-2.09C309.975,56.813,303.939,46.159,294.186,45.653z
	 M85.924,69.693c-4.805,2.695-7.561,7.885-8.723,13.27c-1.313,4.961-1.609,11.596,1.205,19.424
	c-3.873-0.006-7.65-0.375-11.219-2.004c-3.23-1.475-5.916-3.631-7.926-6.563c-2.039-2.982-3.324-6.432-4.082-9.949
	c-0.402-1.875-0.657-3.781-0.762-5.695c-0.053-0.967-0.188-1.844-0.158-3.025c11.539-1.762,18.273-4.859,24.414-7.703
	c7.115-3.294,13.943-7.476,19.887-12.611c2.107-1.816,4.156-3.727,5.962-5.848c1.799-2.113,3.247-4.486,4.504-6.955
	c2.557-5.012,4.213-10.76,3.014-16.393c-0.527-3.17-2.385-6.014-4.867-8.02c-2.633-2.117-5.926-3.182-9.256-3.504
	c-6.684-0.648-13.561,1.244-19.184,4.813c-7.455,4.738-13.571,11.258-18.209,18.479c-4.748,6.93-8.791,15.904-10.584,27.338
	c-0.432,2.783-0.613,6.095-0.52,8.763c-0.059-0.002-0.117-0.002-0.174-0.002c-1.066-0.035-2.126-0.096-3.187-0.162
	c-2.051-0.139-20.199-1.602-27.391-11.623c-2.238-3.125-4.039-6.75-3.863-10.664c0.354-7.623,6.779-13.189,13.668-15.355
	c2.783-0.877,5.615-1.324,8.488-1.553c1.75-0.092,4.244-0.043,7.047,0.459c4.01,0.713,2.969,2.637,2.969,2.637
	c0.229-0.166,0.503-0.373,0.748-0.635c0.004,0,0.005,0,0.01,0c0.441-0.301,0.729-1.145,0.563-1.684
	c-0.002-0.018-0.002-0.029-0.002-0.045c-0.012-0.057-0.047-0.111-0.098-0.166c-0.373-0.547-1.592-0.82-2.166-1.008
	c-1.797-0.588-3.688-0.766-5.551-1.041c-1.894-0.279-3.83-0.234-5.736-0.158c-1.967,0.08-3.932,0.324-5.85,0.76
	c-6.842,1.566-13.5,5.723-16.104,12.496c-1.299,3.383-1.643,7.033-0.662,10.545c1.01,3.617,3.16,6.883,5.881,9.453
	c5.773,5.449,13.805,7.898,21.498,8.924c3.371,0.447,6.717,0.623,10.096,0.664c1.303,14.389,9.592,25.928,17.869,27.098
	c0.902,0.254,1.613,0.375,2.045,0.467c0.033,0.006,0.064,0.012,0.1,0.018c1.294,0.35,2.621,0.58,3.973,0.686
	c0.957,0.078,1.92,0.105,2.875,0.104c0.461-0.006,0.928-0.016,1.389-0.025c0.367-0.008,0.883-0.197,1.07,0.16
	c1.686,3.219,3.556,6.414,6.5,8.65c2.242,1.703,4.926,2.688,7.732,2.924c2.064,0.178,4.855,0.098,6.254-1.705
	c0.527-0.676,0.791-1.586,0.666-2.432c0.01,0.02,0.016,0.031,0.016,0.031s-0.006-0.014-0.016-0.033
	c-0.055-0.369-0.174-0.725-0.395-1.043c-0.373-0.541-0.952-0.902-1.594-1.035c-0.25-0.051-0.531-0.09-0.791-0.08
	c-0.893,0.018-1.526,1.813-0.678,2.152c0.846,0.34,1.807-1.713,2.555-1.08c0.379,0.426,0.555,1.002,0.504,1.592
	c-0.141,1.68-1.657,2.572-3.164,2.861c-3.416,0.658-7.324-0.439-10.076-2.5c-3.026-2.262-4.807-5.682-6.458-8.984
	c3.87-0.076,7.631-1.406,11.038-3.166c3.281-1.691,6.314-3.869,8.885-6.525c2.467-2.541,4.564-5.561,5.531-9.006
	c0.998-3.555,0.687-7.658-1.107-10.926C100.805,67.141,91.846,66.373,85.924,69.693z M55.438,61.801
	c0.68-3.91,1.896-7.672,3.365-11.354c2.686-6.73,6.285-13.209,10.883-18.828c4.102-5.02,9.123-9.494,15.061-12.205
	c5.631-2.564,12.908-3.75,18.713-1.047c3.172,1.48,5.389,4.248,6.225,7.641c0.705,2.846,0.391,5.623-0.107,8.451
	c-0.807,3.658-2.288,7-4.293,10.166c-2.123,3.355-4.861,6.24-7.793,8.896c-5.623,5.09-12.084,9.246-18.83,12.681
	c-7.631,3.887-15.879,6.055-24.389,7.143C54.159,69.305,54.741,65.773,55.438,61.801z M102.834,80.408
	c-0.211,3.574-1.939,6.816-4.094,9.6c-2.262,2.922-5.023,5.428-8.057,7.531c-3.162,2.199-6.674,4.074-10.42,5.059
	c-0.172,0.047-0.346,0.131-0.502,0.076c-1.338-3.191-1.846-8.127-2.018-11.021c0.021-4.037,0.753-8.867,3.059-13.971
	c0.217-0.357,0.439-0.709,0.682-1.051c1.979-2.813,4.633-5.406,8.076-6.168c3.039-0.67,6.668-0.5,9.348,1.219
	C101.844,73.559,103.03,77.049,102.834,80.408z"/>
</svg>
