<?xml version="1.0" encoding="utf-8"?>
<!-- Generator: Adobe Illustrator 16.0.0, SVG Export Plug-In . SVG Version: 6.00 Build 0)  -->
<!DOCTYPE svg PUBLIC "-//W3C//DTD SVG 1.1//EN" "http://www.w3.org/Graphics/SVG/1.1/DTD/svg11.dtd">
<svg version="1.1" id="Capa_1" xmlns="http://www.w3.org/2000/svg" xmlns:xlink="http://www.w3.org/1999/xlink" x="0px" y="0px"
	 width="382.532px" height="108.583px" viewBox="0 0 382.532 108.583" enable-background="new 0 0 382.532 108.583"
	 xml:space="preserve">
<g>
	<path fill="#00809D" d="M49.066,40.36c-5.005,0-7.8,2.666-7.8,8.385v18.916c0,5.72,2.795,8.385,7.93,8.385
		c6.63,0,7.215-4.485,7.475-7.345c0.13-1.69,1.495-2.275,3.38-2.275c2.405,0,3.51,0.715,3.51,3.575
		c0,7.15-5.916,12.156-14.821,12.156c-7.865,0-14.366-3.965-14.366-14.496V48.746c0-10.53,6.565-14.495,14.431-14.495
		c8.905,0,14.756,4.875,14.756,11.765c0,2.925-1.105,3.575-3.445,3.575c-2.08,0-3.38-0.715-3.445-2.275
		C56.541,45.041,55.761,40.36,49.066,40.36z"/>
	<path fill="#00809D" d="M69.539,67.662V48.746c0-10.53,6.306-14.495,14.561-14.495c8.19,0,14.626,3.965,14.626,14.495v18.916
		c0,10.53-6.436,14.496-14.626,14.496C75.845,82.157,69.539,78.192,69.539,67.662z M91.835,48.746c0-5.72-2.925-8.385-7.735-8.385
		c-4.875,0-7.67,2.666-7.67,8.385v18.916c0,5.72,2.795,8.385,7.67,8.385c4.811,0,7.735-2.665,7.735-8.385V48.746z"/>
	<path fill="#00809D" d="M109.839,81.767c-1.495,0-3.055-0.78-3.055-2.275V36.46c0-1.56,1.755-2.21,3.445-2.21
		c1.755,0,3.445,0.65,3.445,2.21v39.196h16.901c1.365,0,2.08,1.495,2.08,3.055c0,1.495-0.715,3.055-2.08,3.055H109.839z"/>
	<path fill="#00809D" d="M151.244,40.36c-5.005,0-7.8,2.666-7.8,8.385v18.916c0,5.72,2.795,8.385,7.93,8.385
		c6.63,0,7.215-4.485,7.475-7.345c0.13-1.69,1.495-2.275,3.38-2.275c2.405,0,3.51,0.715,3.51,3.575
		c0,7.15-5.915,12.156-14.82,12.156c-7.865,0-14.366-3.965-14.366-14.496V48.746c0-10.53,6.565-14.495,14.431-14.495
		c8.905,0,14.755,4.875,14.755,11.765c0,2.925-1.105,3.575-3.445,3.575c-2.08,0-3.38-0.715-3.445-2.275
		C158.719,45.041,157.939,40.36,151.244,40.36z"/>
	<path fill="#00809D" d="M195.249,59.861h-16.186v19.631c0,1.495-1.69,2.275-3.445,2.275c-1.69,0-3.445-0.78-3.445-2.275V36.46
		c0-1.56,1.755-2.21,3.445-2.21c1.755,0,3.445,0.65,3.445,2.21v17.94h16.186V36.46c0-1.56,1.755-2.21,3.445-2.21
		c1.755,0,3.445,0.65,3.445,2.21v43.032c0,1.495-1.69,2.275-3.445,2.275c-1.69,0-3.445-0.78-3.445-2.275V59.861z"/>
	<path fill="#00809D" d="M210.262,67.662V48.746c0-10.53,6.306-14.495,14.561-14.495c8.19,0,14.626,3.965,14.626,14.495v18.916
		c0,10.53-6.436,14.496-14.626,14.496C216.567,82.157,210.262,78.192,210.262,67.662z M232.558,48.746
		c0-5.72-2.925-8.385-7.735-8.385c-4.875,0-7.67,2.666-7.67,8.385v18.916c0,5.72,2.795,8.385,7.67,8.385
		c4.811,0,7.735-2.665,7.735-8.385V48.746z"/>
	<path fill="#00809D" d="M269.932,79.232l-15.536-29.576v29.836c0,1.495-1.69,2.275-3.445,2.275c-1.69,0-3.445-0.78-3.445-2.275
		V36.525c0-1.625,1.69-2.275,3.445-2.275c2.47,0,3.64,0.91,5.2,3.9l14.431,28.146V36.46c0-1.56,1.755-2.21,3.445-2.21
		c1.755,0,3.445,0.65,3.445,2.21v43.032c0,1.495-1.69,2.275-3.445,2.275C272.337,81.767,270.842,80.922,269.932,79.232z"/>
	<path fill="#00809D" d="M292.94,55.246h10.011c1.43,0,2.275,1.3,2.275,2.795c0,1.235-0.715,2.666-2.275,2.666H292.94v14.95h19.306
		c1.43,0,2.275,1.43,2.275,3.12c0,1.43-0.715,2.99-2.275,2.99h-23.141c-1.495,0-3.055-0.78-3.055-2.275V36.525
		c0-1.495,1.56-2.275,3.055-2.275h23.141c1.56,0,2.275,1.56,2.275,2.99c0,1.69-0.845,3.12-2.275,3.12H292.94V55.246z"/>
	<path fill="#00809D" d="M339.936,69.157c0-11.505-21.125-7.021-21.125-22.621c0-9.62,8.06-12.48,15.016-12.48
		c4.225,0,11.831,1.105,11.831,4.68c0,1.3-0.91,3.705-2.86,3.705c-1.755,0-3.445-2.47-8.97-2.47c-4.745,0-8.125,1.82-8.125,5.915
		c0,9.621,21.126,5.265,21.126,22.556c0,9.295-6.24,13.846-14.821,13.846c-8.45,0-14.365-4.42-14.365-7.67
		c0-1.56,1.365-3.705,2.99-3.705c2.34,0,3.9,5.135,11.116,5.135C336.426,76.047,339.936,73.837,339.936,69.157z"/>
</g>
<g>
	<g>
		<g>
			<g>
				
					<line fill="none" stroke="#645F54" stroke-width="2" stroke-linecap="round" stroke-linejoin="round" x1="232.453" y1="8.51" x2="232.552" y2="8.51"/>
				
					<line fill="none" stroke="#645F54" stroke-width="2" stroke-linecap="round" stroke-linejoin="round" stroke-dasharray="0.1994,7.9741" x1="240.527" y1="8.51" x2="375.488" y2="8.51"/>
				
					<line fill="none" stroke="#645F54" stroke-width="2" stroke-linecap="round" stroke-linejoin="round" x1="379.476" y1="8.51" x2="379.576" y2="8.51"/>
			</g>
		</g>
		<g>
			<g>
				
					<line fill="none" stroke="#645F54" stroke-width="2" stroke-linecap="round" stroke-linejoin="round" x1="0" y1="8.51" x2="0.1" y2="8.51"/>
				
					<line fill="none" stroke="#645F54" stroke-width="2" stroke-linecap="round" stroke-linejoin="round" stroke-dasharray="0.1994,7.9741" x1="8.074" y1="8.51" x2="143.035" y2="8.51"/>
				
					<line fill="none" stroke="#645F54" stroke-width="2" stroke-linecap="round" stroke-linejoin="round" x1="147.022" y1="8.51" x2="147.122" y2="8.51"/>
			</g>
		</g>
	</g>
	
		<rect x="183.771" y="2.493" transform="matrix(0.7071 -0.7071 0.7071 0.7071 49.5701 136.6924)" fill="#645F54" width="12.032" height="12.034"/>
	<g>
		
			<rect x="208.044" y="4.746" transform="matrix(0.7071 -0.7071 0.7071 0.7071 56.0196 152.2627)" fill="#645F54" width="7.527" height="7.528"/>
		
			<rect x="164.006" y="4.746" transform="matrix(0.7071 -0.7071 0.7071 0.7071 43.1212 121.1234)" fill="#645F54" width="7.527" height="7.528"/>
	</g>
</g>
<g>
	<g>
		
			<line fill="none" stroke="#645F54" stroke-width="2" stroke-linecap="round" stroke-linejoin="round" x1="20" y1="103.26" x2="20.1" y2="103.26"/>
		
			<line fill="none" stroke="#645F54" stroke-width="2" stroke-linecap="round" stroke-linejoin="round" stroke-dasharray="0.2042,8.1678" x1="28.268" y1="103.26" x2="149.764" y2="103.26"/>
		
			<line fill="none" stroke="#645F54" stroke-width="2" stroke-linecap="round" stroke-linejoin="round" x1="153.848" y1="103.26" x2="153.948" y2="103.26"/>
	</g>
</g>
<g>
	<g>
		
			<line fill="none" stroke="#645F54" stroke-width="2" stroke-linecap="round" stroke-linejoin="round" x1="359.576" y1="103.26" x2="359.475" y2="103.26"/>
		
			<line fill="none" stroke="#645F54" stroke-width="2" stroke-linecap="round" stroke-linejoin="round" stroke-dasharray="0.2042,8.1678" x1="351.308" y1="103.26" x2="229.811" y2="103.26"/>
		
			<line fill="none" stroke="#645F54" stroke-width="2" stroke-linecap="round" stroke-linejoin="round" x1="225.727" y1="103.26" x2="225.626" y2="103.26"/>
	</g>
</g>
<rect x="186.024" y="99.496" transform="matrix(-0.7071 -0.7071 0.7071 -0.7071 250.9717 310.4764)" fill="#645F54" width="7.527" height="7.528"/>
</svg>
