<?xml version="1.0" encoding="utf-8"?>
<!-- Generator: Adobe Illustrator 16.0.0, SVG Export Plug-In . SVG Version: 6.00 Build 0)  -->
<!DOCTYPE svg PUBLIC "-//W3C//DTD SVG 1.1//EN" "http://www.w3.org/Graphics/SVG/1.1/DTD/svg11.dtd">
<svg version="1.1" id="Capa_1" xmlns="http://www.w3.org/2000/svg" xmlns:xlink="http://www.w3.org/1999/xlink" x="0px" y="0px"
	 width="240px" height="106px" viewBox="0 0 240 106" enable-background="new 0 0 240 106" xml:space="preserve">
<g>
	<g>
		<g>
			<g>
				<g>
					
						<line fill="none" stroke="#645F54" stroke-width="2" stroke-linecap="round" stroke-linejoin="round" x1="155.69" y1="11.201" x2="155.791" y2="11.201"/>
					
						<line fill="none" stroke="#645F54" stroke-width="2" stroke-linecap="round" stroke-linejoin="round" stroke-dasharray="0.1937,7.7472" x1="163.537" y1="11.201" x2="231.132" y2="11.201"/>
					
						<line fill="none" stroke="#645F54" stroke-width="2" stroke-linecap="round" stroke-linejoin="round" x1="235.006" y1="11.201" x2="235.105" y2="11.201"/>
				</g>
			</g>
			<g>
				<g>
					
						<line fill="none" stroke="#645F54" stroke-width="2" stroke-linecap="round" stroke-linejoin="round" x1="6.503" y1="11.201" x2="6.603" y2="11.201"/>
					
						<line fill="none" stroke="#645F54" stroke-width="2" stroke-linecap="round" stroke-linejoin="round" stroke-dasharray="0.1937,7.7472" x1="14.35" y1="11.201" x2="81.944" y2="11.201"/>
					
						<line fill="none" stroke="#645F54" stroke-width="2" stroke-linecap="round" stroke-linejoin="round" x1="85.818" y1="11.201" x2="85.918" y2="11.201"/>
				</g>
			</g>
		</g>
		
			<rect x="115.885" y="6.281" transform="matrix(0.7071 -0.7071 0.7071 0.7071 27.4626 88.7021)" fill="#645F54" width="9.839" height="9.839"/>
		<g>
			
				<rect x="135.731" y="8.123" transform="matrix(0.7071 -0.7071 0.7071 0.7071 32.7362 101.4334)" fill="#645F54" width="6.155" height="6.156"/>
			
				<rect x="99.723" y="8.123" transform="matrix(0.707 -0.7072 0.7072 0.707 22.1968 75.9808)" fill="#645F54" width="6.155" height="6.156"/>
		</g>
	</g>
	<g>
		<g>
			<g>
				
					<line fill="none" stroke="#645F54" stroke-width="2" stroke-linecap="round" stroke-linejoin="round" x1="22.856" y1="97.111" x2="22.957" y2="97.111"/>
				
					<line fill="none" stroke="#645F54" stroke-width="2" stroke-linecap="round" stroke-linejoin="round" stroke-dasharray="0.2093,8.3722" x1="31.329" y1="97.111" x2="87.213" y2="97.111"/>
				
					<line fill="none" stroke="#645F54" stroke-width="2" stroke-linecap="round" stroke-linejoin="round" x1="91.399" y1="97.111" x2="91.499" y2="97.111"/>
			</g>
		</g>
		<g>
			<g>
				
					<line fill="none" stroke="#645F54" stroke-width="2" stroke-linecap="round" stroke-linejoin="round" x1="218.752" y1="97.111" x2="218.652" y2="97.111"/>
				
					<line fill="none" stroke="#645F54" stroke-width="2" stroke-linecap="round" stroke-linejoin="round" stroke-dasharray="0.2093,8.3722" x1="210.279" y1="97.111" x2="154.396" y2="97.111"/>
				
					<line fill="none" stroke="#645F54" stroke-width="2" stroke-linecap="round" stroke-linejoin="round" x1="150.209" y1="97.111" x2="150.109" y2="97.111"/>
			</g>
		</g>
		
			<rect x="117.728" y="94.034" transform="matrix(-0.7071 -0.7071 0.7071 -0.7071 137.5584 251.2012)" fill="#645F54" width="6.154" height="6.155"/>
	</g>
	<g>
		<g>
			<path fill="#645F54" d="M68.604,32.866c7.588,0,13.999,5.168,13.999,13.018c0,14.064-21.194,18.644-21.194,26.166v2.485H80.64
				c1.178,0,2.29,1.374,2.29,3.01c0,1.635-1.112,3.14-2.29,3.14H57.353c-1.309,0-3.075-0.916-3.075-2.289V72.05
				c0-10.597,21.391-15.896,21.391-25.97c0-3.205-2.093-6.868-7.065-6.868c-3.663,0-6.607,2.027-6.607,6.476
				c0,1.309-1.374,2.617-3.663,2.617c-1.832,0-3.14-0.916-3.14-3.859C55.194,37.445,61.474,32.866,68.604,32.866z"/>
			<path fill="#645F54" d="M88.097,66.489V47.454c0-10.598,6.345-14.588,14.653-14.588c8.242,0,14.718,3.99,14.718,14.588v19.035
				c0,10.598-6.476,14.588-14.718,14.588C94.442,81.077,88.097,77.087,88.097,66.489z M110.535,47.454
				c0-5.757-2.944-8.438-7.785-8.438c-4.906,0-7.719,2.682-7.719,8.438v19.035c0,5.757,2.813,8.438,7.719,8.438
				c4.841,0,7.785-2.682,7.785-8.438V47.454z M105.563,57.005c0,1.635-1.112,2.813-2.748,2.813c-1.701,0-2.813-1.178-2.813-2.813
				c0-1.636,1.112-2.748,2.813-2.748C104.451,54.257,105.563,55.369,105.563,57.005z"/>
			<path fill="#645F54" d="M124.14,66.489V47.454c0-10.598,6.345-14.588,14.653-14.588c8.242,0,14.718,3.99,14.718,14.588v19.035
				c0,10.598-6.476,14.588-14.718,14.588C130.485,81.077,124.14,77.087,124.14,66.489z M146.578,47.454
				c0-5.757-2.944-8.438-7.785-8.438c-4.906,0-7.719,2.682-7.719,8.438v19.035c0,5.757,2.813,8.438,7.719,8.438
				c4.841,0,7.785-2.682,7.785-8.438V47.454z M141.606,57.005c0,1.635-1.112,2.813-2.748,2.813c-1.701,0-2.813-1.178-2.813-2.813
				c0-1.636,1.112-2.748,2.813-2.748C140.494,54.257,141.606,55.369,141.606,57.005z"/>
			<path fill="#645F54" d="M172.874,51.706c8.308,0,14.718,3.663,14.718,13.737v1.242c0,10.467-6.542,14.392-14.653,14.392
				c-9.485,0-14.718-5.495-14.718-11.578c0-2.486,1.309-3.206,3.402-3.206c2.878,0,3.532,1.178,3.532,2.748
				c0,3.729,3.401,5.887,7.653,5.887c4.906,0,7.85-2.616,7.85-8.242v-1.242c0-5.561-2.944-8.242-7.785-8.242h-9.485
				c-2.29,0-2.944-1.047-2.944-2.683c0-0.458,0.065-1.111,0.131-1.569l1.504-17.793c0.131-1.439,0.589-2.29,1.57-2.29h19.428
				c1.439,0,2.159,1.57,2.159,3.075c0,1.569-0.719,3.074-2.159,3.074h-15.11l-0.916,12.69H172.874z"/>
		</g>
	</g>
</g>
</svg>
