<?xml version="1.0" encoding="utf-8"?>
<!-- Generator: Adobe Illustrator 16.0.0, SVG Export Plug-In . SVG Version: 6.00 Build 0)  -->
<!DOCTYPE svg PUBLIC "-//W3C//DTD SVG 1.1//EN" "http://www.w3.org/Graphics/SVG/1.1/DTD/svg11.dtd">
<svg version="1.1" id="Capa_1" xmlns="http://www.w3.org/2000/svg" xmlns:xlink="http://www.w3.org/1999/xlink" x="0px" y="0px"
	 width="239px" height="107px" viewBox="0 0 239 107" enable-background="new 0 0 239 107" xml:space="preserve">
<g>
	<g>
		<g>
			<g>
				<g>
					
						<line fill="none" stroke="#645F54" stroke-width="2" stroke-linecap="round" stroke-linejoin="round" x1="154.898" y1="11.875" x2="154.998" y2="11.875"/>
					
						<line fill="none" stroke="#645F54" stroke-width="2" stroke-linecap="round" stroke-linejoin="round" stroke-dasharray="0.1937,7.7472" x1="162.746" y1="11.875" x2="230.34" y2="11.875"/>
					
						<line fill="none" stroke="#645F54" stroke-width="2" stroke-linecap="round" stroke-linejoin="round" x1="234.213" y1="11.875" x2="234.313" y2="11.875"/>
				</g>
			</g>
			<g>
				<g>
					
						<line fill="none" stroke="#645F54" stroke-width="2" stroke-linecap="round" stroke-linejoin="round" x1="5.711" y1="11.875" x2="5.811" y2="11.875"/>
					
						<line fill="none" stroke="#645F54" stroke-width="2" stroke-linecap="round" stroke-linejoin="round" stroke-dasharray="0.1937,7.7471" x1="13.558" y1="11.875" x2="81.151" y2="11.875"/>
					
						<line fill="none" stroke="#645F54" stroke-width="2" stroke-linecap="round" stroke-linejoin="round" x1="85.025" y1="11.875" x2="85.125" y2="11.875"/>
				</g>
			</g>
		</g>
		
			<rect x="115.093" y="6.956" transform="matrix(0.7071 -0.7071 0.7071 0.7071 26.7534 88.3393)" fill="#645F54" width="9.837" height="9.839"/>
		<g>
			
				<rect x="134.94" y="8.798" transform="matrix(0.7071 -0.7071 0.7071 0.7071 32.0269 101.0707)" fill="#645F54" width="6.154" height="6.155"/>
			
				<rect x="98.931" y="8.798" transform="matrix(0.7072 -0.707 0.707 0.7072 21.4732 75.6)" fill="#645F54" width="6.155" height="6.155"/>
		</g>
	</g>
	<g>
		<g>
			<g>
				
					<line fill="none" stroke="#645F54" stroke-width="2" stroke-linecap="round" stroke-linejoin="round" x1="22.064" y1="97.783" x2="22.165" y2="97.783"/>
				
					<line fill="none" stroke="#645F54" stroke-width="2" stroke-linecap="round" stroke-linejoin="round" stroke-dasharray="0.2093,8.3722" x1="30.537" y1="97.783" x2="86.421" y2="97.783"/>
				
					<line fill="none" stroke="#645F54" stroke-width="2" stroke-linecap="round" stroke-linejoin="round" x1="90.607" y1="97.783" x2="90.707" y2="97.783"/>
			</g>
		</g>
		<g>
			<g>
				
					<line fill="none" stroke="#645F54" stroke-width="2" stroke-linecap="round" stroke-linejoin="round" x1="217.96" y1="97.783" x2="217.859" y2="97.783"/>
				
					<line fill="none" stroke="#645F54" stroke-width="2" stroke-linecap="round" stroke-linejoin="round" stroke-dasharray="0.2093,8.3722" x1="209.488" y1="97.783" x2="153.604" y2="97.783"/>
				
					<line fill="none" stroke="#645F54" stroke-width="2" stroke-linecap="round" stroke-linejoin="round" x1="149.418" y1="97.783" x2="149.317" y2="97.783"/>
			</g>
		</g>
		
			<rect x="116.935" y="94.705" transform="matrix(-0.7071 -0.7071 0.7071 -0.7071 135.7296 251.7875)" fill="#645F54" width="6.154" height="6.155"/>
	</g>
	<g>
		<g>
			<path fill="#645F54" d="M77.166,33.54c7.588,0,13.999,5.168,13.999,13.018c0,14.064-21.194,18.644-21.194,26.166v2.485h19.231
				c1.178,0,2.29,1.374,2.29,3.01c0,1.635-1.112,3.14-2.29,3.14H65.915c-1.309,0-3.075-0.916-3.075-2.289v-6.346
				c0-10.597,21.391-15.896,21.391-25.97c0-3.205-2.093-6.868-7.065-6.868c-3.663,0-6.607,2.027-6.607,6.476
				c0,1.309-1.374,2.617-3.663,2.617c-1.832,0-3.14-0.916-3.14-3.859C63.756,38.119,70.036,33.54,77.166,33.54z"/>
			<path fill="#645F54" d="M96.659,67.163V48.128c0-10.598,6.345-14.588,14.653-14.588c8.242,0,14.718,3.99,14.718,14.588v19.035
				c0,10.598-6.476,14.588-14.718,14.588C103.004,81.751,96.659,77.761,96.659,67.163z M119.096,48.128
				c0-5.757-2.944-8.438-7.785-8.438c-4.906,0-7.719,2.682-7.719,8.438v19.035c0,5.757,2.813,8.438,7.719,8.438
				c4.841,0,7.785-2.682,7.785-8.438V48.128z M114.125,57.679c0,1.635-1.112,2.813-2.748,2.813c-1.701,0-2.813-1.178-2.813-2.813
				c0-1.636,1.112-2.748,2.813-2.748C113.013,54.931,114.125,56.043,114.125,57.679z"/>
			<path fill="#645F54" d="M135.842,42.698l-2.29,2.879c-0.458,0.457-1.047,0.653-1.439,0.653c-1.374,0-2.355-1.438-2.355-2.813
				c0-0.981,0.523-2.093,1.374-2.682l6.803-6.542c0.458-0.458,0.981-0.72,1.766-0.72c1.439,0,3.075,0.851,3.075,2.29v43.305
				c0,1.504-1.767,2.289-3.467,2.289c-1.766,0-3.467-0.785-3.467-2.289V42.698z"/>
			<path fill="#645F54" d="M163.054,33.54c7.588,0,13.999,5.168,13.999,13.018c0,14.064-21.194,18.644-21.194,26.166v2.485h19.231
				c1.178,0,2.29,1.374,2.29,3.01c0,1.635-1.112,3.14-2.29,3.14h-23.287c-1.309,0-3.075-0.916-3.075-2.289v-6.346
				c0-10.597,21.391-15.896,21.391-25.97c0-3.205-2.093-6.868-7.065-6.868c-3.663,0-6.607,2.027-6.607,6.476
				c0,1.309-1.374,2.617-3.663,2.617c-1.832,0-3.14-0.916-3.14-3.859C149.644,38.119,155.924,33.54,163.054,33.54z"/>
		</g>
	</g>
</g>
</svg>
