<?xml version="1.0" encoding="utf-8"?>
<!-- Generator: Adobe Illustrator 16.0.0, SVG Export Plug-In . SVG Version: 6.00 Build 0)  -->
<!DOCTYPE svg PUBLIC "-//W3C//DTD SVG 1.1//EN" "http://www.w3.org/Graphics/SVG/1.1/DTD/svg11.dtd">
<svg version="1.1" id="Capa_1" xmlns="http://www.w3.org/2000/svg" xmlns:xlink="http://www.w3.org/1999/xlink" x="0px" y="0px"
	 width="240px" height="103px" viewBox="0 0 240 103" enable-background="new 0 0 240 103" xml:space="preserve">
<g>
	<g>
		<g>
			<g>
				<g>
					
						<line fill="none" stroke="#645F54" stroke-width="2" stroke-linecap="round" stroke-linejoin="round" x1="154.679" y1="7.959" x2="154.779" y2="7.959"/>
					
						<line fill="none" stroke="#645F54" stroke-width="2" stroke-linecap="round" stroke-linejoin="round" stroke-dasharray="0.1937,7.7472" x1="162.525" y1="7.959" x2="230.12" y2="7.959"/>
					
						<line fill="none" stroke="#645F54" stroke-width="2" stroke-linecap="round" stroke-linejoin="round" x1="233.994" y1="7.959" x2="234.094" y2="7.959"/>
				</g>
			</g>
			<g>
				<g>
					
						<line fill="none" stroke="#645F54" stroke-width="2" stroke-linecap="round" stroke-linejoin="round" x1="5.491" y1="7.959" x2="5.591" y2="7.959"/>
					
						<line fill="none" stroke="#645F54" stroke-width="2" stroke-linecap="round" stroke-linejoin="round" stroke-dasharray="0.1937,7.7471" x1="13.338" y1="7.959" x2="80.932" y2="7.959"/>
					
						<line fill="none" stroke="#645F54" stroke-width="2" stroke-linecap="round" stroke-linejoin="round" x1="84.805" y1="7.959" x2="84.905" y2="7.959"/>
				</g>
			</g>
		</g>
		
			<rect x="114.873" y="3.04" transform="matrix(0.7072 -0.7071 0.7071 0.7072 29.453 87.0309)" fill="#645F54" width="9.838" height="9.839"/>
		<g>
			
				<rect x="134.72" y="4.881" transform="matrix(0.7071 -0.7071 0.7071 0.7071 34.7319 99.7682)" fill="#645F54" width="6.154" height="6.155"/>
			
				<rect x="98.711" y="4.881" transform="matrix(0.7072 -0.707 0.707 0.7072 24.1779 74.2978)" fill="#645F54" width="6.155" height="6.155"/>
		</g>
	</g>
	<g>
		<g>
			<g>
				
					<line fill="none" stroke="#645F54" stroke-width="2" stroke-linecap="round" stroke-linejoin="round" x1="21.845" y1="93.867" x2="21.945" y2="93.867"/>
				
					<line fill="none" stroke="#645F54" stroke-width="2" stroke-linecap="round" stroke-linejoin="round" stroke-dasharray="0.2093,8.3722" x1="30.317" y1="93.867" x2="86.201" y2="93.867"/>
				
					<line fill="none" stroke="#645F54" stroke-width="2" stroke-linecap="round" stroke-linejoin="round" x1="90.387" y1="93.867" x2="90.487" y2="93.867"/>
			</g>
		</g>
		<g>
			<g>
				
					<line fill="none" stroke="#645F54" stroke-width="2" stroke-linecap="round" stroke-linejoin="round" x1="217.74" y1="93.867" x2="217.641" y2="93.867"/>
				
					<line fill="none" stroke="#645F54" stroke-width="2" stroke-linecap="round" stroke-linejoin="round" stroke-dasharray="0.2093,8.3722" x1="209.268" y1="93.867" x2="153.384" y2="93.867"/>
				
					<line fill="none" stroke="#645F54" stroke-width="2" stroke-linecap="round" stroke-linejoin="round" x1="149.197" y1="93.867" x2="149.098" y2="93.867"/>
			</g>
		</g>
		
			<rect x="116.716" y="90.789" transform="matrix(-0.7071 -0.7071 0.7071 -0.7071 138.1256 244.9469)" fill="#645F54" width="6.154" height="6.155"/>
	</g>
	<g>
		<g>
			<path fill="#645F54" d="M68.017,29.624c7.588,0,13.999,5.168,13.999,13.018c0,14.064-21.194,18.644-21.194,26.166v2.485h19.231
				c1.178,0,2.29,1.374,2.29,3.01c0,1.635-1.112,3.14-2.29,3.14H56.766c-1.309,0-3.075-0.916-3.075-2.289v-6.346
				c0-10.597,21.391-15.896,21.391-25.97c0-3.205-2.093-6.868-7.065-6.868c-3.663,0-6.607,2.027-6.607,6.476
				c0,1.309-1.374,2.617-3.663,2.617c-1.832,0-3.14-0.916-3.14-3.859C54.607,34.203,60.887,29.624,68.017,29.624z"/>
			<path fill="#645F54" d="M87.51,63.247V44.211c0-10.598,6.345-14.588,14.653-14.588c8.242,0,14.718,3.99,14.718,14.588v19.035
				c0,10.598-6.476,14.588-14.718,14.588C93.855,77.834,87.51,73.844,87.51,63.247z M109.948,44.211
				c0-5.757-2.944-8.438-7.785-8.438c-4.906,0-7.719,2.682-7.719,8.438v19.035c0,5.757,2.813,8.438,7.719,8.438
				c4.841,0,7.785-2.682,7.785-8.438V44.211z M104.976,53.762c0,1.635-1.112,2.813-2.748,2.813c-1.701,0-2.813-1.178-2.813-2.813
				c0-1.636,1.112-2.748,2.813-2.748C103.864,51.014,104.976,52.126,104.976,53.762z"/>
			<path fill="#645F54" d="M123.553,63.247V44.211c0-10.598,6.345-14.588,14.653-14.588c8.242,0,14.718,3.99,14.718,14.588v19.035
				c0,10.598-6.476,14.588-14.718,14.588C129.898,77.834,123.553,73.844,123.553,63.247z M145.991,44.211
				c0-5.757-2.944-8.438-7.785-8.438c-4.906,0-7.719,2.682-7.719,8.438v19.035c0,5.757,2.813,8.438,7.719,8.438
				c4.841,0,7.785-2.682,7.785-8.438V44.211z M141.019,53.762c0,1.635-1.112,2.813-2.748,2.813c-1.701,0-2.813-1.178-2.813-2.813
				c0-1.636,1.112-2.748,2.813-2.748C139.907,51.014,141.019,52.126,141.019,53.762z"/>
			<path fill="#645F54" d="M186.939,38.651c0,1.112-0.588,2.617-1.243,3.859L168.1,76.591c-0.392,0.72-1.112,1.047-2.093,1.047
				c-2.159,0-4.317-1.374-4.317-3.401c0-0.393,0.065-0.851,0.327-1.309l17.989-33.1v-4.056h-15.503v6.148
				c0,1.309-1.701,2.29-3.532,2.29s-3.402-0.981-3.402-2.29V31.914c0-1.112,1.57-2.29,3.075-2.29h23.222
				c1.374,0,3.074,1.178,3.074,2.29V38.651z"/>
		</g>
	</g>
</g>
</svg>
