<?xml version="1.0" encoding="utf-8"?>
<!-- Generator: Adobe Illustrator 16.0.0, SVG Export Plug-In . SVG Version: 6.00 Build 0)  -->
<!DOCTYPE svg PUBLIC "-//W3C//DTD SVG 1.1//EN" "http://www.w3.org/Graphics/SVG/1.1/DTD/svg11.dtd">
<svg version="1.1" id="Capa_1" xmlns="http://www.w3.org/2000/svg" xmlns:xlink="http://www.w3.org/1999/xlink" x="0px" y="0px"
	 width="238px" height="106px" viewBox="0 0 238 106" enable-background="new 0 0 238 106" xml:space="preserve">
<g>
	<g>
		<g>
			<g>
				
					<line fill="none" stroke="#645F54" stroke-width="2" stroke-linecap="round" stroke-linejoin="round" x1="153.886" y1="11.271" x2="153.986" y2="11.271"/>
				
					<line fill="none" stroke="#645F54" stroke-width="2" stroke-linecap="round" stroke-linejoin="round" stroke-dasharray="0.1937,7.7472" x1="161.732" y1="11.271" x2="229.327" y2="11.271"/>
				
					<line fill="none" stroke="#645F54" stroke-width="2" stroke-linecap="round" stroke-linejoin="round" x1="233.201" y1="11.271" x2="233.301" y2="11.271"/>
			</g>
		</g>
		<g>
			<g>
				
					<line fill="none" stroke="#645F54" stroke-width="2" stroke-linecap="round" stroke-linejoin="round" x1="4.698" y1="11.271" x2="4.798" y2="11.271"/>
				
					<line fill="none" stroke="#645F54" stroke-width="2" stroke-linecap="round" stroke-linejoin="round" stroke-dasharray="0.1937,7.7471" x1="12.545" y1="11.271" x2="80.139" y2="11.271"/>
				
					<line fill="none" stroke="#645F54" stroke-width="2" stroke-linecap="round" stroke-linejoin="round" x1="84.013" y1="11.271" x2="84.113" y2="11.271"/>
			</g>
		</g>
	</g>
	
		<rect x="114.08" y="6.351" transform="matrix(0.7071 -0.7071 0.7071 0.7071 26.8844 87.4466)" fill="#645F54" width="9.839" height="9.839"/>
	<g>
		
			<rect x="133.927" y="8.193" transform="matrix(0.7072 -0.707 0.707 0.7072 32.1479 100.1662)" fill="#645F54" width="6.155" height="6.155"/>
		
			<rect x="97.919" y="8.193" transform="matrix(0.7071 -0.7071 0.7071 0.7071 21.6076 74.7116)" fill="#645F54" width="6.154" height="6.155"/>
	</g>
</g>
<g>
	<g>
		<g>
			
				<line fill="none" stroke="#645F54" stroke-width="2" stroke-linecap="round" stroke-linejoin="round" x1="21.052" y1="97.18" x2="21.152" y2="97.18"/>
			
				<line fill="none" stroke="#645F54" stroke-width="2" stroke-linecap="round" stroke-linejoin="round" stroke-dasharray="0.2093,8.3722" x1="29.524" y1="97.18" x2="85.408" y2="97.18"/>
			
				<line fill="none" stroke="#645F54" stroke-width="2" stroke-linecap="round" stroke-linejoin="round" x1="89.594" y1="97.18" x2="89.694" y2="97.18"/>
		</g>
	</g>
	<g>
		<g>
			
				<line fill="none" stroke="#645F54" stroke-width="2" stroke-linecap="round" stroke-linejoin="round" x1="216.947" y1="97.18" x2="216.848" y2="97.18"/>
			
				<line fill="none" stroke="#645F54" stroke-width="2" stroke-linecap="round" stroke-linejoin="round" stroke-dasharray="0.2093,8.3722" x1="208.475" y1="97.18" x2="152.591" y2="97.18"/>
			
				<line fill="none" stroke="#645F54" stroke-width="2" stroke-linecap="round" stroke-linejoin="round" x1="148.404" y1="97.18" x2="148.305" y2="97.18"/>
		</g>
	</g>
	
		<rect x="115.923" y="94.102" transform="matrix(-0.7071 -0.7071 0.7071 -0.7071 134.4374 250.0408)" fill="#645F54" width="6.154" height="6.155"/>
</g>
<g>
	<g>
		<path fill="#645F54" d="M76.579,32.937c7.588,0,13.999,5.167,13.999,13.018c0,14.064-21.194,18.643-21.194,26.166v2.486h19.231
			c1.178,0,2.29,1.374,2.29,3.009c0,1.635-1.112,3.14-2.29,3.14H65.328c-1.309,0-3.075-0.916-3.075-2.29V72.12
			c0-10.597,21.391-15.896,21.391-25.969c0-3.206-2.093-6.869-7.065-6.869c-3.663,0-6.607,2.028-6.607,6.476
			c0,1.308-1.374,2.616-3.663,2.616c-1.832,0-3.14-0.916-3.14-3.859C63.169,37.516,69.449,32.937,76.579,32.937z"/>
		<path fill="#645F54" d="M96.072,66.56V47.524c0-10.597,6.345-14.587,14.653-14.587c8.242,0,14.718,3.99,14.718,14.587V66.56
			c0,10.597-6.476,14.587-14.718,14.587C102.417,81.147,96.072,77.157,96.072,66.56z M118.509,47.524
			c0-5.756-2.944-8.438-7.785-8.438c-4.906,0-7.719,2.682-7.719,8.438V66.56c0,5.756,2.813,8.438,7.719,8.438
			c4.841,0,7.785-2.682,7.785-8.438V47.524z M113.538,57.074c0,1.636-1.112,2.813-2.748,2.813c-1.701,0-2.813-1.177-2.813-2.813
			c0-1.635,1.112-2.747,2.813-2.747C112.426,54.327,113.538,55.439,113.538,57.074z"/>
		<path fill="#645F54" d="M135.255,42.094l-2.29,2.878c-0.458,0.458-1.047,0.654-1.439,0.654c-1.374,0-2.355-1.439-2.355-2.813
			c0-0.981,0.523-2.093,1.374-2.682l6.803-6.541c0.458-0.458,0.981-0.72,1.766-0.72c1.439,0,3.075,0.85,3.075,2.29v43.304
			c0,1.504-1.767,2.29-3.467,2.29c-1.766,0-3.467-0.785-3.467-2.29V42.094z"/>
		<path fill="#645F54" d="M164.887,70.026h-16.092c-1.374,0-2.42-0.981-2.42-2.551c0-0.458,0.131-0.981,0.393-1.439l15.83-31.203
			c0.72-1.374,1.897-1.897,3.009-1.897c1.308,0,3.467,1.046,3.467,2.682c0,0.327-0.131,0.654-0.327,1.046L155.271,63.55h9.616
			v-9.027c0-1.636,1.701-2.29,3.467-2.29c1.701,0,3.467,0.654,3.467,2.29v9.027h3.205c1.57,0,2.355,1.635,2.355,3.271
			c0,1.57-1.112,3.205-2.355,3.205h-3.205v8.438c0,1.504-1.766,2.29-3.467,2.29c-1.766,0-3.467-0.785-3.467-2.29V70.026z"/>
	</g>
</g>
</svg>
