<?xml version="1.0" encoding="utf-8"?>
<!-- Generator: Adobe Illustrator 16.0.0, SVG Export Plug-In . SVG Version: 6.00 Build 0)  -->
<!DOCTYPE svg PUBLIC "-//W3C//DTD SVG 1.1//EN" "http://www.w3.org/Graphics/SVG/1.1/DTD/svg11.dtd">
<svg version="1.1" id="Capa_1" xmlns="http://www.w3.org/2000/svg" xmlns:xlink="http://www.w3.org/1999/xlink" x="0px" y="0px"
	 width="242px" height="143px" viewBox="0 0 242 143" enable-background="new 0 0 242 143" xml:space="preserve">
<g>
	<path fill="#00809D" d="M25.26,118.846v-6.866c-10.691-0.981-18.538-7.16-18.538-21.677V61.761
		c0-15.988,9.514-21.873,21.971-21.873c12.358,0,22.068,5.885,22.068,21.873v28.542c0,14.418-7.944,20.696-18.538,21.677v6.866
		c0,2.256-1.766,3.433-3.531,3.433C26.928,122.278,25.26,121.102,25.26,118.846z M40.365,61.761c0-8.632-4.414-12.653-11.672-12.653
		c-7.356,0-11.574,4.021-11.574,12.653v28.542c0,7.062,2.845,10.985,8.141,12.064v-5.983c0-2.354,1.667-3.334,3.433-3.334
		c1.765,0,3.531,0.98,3.531,3.334v5.885c5.101-1.079,8.141-4.904,8.141-11.966V61.761z"/>
	<path fill="#00809D" d="M97.055,43.223c0-2.354,2.55-3.335,5.199-3.335c2.55,0,5.198,0.981,5.198,3.335v47.08
		c0,15.89-9.808,21.873-22.461,21.873c-12.555,0-22.363-5.983-22.363-21.873v-47.08c0-2.354,2.55-3.335,5.199-3.335
		c2.55,0,5.198,0.981,5.198,3.335v47.08c0,8.631,4.512,12.653,11.966,12.653c7.552,0,12.064-4.021,12.064-12.653V43.223z"/>
	<path fill="#00809D" d="M120.101,43.223c0-2.354,2.648-3.335,5.198-3.335c2.648,0,5.199,0.981,5.199,3.335v64.931
		c0,2.256-2.55,3.433-5.199,3.433c-2.55,0-5.198-1.177-5.198-3.433V43.223z"/>
	<path fill="#00809D" d="M182.48,39.888c2.354,0,3.433,2.354,3.433,4.61c0,2.55-1.177,4.904-3.433,4.904h-15.105v58.752
		c0,2.256-2.648,3.433-5.198,3.433c-2.648,0-5.199-1.177-5.199-3.433V49.402h-15.203c-2.158,0-3.433-2.256-3.433-4.806
		c0-2.256,1.079-4.708,3.433-4.708H182.48z"/>
	<path fill="#00809D" d="M191.796,90.303V61.761c0-15.89,9.514-21.873,21.971-21.873c12.358,0,22.069,5.983,22.069,21.873v28.542
		c0,15.89-9.71,21.873-22.069,21.873C201.311,112.176,191.796,106.193,191.796,90.303z M225.439,61.761
		c0-8.632-4.414-12.653-11.672-12.653c-7.356,0-11.574,4.021-11.574,12.653v28.542c0,8.631,4.218,12.653,11.574,12.653
		c7.258,0,11.672-4.021,11.672-12.653V61.761z"/>
</g>
<g>
	<g>
		<path fill="#645F54" d="M47.216,127.811h3.21c0.327,0,0.511,0.287,0.511,0.614c0,0.266-0.144,0.552-0.511,0.552h-3.21v5.664h6.543
			c0.327,0,0.511,0.307,0.511,0.634c0,0.286-0.143,0.613-0.511,0.613H46.48c-0.307,0-0.614-0.184-0.614-0.532v-13.904
			c0-0.348,0.307-0.511,0.614-0.511h7.279c0.368,0,0.511,0.307,0.511,0.593c0,0.348-0.184,0.654-0.511,0.654h-6.543V127.811z"/>
		<path fill="#645F54" d="M63.284,135.111L57.6,124.049v11.307c0,0.348-0.348,0.532-0.675,0.532c-0.347,0-0.674-0.184-0.674-0.532
			v-13.904c0-0.368,0.327-0.511,0.674-0.511c0.491,0,0.797,0.43,1.063,0.941l5.521,10.877v-11.328c0-0.347,0.327-0.491,0.675-0.491
			c0.327,0,0.675,0.144,0.675,0.491v13.924c0,0.348-0.348,0.532-0.675,0.532C63.795,135.888,63.489,135.52,63.284,135.111z"/>
		<path fill="#645F54" d="M79.086,135.111l-5.684-11.062v11.307c0,0.348-0.348,0.532-0.675,0.532c-0.347,0-0.674-0.184-0.674-0.532
			v-13.904c0-0.368,0.327-0.511,0.674-0.511c0.491,0,0.797,0.43,1.063,0.941l5.521,10.877v-11.328c0-0.347,0.327-0.491,0.675-0.491
			c0.327,0,0.675,0.144,0.675,0.491v13.924c0,0.348-0.348,0.532-0.675,0.532C79.597,135.888,79.291,135.52,79.086,135.111z"/>
		<path fill="#645F54" d="M83.603,131.635v-6.338c0-3.169,1.86-4.355,4.253-4.355c2.392,0,4.253,1.186,4.253,4.355v6.338
			c0,3.19-1.861,4.375-4.253,4.375C85.463,136.01,83.603,134.825,83.603,131.635z M90.759,125.296c0-2.126-1.084-3.108-2.903-3.108
			c-1.82,0-2.904,0.981-2.904,3.108v6.338c0,2.147,1.084,3.128,2.904,3.128c1.819,0,2.903-0.981,2.903-3.128V125.296z"/>
		<path fill="#645F54" d="M93.925,121.657c-0.021-0.041-0.021-0.102-0.021-0.143c0-0.348,0.43-0.573,0.777-0.573
			c0.245,0,0.47,0.103,0.531,0.348l3.783,12.555l3.762-12.555c0.082-0.245,0.287-0.348,0.511-0.348c0.368,0,0.818,0.266,0.818,0.593
			c0,0.041-0.021,0.082-0.021,0.123l-4.253,13.863c-0.102,0.327-0.45,0.491-0.818,0.491c-0.347,0-0.695-0.143-0.797-0.491
			L93.925,121.657z"/>
		<path fill="#645F54" d="M106.047,121.432c0-0.347,0.327-0.491,0.675-0.491c0.327,0,0.675,0.144,0.675,0.491v13.924
			c0,0.348-0.348,0.532-0.675,0.532c-0.348,0-0.675-0.184-0.675-0.532V121.432z"/>
		<path fill="#645F54" d="M111.853,127.811h3.21c0.327,0,0.511,0.287,0.511,0.614c0,0.266-0.144,0.552-0.511,0.552h-3.21v5.664
			h6.543c0.327,0,0.511,0.307,0.511,0.634c0,0.286-0.143,0.613-0.511,0.613h-7.279c-0.307,0-0.614-0.184-0.614-0.532v-13.904
			c0-0.348,0.307-0.511,0.614-0.511h7.279c0.368,0,0.511,0.307,0.511,0.593c0,0.348-0.184,0.654-0.511,0.654h-6.543V127.811z"/>
		<path fill="#645F54" d="M126.694,130.285c-0.164,0.307-0.368,0.43-0.552,0.43s-0.368-0.123-0.531-0.43l-3.374-6.481v11.552
			c0,0.348-0.348,0.532-0.675,0.532c-0.347,0-0.674-0.184-0.674-0.532v-13.761c0-0.491,0.327-0.654,0.674-0.654
			c0.491,0,0.818,0.43,1.084,0.941l3.517,6.788l3.517-6.788c0.266-0.511,0.593-0.941,1.083-0.941c0.368,0,0.675,0.164,0.675,0.654
			v13.761c0,0.348-0.327,0.532-0.675,0.532c-0.327,0-0.675-0.184-0.675-0.532v-11.491L126.694,130.285z"/>
		<path fill="#645F54" d="M134.543,121.452c0-0.348,0.307-0.511,0.613-0.511h3.353c2.29,0,4.171,0.593,4.171,3.476
			c0,1.718-0.695,2.924-1.738,3.374c1.248,0.511,2.106,1.432,2.106,3.517v0.368c0,3.108-1.779,4.212-4.049,4.212h-3.844
			c-0.389,0-0.613-0.246-0.613-0.511V121.452z M135.872,127.198h2.679c1.881,0,2.781-0.695,2.781-2.638
			c0-1.881-1.186-2.372-2.862-2.372h-2.597V127.198z M138.836,134.641c1.779,0,2.863-0.92,2.863-3.026v-0.348
			c0-2.126-1.084-2.903-2.863-2.903h-2.965v6.277H138.836z"/>
		<path fill="#645F54" d="M145.54,121.432c0-0.266,0.205-0.47,0.511-0.491h3.619c2.393,0,4.417,0.961,4.417,4.028
			c0,2.535-1.411,3.64-3.189,3.946l3.148,6.052c0.062,0.082,0.082,0.184,0.082,0.266c0,0.348-0.389,0.695-0.777,0.695
			c-0.327,0-0.552-0.389-0.716-0.716l-3.149-6.134h-2.597v6.277c0,0.348-0.348,0.532-0.675,0.532c-0.348,0-0.675-0.184-0.675-0.532
			V121.432z M146.89,122.188v5.725h2.781c1.82,0,3.067-0.818,3.067-2.883c0-2.044-1.247-2.842-3.067-2.842H146.89z"/>
		<path fill="#645F54" d="M157.704,127.811h3.21c0.327,0,0.511,0.287,0.511,0.614c0,0.266-0.143,0.552-0.511,0.552h-3.21v5.664
			h6.543c0.327,0,0.511,0.307,0.511,0.634c0,0.286-0.143,0.613-0.511,0.613h-7.279c-0.307,0-0.613-0.184-0.613-0.532v-13.904
			c0-0.348,0.307-0.511,0.613-0.511h7.279c0.368,0,0.511,0.307,0.511,0.593c0,0.348-0.184,0.654-0.511,0.654h-6.543V127.811z"/>
		<path fill="#645F54" d="M175.06,120.941c2.392,0,4.273,1.186,4.273,4.355v6.216c0,3.189-1.881,4.375-4.273,4.375h-3.619
			c-0.368,0-0.613-0.246-0.613-0.511v-13.945c0-0.266,0.245-0.491,0.613-0.491H175.06z M172.176,122.188v12.452h2.883
			c1.819,0,2.924-1.002,2.924-3.128v-6.216c0-2.126-1.104-3.108-2.924-3.108H172.176z"/>
		<path fill="#645F54" d="M183.624,127.811h3.21c0.327,0,0.511,0.287,0.511,0.614c0,0.266-0.143,0.552-0.511,0.552h-3.21v5.664
			h6.543c0.327,0,0.511,0.307,0.511,0.634c0,0.286-0.143,0.613-0.511,0.613h-7.279c-0.307,0-0.613-0.184-0.613-0.532v-13.904
			c0-0.348,0.307-0.511,0.613-0.511h7.279c0.368,0,0.511,0.307,0.511,0.593c0,0.348-0.184,0.654-0.511,0.654h-6.543V127.811z"/>
		<path fill="#645F54" d="M197.197,123.231l-0.818,1.329c-0.123,0.184-0.266,0.246-0.389,0.246c-0.307,0-0.532-0.287-0.532-0.593
			c0-0.184,0.164-0.491,0.307-0.613l1.676-2.372c0.123-0.164,0.246-0.307,0.511-0.307c0.286,0,0.593,0.184,0.593,0.511v13.924
			c0,0.348-0.347,0.532-0.674,0.532c-0.348,0-0.675-0.184-0.675-0.532V123.231z"/>
		<path fill="#645F54" d="M200.835,125.787v-0.491c0-3.169,1.84-4.355,4.232-4.355c2.392,0,4.273,1.186,4.273,4.355v6.338
			c0,3.19-1.881,4.375-4.294,4.375c-2.76,0-4.212-1.717-4.212-3.496c0-0.45,0.245-0.634,0.634-0.634
			c0.348,0,0.695,0.163,0.695,0.572c0,1.411,1.309,2.311,2.903,2.311c1.84,0,2.924-0.981,2.924-3.128v-3.128
			c-0.695,0.961-1.82,1.37-3.087,1.37C202.634,129.876,200.835,128.916,200.835,125.787z M207.991,125.255
			c0-2.147-1.104-3.128-2.924-3.128s-2.883,0.981-2.883,3.128v0.491c0,2.147,1.063,2.965,2.904,2.965
			c1.758,0,2.903-0.756,2.903-2.781V125.255z"/>
		<path fill="#645F54" d="M219.583,123.21c0,0.164-0.082,0.409-0.205,0.593l-6.073,11.859c-0.082,0.164-0.246,0.266-0.45,0.266
			c-0.409,0-0.818-0.266-0.818-0.654c0-0.082,0.041-0.184,0.082-0.287l6.114-11.695v-1.104h-5.807v2.351
			c0,0.287-0.327,0.511-0.675,0.511c-0.368,0-0.674-0.225-0.674-0.511v-3.087c0-0.245,0.307-0.511,0.613-0.511h7.258
			c0.287,0,0.634,0.266,0.634,0.511V123.21z"/>
		<path fill="#645F54" d="M224.732,127.096c2.393,0,4.233,1.125,4.233,4.191v0.389c0,3.149-1.861,4.334-4.233,4.334
			c-2.719,0-4.253-1.615-4.253-3.476c0-0.491,0.266-0.675,0.654-0.675c0.491,0,0.695,0.225,0.695,0.572
			c0,1.493,1.268,2.331,2.883,2.331c1.82,0,2.903-0.981,2.903-3.087v-0.389c0-2.044-1.083-3.026-2.883-3.026h-2.842
			c-0.573,0-0.695-0.225-0.695-0.511c0-0.082,0.021-0.327,0.021-0.409l0.409-5.889c0.041-0.307,0.163-0.511,0.429-0.511h5.725
			c0.307,0,0.45,0.307,0.45,0.614c0,0.327-0.143,0.634-0.45,0.634h-4.948l-0.327,4.907H224.732z"/>
	</g>
</g>
<g>
	<g>
		<path fill="#645F54" d="M7.736,8.492c0-0.752,0.785-1.145,1.537-1.145H20.75c0.785,0,1.112,0.785,1.112,1.504
			c0,0.851-0.392,1.57-1.112,1.57h-9.548v7.488h5.068c0.719,0,1.112,0.654,1.112,1.406c0,0.622-0.327,1.341-1.112,1.341h-5.068v9.45
			c0,0.785-0.851,1.145-1.733,1.145c-0.85,0-1.733-0.36-1.733-1.145V8.492z"/>
		<path fill="#645F54" d="M35.534,8.459c0-0.785,0.85-1.112,1.733-1.112C38.118,7.348,39,7.675,39,8.459v15.696
			c0,5.297-3.27,7.292-7.488,7.292c-4.186,0-7.456-1.995-7.456-7.292V8.459c0-0.785,0.85-1.112,1.733-1.112
			c0.851,0,1.733,0.327,1.733,1.112v15.696c0,2.877,1.504,4.218,3.989,4.218c2.518,0,4.022-1.341,4.022-4.218V8.459z"/>
		<path fill="#645F54" d="M46.689,17.91h5.036c0.719,0,1.145,0.654,1.145,1.406c0,0.622-0.36,1.341-1.145,1.341h-5.036v7.521H56.4
			c0.72,0,1.145,0.719,1.145,1.569c0,0.72-0.359,1.504-1.145,1.504H44.759c-0.752,0-1.537-0.393-1.537-1.145V8.492
			c0-0.752,0.785-1.145,1.537-1.145H56.4c0.785,0,1.145,0.785,1.145,1.504c0,0.851-0.425,1.57-1.145,1.57h-9.711V17.91z"/>
		<path fill="#645F54" d="M66.87,8.492c0-0.752,0.785-1.145,1.537-1.145h11.478c0.785,0,1.112,0.785,1.112,1.504
			c0,0.851-0.392,1.57-1.112,1.57h-9.548v7.488h5.068c0.719,0,1.112,0.654,1.112,1.406c0,0.622-0.327,1.341-1.112,1.341h-5.068v9.45
			c0,0.785-0.851,1.145-1.733,1.145c-0.85,0-1.733-0.36-1.733-1.145V8.492z"/>
		<path fill="#645F54" d="M94.668,8.459c0-0.785,0.85-1.112,1.733-1.112c0.851,0,1.733,0.327,1.733,1.112v15.696
			c0,5.297-3.27,7.292-7.488,7.292c-4.186,0-7.456-1.995-7.456-7.292V8.459c0-0.785,0.85-1.112,1.733-1.112
			c0.851,0,1.733,0.327,1.733,1.112v15.696c0,2.877,1.504,4.218,3.989,4.218c2.518,0,4.022-1.341,4.022-4.218V8.459z"/>
		<path fill="#645F54" d="M113.638,29.976l-7.815-14.878v15.009c0,0.752-0.851,1.145-1.733,1.145c-0.85,0-1.733-0.393-1.733-1.145
			V8.492c0-0.817,0.85-1.145,1.733-1.145c1.243,0,1.832,0.458,2.616,1.962l7.259,14.159V8.459c0-0.785,0.883-1.112,1.733-1.112
			c0.883,0,1.733,0.327,1.733,1.112v21.647c0,0.752-0.851,1.145-1.733,1.145C114.848,31.251,114.096,30.826,113.638,29.976z"/>
		<path fill="#645F54" d="M129.077,7.348c4.153,0,7.357,1.995,7.357,7.292v9.319c0,5.297-3.205,7.292-7.357,7.292h-5.788
			c-0.916,0-1.537-0.523-1.537-1.112V8.459c0-0.589,0.621-1.112,1.537-1.112H129.077z M125.218,10.421v17.756h3.858
			c2.453,0,3.891-1.341,3.891-4.218V14.64c0-2.877-1.438-4.218-3.891-4.218H125.218z"/>
		<path fill="#645F54" d="M138.792,29.812c0-0.098,0-0.196,0.033-0.294l6.507-21.189c0.262-0.785,1.21-1.177,2.191-1.177
			s1.962,0.393,2.224,1.177l6.475,21.189c0.033,0.098,0.065,0.196,0.065,0.294c0,0.818-1.21,1.439-2.191,1.439
			c-0.556,0-1.014-0.196-1.177-0.719l-1.341-4.644h-8.077l-1.341,4.644c-0.163,0.523-0.621,0.719-1.21,0.719
			C140.002,31.251,138.792,30.663,138.792,29.812z M150.793,23.109l-3.27-11.216l-3.27,11.216H150.793z"/>
		<path fill="#645F54" d="M166.199,7.348c4.153,0,7.357,1.995,7.357,7.292v9.319c0,5.297-3.205,7.292-7.357,7.292h-5.788
			c-0.916,0-1.537-0.523-1.537-1.112V8.459c0-0.589,0.621-1.112,1.537-1.112H166.199z M162.34,10.421v17.756h3.858
			c2.453,0,3.891-1.341,3.891-4.218V14.64c0-2.877-1.438-4.218-3.891-4.218H162.34z"/>
		<path fill="#645F54" d="M175.915,29.812c0-0.098,0-0.196,0.033-0.294l6.507-21.189c0.262-0.785,1.21-1.177,2.191-1.177
			s1.962,0.393,2.224,1.177l6.475,21.189c0.033,0.098,0.065,0.196,0.065,0.294c0,0.818-1.21,1.439-2.191,1.439
			c-0.556,0-1.014-0.196-1.177-0.719l-1.341-4.644h-8.077l-1.341,4.644c-0.164,0.523-0.621,0.719-1.209,0.719
			C177.125,31.251,175.915,30.663,175.915,29.812z M187.916,23.109l-3.27-11.216l-3.27,11.216H187.916z"/>
		<path fill="#645F54" d="M206.004,17.91h5.036c0.719,0,1.145,0.654,1.145,1.406c0,0.622-0.36,1.341-1.145,1.341h-5.036v7.521h9.711
			c0.72,0,1.145,0.719,1.145,1.569c0,0.72-0.359,1.504-1.145,1.504h-11.641c-0.752,0-1.537-0.393-1.537-1.145V8.492
			c0-0.752,0.785-1.145,1.537-1.145h11.641c0.785,0,1.145,0.785,1.145,1.504c0,0.851-0.425,1.57-1.145,1.57h-9.711V17.91z"/>
		<path fill="#645F54" d="M230.925,29.976l-7.815-14.878v15.009c0,0.752-0.851,1.145-1.733,1.145c-0.85,0-1.733-0.393-1.733-1.145
			V8.492c0-0.817,0.85-1.145,1.733-1.145c1.243,0,1.832,0.458,2.616,1.962l7.259,14.159V8.459c0-0.785,0.883-1.112,1.733-1.112
			c0.883,0,1.733,0.327,1.733,1.112v21.647c0,0.752-0.851,1.145-1.733,1.145C232.135,31.251,231.383,30.826,230.925,29.976z"/>
	</g>
</g>
</svg>
