<?xml version="1.0" encoding="utf-8"?>
<!-- Generator: Adobe Illustrator 16.0.0, SVG Export Plug-In . SVG Version: 6.00 Build 0)  -->
<!DOCTYPE svg PUBLIC "-//W3C//DTD SVG 1.1//EN" "http://www.w3.org/Graphics/SVG/1.1/DTD/svg11.dtd">
<svg version="1.1" id="Capa_1" xmlns="http://www.w3.org/2000/svg" xmlns:xlink="http://www.w3.org/1999/xlink" x="0px" y="0px"
	 width="260px" height="259px" viewBox="0 0 260 259" enable-background="new 0 0 260 259" xml:space="preserve">
<g>
	
		<circle fill="none" stroke="#645F54" stroke-width="2" stroke-linecap="round" stroke-linejoin="round" stroke-dasharray="0.2002,8.0076" cx="129.792" cy="129.43" r="125.4"/>
</g>
<circle fill="#931F50" cx="129.793" cy="127.532" r="116.813"/>
<g>
	<path fill-rule="evenodd" clip-rule="evenodd" fill="#FFFFFF" d="M138.802,114.45c6.434-0.971,12.093,2.09,14.445,4.967
		c1.735,2.121,3.371,6.65,3.382,9.479c0.069,15.177-17.725,20.361-26.404,11.056c-1.966-2.109-3.985-6.4-4.063-10.38
		c-0.13-6.758,3.556-11.371,7.449-13.539C134.935,115.292,136.661,114.776,138.802,114.45 M133.384,138.148
		c2.043,2.074,4.626,3.457,8.353,3.383c12.725-0.236,15.983-17.691,5.305-22.746C152.65,128.7,144.395,140.184,133.384,138.148"/>
	<path fill-rule="evenodd" clip-rule="evenodd" fill="#FFFFFF" d="M44.688,116.708c-7.267,0.885-7.416,10.252-7.416,10.252
		l-0.032,15.478l4.734,0.02c0,0,0.906-0.051,0.906,0.656c0,0.621-0.929,0.59-0.929,0.59l-14.654,0.012c0,0-0.673,0.02-0.673-0.691
		c0-0.592,0.813-0.598,0.813-0.598l4.789,0.012l0.049-25.556l-4.937,0.01c0,0-0.73,0.053-0.73-0.797
		c0-0.641,0.791-0.639,0.791-0.639c1.999,0.043,5.803,0.072,8.924-0.072c0.222-0.012,0.438-0.063,0.697,0.064
		c0.261,0.129,0.201,0.762,0.201,0.762l0.018,3.885c0,0,2.593-5.191,8.352-5.191c2.117,0,4.684,0.984,4.738,3.613
		C50.454,124.208,40.949,121.743,44.688,116.708"/>
	<path fill-rule="evenodd" clip-rule="evenodd" fill="#FFFFFF" d="M92.083,118.516c-2.76-3.287-13.396-2.723-12.412,3.836
		c0.434,2.891,4.121,3.506,7.674,4.512c3.021,0.855,6.586,1.852,8.351,3.835c2.143,2.412,2.632,7.455-0.225,10.607
		c-3.388,3.732-11.993,4.025-16.251,1.131c-2.32-1.578-4.839-5.898-2.619-7.518c3.744-2.734,6.419,3.111,2.619,4.131
		c1.441,4.734,15.857,5.273,15.116-2.256c-0.328-3.391-5.035-4.223-7.67-4.965c-4.538-1.283-9.118-2.275-9.927-6.773
		c-1.061-5.85,3.386-9.584,7.674-10.154c4.511-0.6,10.626,0.984,11.282,4.514c0.274,1.49-0.228,3.428-1.581,3.836
		C91.001,124.202,88.77,119.956,92.083,118.516"/>
	<path fill-rule="evenodd" clip-rule="evenodd" fill="#FFFFFF" d="M184.136,122.954c0,7.57,0.029,19.484,0.029,19.484h6.998
		l0.222-25.505l-5.063-0.025c0,0-0.575-0.094-0.575-0.65c0-0.748,0.73-0.75,0.73-0.75l14.797-0.027c0,0,0.798-0.1,0.798,0.631
		c0,0.859-0.785,0.826-0.785,0.826l-4.707-0.004v25.505l4.296,0.004c0,0,1.123-0.053,1.123,0.512c0,0.883-0.938,0.787-0.938,0.787
		H175.03c0,0-0.793,0.096-0.793-0.664c0-0.639,0.708-0.639,0.708-0.639h4.019c0,0,0.01-15.539,0.01-21.666
		c0-3.623-3.785-4.85-7.221-2.936c-2.886,1.605-6.24,6.15-6.24,11.291c0,0.958-0.08,13.285-0.08,13.285l4.316,0.051
		c0,0,0.651-0.07,0.651,0.686c0,0.586-0.695,0.605-0.695,0.605l-14.294-0.063c0,0-0.586-0.006-0.586-0.643s0.482-0.598,0.482-0.598
		l5.155-0.014l0.003-25.505l-4.906-0.033c0,0-0.734-0.131-0.734-0.643c0-0.803,0.932-0.803,0.932-0.803s6.201,0.1,6.643,0.049
		c0.438-0.049,2.522-0.367,2.912-0.049c0.224,0.18,0.124,1.32,0.124,1.32l-0.003,5.125c0,0,1.828-2.77,3.16-4.063
		c1.24-1.205,3.315-2.672,5.19-2.934C181.242,113.862,184.136,119.18,184.136,122.954"/>
	<path fill-rule="evenodd" clip-rule="evenodd" fill="#FFFFFF" d="M221.18,119.643c-1.949-4.623-9.767-3.736-11.964,0
		c-2.482,4.227-2.093,16.273,0.453,20.087c2.758,4.131,9.604,3.457,12.188-0.453c0.752-1.145,1.414-3.611,2.48-3.611
		c1.07,0,0.129,1.865,0,2.258c-1.244,3.766-4.771,6.82-10.381,6.545c-16.918-0.834-16.207-31.818,2.934-29.566
		c3.146,0.371,8.612,3.166,7.675,7.898c-0.43,2.166-5.22,3.957-6.321,0.68C217.566,121.452,218.684,119.936,221.18,119.643"/>
	<path fill-rule="evenodd" clip-rule="evenodd" fill="#FFFFFF" d="M99.316,115.409l25.156,0.035c0,0,0.378-0.025,0.562,0.135
		c0.11,0.096,0.081,1.125,0.081,1.125l0.197,6.197c0,0,0.014,0.582-0.641,0.586c-0.835,0-0.768-0.637-0.768-0.637
		s0.156-3.348-1.308-4.641c-1.258-1.113-2.663-1.045-2.663-1.045l-5.732-0.006v25.283l4.799,0.025c0,0,0.815-0.031,0.843,0.646
		c0.025,0.711-0.792,0.672-0.792,0.672l-14.503-0.01c0,0-0.934-0.047-0.934-0.668c0-0.738,0.962-0.688,0.962-0.688l4.579,0.018
		l0.078-25.279l-5.744,0.021c0,0-2.161-0.311-3.507,2.01c-0.513,0.887-0.533,3.377-0.533,3.377s-0.051,0.914-0.823,0.914
		c-0.645,0-0.624-0.918-0.624-0.918l0.026-6.068c0,0-0.077-0.598,0.243-0.916C98.508,115.344,99.316,115.409,99.316,115.409"/>
	<path fill-rule="evenodd" clip-rule="evenodd" fill="#FFFFFF" d="M72.675,135.666c-1.137,0-1.568,1.893-2.031,2.711
		c-0.596,1.041-1.176,1.932-2.257,2.701c-3.532,2.527-8.737,1.889-11.061-1.127c-2.498-3.234-2.696-8.646-2.032-13.312h18.058
		c-0.118-7.951-3.923-11.926-11.734-11.738c-15.749,0.385-17.009,28.898,0.226,29.568c5.569,0.215,9.364-2.584,10.832-6.32
		C72.915,137.531,73.807,135.666,72.675,135.666 M58.457,117.612c4.636-3.309,12.294,0.404,9.705,7.223H55.294
		C55.846,121.809,56.344,119.12,58.457,117.612"/>
	<path fill="#FFFFFF" d="M228.188,115.723h-0.756v2.668h-0.397v-2.668h-0.75v0.293h-0.337v-0.383c0,0-0.003-0.174,0.034-0.213
		c0.079-0.076,0.303-0.053,0.303-0.053h1.937c0,0,0.237-0.02,0.273,0.041c0.052,0.084,0.037,0.203,0.037,0.203v0.404h-0.344V115.723
		z"/>
	<path fill="#FFFFFF" d="M232.977,118.116v0.33l-0.323-0.004c0,0-0.243,0.008-0.329-0.246c-0.02-0.07-0.033-0.535-0.033-0.535
		l-0.121-1.584l-0.771,1.814h-0.386l-0.78-1.814l-0.118,1.773c0,0-0.003,0.328-0.07,0.479c-0.043,0.09-0.161,0.113-0.161,0.113
		h-0.436v-0.316h0.204l0.231-2.697h0.481l0.847,2.012l0.84-2.012h0.46l0.231,2.688H232.977z"/>
</g>
</svg>
