<?xml version="1.0" encoding="utf-8"?>
<!-- Generator: Adobe Illustrator 16.0.0, SVG Export Plug-In . SVG Version: 6.00 Build 0)  -->
<!DOCTYPE svg PUBLIC "-//W3C//DTD SVG 1.1//EN" "http://www.w3.org/Graphics/SVG/1.1/DTD/svg11.dtd">
<svg version="1.1" id="Capa_1" xmlns="http://www.w3.org/2000/svg" xmlns:xlink="http://www.w3.org/1999/xlink" x="0px" y="0px"
	 width="412px" height="139px" viewBox="0 0 412 139" enable-background="new 0 0 412 139" xml:space="preserve">
<g>
	<image overflow="visible" width="456" height="140" xlink:href="955894E5.png"  transform="matrix(1 0 0 1 -23 22)">
	</image>
</g>
<path fill="#FFFFFF" d="M405.638,64.231c-1.179-1.908-3.064-3.186-5.212-3.585c-0.042-1.104-0.333-2.208-0.887-3.225
	c-0.153-0.283-0.324-0.552-0.51-0.808c-0.103-2.196-1.018-4.363-2.662-6.125c-3.3-3.589-8.004-5.565-13.248-5.565
	c-5.834,0-12.137,2.455-17.193,6.512c0.751-1.258,1.289-2.658,1.55-4.155c0.561-3.226-0.29-6.468-2.333-8.897
	c-2.059-2.447-5.135-3.851-8.441-3.851c-5.88,0-11.078,4.4-12.093,10.235c-0.019,0.102-0.034,0.205-0.047,0.308
	c-0.118,0.909-0.13,1.816-0.038,2.703c-0.702,0.327-1.346,0.769-1.914,1.3c-1.025-0.378-2.144-0.53-3.279-0.416
	c-0.057,0.005-0.113,0.011-0.169,0.017c0.207-3.49-0.757-6.769-2.769-9.244c-2.055-2.528-5.002-3.979-8.086-3.979
	c-4.188,0-8.92,2.837-10.052,9.177c-0.509,2.852-1.298,6.072-2.325,9.434c-0.34-0.788-0.731-1.539-1.188-2.24
	c-2.568-3.945-6.691-6.161-11.617-6.243c-0.139-0.003-0.277-0.005-0.416-0.005c-2.265,0-4.501,0.471-6.666,1.303
	c-0.348-0.678-0.781-1.298-1.29-1.844c0.125-0.266,0.25-0.532,0.376-0.801c3.797-8.209,4.229-14.704,1.289-19.305
	c-1.955-3.057-5.185-4.811-8.86-4.811c-5.77,0-11.714,4.383-15.87,11.673c-1.875,3.227-3.814,6.883-5.699,10.747h-1.442
	c-2.43,0-4.707,1.093-6.26,2.956c-0.68-0.075-1.396-0.117-2.155-0.117c-4.843,0-9.631,1.81-13.817,5.103
	c-0.711-1.056-1.597-2.01-2.665-2.825c-2.359-1.769-5.246-2.705-8.348-2.705c-5.379,0-11.295,2.808-16.355,7.643
	c-0.054-0.415-0.14-0.829-0.267-1.238c-0.95-3.072-3.791-5.167-7.007-5.167h-5.475c-3.386,0-5.807,1.024-7.535,2.416
	c-1.364-1.508-3.327-2.416-5.442-2.416h-6.184c-6.135,0-9.104,3.363-10.515,6.184c-0.014,0.028-0.028,0.057-0.042,0.085
	c-0.02,0.042-0.043,0.088-0.063,0.13c-0.404-0.743-0.911-1.451-1.52-2.102c-3.299-3.589-8.004-5.565-13.248-5.565
	c-6.465,0-13.507,3.013-18.789,7.884c-0.02-0.042-0.033-0.085-0.055-0.127c-1.363-2.728-4.271-4.323-7.305-4.017
	c-0.056,0.005-0.112,0.011-0.168,0.017c0.207-3.49-0.757-6.769-2.769-9.244c-2.055-2.528-5.002-3.979-8.085-3.979
	c-0.408,0-0.822,0.035-1.237,0.09c0.186-0.375,0.364-0.753,0.556-1.126c6.313,2.104,13.466,3.675,21.354,4.688
	c1.172,0.148,2.342,0.224,3.479,0.224c9.559,0,16.236-5.252,16.236-12.772c0-4.652-3.123-9.464-8.349-9.464
	c-2.983,0-5.994,1.536-7.486,4.511c-3.111-0.042-7.643-0.825-12.38-1.93c0.101-0.534,0.153-1.086,0.153-1.653
	c0-5.116-4.194-9.277-9.349-9.277c-0.661,0-1.324,0.067-1.984,0.201c-1.701,0.211-4.517,1.122-8.519,5.038
	c-0.585-0.197-1.197-0.405-1.831-0.621c-7.78-2.645-18.437-6.266-28.299-7.087c-1.861-0.168-3.712-0.254-5.501-0.254
	c-23.248,0-36.012,13.947-38.349,27.771c-2.129,12.596,4.194,23.758,15.783,27.791c2.516,0.856,5.159,1.291,7.856,1.291
	c12.356,0,22.757-8.913,24.193-20.731c0.036-0.293,0.054-0.589,0.054-0.885c0-4.843-3.645-8.638-8.297-8.638
	c-2.15,0-4.271,0.844-5.973,2.375c-1.503,1.353-2.379,3.264-2.426,5.28c-0.644,1.453-3.363,5.258-7.307,5.258
	c-0.786,0-1.629-0.141-2.498-0.417c-0.866-0.276-2.478-0.789-1.956-4.146c0.964-6.201,8.572-14.933,22.469-14.933
	c0.538,0,1.086,0.013,1.655,0.042c7.122,0.333,13.542,1.222,20.328,2.861c-0.882,1.868-1.879,4.032-3.032,6.537
	C94.195,47.71,85.69,66.196,78.372,74.12C70.75,82.443,61.184,86.64,49.17,86.946c-7.621,0.153-15.474-3.151-19.806-8.312
	c-3.363-4.005-4.556-8.957-3.536-14.768c0.718-4.264,2.998-5.871,5.412-7.571c1.218-0.858,2.478-1.746,3.524-3.054
	c0.819-1.024,1.349-2.248,1.534-3.545c0.379-2.656-0.324-5.17-1.98-7.08c-1.657-1.911-4.046-2.963-6.726-2.963
	c-6.165,0-14.802,6.148-18.019,16.122C4.558,71.641,8.918,82.359,13.46,88.557c7.643,10.431,22.261,16.656,39.107,16.656
	c0.002,0,0.005,0,0.007,0c16.988-0.002,32.533-6.143,41.594-16.443c0.377-0.432,0.733-0.869,1.094-1.305
	c0.058,0.121,0.101,0.248,0.165,0.368c1.378,2.574,4.029,4.173,6.919,4.173c0,0,0.001,0,0.001,0c1.932,0,3.823-0.725,5.326-2.039
	c0.085-0.074,0.167-0.149,0.249-0.228c0.759-0.728,1.504-1.554,2.233-2.456c0.426,1.12,0.951,2.07,1.496,2.863
	c2.413,3.514,6.399,5.61,10.664,5.61c0.95,0,1.889-0.106,2.788-0.318c0.024-0.006,0.049-0.013,0.074-0.019
	c2.107-0.518,4.037-1.492,5.805-2.77c2.246,2.056,5.112,3.206,8.247,3.206c2.363,0,5.826-0.685,9.73-3.665
	c1.219,1.242,2.674,2.197,4.275,2.836c-4.189,2.574-7.382,5.852-9.338,9.631c-2.988,5.613-3.146,11.429-0.431,15.963
	c1.953,3.262,6.146,7.148,15.036,7.148c17.348,0,28.582-14.68,36.497-28.373c5.875-2.31,10.012-4.675,13.28-7.514
	c2.98,2.686,6.987,4.258,11.558,4.258c5.503,0,9.836-1.805,13.309-4.492c2.53,2.377,6.55,4.492,12.847,4.492
	c5.524,0,9.827-1.49,13.308-3.886c2.586,2.263,5.912,3.502,9.563,3.502c0.001,0,0.001,0,0.002,0
	c3.671-0.001,7.349-1.29,10.358-3.581c2.444,2.218,5.615,3.461,9.197,3.555c0.183,0.006,0.366,0.01,0.549,0.01
	c2.752,0,5.557-0.703,8.382-2.096c2.005,0.84,4.246,1.279,6.63,1.279c5.934,0,10.545-3.301,14.067-7.485
	c0.414,1.051,0.913,1.953,1.432,2.708c2.413,3.514,6.399,5.61,10.664,5.61c0.95,0,1.889-0.106,2.788-0.318
	c0.025-0.006,0.05-0.013,0.074-0.019c2.027-0.499,3.891-1.422,5.604-2.629c2.388,1.914,5.463,2.943,8.964,2.943
	c3.391,0,6.36-1.162,8.96-3.004c2.233,2.008,5.068,3.126,8.163,3.126c2.363,0,5.826-0.685,9.73-3.665
	c2.36,2.404,5.592,3.756,9.089,3.756c0.269,0,0.534-0.008,0.796-0.023c0.055-0.004,0.109-0.008,0.165-0.012
	c9.168-0.764,15.646-11.472,21.259-22.886C407.255,69.994,407.219,66.789,405.638,64.231z"/>
<g>
	<path fill="#00809D" d="M142.076,31.83c-15.004-1.926-23.418-5.576-25.547-6.488c-12.166,19.364-12.977,41.565-27.879,58.598
		c-21.493,24.432-85.767,17.335-72.081-25.953c3.041-9.429,13.078-13.585,12.47-9.327c-1.622,2.027-8.82,4.359-10.442,13.99
		c-3.649,20.783,15.105,31.935,30.718,31.63c15.917-0.405,26.765-6.792,34.469-15.207c12.267-13.281,25.547-49.068,29.806-54.745
		c-10.645-3.346-19.871-5.069-30.718-5.576c-28.994-1.419-40.653,28.285-24.736,33.354c12.47,3.954,19.769-8.617,19.363-11.456
		v-0.203c1.014-0.912,2.028-0.507,2.028,0.811C78.207,52.105,66.649,57.884,57.12,54.64c-20.682-7.198-12.977-44.506,25.041-41.059
		c12.166,1.014,26.562,6.995,33.05,8.82c0.912-1.115,5.271-6.184,7.502-6.184h-0.102c3.244-1.014,4.055,3.954,0.71,2.94
		c-0.913-0.709-3.954,2.737-5.272,4.055c8.719,2.839,33.354,9.631,33.354,2.737c0-0.913,0.203-1.521,1.115-1.521
		c0.709,0,1.014,1.622,1.014,2.129C153.532,30.411,148.463,32.641,142.076,31.83z"/>
	<path fill="#00809D" d="M123.425,88.298c-3.447,0.811-9.631-2.23-5.576-12.773c1.521-4.157,5.17-9.428,6.286-11.963
		c1.419-3.346-2.129-4.664-7.806-4.765l-1.217,3.244c-2.433,6.387-7.299,17.64-12.267,22.405c-0.811,0.709-1.419-0.406-0.811-1.318
		c8.009-10.543,13.585-25.852,15.612-37.206c1.014-5.677,7.604-3.143,6.184,3.65c-0.608,2.838-3.853,5.576-5.576,6.792
		c3.751,0.203,9.022,0.101,13.99-0.406c0.709,1.419-0.913,5.272-2.129,7.806c-1.521,3.143-11.861,21.695-5.779,22
		c4.157,0.101,10.442-12.571,12.571-16.931c0.912-1.723,2.23-1.014,1.216,1.014C135.185,75.93,130.015,86.676,123.425,88.298z"/>
	<path fill="#00809D" d="M158.402,88.602c-3.346,0.203-8.11-2.433-5.069-13.078c-1.622,2.636-4.359,6.691-7.3,9.529
		c-11.658,11.152-19.363-6.589-4.055-24.939c6.083-7.198,17.741-10.949,23.52-4.664c1.419,1.521,0.608,3.244-1.115,2.94
		c-1.115-3.751-4.866-4.562-8.618-2.535c-4.562,2.535-9.833,8.516-13.483,14.498c-0.811,1.419-3.548,6.387-4.156,10.239
		c-1.014,7.097,4.562,6.286,9.327,0.608c3.548-4.258,6.387-9.226,9.023-14.193c2.23-4.258,3.649-6.691,6.894-6.488
		c1.318,0.102,2.839,0.71,4.258,0.406c-2.129,2.129-8.11,12.773-9.428,18.958c-0.812,4.157-0.304,6.083,1.014,6.083
		c4.258,0.203,10.949-12.672,13.078-17.032c0.913-1.825,2.433-1.216,1.419,0.811C170.668,75.93,164.484,88.095,158.402,88.602z"/>
	<path fill="#00809D" d="M189.931,93.468c-6.387,11.456-16.423,26.967-31.427,26.967c-10.138,0-11.152-6.691-8.11-12.368
		c1.926-3.751,5.576-6.488,9.529-8.313c6.792-3.244,16.424-4.968,24.635-7.299c3.853-6.691,7.097-17.539,8.719-22.811
		c-3.447,6.083-10.037,18.654-17.843,18.654c-2.027,0-5.576-0.709-6.387-4.562c-0.913-4.359,1.622-8.11,3.447-11.76
		c-0.608,0-1.521-0.304-0.913-1.622l1.825-3.548c2.027-3.853,4.156-8.009,5.677-11.152c0.812-1.622,2.028-2.129,3.954-2.129h6.184
		c-0.913,0.811-2.535,1.521-3.751,3.649c-3.447,5.88-6.286,11.862-9.124,17.944c-4.866,10.543-0.608,14.599,5.981,6.995
		c5.678-6.589,12.064-18.451,15.917-26.46c0.811-1.622,2.027-2.129,3.954-2.129h5.475c-3.853,2.636-5.373,6.691-7.908,13.483
		s-5.17,15.207-8.11,23.216c4.461-1.318,10.645-4.359,14.599-10.037c3.143-4.562,5.373-9.225,6.387-11.151
		c0.913-1.825,2.433-1.115,1.419,0.912C207.166,83.939,204.529,88.197,189.931,93.468z M161.646,101.984
		c-10.341,4.46-14.193,16.423-5.475,16.423c8.921,0,19.667-12.571,24.331-18.958l2.23-3.751
		C176.143,97.422,167.425,99.45,161.646,101.984z"/>
	<path fill="#00809D" d="M219.837,88.805c-5.069,0-9.631-3.346-9.732-9.732c-0.101-6.083,3.346-13.687,7.806-18.958
		c5.17-6.083,12.875-9.936,17.336-6.59c3.853,2.94,0.913,9.834-5.576,14.801c-3.143,2.332-9.732,4.461-12.47,4.461
		c-1.521,3.649-3.244,13.889,3.447,13.889c8.921,0,14.396-11.962,16.728-17.335c0.812-1.825,2.839-2.028,1.825,0.101
		C235.45,77.552,231.091,88.805,219.837,88.805z M223.994,61.534c-2.636,3.244-5.17,7.705-6.083,9.53
		c1.825,0,7.097-1.419,10.747-4.46C236.971,59.608,236.464,46.428,223.994,61.534z"/>
	<path fill="#00809D" d="M245.993,88.805c-16.018,0-10.746-18.249-3.447-28.083c3.751-5.069,8.718-8.009,13.584-8.009
		c5.069,0,7.502,2.838,6.995,6.995c-0.405,3.346-4.562,7.604-6.792,5.373c1.115-1.318,2.636-3.345,3.143-5.17
		c0.913-3.548-0.102-4.967-2.027-4.967c-3.65,0-8.009,4.664-10.848,8.718c-1.825,2.636-5.576,9.631-5.576,15.511
		c0,4.055,1.622,7.806,5.981,7.806c8.82,0,13.687-9.833,17.741-17.843c0.913-1.825,2.332-1.318,1.419,0.71
		C261.2,80.391,257.145,88.805,245.993,88.805z"/>
	<path fill="#00809D" d="M288.776,52.105h-5.88c-3.447,5.88-7.502,11.253-13.483,16.728c-0.913,2.636-2.332,10.341-2.332,10.341
		c-1.521,6.792,3.143,7.705,6.488,5.272c4.664-3.447,8.009-9.834,10.747-15.309c0.811-1.825,2.332-1.419,1.318,0.608
		c-4.461,9.327-6.184,12.064-9.935,15.815c-5.475,5.271-15.511,3.548-13.991-7.604c0.913-6.894,4.664-17.944,7.908-25.852h-5.271
		c-1.115,0-0.913-2.23,0.203-2.23h6.083c2.332-5.069,4.866-10.037,7.401-14.396c6.995-12.267,17.944-10.543,10.442,5.677
		c-1.419,3.041-2.838,5.88-4.359,8.719h4.866C289.993,49.875,289.79,52.105,288.776,52.105z M275.799,52.105
		c-2.129,4.968-4.055,9.935-5.475,13.483c3.853-3.954,7.299-8.617,10.24-13.483H275.799z M284.011,35.074
		c-2.433,3.447-4.664,9.023-7.198,14.802h5.069c1.926-3.447,3.649-6.996,5.069-10.341C288.877,35.277,290.297,26.254,284.011,35.074
		z"/>
	<path fill="#00809D" d="M303.983,87.588c-3.042,0-5.17-1.115-6.488-2.636c-2.839,2.129-5.88,3.548-8.82,3.447
		c-7.705-0.203-8.82-9.428-4.968-18.451c3.954-9.327,12.368-17.234,19.262-17.032c7.705,0.102,8.82,9.428,4.967,18.451
		c-1.521,3.548-4.663,8.313-8.516,11.963c0.811,1.521,2.332,2.534,4.765,2.534c6.488,0,11.76-12.571,14.193-17.437
		c0.507-1.014,2.23-0.608,1.521,0.913C318.176,73.192,312.499,87.588,303.983,87.588z M290.702,69.543
		c-3.954,8.313-4.866,15.41-1.217,16.525c1.926,0.507,4.461-0.507,6.894-2.535c-1.115-1.622-1.622-3.447-1.622-4.968
		c0.102-2.332,1.014-4.359,3.548-4.359c1.724,0,3.042,1.419,3.042,3.041c0,0.406-0.102,0.71-0.203,1.115
		c1.115-1.622,2.23-3.548,3.143-5.475c3.954-8.313,4.46-15.511,0.811-16.626C300.739,55.045,294.453,61.534,290.702,69.543z"/>
	<path fill="#00809D" d="M331.254,88.298c-3.447,0.811-9.631-2.23-5.576-12.773c1.521-4.157,5.17-9.428,6.286-11.963
		c1.419-3.346-2.129-4.664-7.806-4.765l-1.217,3.244c-2.433,6.387-7.299,17.64-12.267,22.405c-0.811,0.709-1.419-0.406-0.811-1.318
		c8.009-10.543,13.585-25.852,15.612-37.206c1.014-5.677,7.604-3.143,6.184,3.65c-0.608,2.838-3.853,5.576-5.576,6.792
		c3.751,0.203,9.022,0.101,13.99-0.406c0.709,1.419-0.913,5.272-2.129,7.806c-1.521,3.143-11.861,21.695-5.779,22
		c4.157,0.101,10.442-12.571,12.571-16.931c0.912-1.723,2.23-1.014,1.216,1.014C343.014,75.93,337.844,86.676,331.254,88.298z"/>
	<path fill="#00809D" d="M348.084,86.169c1.521,0.203,3.447-0.912,4.562-1.926c3.346-3.345,6.691-9.631,9.53-15.308
		c0.811-1.825,2.23-1.115,1.318,0.913c-2.636,5.677-8.415,18.552-15.917,18.552c-7.604,0-7.604-7.908-5.475-13.179l6.488-16.525
		c0.811-1.926-0.608-3.751-1.014-4.258l5.576-0.102c3.244,0,3.244,1.115,2.129,3.548l-8.11,18.958c0,0-1.014,2.23-1.216,2.94
		C345.042,83.127,345.245,85.966,348.084,86.169z M355.383,50.179c-2.332,0-3.853-1.825-3.548-4.156
		c0.405-2.332,2.636-4.157,4.866-4.157c2.332,0,3.954,1.825,3.548,4.157C359.844,48.354,357.715,50.179,355.383,50.179z"/>
	<path fill="#00809D" d="M383.871,88.602c-3.346,0.203-8.11-2.433-5.069-13.078c-1.622,2.636-4.359,6.691-7.299,9.529
		c-11.659,11.152-19.364-6.589-4.056-24.939c6.083-7.198,17.742-10.949,23.521-4.664c1.419,1.521,0.608,3.244-1.115,2.94
		c-1.115-3.751-4.866-4.562-8.617-2.535c-4.563,2.535-9.834,8.516-13.484,14.498c-0.811,1.419-3.548,6.387-4.156,10.239
		c-1.014,7.097,4.562,6.286,9.327,0.608c3.548-4.258,6.387-9.226,9.023-14.193c2.23-4.258,3.649-6.691,6.894-6.488
		c1.318,0.102,2.839,0.71,4.258,0.406c-2.129,2.129-8.11,12.773-9.429,18.958c-0.811,4.157-0.304,6.083,1.014,6.083
		c4.258,0.203,10.949-12.672,13.078-17.032c0.913-1.825,2.433-1.216,1.419,0.811C396.138,75.93,389.954,88.095,383.871,88.602z"/>
</g>
</svg>
