<?xml version="1.0" encoding="utf-8"?>
<!-- Generator: Adobe Illustrator 16.0.0, SVG Export Plug-In . SVG Version: 6.00 Build 0)  -->
<!DOCTYPE svg PUBLIC "-//W3C//DTD SVG 1.1//EN" "http://www.w3.org/Graphics/SVG/1.1/DTD/svg11.dtd">
<svg version="1.1" id="Capa_1" xmlns="http://www.w3.org/2000/svg" xmlns:xlink="http://www.w3.org/1999/xlink" x="0px" y="0px"
	 width="80px" height="76.51px" viewBox="0 0 80 76.51" enable-background="new 0 0 80 76.51" xml:space="preserve">
<g>
	<path fill="#0056B3" d="M55.967,68.935c-16.408,9.051-37.033,3.092-46.084-13.311c-9.057-16.406-3.1-37.035,13.311-46.091
		c16.402-9.051,37.031-3.089,46.084,13.313C78.328,39.249,72.373,59.878,55.967,68.935"/>
	<path fill="#DBDFED" d="M21.818,7.097C4.076,16.885-2.396,39.294,7.393,57.036c9.797,17.746,32.203,24.219,49.945,14.43
		c17.754-9.795,24.215-32.199,14.422-49.947C61.969,3.776,39.568-2.7,21.818,7.097 M23.74,10.58
		c15.828-8.733,35.813-2.96,44.541,12.859c8.738,15.835,2.967,35.82-12.863,44.552c-15.82,8.73-35.813,2.963-44.547-12.871
		C2.141,39.302,7.914,19.31,23.74,10.58"/>
	<g>
		<defs>
			<path id="SVGID_1_" d="M25.238,13.243C10.883,21.165,5.672,39.216,13.592,53.569c7.922,14.352,25.977,19.574,40.332,11.656
				C68.277,57.302,73.49,39.239,65.57,24.888C57.65,10.533,39.596,5.322,25.238,13.243"/>
		</defs>
		<clipPath id="SVGID_2_">
			<use xlink:href="#SVGID_1_"  overflow="visible"/>
		</clipPath>
		<g clip-path="url(#SVGID_2_)">
			<defs>
				
					<rect id="SVGID_3_" x="6.467" y="5.239" transform="matrix(-0.4831 -0.8756 0.8756 -0.4831 25.4276 92.7195)" width="67.23" height="67.23"/>
			</defs>
			<clipPath id="SVGID_4_">
				<use xlink:href="#SVGID_3_"  overflow="visible"/>
			</clipPath>
			<g transform="matrix(1 -1.862645e-009 1.862645e-009 1 7.629395e-006 -7.629395e-006)" clip-path="url(#SVGID_4_)">
				
					<image overflow="visible" width="1181" height="1181" xlink:href="F4B6B93D.jpg"  transform="matrix(-0.0569 0.0014 -0.0014 -0.0569 74.5332 71.6045)">
				</image>
			</g>
		</g>
	</g>
	<g>
		<defs>
			<path id="SVGID_5_" d="M39.502,52.165c-0.389,0.111-0.729,0.318-1.002,0.594c-0.063,0.066-0.121,0.135-0.176,0.207
				c-0.068,0.088-0.125,0.182-0.182,0.279c-0.092,0.156-0.166,0.336-0.211,0.521c-0.051,0.186-0.084,0.393-0.084,0.6
				c0,0.027,0.008,0.051,0.01,0.074c0.006,0.186,0.037,0.365,0.084,0.529c0,0.006,0.021,0.068,0.021,0.068
				c0.014,0.033,0.023,0.07,0.035,0.104c0.094,0.244,0.221,0.439,0.273,0.518c0.049,0.055,0.094,0.123,0.145,0.18
				c0.037,0.039,0.078,0.084,0.119,0.123c0.275,0.273,0.621,0.477,1.01,0.578c0.205,0.057,0.422,0.078,0.637,0.07
				c0.193-0.002,0.385-0.033,0.561-0.082c0.383-0.111,0.727-0.318,0.998-0.594c0.043-0.045,0.078-0.088,0.117-0.133
				c0.051-0.057,0.098-0.123,0.141-0.182c0.055-0.076,0.168-0.266,0.258-0.506c0.014-0.031,0.021-0.064,0.035-0.098
				c0-0.006,0.016-0.07,0.02-0.09c0.053-0.166,0.074-0.344,0.08-0.529c0-0.027-0.004-0.047-0.004-0.076
				c-0.002-0.209-0.027-0.412-0.088-0.6c-0.051-0.188-0.121-0.357-0.215-0.518c-0.059-0.1-0.123-0.186-0.191-0.273
				c-0.055-0.074-0.119-0.141-0.186-0.205c-0.273-0.271-0.623-0.467-1.006-0.574c-0.182-0.047-0.369-0.068-0.564-0.072
				c-0.01,0-0.025,0-0.037,0C39.9,52.083,39.693,52.11,39.502,52.165"/>
		</defs>
		<clipPath id="SVGID_6_">
			<use xlink:href="#SVGID_5_"  overflow="visible"/>
		</clipPath>
		<g clip-path="url(#SVGID_6_)">
			<g>
				<defs>
					
						<rect id="SVGID_7_" x="38.388" y="53.144" transform="matrix(-0.9999 0.0101 -0.0101 -0.9999 81.8728 110.4078)" width="4.538" height="4.534"/>
				</defs>
				<clipPath id="SVGID_8_">
					<use xlink:href="#SVGID_7_"  overflow="visible"/>
				</clipPath>
				<g clip-path="url(#SVGID_8_)">
					<defs>
						
							<rect id="SVGID_9_" x="38.389" y="53.144" transform="matrix(-0.9999 0.01 -0.01 -0.9999 81.8674 110.4117)" width="4.538" height="4.534"/>
					</defs>
					<clipPath id="SVGID_10_">
						<use xlink:href="#SVGID_9_"  overflow="visible"/>
					</clipPath>
					<g clip-path="url(#SVGID_10_)">
						
							<image overflow="visible" width="10" height="10" xlink:href="F4B6B93F.jpg"  transform="matrix(0.48 0 0 0.48 38.3657 53.1211)">
						</image>
					</g>
				</g>
			</g>
		</g>
	</g>
	<g>
		<defs>
			<path id="SVGID_11_" d="M39.961,52.114c-0.092,0.004-0.275,0.025-0.5,0.098c-0.264,0.082-0.592,0.25-0.896,0.568
				c-0.029,0.025-0.139,0.129-0.264,0.299c-0.121,0.17-0.262,0.408-0.338,0.705c-0.047,0.207-0.074,0.426-0.047,0.674
				c0,0.039,0.006,0.135,0.025,0.25c0.021,0.09,0.045,0.184,0.094,0.283c0.072,0.162,0.197,0.32,0.395,0.426
				c0.002,0.002,0.016,0.014,0.023,0.014c0.076,0.037,0.211,0.107,0.258,0.166c0.029,0.031,0.123,0.189,0.316,0.35
				c0.215,0.184,0.547,0.371,1.002,0.377h0.055c0.15-0.002,0.471-0.014,0.73-0.154c0.145-0.076,0.258-0.207,0.35-0.338
				c0.059-0.082,0.109-0.162,0.141-0.234c0.109-0.18,0.268-0.525,0.279-0.863c0,0,0.088-0.125,0.121-0.182
				c0,0,0.006-0.006,0.014-0.012c0.02-0.025,0.082-0.068,0.135-0.143c0.133-0.156,0.227-0.348,0.236-0.545
				c0.006-0.094,0-0.307-0.053-0.461c0,0-0.055-0.082-0.055-0.09c0,0,0,0-0.004-0.006c-0.018-0.051-0.109-0.303-0.383-0.584
				c0,0-0.111-0.123-0.307-0.252c-0.201-0.131-0.496-0.277-0.867-0.33c-0.113-0.016-0.227-0.025-0.348-0.021
				C40.039,52.108,39.998,52.11,39.961,52.114"/>
		</defs>
		<clipPath id="SVGID_12_">
			<use xlink:href="#SVGID_11_"  overflow="visible"/>
		</clipPath>
		<g clip-path="url(#SVGID_12_)">
			<g>
				<defs>
					
						<rect id="SVGID_13_" x="38.425" y="53.167" transform="matrix(-0.9999 0.0101 -0.0101 -0.9999 81.6163 110.1404)" width="4.21" height="4.218"/>
				</defs>
				<clipPath id="SVGID_14_">
					<use xlink:href="#SVGID_13_"  overflow="visible"/>
				</clipPath>
				<g clip-path="url(#SVGID_14_)">
					<defs>
						
							<rect id="SVGID_15_" x="38.425" y="53.167" transform="matrix(-0.9999 0.0101 -0.0101 -0.9999 81.6163 110.1404)" width="4.21" height="4.218"/>
					</defs>
					<clipPath id="SVGID_16_">
						<use xlink:href="#SVGID_15_"  overflow="visible"/>
					</clipPath>
					<g clip-path="url(#SVGID_16_)">
						
							<image overflow="visible" width="9" height="9" xlink:href="F4B6B93A.jpg"  transform="matrix(0.48 0 0 0.48 38.4043 53.146)">
						</image>
					</g>
				</g>
			</g>
		</g>
	</g>
	<g>
		<defs>
			<path id="SVGID_17_" d="M38.211,55.255c0.061,0.063,0.092,0.092,0.174,0.139c0.078,0.039,0.166,0.094,0.234,0.145
				c0.027,0.021,0.076,0.064,0.09,0.078c0.008,0.018,0.049,0.047,0.105,0.121c0.057,0.061,0.131,0.137,0.229,0.215
				c0.033,0.041,0.082,0.074,0.137,0.107c0.146,0.104,0.342,0.197,0.576,0.238c0.086,0.02,0.18,0.023,0.273,0.025
				c0.061,0,0.184,0.002,0.324-0.018c0.15-0.016,0.316-0.059,0.461-0.137c0.082-0.041,0.154-0.104,0.215-0.176
				c0.043-0.037,0.074-0.08,0.105-0.125c0.029-0.041,0.061-0.084,0.088-0.129c0.027-0.037,0.051-0.084,0.07-0.113
				c0.023-0.043,0.043-0.084,0.068-0.121c-0.211,0.07-0.465,0.121-0.76,0.154c-0.113,0.014-0.232,0.023-0.359,0.029
				c-0.135,0-0.313,0-0.502-0.016c-0.289-0.025-0.605-0.068-0.906-0.172c-0.086-0.029-0.174-0.059-0.262-0.098
				c-0.188-0.086-0.361-0.207-0.502-0.344C38.111,55.124,38.152,55.192,38.211,55.255"/>
		</defs>
		<clipPath id="SVGID_18_">
			<use xlink:href="#SVGID_17_"  overflow="visible"/>
		</clipPath>
		<g clip-path="url(#SVGID_18_)">
			<g>
				<defs>
					
						<rect id="SVGID_19_" x="38.611" y="56.104" transform="matrix(-0.9999 0.0101 -0.0101 -0.9999 81.081 113.0873)" width="3.289" height="1.288"/>
				</defs>
				<clipPath id="SVGID_20_">
					<use xlink:href="#SVGID_19_"  overflow="visible"/>
				</clipPath>
				<g clip-path="url(#SVGID_20_)">
					<defs>
						
							<rect id="SVGID_21_" x="38.611" y="56.104" transform="matrix(-0.9999 0.0101 -0.0101 -0.9999 81.081 113.0873)" width="3.289" height="1.288"/>
					</defs>
					<clipPath id="SVGID_22_">
						<use xlink:href="#SVGID_21_"  overflow="visible"/>
					</clipPath>
					<g clip-path="url(#SVGID_22_)">
						
							<image overflow="visible" width="7" height="3" xlink:href="F4B6B93B.jpg"  transform="matrix(0.48 0 0 0.48 38.604 56.0879)">
						</image>
					</g>
				</g>
			</g>
		</g>
	</g>
	<g>
		<defs>
			<path id="SVGID_23_" d="M39.295,31.598c-0.387,0.108-0.729,0.318-1,0.595c-0.063,0.062-0.121,0.131-0.176,0.203
				c-0.068,0.091-0.127,0.181-0.182,0.277c-0.096,0.165-0.166,0.341-0.213,0.526c-0.047,0.19-0.082,0.393-0.082,0.599
				c0.002,0.031,0.008,0.053,0.01,0.083c0.006,0.182,0.035,0.353,0.082,0.522c0,0.005,0.021,0.062,0.021,0.064
				c0.016,0.03,0.025,0.069,0.037,0.106c0.092,0.247,0.215,0.438,0.275,0.516c0.043,0.062,0.09,0.12,0.143,0.182
				c0.037,0.041,0.076,0.084,0.113,0.123c0.279,0.271,0.623,0.471,1.012,0.573c0.207,0.055,0.424,0.077,0.641,0.072
				c0.191-0.002,0.383-0.035,0.559-0.084c0.385-0.109,0.729-0.318,0.996-0.593c0.045-0.038,0.078-0.082,0.119-0.129
				c0.053-0.062,0.096-0.119,0.141-0.183c0.057-0.076,0.17-0.271,0.258-0.509c0.016-0.026,0.02-0.06,0.035-0.097
				c-0.004-0.004,0.016-0.075,0.021-0.091c0.051-0.167,0.072-0.34,0.076-0.521c0-0.03-0.002-0.051-0.002-0.082
				c-0.002-0.207-0.029-0.407-0.09-0.595c-0.047-0.185-0.119-0.361-0.213-0.525c-0.061-0.092-0.123-0.185-0.189-0.272
				c-0.059-0.069-0.119-0.137-0.188-0.199c-0.273-0.273-0.623-0.475-1.01-0.573c-0.178-0.053-0.365-0.077-0.561-0.077
				C39.717,31.513,39.496,31.542,39.295,31.598"/>
		</defs>
		<clipPath id="SVGID_24_">
			<use xlink:href="#SVGID_23_"  overflow="visible"/>
		</clipPath>
		<g clip-path="url(#SVGID_24_)">
			<g>
				<defs>
					
						<rect id="SVGID_25_" x="38.181" y="32.568" transform="matrix(-0.9999 0.01 -0.01 -0.9999 81.2469 69.2669)" width="4.538" height="4.536"/>
				</defs>
				<clipPath id="SVGID_26_">
					<use xlink:href="#SVGID_25_"  overflow="visible"/>
				</clipPath>
				<g clip-path="url(#SVGID_26_)">
					<defs>
						
							<rect id="SVGID_27_" x="38.182" y="32.568" transform="matrix(-0.9999 0.01 -0.01 -0.9999 81.2475 69.2668)" width="4.538" height="4.536"/>
					</defs>
					<clipPath id="SVGID_28_">
						<use xlink:href="#SVGID_27_"  overflow="visible"/>
					</clipPath>
					<g clip-path="url(#SVGID_28_)">
						
							<image overflow="visible" width="10" height="10" xlink:href="F4B6B945.jpg"  transform="matrix(0.48 0 0 0.48 38.1587 32.5459)">
						</image>
					</g>
				</g>
			</g>
		</g>
	</g>
	<g>
		<defs>
			<path id="SVGID_29_" d="M39.75,31.546c-0.09,0.011-0.271,0.021-0.496,0.094c-0.264,0.087-0.59,0.247-0.898,0.572
				c-0.021,0.021-0.135,0.13-0.264,0.295c-0.121,0.176-0.258,0.413-0.334,0.716c-0.049,0.199-0.074,0.424-0.049,0.669
				c0,0.041,0.004,0.129,0.025,0.251c0.016,0.08,0.047,0.181,0.094,0.273c0.074,0.163,0.191,0.328,0.393,0.431
				c0.006,0.007,0.02,0.011,0.027,0.011c0.076,0.042,0.211,0.109,0.258,0.176c0.027,0.03,0.123,0.186,0.313,0.349
				c0.219,0.184,0.551,0.369,1.004,0.369c0.012,0.005,0.031,0.005,0.057,0.005c0.15-0.002,0.469-0.016,0.729-0.154
				c0.143-0.08,0.258-0.209,0.346-0.336c0.063-0.085,0.113-0.168,0.145-0.237c0.107-0.186,0.264-0.522,0.277-0.863
				c0,0,0.09-0.124,0.123-0.181c0,0,0.002-0.002,0.014-0.01c0.02-0.023,0.084-0.075,0.133-0.146
				c0.133-0.154,0.225-0.344,0.238-0.548c0.006-0.095,0-0.298-0.051-0.459c0,0-0.059-0.077-0.059-0.085c0,0,0-0.006-0.004-0.014
				c-0.016-0.049-0.109-0.3-0.379-0.58c0,0-0.111-0.121-0.309-0.251c-0.203-0.135-0.494-0.279-0.873-0.336
				c-0.098-0.013-0.201-0.021-0.311-0.021C39.85,31.539,39.801,31.539,39.75,31.546"/>
		</defs>
		<clipPath id="SVGID_30_">
			<use xlink:href="#SVGID_29_"  overflow="visible"/>
		</clipPath>
		<g clip-path="url(#SVGID_30_)">
			<g>
				<defs>
					
						<rect id="SVGID_31_" x="38.218" y="32.6" transform="matrix(-0.9999 0.0101 -0.0101 -0.9999 80.9947 69.0098)" width="4.21" height="4.218"/>
				</defs>
				<clipPath id="SVGID_32_">
					<use xlink:href="#SVGID_31_"  overflow="visible"/>
				</clipPath>
				<g clip-path="url(#SVGID_32_)">
					<defs>
						
							<rect id="SVGID_33_" x="38.218" y="32.6" transform="matrix(-0.9999 0.0101 -0.0101 -0.9999 80.9947 69.0098)" width="4.21" height="4.218"/>
					</defs>
					<clipPath id="SVGID_34_">
						<use xlink:href="#SVGID_33_"  overflow="visible"/>
					</clipPath>
					<g clip-path="url(#SVGID_34_)">
						
							<image overflow="visible" width="9" height="9" xlink:href="F4B6B947.jpg"  transform="matrix(0.48 0 0 0.48 38.1973 32.5791)">
						</image>
					</g>
				</g>
			</g>
		</g>
	</g>
	<g>
		<defs>
			<path id="SVGID_35_" d="M38.002,34.688c0.064,0.057,0.09,0.093,0.178,0.129c0.076,0.046,0.162,0.104,0.23,0.15
				c0.029,0.017,0.08,0.066,0.092,0.085c0.01,0.012,0.049,0.041,0.105,0.116c0.057,0.062,0.129,0.14,0.227,0.217
				c0.037,0.036,0.084,0.075,0.137,0.107c0.148,0.101,0.346,0.195,0.576,0.238c0.09,0.016,0.182,0.021,0.275,0.021
				c0.059,0.005,0.186,0.009,0.326-0.011c0.146-0.021,0.311-0.061,0.459-0.139c0.082-0.042,0.154-0.104,0.217-0.176
				c0.039-0.039,0.072-0.083,0.104-0.121c0.031-0.039,0.059-0.087,0.088-0.135c0.027-0.039,0.053-0.081,0.072-0.116
				c0.02-0.041,0.041-0.079,0.068-0.114c-0.213,0.063-0.467,0.12-0.764,0.149c-0.111,0.016-0.232,0.024-0.354,0.022
				c-0.139,0.007-0.314,0.004-0.508-0.014c-0.289-0.016-0.602-0.064-0.902-0.163c-0.09-0.027-0.176-0.062-0.264-0.103
				c-0.186-0.088-0.363-0.196-0.508-0.344C37.9,34.559,37.947,34.625,38.002,34.688"/>
		</defs>
		<clipPath id="SVGID_36_">
			<use xlink:href="#SVGID_35_"  overflow="visible"/>
		</clipPath>
		<g clip-path="url(#SVGID_36_)">
			<g>
				<defs>
					
						<rect id="SVGID_37_" x="38.403" y="35.537" transform="matrix(-1 0.0099 -0.0099 -1 80.4541 71.9622)" width="3.289" height="1.288"/>
				</defs>
				<clipPath id="SVGID_38_">
					<use xlink:href="#SVGID_37_"  overflow="visible"/>
				</clipPath>
				<g clip-path="url(#SVGID_38_)">
					<defs>
						
							<rect id="SVGID_39_" x="38.404" y="35.537" transform="matrix(-1 0.0099 -0.0099 -1 80.4546 71.9621)" width="3.289" height="1.288"/>
					</defs>
					<clipPath id="SVGID_40_">
						<use xlink:href="#SVGID_39_"  overflow="visible"/>
					</clipPath>
					<g clip-path="url(#SVGID_40_)">
						
							<image overflow="visible" width="7" height="3" xlink:href="F4B6B94A.jpg"  transform="matrix(0.48 0 0 0.48 38.3975 35.521)">
						</image>
					</g>
				</g>
			</g>
		</g>
	</g>
	<g>
		<defs>
			<path id="SVGID_41_" d="M39.398,41.884c-0.387,0.104-0.73,0.316-1.004,0.59c-0.061,0.066-0.117,0.137-0.168,0.205
				c-0.074,0.09-0.129,0.186-0.188,0.277c-0.092,0.162-0.166,0.338-0.211,0.525c-0.047,0.195-0.084,0.395-0.084,0.604
				c0.004,0.021,0.008,0.047,0.008,0.072c0.006,0.18,0.041,0.361,0.086,0.523c0,0.014,0.02,0.064,0.02,0.072
				c0.016,0.035,0.023,0.07,0.037,0.105c0.092,0.25,0.217,0.436,0.277,0.51c0.043,0.07,0.09,0.121,0.141,0.184
				c0.037,0.041,0.072,0.086,0.117,0.129c0.275,0.27,0.625,0.469,1.01,0.572c0.205,0.053,0.424,0.078,0.637,0.074
				c0.197-0.008,0.387-0.037,0.561-0.088c0.385-0.109,0.73-0.314,1-0.588c0.043-0.045,0.076-0.094,0.117-0.133
				c0.053-0.063,0.094-0.121,0.143-0.186c0.055-0.078,0.168-0.256,0.254-0.502c0.016-0.027,0.021-0.064,0.037-0.094
				c-0.002-0.012,0.016-0.078,0.021-0.1c0.053-0.166,0.07-0.346,0.076-0.525c0-0.027,0-0.053,0-0.074
				c-0.006-0.207-0.029-0.406-0.09-0.602c-0.047-0.186-0.121-0.359-0.213-0.52c-0.063-0.092-0.125-0.186-0.191-0.273
				c-0.057-0.07-0.119-0.137-0.188-0.201c-0.273-0.27-0.625-0.477-1.006-0.57c-0.182-0.059-0.371-0.08-0.563-0.08
				C39.818,41.792,39.6,41.817,39.398,41.884"/>
		</defs>
		<clipPath id="SVGID_42_">
			<use xlink:href="#SVGID_41_"  overflow="visible"/>
		</clipPath>
		<g clip-path="url(#SVGID_42_)">
			<g>
				<defs>
					
						<rect id="SVGID_43_" x="38.285" y="42.855" transform="matrix(-0.9999 0.0101 -0.0101 -0.9999 81.5617 89.8322)" width="4.538" height="4.534"/>
				</defs>
				<clipPath id="SVGID_44_">
					<use xlink:href="#SVGID_43_"  overflow="visible"/>
				</clipPath>
				<g clip-path="url(#SVGID_44_)">
					<defs>
						
							<rect id="SVGID_45_" x="38.285" y="42.855" transform="matrix(-0.9999 0.01 -0.01 -0.9999 81.5574 89.8361)" width="4.538" height="4.534"/>
					</defs>
					<clipPath id="SVGID_46_">
						<use xlink:href="#SVGID_45_"  overflow="visible"/>
					</clipPath>
					<g clip-path="url(#SVGID_46_)">
						
							<image overflow="visible" width="10" height="10" xlink:href="F4B6B94B.jpg"  transform="matrix(0.48 0 0 0.48 38.2622 42.8325)">
						</image>
					</g>
				</g>
			</g>
		</g>
	</g>
	<g>
		<defs>
			<path id="SVGID_47_" d="M39.855,41.827c-0.09,0.01-0.273,0.025-0.494,0.098c-0.27,0.088-0.594,0.246-0.908,0.566
				c-0.021,0.027-0.129,0.133-0.254,0.297c-0.123,0.176-0.262,0.418-0.342,0.719c-0.047,0.195-0.07,0.428-0.045,0.666
				c0,0.035,0.006,0.135,0.025,0.248c0.018,0.092,0.043,0.191,0.094,0.283c0.07,0.162,0.193,0.322,0.393,0.43
				c0,0,0.018,0.01,0.025,0.016c0.076,0.035,0.211,0.098,0.258,0.164c0.031,0.031,0.125,0.184,0.316,0.355
				c0.217,0.18,0.547,0.363,1,0.375h0.059c0.152,0,0.471-0.02,0.729-0.156c0.145-0.08,0.258-0.217,0.346-0.34
				c0.063-0.086,0.115-0.172,0.145-0.234c0.107-0.186,0.264-0.525,0.275-0.869c0,0,0.092-0.119,0.125-0.176
				c0,0,0.004-0.006,0.012-0.012c0.021-0.02,0.084-0.07,0.141-0.145c0.129-0.154,0.223-0.348,0.232-0.553
				c0.006-0.09-0.002-0.295-0.051-0.451c0,0-0.059-0.088-0.059-0.09c0,0,0,0-0.006-0.004c-0.014-0.051-0.107-0.303-0.375-0.588
				c0,0-0.113-0.117-0.311-0.254c-0.201-0.131-0.496-0.277-0.873-0.328c-0.096-0.018-0.201-0.027-0.311-0.023
				C39.955,41.821,39.902,41.821,39.855,41.827"/>
		</defs>
		<clipPath id="SVGID_48_">
			<use xlink:href="#SVGID_47_"  overflow="visible"/>
		</clipPath>
		<g clip-path="url(#SVGID_48_)">
			<g>
				<defs>
					
						<rect id="SVGID_49_" x="38.322" y="42.881" transform="matrix(-0.9999 0.0101 -0.0101 -0.9999 81.3055 89.5776)" width="4.21" height="4.226"/>
				</defs>
				<clipPath id="SVGID_50_">
					<use xlink:href="#SVGID_49_"  overflow="visible"/>
				</clipPath>
				<g clip-path="url(#SVGID_50_)">
					<defs>
						
							<rect id="SVGID_51_" x="38.322" y="42.881" transform="matrix(-1 0.01 -0.01 -1 81.3003 89.5818)" width="4.21" height="4.226"/>
					</defs>
					<clipPath id="SVGID_52_">
						<use xlink:href="#SVGID_51_"  overflow="visible"/>
					</clipPath>
					<g clip-path="url(#SVGID_52_)">
						
							<image overflow="visible" width="9" height="9" xlink:href="F4B6B94D.jpg"  transform="matrix(0.48 0 0 0.48 38.3008 42.8599)">
						</image>
					</g>
				</g>
			</g>
		</g>
	</g>
	<g>
		<defs>
			<path id="SVGID_53_" d="M38.105,44.968c0.063,0.064,0.09,0.1,0.176,0.145c0.08,0.037,0.166,0.092,0.23,0.145
				c0.027,0.012,0.08,0.057,0.094,0.078c0.014,0.016,0.049,0.047,0.105,0.113c0.057,0.063,0.129,0.145,0.229,0.225
				c0.035,0.033,0.082,0.07,0.135,0.096c0.146,0.109,0.344,0.203,0.582,0.242c0.084,0.018,0.176,0.029,0.268,0.033
				c0.061,0,0.188,0,0.33-0.021c0.146-0.016,0.311-0.063,0.457-0.135c0.082-0.045,0.154-0.105,0.217-0.174
				c0.039-0.045,0.072-0.084,0.102-0.129c0.031-0.043,0.063-0.084,0.09-0.129c0.031-0.041,0.053-0.08,0.07-0.115
				c0.021-0.041,0.043-0.084,0.068-0.127c-0.213,0.076-0.465,0.131-0.76,0.162c-0.113,0.008-0.234,0.016-0.357,0.021
				c-0.135,0.006-0.314,0.006-0.508-0.008c-0.285-0.027-0.602-0.07-0.9-0.178c-0.088-0.021-0.18-0.059-0.264-0.094
				c-0.188-0.088-0.363-0.195-0.506-0.346C38.008,44.845,38.051,44.911,38.105,44.968"/>
		</defs>
		<clipPath id="SVGID_54_">
			<use xlink:href="#SVGID_53_"  overflow="visible"/>
		</clipPath>
		<g clip-path="url(#SVGID_54_)">
			<g>
				<defs>
					
						<rect id="SVGID_55_" x="38.507" y="45.816" transform="matrix(-0.9999 0.0101 -0.0101 -0.9999 80.7702 92.5176)" width="3.289" height="1.294"/>
				</defs>
				<clipPath id="SVGID_56_">
					<use xlink:href="#SVGID_55_"  overflow="visible"/>
				</clipPath>
				<g clip-path="url(#SVGID_56_)">
					<defs>
						
							<rect id="SVGID_57_" x="38.507" y="45.816" transform="matrix(-0.9999 0.0101 -0.0101 -0.9999 80.7702 92.5176)" width="3.289" height="1.294"/>
					</defs>
					<clipPath id="SVGID_58_">
						<use xlink:href="#SVGID_57_"  overflow="visible"/>
					</clipPath>
					<g clip-path="url(#SVGID_58_)">
						
							<image overflow="visible" width="7" height="3" xlink:href="5E68C5D6.jpg"  transform="matrix(0.48 0 0 0.48 38.5005 45.7993)">
						</image>
					</g>
				</g>
			</g>
		</g>
	</g>
	<g>
		<defs>
			<path id="SVGID_59_" d="M39.605,62.45c-0.387,0.109-0.729,0.313-0.998,0.59c-0.068,0.068-0.123,0.137-0.182,0.207
				c-0.064,0.088-0.123,0.186-0.178,0.271c-0.096,0.17-0.166,0.342-0.213,0.531c-0.049,0.188-0.082,0.393-0.082,0.596
				c0.004,0.027,0.004,0.055,0.01,0.078c0.006,0.18,0.035,0.359,0.082,0.531c0,0.006,0.021,0.066,0.021,0.066
				c0.016,0.033,0.023,0.066,0.033,0.1c0.096,0.254,0.219,0.439,0.279,0.518c0.045,0.064,0.09,0.123,0.141,0.178
				c0.035,0.045,0.076,0.086,0.119,0.131c0.275,0.27,0.623,0.467,1.006,0.574c0.209,0.051,0.424,0.078,0.641,0.072
				c0.197-0.002,0.385-0.033,0.561-0.084c0.387-0.111,0.727-0.318,0.996-0.592c0.041-0.049,0.08-0.092,0.119-0.135
				c0.051-0.057,0.092-0.117,0.139-0.182c0.051-0.08,0.17-0.264,0.26-0.504c0.01-0.033,0.02-0.063,0.035-0.1
				c0-0.008,0.02-0.078,0.02-0.086c0.053-0.172,0.074-0.354,0.078-0.529c0-0.029,0-0.059,0-0.08
				c-0.004-0.205-0.031-0.408-0.09-0.596c-0.049-0.188-0.123-0.359-0.221-0.523c-0.055-0.094-0.117-0.186-0.184-0.271
				c-0.063-0.068-0.121-0.137-0.188-0.203c-0.273-0.273-0.623-0.475-1.008-0.576c-0.182-0.039-0.365-0.072-0.563-0.074
				c-0.016,0-0.021,0-0.037-0.004C40.002,62.358,39.795,62.392,39.605,62.45"/>
		</defs>
		<clipPath id="SVGID_60_">
			<use xlink:href="#SVGID_59_"  overflow="visible"/>
		</clipPath>
		<g clip-path="url(#SVGID_60_)">
			<g>
				<defs>
					
						<rect id="SVGID_61_" x="38.492" y="63.418" transform="matrix(-0.9999 0.0101 -0.0101 -0.9999 82.1837 130.9589)" width="4.538" height="4.538"/>
				</defs>
				<clipPath id="SVGID_62_">
					<use xlink:href="#SVGID_61_"  overflow="visible"/>
				</clipPath>
				<g clip-path="url(#SVGID_62_)">
					<defs>
						
							<rect id="SVGID_63_" x="38.492" y="63.418" transform="matrix(-0.9999 0.01 -0.01 -0.9999 82.1767 130.9629)" width="4.538" height="4.538"/>
					</defs>
					<clipPath id="SVGID_64_">
						<use xlink:href="#SVGID_63_"  overflow="visible"/>
					</clipPath>
					<g transform="matrix(1 0 0 1 0 -3.814697e-006)" clip-path="url(#SVGID_64_)">
						
							<image overflow="visible" width="10" height="10" xlink:href="5E68C5D1.jpg"  transform="matrix(0.48 0 0 0.48 38.4688 63.3955)">
						</image>
					</g>
				</g>
			</g>
		</g>
	</g>
	<g>
		<defs>
			<path id="SVGID_65_" d="M40.066,62.397c-0.1,0.008-0.281,0.023-0.502,0.096c-0.264,0.084-0.594,0.244-0.902,0.566
				c-0.021,0.027-0.133,0.127-0.256,0.303c-0.121,0.168-0.264,0.406-0.34,0.711c-0.047,0.195-0.074,0.422-0.053,0.668
				c0.006,0.033,0.01,0.127,0.031,0.252c0.021,0.082,0.047,0.178,0.092,0.281c0.078,0.154,0.197,0.318,0.389,0.426
				c0.01,0,0.021,0.006,0.033,0.016c0.076,0.035,0.209,0.105,0.256,0.164c0.031,0.029,0.125,0.191,0.314,0.35
				c0.219,0.184,0.549,0.363,1.004,0.377l0.055,0.002c0.152-0.004,0.471-0.02,0.732-0.152c0.141-0.084,0.254-0.213,0.35-0.346
				c0.055-0.084,0.102-0.162,0.139-0.23c0.107-0.184,0.27-0.525,0.279-0.861c0,0,0.086-0.129,0.123-0.182
				c0-0.004,0.004-0.004,0.012-0.012c0.023-0.027,0.082-0.07,0.137-0.145c0.131-0.156,0.221-0.35,0.234-0.551
				c0.004-0.094-0.004-0.301-0.053-0.457c0,0-0.057-0.078-0.057-0.086c0,0,0-0.004-0.002-0.01c-0.018-0.051-0.111-0.305-0.385-0.584
				c0,0-0.109-0.121-0.305-0.254c-0.205-0.133-0.496-0.277-0.873-0.33c-0.098-0.012-0.211-0.02-0.322-0.02
				C40.152,62.39,40.105,62.39,40.066,62.397"/>
		</defs>
		<clipPath id="SVGID_66_">
			<use xlink:href="#SVGID_65_"  overflow="visible"/>
		</clipPath>
		<g clip-path="url(#SVGID_66_)">
			<g>
				<defs>
					
						<rect id="SVGID_67_" x="38.529" y="63.45" transform="matrix(-1 0.01 -0.01 -1 81.9195 130.7105)" width="4.21" height="4.22"/>
				</defs>
				<clipPath id="SVGID_68_">
					<use xlink:href="#SVGID_67_"  overflow="visible"/>
				</clipPath>
				<g clip-path="url(#SVGID_68_)">
					<defs>
						
							<rect id="SVGID_69_" x="38.529" y="63.45" transform="matrix(-0.9999 0.0101 -0.0101 -0.9999 81.9271 130.7063)" width="4.21" height="4.22"/>
					</defs>
					<clipPath id="SVGID_70_">
						<use xlink:href="#SVGID_69_"  overflow="visible"/>
					</clipPath>
					<g clip-path="url(#SVGID_70_)">
						
							<image overflow="visible" width="9" height="9" xlink:href="5E68C5D2.jpg"  transform="matrix(0.48 0 0 0.48 38.5078 63.4287)">
						</image>
					</g>
				</g>
			</g>
		</g>
	</g>
	<g>
		<defs>
			<path id="SVGID_71_" d="M38.313,65.534c0.064,0.063,0.094,0.094,0.178,0.141c0.076,0.041,0.164,0.092,0.23,0.146
				c0.027,0.021,0.078,0.059,0.09,0.08c0.014,0.014,0.051,0.047,0.107,0.115c0.057,0.063,0.129,0.145,0.227,0.227
				c0.037,0.033,0.082,0.063,0.137,0.096c0.148,0.105,0.344,0.193,0.576,0.242c0.088,0.01,0.182,0.023,0.275,0.025
				c0.063,0,0.184,0.006,0.326-0.018c0.148-0.016,0.313-0.055,0.461-0.133c0.08-0.049,0.152-0.109,0.215-0.178
				c0.039-0.043,0.07-0.082,0.104-0.123c0.031-0.045,0.063-0.088,0.088-0.135c0.027-0.041,0.051-0.078,0.072-0.113
				c0.025-0.037,0.041-0.082,0.07-0.125c-0.215,0.07-0.469,0.127-0.764,0.156c-0.113,0.012-0.234,0.02-0.361,0.025
				c-0.135,0.004-0.309,0.002-0.502-0.016c-0.289-0.018-0.604-0.068-0.902-0.166c-0.09-0.027-0.176-0.059-0.264-0.098
				c-0.186-0.09-0.363-0.201-0.508-0.346C38.215,65.407,38.256,65.479,38.313,65.534"/>
		</defs>
		<clipPath id="SVGID_72_">
			<use xlink:href="#SVGID_71_"  overflow="visible"/>
		</clipPath>
		<g clip-path="url(#SVGID_72_)">
			<g>
				<defs>
					
						<rect id="SVGID_73_" x="38.714" y="66.395" transform="matrix(-0.9999 0.0101 -0.0101 -0.9999 81.392 133.6707)" width="3.289" height="1.292"/>
				</defs>
				<clipPath id="SVGID_74_">
					<use xlink:href="#SVGID_73_"  overflow="visible"/>
				</clipPath>
				<g clip-path="url(#SVGID_74_)">
					<defs>
						
							<rect id="SVGID_75_" x="38.714" y="66.395" transform="matrix(-0.9999 0.0101 -0.0101 -0.9999 81.392 133.6707)" width="3.289" height="1.292"/>
					</defs>
					<clipPath id="SVGID_76_">
						<use xlink:href="#SVGID_75_"  overflow="visible"/>
					</clipPath>
					<g clip-path="url(#SVGID_76_)">
						
							<image overflow="visible" width="7" height="3" xlink:href="5E68C5D0.jpg"  transform="matrix(0.48 0 0 0.48 38.7075 66.3784)">
						</image>
					</g>
				</g>
			</g>
		</g>
	</g>
	<g>
		<defs>
			<path id="SVGID_77_" d="M39.191,21.312c-0.387,0.105-0.729,0.315-1.002,0.594c-0.063,0.07-0.119,0.129-0.174,0.202
				c-0.068,0.09-0.127,0.181-0.182,0.283c-0.094,0.155-0.166,0.334-0.215,0.522c-0.051,0.189-0.08,0.393-0.076,0.602
				c-0.002,0.026,0.004,0.05,0.004,0.071c0.006,0.185,0.037,0.36,0.084,0.526c0,0.015,0.021,0.069,0.021,0.074
				c0.016,0.035,0.023,0.06,0.035,0.096c0.094,0.256,0.219,0.441,0.275,0.522c0.045,0.062,0.092,0.121,0.143,0.18
				c0.037,0.042,0.078,0.086,0.121,0.127c0.273,0.266,0.619,0.474,1.006,0.571c0.207,0.056,0.426,0.077,0.639,0.077
				c0.195-0.008,0.385-0.036,0.561-0.087c0.385-0.109,0.727-0.321,0.998-0.595c0.039-0.041,0.076-0.085,0.117-0.129
				c0.053-0.06,0.098-0.121,0.141-0.182c0.055-0.082,0.17-0.269,0.258-0.511c0.016-0.026,0.021-0.057,0.031-0.094
				c0.006-0.008,0.021-0.077,0.021-0.093c0.055-0.17,0.076-0.347,0.078-0.532c0.004-0.021-0.002-0.043,0-0.069
				c-0.002-0.212-0.027-0.411-0.09-0.602c-0.047-0.187-0.117-0.362-0.213-0.517c-0.061-0.098-0.125-0.191-0.189-0.279
				c-0.061-0.069-0.119-0.135-0.186-0.196c-0.277-0.273-0.627-0.476-1.012-0.576c-0.178-0.041-0.365-0.072-0.563-0.072
				c-0.014-0.003-0.023-0.003-0.037-0.003C39.59,21.224,39.383,21.261,39.191,21.312"/>
		</defs>
		<clipPath id="SVGID_78_">
			<use xlink:href="#SVGID_77_"  overflow="visible"/>
		</clipPath>
		<g clip-path="url(#SVGID_78_)">
			<g>
				<defs>
					
						<rect id="SVGID_79_" x="38.078" y="22.282" transform="matrix(-0.9999 0.01 -0.01 -0.9999 80.9375 48.6952)" width="4.538" height="4.536"/>
				</defs>
				<clipPath id="SVGID_80_">
					<use xlink:href="#SVGID_79_"  overflow="visible"/>
				</clipPath>
				<g clip-path="url(#SVGID_80_)">
					<defs>
						
							<rect id="SVGID_81_" x="38.078" y="22.282" transform="matrix(-0.9999 0.0101 -0.0101 -0.9999 80.9401 48.6913)" width="4.538" height="4.536"/>
					</defs>
					<clipPath id="SVGID_82_">
						<use xlink:href="#SVGID_81_"  overflow="visible"/>
					</clipPath>
					<g clip-path="url(#SVGID_82_)">
						
							<image overflow="visible" width="10" height="10" xlink:href="5E68C5EE.jpg"  transform="matrix(0.48 0 0 0.48 38.0552 22.2593)">
						</image>
					</g>
				</g>
			</g>
		</g>
	</g>
	<g>
		<defs>
			<path id="SVGID_83_" d="M39.645,21.263c-0.086,0.003-0.273,0.018-0.494,0.093c-0.264,0.085-0.592,0.251-0.9,0.571
				c-0.021,0.025-0.135,0.123-0.26,0.295c-0.121,0.177-0.262,0.412-0.338,0.713c-0.047,0.198-0.072,0.426-0.049,0.671
				c0,0.036,0.008,0.126,0.027,0.247c0.02,0.089,0.047,0.188,0.094,0.279c0.072,0.16,0.193,0.324,0.391,0.432
				c0.006,0.004,0.02,0.008,0.027,0.014c0.072,0.035,0.213,0.104,0.258,0.17c0.025,0.026,0.125,0.187,0.313,0.346
				c0.221,0.187,0.551,0.37,1.006,0.38h0.055c0.15-0.002,0.473-0.021,0.73-0.156c0.145-0.078,0.258-0.213,0.352-0.34
				c0.057-0.084,0.107-0.162,0.139-0.229c0.109-0.19,0.264-0.532,0.279-0.867c0,0,0.088-0.122,0.125-0.181
				c0,0,0.002-0.006,0.01-0.006c0.021-0.028,0.082-0.075,0.135-0.147c0.135-0.157,0.227-0.354,0.236-0.55
				c0.006-0.093,0-0.305-0.051-0.458c0,0-0.057-0.079-0.057-0.09c0,0,0-0.002-0.006-0.01c-0.016-0.048-0.107-0.3-0.379-0.585
				c0,0-0.113-0.115-0.311-0.247c-0.199-0.135-0.494-0.279-0.871-0.336c-0.104-0.008-0.211-0.016-0.326-0.016
				C39.734,21.255,39.693,21.261,39.645,21.263"/>
		</defs>
		<clipPath id="SVGID_84_">
			<use xlink:href="#SVGID_83_"  overflow="visible"/>
		</clipPath>
		<g clip-path="url(#SVGID_84_)">
			<g>
				<defs>
					
						<rect id="SVGID_85_" x="38.115" y="22.304" transform="matrix(-0.9999 0.0101 -0.0101 -0.9999 80.6838 48.4181)" width="4.21" height="4.217"/>
				</defs>
				<clipPath id="SVGID_86_">
					<use xlink:href="#SVGID_85_"  overflow="visible"/>
				</clipPath>
				<g clip-path="url(#SVGID_86_)">
					<defs>
						
							<rect id="SVGID_87_" x="38.115" y="22.304" transform="matrix(-1 0.01 -0.01 -1 80.681 48.4223)" width="4.21" height="4.217"/>
					</defs>
					<clipPath id="SVGID_88_">
						<use xlink:href="#SVGID_87_"  overflow="visible"/>
					</clipPath>
					<g clip-path="url(#SVGID_88_)">
						
							<image overflow="visible" width="9" height="9" xlink:href="5E68C5F1.jpg"  transform="matrix(0.48 0 0 0.48 38.0938 22.2827)">
						</image>
					</g>
				</g>
			</g>
		</g>
	</g>
	<g>
		<defs>
			<path id="SVGID_89_" d="M37.9,24.402c0.061,0.057,0.09,0.095,0.176,0.14c0.076,0.041,0.164,0.09,0.232,0.14
				c0.025,0.02,0.074,0.066,0.086,0.082s0.053,0.052,0.111,0.119c0.055,0.062,0.125,0.14,0.227,0.222
				c0.035,0.036,0.082,0.067,0.133,0.101c0.15,0.105,0.346,0.197,0.58,0.244c0.086,0.009,0.178,0.022,0.273,0.024
				c0.061,0,0.188,0.003,0.326-0.021c0.145-0.018,0.309-0.06,0.459-0.136c0.084-0.048,0.152-0.109,0.217-0.174
				c0.037-0.043,0.072-0.086,0.104-0.132c0.031-0.036,0.063-0.083,0.088-0.118c0.031-0.05,0.051-0.091,0.072-0.125
				c0.023-0.041,0.043-0.082,0.066-0.118c-0.211,0.069-0.463,0.124-0.764,0.155c-0.107,0.016-0.229,0.023-0.352,0.024
				c-0.141,0.006-0.314,0.006-0.512-0.012c-0.283-0.023-0.602-0.07-0.898-0.168c-0.088-0.037-0.176-0.064-0.264-0.103
				c-0.188-0.091-0.361-0.195-0.506-0.347C37.801,24.278,37.842,24.34,37.9,24.402"/>
		</defs>
		<clipPath id="SVGID_90_">
			<use xlink:href="#SVGID_89_"  overflow="visible"/>
		</clipPath>
		<g clip-path="url(#SVGID_90_)">
			<g>
				<defs>
					
						<rect id="SVGID_91_" x="38.3" y="25.245" transform="matrix(-0.9999 0.0101 -0.0101 -0.9999 80.1485 51.3787)" width="3.289" height="1.294"/>
				</defs>
				<clipPath id="SVGID_92_">
					<use xlink:href="#SVGID_91_"  overflow="visible"/>
				</clipPath>
				<g clip-path="url(#SVGID_92_)">
					<defs>
						
							<rect id="SVGID_93_" x="38.3" y="25.245" transform="matrix(-0.9999 0.0101 -0.0101 -0.9999 80.1485 51.3787)" width="3.289" height="1.294"/>
					</defs>
					<clipPath id="SVGID_94_">
						<use xlink:href="#SVGID_93_"  overflow="visible"/>
					</clipPath>
					<g clip-path="url(#SVGID_94_)">
						
							<image overflow="visible" width="7" height="3" xlink:href="5E68C5F2.jpg"  transform="matrix(0.48 0 0 0.48 38.2935 25.228)">
						</image>
					</g>
				</g>
			</g>
		</g>
	</g>
	<g>
		<defs>
			<path id="SVGID_95_" d="M39.084,11.027c-0.387,0.107-0.727,0.316-0.998,0.596c-0.063,0.064-0.117,0.133-0.172,0.204
				c-0.072,0.089-0.127,0.182-0.186,0.277c-0.092,0.162-0.166,0.338-0.211,0.519c-0.051,0.196-0.084,0.398-0.08,0.609
				c-0.004,0.021,0.002,0.049,0.002,0.075c0.008,0.178,0.043,0.354,0.09,0.525c0,0.009,0.02,0.062,0.02,0.062
				c0.014,0.038,0.02,0.072,0.033,0.107c0.096,0.254,0.221,0.438,0.275,0.518c0.049,0.06,0.096,0.118,0.143,0.181
				c0.039,0.041,0.082,0.088,0.119,0.124c0.275,0.278,0.623,0.475,1.01,0.573c0.207,0.06,0.424,0.083,0.637,0.072
				c0.195,0,0.385-0.03,0.563-0.083c0.385-0.107,0.729-0.312,0.996-0.594c0.043-0.042,0.082-0.088,0.119-0.129
				c0.053-0.063,0.1-0.122,0.143-0.184c0.055-0.08,0.168-0.261,0.256-0.502c0.016-0.032,0.021-0.068,0.035-0.095
				c0-0.016,0.016-0.08,0.02-0.099c0.055-0.171,0.072-0.346,0.08-0.523c-0.002-0.026-0.002-0.052,0-0.075
				c-0.006-0.209-0.033-0.411-0.092-0.604c-0.051-0.185-0.121-0.357-0.213-0.518c-0.063-0.096-0.125-0.186-0.191-0.273
				c-0.057-0.072-0.119-0.146-0.188-0.201c-0.273-0.272-0.623-0.474-1.006-0.58c-0.182-0.046-0.371-0.069-0.566-0.074
				c-0.012,0.003-0.023,0.003-0.035,0.003C39.482,10.941,39.277,10.97,39.084,11.027"/>
		</defs>
		<clipPath id="SVGID_96_">
			<use xlink:href="#SVGID_95_"  overflow="visible"/>
		</clipPath>
		<g clip-path="url(#SVGID_96_)">
			<g>
				<defs>
					
						<rect id="SVGID_97_" x="37.974" y="12" transform="matrix(-0.9999 0.0101 -0.0101 -0.9999 80.629 28.126)" width="4.538" height="4.534"/>
				</defs>
				<clipPath id="SVGID_98_">
					<use xlink:href="#SVGID_97_"  overflow="visible"/>
				</clipPath>
				<g clip-path="url(#SVGID_98_)">
					<defs>
						
							<rect id="SVGID_99_" x="37.974" y="12" transform="matrix(-0.9999 0.01 -0.01 -0.9999 80.6275 28.1298)" width="4.538" height="4.534"/>
					</defs>
					<clipPath id="SVGID_100_">
						<use xlink:href="#SVGID_99_"  overflow="visible"/>
					</clipPath>
					<g clip-path="url(#SVGID_100_)">
						
							<image overflow="visible" width="10" height="10" xlink:href="5E68C5F0.jpg"  transform="matrix(0.48 0 0 0.48 37.9517 11.9771)">
						</image>
					</g>
				</g>
			</g>
		</g>
	</g>
	<g>
		<defs>
			<path id="SVGID_101_" d="M39.543,10.972c-0.088,0.014-0.273,0.028-0.498,0.101c-0.262,0.088-0.592,0.248-0.896,0.565
				c-0.027,0.023-0.135,0.127-0.264,0.303c-0.119,0.17-0.262,0.408-0.336,0.712c-0.047,0.197-0.072,0.419-0.049,0.667
				c0.002,0.035,0.008,0.132,0.029,0.249c0.018,0.087,0.043,0.181,0.092,0.283c0.074,0.158,0.191,0.321,0.393,0.424
				c0.006,0.005,0.016,0.013,0.025,0.016c0.072,0.035,0.211,0.108,0.258,0.17c0.027,0.029,0.125,0.187,0.316,0.353
				c0.211,0.18,0.547,0.368,1.002,0.374c0.01,0.002,0.029,0,0.057,0.002c0.15-0.002,0.471-0.016,0.729-0.154
				c0.145-0.078,0.258-0.215,0.35-0.339c0.059-0.091,0.111-0.17,0.143-0.235c0.107-0.19,0.264-0.526,0.279-0.867
				c0,0,0.084-0.121,0.117-0.179c0,0,0.004-0.005,0.016-0.013c0.02-0.021,0.082-0.069,0.135-0.145
				c0.133-0.155,0.225-0.346,0.238-0.547c0.004-0.094,0-0.301-0.053-0.454c0,0-0.057-0.084-0.057-0.092l-0.004-0.01
				c-0.018-0.05-0.111-0.298-0.383-0.584c0,0-0.113-0.117-0.305-0.254c-0.203-0.129-0.498-0.275-0.875-0.33
				c-0.092-0.013-0.201-0.018-0.309-0.018C39.645,10.97,39.596,10.97,39.543,10.972"/>
		</defs>
		<clipPath id="SVGID_102_">
			<use xlink:href="#SVGID_101_"  overflow="visible"/>
		</clipPath>
		<g clip-path="url(#SVGID_102_)">
			<g>
				<defs>
					
						<rect id="SVGID_103_" x="38.011" y="12.027" transform="matrix(-0.9999 0.0101 -0.0101 -0.9999 80.373 27.8689)" width="4.21" height="4.219"/>
				</defs>
				<clipPath id="SVGID_104_">
					<use xlink:href="#SVGID_103_"  overflow="visible"/>
				</clipPath>
				<g clip-path="url(#SVGID_104_)">
					<defs>
						
							<rect id="SVGID_105_" x="38.011" y="12.027" transform="matrix(-1 0.01 -0.01 -1 80.3714 27.8731)" width="4.21" height="4.219"/>
					</defs>
					<clipPath id="SVGID_106_">
						<use xlink:href="#SVGID_105_"  overflow="visible"/>
					</clipPath>
					<g clip-path="url(#SVGID_106_)">
						
							<image overflow="visible" width="9" height="9" xlink:href="5E68C5F6.jpg"  transform="matrix(0.48 0 0 0.48 37.9902 12.0063)">
						</image>
					</g>
				</g>
			</g>
		</g>
	</g>
	<g>
		<defs>
			<path id="SVGID_107_" d="M37.797,14.116c0.059,0.063,0.088,0.093,0.174,0.142c0.08,0.037,0.162,0.091,0.234,0.143
				c0.027,0.016,0.076,0.062,0.088,0.08c0.01,0.016,0.053,0.05,0.107,0.117c0.059,0.056,0.129,0.144,0.229,0.221
				c0.035,0.031,0.082,0.073,0.135,0.104c0.15,0.101,0.342,0.195,0.576,0.237c0.09,0.015,0.182,0.03,0.275,0.028
				c0.057,0.002,0.186,0,0.324-0.022c0.15-0.016,0.316-0.056,0.461-0.13c0.082-0.052,0.152-0.111,0.217-0.181
				c0.039-0.037,0.072-0.083,0.104-0.122c0.029-0.045,0.063-0.085,0.088-0.129c0.029-0.044,0.053-0.083,0.07-0.121
				c0.021-0.039,0.043-0.075,0.068-0.124c-0.211,0.072-0.465,0.129-0.766,0.157c-0.107,0.014-0.229,0.022-0.352,0.029
				c-0.137,0.001-0.314,0.005-0.51-0.007c-0.283-0.027-0.602-0.077-0.902-0.18c-0.084-0.021-0.176-0.057-0.26-0.099
				c-0.188-0.082-0.361-0.196-0.506-0.341C37.693,13.986,37.74,14.057,37.797,14.116"/>
		</defs>
		<clipPath id="SVGID_108_">
			<use xlink:href="#SVGID_107_"  overflow="visible"/>
		</clipPath>
		<g clip-path="url(#SVGID_108_)">
			<g>
				<defs>
					
						<rect id="SVGID_109_" x="38.196" y="14.96" transform="matrix(-0.9999 0.0101 -0.0101 -0.9999 79.8376 30.8075)" width="3.289" height="1.29"/>
				</defs>
				<clipPath id="SVGID_110_">
					<use xlink:href="#SVGID_109_"  overflow="visible"/>
				</clipPath>
				<g clip-path="url(#SVGID_110_)">
					<defs>
						
							<rect id="SVGID_111_" x="38.197" y="14.96" transform="matrix(-0.9999 0.0101 -0.0101 -0.9999 79.8381 30.8074)" width="3.289" height="1.29"/>
					</defs>
					<clipPath id="SVGID_112_">
						<use xlink:href="#SVGID_111_"  overflow="visible"/>
					</clipPath>
					<g clip-path="url(#SVGID_112_)">
						
							<image overflow="visible" width="7" height="3" xlink:href="5E68C5F3.jpg"  transform="matrix(0.48 0 0 0.48 38.1904 14.9438)">
						</image>
					</g>
				</g>
			</g>
		</g>
	</g>
</g>
</svg>
