<?xml version="1.0" encoding="utf-8"?>
<!-- Generator: Adobe Illustrator 16.0.0, SVG Export Plug-In . SVG Version: 6.00 Build 0)  -->
<!DOCTYPE svg PUBLIC "-//W3C//DTD SVG 1.1//EN" "http://www.w3.org/Graphics/SVG/1.1/DTD/svg11.dtd">
<svg version="1.1" id="Capa_1" xmlns="http://www.w3.org/2000/svg" xmlns:xlink="http://www.w3.org/1999/xlink" x="0px" y="0px"
	 width="237px" height="101.5px" viewBox="0 0 237 101.5" enable-background="new 0 0 237 101.5" xml:space="preserve">
<g>
	<g>
		<g>
			<g>
				
					<line fill="none" stroke="#645F54" stroke-width="2" stroke-linecap="round" stroke-linejoin="round" x1="153.188" y1="7.958" x2="153.288" y2="7.958"/>
				
					<line fill="none" stroke="#645F54" stroke-width="2" stroke-linecap="round" stroke-linejoin="round" stroke-dasharray="0.1937,7.7472" x1="161.034" y1="7.958" x2="228.629" y2="7.958"/>
				
					<line fill="none" stroke="#645F54" stroke-width="2" stroke-linecap="round" stroke-linejoin="round" x1="232.503" y1="7.958" x2="232.603" y2="7.958"/>
			</g>
		</g>
		<g>
			<g>
				
					<line fill="none" stroke="#645F54" stroke-width="2" stroke-linecap="round" stroke-linejoin="round" x1="4" y1="7.958" x2="4.1" y2="7.958"/>
				
					<line fill="none" stroke="#645F54" stroke-width="2" stroke-linecap="round" stroke-linejoin="round" stroke-dasharray="0.1937,7.7471" x1="11.847" y1="7.958" x2="79.441" y2="7.958"/>
				
					<line fill="none" stroke="#645F54" stroke-width="2" stroke-linecap="round" stroke-linejoin="round" x1="83.314" y1="7.958" x2="83.415" y2="7.958"/>
			</g>
		</g>
	</g>
	
		<rect x="113.382" y="3.039" transform="matrix(0.7071 -0.7071 0.7071 0.7071 29.0194 85.9795)" fill="#645F54" width="9.838" height="9.839"/>
	<g>
		
			<rect x="133.229" y="4.881" transform="matrix(0.7072 -0.707 0.707 0.7072 34.2855 98.7026)" fill="#645F54" width="6.155" height="6.155"/>
		
			<rect x="97.22" y="4.881" transform="matrix(0.7071 -0.7071 0.7071 0.7071 23.7453 73.2478)" fill="#645F54" width="6.154" height="6.155"/>
	</g>
</g>
<g>
	<g>
		<g>
			
				<line fill="none" stroke="#645F54" stroke-width="2" stroke-linecap="round" stroke-linejoin="round" x1="20.354" y1="93.867" x2="20.454" y2="93.867"/>
			
				<line fill="none" stroke="#645F54" stroke-width="2" stroke-linecap="round" stroke-linejoin="round" stroke-dasharray="0.2093,8.3722" x1="28.826" y1="93.867" x2="84.71" y2="93.867"/>
			
				<line fill="none" stroke="#645F54" stroke-width="2" stroke-linecap="round" stroke-linejoin="round" x1="88.896" y1="93.867" x2="88.996" y2="93.867"/>
		</g>
	</g>
	<g>
		<g>
			
				<line fill="none" stroke="#645F54" stroke-width="2" stroke-linecap="round" stroke-linejoin="round" x1="216.249" y1="93.867" x2="216.149" y2="93.867"/>
			
				<line fill="none" stroke="#645F54" stroke-width="2" stroke-linecap="round" stroke-linejoin="round" stroke-dasharray="0.2093,8.3722" x1="207.776" y1="93.867" x2="151.893" y2="93.867"/>
			
				<line fill="none" stroke="#645F54" stroke-width="2" stroke-linecap="round" stroke-linejoin="round" x1="147.706" y1="93.867" x2="147.606" y2="93.867"/>
		</g>
	</g>
	
		<rect x="115.224" y="90.789" transform="matrix(-0.7071 -0.7071 0.7071 -0.7071 135.5876 243.8922)" fill="#645F54" width="6.154" height="6.155"/>
</g>
<g>
	<g>
		<path fill="#645F54" d="M66.494,38.782l-2.29,2.878c-0.458,0.458-1.047,0.654-1.439,0.654c-1.374,0-2.355-1.439-2.355-2.813
			c0-0.981,0.523-2.093,1.374-2.682l6.803-6.541c0.458-0.458,0.981-0.72,1.766-0.72c1.439,0,3.075,0.85,3.075,2.29v43.304
			c0,1.504-1.767,2.29-3.467,2.29c-1.766,0-3.467-0.785-3.467-2.29V38.782z"/>
		<path fill="#645F54" d="M79.838,45.389v-1.177c0-10.597,6.411-14.587,14.653-14.587c8.308,0,14.718,3.99,14.718,14.587v19.036
			c0,10.597-6.542,14.587-15.045,14.587c-9.747,0-14.326-6.083-14.326-11.644c0-2.224,1.112-2.943,3.271-2.943
			c1.897,0,3.598,0.523,3.598,2.617c0,3.598,3.467,5.822,7.653,5.822c4.972,0,7.915-2.682,7.915-8.438v-8.242
			c-2.159,2.747-5.429,3.729-9.093,3.729C85.856,58.733,79.838,55.593,79.838,45.389z M102.275,43.819
			c0-5.822-2.878-8.438-7.784-8.438c-4.841,0-7.719,2.617-7.719,8.438v1.112c0,5.953,2.878,8.242,7.784,8.242
			c4.71,0,7.719-2.093,7.719-7.654V43.819z"/>
		<path fill="#645F54" d="M143.224,38.651c0,1.112-0.588,2.616-1.243,3.859l-17.597,34.081c-0.393,0.72-1.112,1.047-2.093,1.047
			c-2.159,0-4.317-1.374-4.317-3.401c0-0.393,0.065-0.851,0.327-1.309l17.989-33.1v-4.056h-15.503v6.149
			c0,1.308-1.701,2.29-3.532,2.29s-3.402-0.981-3.402-2.29V31.914c0-1.112,1.57-2.29,3.075-2.29h23.222
			c1.374,0,3.074,1.177,3.074,2.29V38.651z"/>
		<path fill="#645F54" d="M160.231,48.463c8.308,0,14.718,3.663,14.718,13.737v1.243c0,10.466-6.542,14.391-14.653,14.391
			c-9.485,0-14.718-5.495-14.718-11.579c0-2.485,1.309-3.205,3.402-3.205c2.878,0,3.532,1.177,3.532,2.748
			c0,3.729,3.401,5.887,7.653,5.887c4.906,0,7.85-2.617,7.85-8.242V62.2c0-5.56-2.944-8.242-7.785-8.242h-9.485
			c-2.29,0-2.944-1.046-2.944-2.682c0-0.458,0.065-1.112,0.131-1.57l1.504-17.792c0.131-1.439,0.589-2.29,1.57-2.29h19.428
			c1.439,0,2.159,1.57,2.159,3.074c0,1.57-0.719,3.075-2.159,3.075h-15.11l-0.916,12.69H160.231z"/>
	</g>
</g>
</svg>
