<?xml version="1.0" encoding="utf-8"?>
<!-- Generator: Adobe Illustrator 16.0.0, SVG Export Plug-In . SVG Version: 6.00 Build 0)  -->
<!DOCTYPE svg PUBLIC "-//W3C//DTD SVG 1.1//EN" "http://www.w3.org/Graphics/SVG/1.1/DTD/svg11.dtd">
<svg version="1.1" id="Capa_1" xmlns="http://www.w3.org/2000/svg" xmlns:xlink="http://www.w3.org/1999/xlink" x="0px" y="0px"
	 width="238px" height="104px" viewBox="0 0 238 104" enable-background="new 0 0 238 104" xml:space="preserve">
<g>
	<g>
		<g>
			<g>
				<g>
					
						<line fill="none" stroke="#645F54" stroke-width="2" stroke-linecap="round" stroke-linejoin="round" x1="154.679" y1="8.958" x2="154.779" y2="8.958"/>
					
						<line fill="none" stroke="#645F54" stroke-width="2" stroke-linecap="round" stroke-linejoin="round" stroke-dasharray="0.1937,7.7472" x1="162.525" y1="8.958" x2="230.12" y2="8.958"/>
					
						<line fill="none" stroke="#645F54" stroke-width="2" stroke-linecap="round" stroke-linejoin="round" x1="233.994" y1="8.958" x2="234.094" y2="8.958"/>
				</g>
			</g>
			<g>
				<g>
					
						<line fill="none" stroke="#645F54" stroke-width="2" stroke-linecap="round" stroke-linejoin="round" x1="5.491" y1="8.958" x2="5.591" y2="8.958"/>
					
						<line fill="none" stroke="#645F54" stroke-width="2" stroke-linecap="round" stroke-linejoin="round" stroke-dasharray="0.1937,7.7471" x1="13.338" y1="8.958" x2="80.932" y2="8.958"/>
					
						<line fill="none" stroke="#645F54" stroke-width="2" stroke-linecap="round" stroke-linejoin="round" x1="84.805" y1="8.958" x2="84.905" y2="8.958"/>
				</g>
			</g>
		</g>
		
			<rect x="114.873" y="4.038" transform="matrix(0.7071 -0.7071 0.7071 0.7071 28.7494 87.3266)" fill="#645F54" width="9.838" height="9.839"/>
		<g>
			
				<rect x="134.72" y="5.88" transform="matrix(0.7071 -0.7071 0.7071 0.7071 34.0306 100.0667)" fill="#645F54" width="6.154" height="6.156"/>
			
				<rect x="98.711" y="5.88" transform="matrix(0.7071 -0.7071 0.7071 0.7071 23.4752 74.5947)" fill="#645F54" width="6.155" height="6.156"/>
		</g>
	</g>
	<g>
		<g>
			<g>
				
					<line fill="none" stroke="#645F54" stroke-width="2" stroke-linecap="round" stroke-linejoin="round" x1="21.845" y1="94.867" x2="21.945" y2="94.867"/>
				
					<line fill="none" stroke="#645F54" stroke-width="2" stroke-linecap="round" stroke-linejoin="round" stroke-dasharray="0.2093,8.3722" x1="30.317" y1="94.867" x2="86.201" y2="94.867"/>
				
					<line fill="none" stroke="#645F54" stroke-width="2" stroke-linecap="round" stroke-linejoin="round" x1="90.387" y1="94.867" x2="90.487" y2="94.867"/>
			</g>
		</g>
		<g>
			<g>
				
					<line fill="none" stroke="#645F54" stroke-width="2" stroke-linecap="round" stroke-linejoin="round" x1="217.74" y1="94.867" x2="217.641" y2="94.867"/>
				
					<line fill="none" stroke="#645F54" stroke-width="2" stroke-linecap="round" stroke-linejoin="round" stroke-dasharray="0.2093,8.3722" x1="209.268" y1="94.867" x2="153.384" y2="94.867"/>
				
					<line fill="none" stroke="#645F54" stroke-width="2" stroke-linecap="round" stroke-linejoin="round" x1="149.197" y1="94.867" x2="149.098" y2="94.867"/>
			</g>
		</g>
		
			<rect x="116.716" y="91.789" transform="matrix(-0.7071 -0.7071 0.7071 -0.7071 137.4182 246.6548)" fill="#645F54" width="6.154" height="6.155"/>
	</g>
	<g>
		<g>
			<path fill="#645F54" d="M66.774,39.781l-2.29,2.879c-0.458,0.457-1.047,0.653-1.439,0.653c-1.374,0-2.355-1.438-2.355-2.813
				c0-0.981,0.523-2.093,1.374-2.682l6.803-6.542c0.458-0.458,0.981-0.72,1.766-0.72c1.439,0,3.075,0.851,3.075,2.29v43.305
				c0,1.504-1.767,2.289-3.467,2.289c-1.766,0-3.467-0.785-3.467-2.289V39.781z"/>
			<path fill="#645F54" d="M80.119,46.389v-1.178c0-10.598,6.411-14.588,14.653-14.588c8.308,0,14.718,3.99,14.718,14.588v19.035
				c0,10.598-6.542,14.588-15.045,14.588c-9.747,0-14.326-6.084-14.326-11.644c0-2.225,1.112-2.944,3.271-2.944
				c1.897,0,3.598,0.523,3.598,2.617c0,3.598,3.467,5.821,7.653,5.821c4.972,0,7.915-2.682,7.915-8.438v-8.242
				c-2.159,2.748-5.429,3.729-9.093,3.729C86.137,59.732,80.119,56.593,80.119,46.389z M102.556,44.818
				c0-5.822-2.878-8.438-7.784-8.438c-4.841,0-7.719,2.616-7.719,8.438v1.112c0,5.952,2.878,8.242,7.784,8.242
				c4.71,0,7.719-2.094,7.719-7.653V44.818z"/>
			<path fill="#645F54" d="M115.181,46.389v-1.178c0-10.598,6.411-14.588,14.653-14.588c8.308,0,14.718,3.99,14.718,14.588v19.035
				c0,10.598-6.542,14.588-15.045,14.588c-9.747,0-14.326-6.084-14.326-11.644c0-2.225,1.112-2.944,3.271-2.944
				c1.897,0,3.598,0.523,3.598,2.617c0,3.598,3.467,5.821,7.653,5.821c4.972,0,7.915-2.682,7.915-8.438v-8.242
				c-2.159,2.748-5.429,3.729-9.093,3.729C121.199,59.732,115.181,56.593,115.181,46.389z M137.618,44.818
				c0-5.822-2.878-8.438-7.784-8.438c-4.841,0-7.719,2.616-7.719,8.438v1.112c0,5.952,2.878,8.242,7.784,8.242
				c4.71,0,7.719-2.094,7.719-7.653V44.818z"/>
			<path fill="#645F54" d="M166.53,67.714h-16.092c-1.374,0-2.42-0.981-2.42-2.552c0-0.458,0.131-0.981,0.393-1.438l15.83-31.203
				c0.72-1.374,1.897-1.897,3.009-1.897c1.308,0,3.467,1.047,3.467,2.683c0,0.327-0.131,0.654-0.327,1.047l-13.475,26.885h9.616
				V52.21c0-1.635,1.701-2.289,3.467-2.289c1.701,0,3.467,0.654,3.467,2.289v9.027h3.205c1.57,0,2.355,1.636,2.355,3.271
				c0,1.57-1.112,3.206-2.355,3.206h-3.205v8.438c0,1.504-1.766,2.289-3.467,2.289c-1.766,0-3.467-0.785-3.467-2.289V67.714z"/>
		</g>
	</g>
</g>
</svg>
