<?xml version="1.0" encoding="utf-8"?>
<!-- Generator: Adobe Illustrator 16.0.0, SVG Export Plug-In . SVG Version: 6.00 Build 0)  -->
<!DOCTYPE svg PUBLIC "-//W3C//DTD SVG 1.1//EN" "http://www.w3.org/Graphics/SVG/1.1/DTD/svg11.dtd">
<svg version="1.1" id="Capa_1" xmlns="http://www.w3.org/2000/svg" xmlns:xlink="http://www.w3.org/1999/xlink" x="0px" y="0px"
	 width="236px" height="104px" viewBox="0 0 236 104" enable-background="new 0 0 236 104" xml:space="preserve">
<g>
	<g>
		<g>
			<g>
				<g>
					
						<line fill="none" stroke="#645F54" stroke-width="2" stroke-linecap="round" stroke-linejoin="round" x1="153.188" y1="8.958" x2="153.287" y2="8.958"/>
					
						<line fill="none" stroke="#645F54" stroke-width="2" stroke-linecap="round" stroke-linejoin="round" stroke-dasharray="0.1937,7.7472" x1="161.035" y1="8.958" x2="228.629" y2="8.958"/>
					
						<line fill="none" stroke="#645F54" stroke-width="2" stroke-linecap="round" stroke-linejoin="round" x1="232.502" y1="8.958" x2="232.603" y2="8.958"/>
				</g>
			</g>
			<g>
				<g>
					
						<line fill="none" stroke="#645F54" stroke-width="2" stroke-linecap="round" stroke-linejoin="round" x1="4" y1="8.958" x2="4.1" y2="8.958"/>
					
						<line fill="none" stroke="#645F54" stroke-width="2" stroke-linecap="round" stroke-linejoin="round" stroke-dasharray="0.1937,7.7471" x1="11.847" y1="8.958" x2="79.44" y2="8.958"/>
					
						<line fill="none" stroke="#645F54" stroke-width="2" stroke-linecap="round" stroke-linejoin="round" x1="83.314" y1="8.958" x2="83.414" y2="8.958"/>
				</g>
			</g>
		</g>
		
			<rect x="113.382" y="4.038" transform="matrix(0.7071 -0.7071 0.7071 0.7071 28.3179 86.2782)" fill="#645F54" width="9.838" height="9.839"/>
		<g>
			
				<rect x="133.228" y="5.88" transform="matrix(0.7071 -0.7071 0.7071 0.7071 33.5938 99.0122)" fill="#645F54" width="6.154" height="6.156"/>
			
				<rect x="97.22" y="5.88" transform="matrix(0.7071 -0.7071 0.7071 0.7071 23.0385 73.5404)" fill="#645F54" width="6.155" height="6.156"/>
		</g>
	</g>
	<g>
		<g>
			<g>
				
					<line fill="none" stroke="#645F54" stroke-width="2" stroke-linecap="round" stroke-linejoin="round" x1="20.354" y1="94.867" x2="20.454" y2="94.867"/>
				
					<line fill="none" stroke="#645F54" stroke-width="2" stroke-linecap="round" stroke-linejoin="round" stroke-dasharray="0.2093,8.3722" x1="28.826" y1="94.867" x2="84.71" y2="94.867"/>
				
					<line fill="none" stroke="#645F54" stroke-width="2" stroke-linecap="round" stroke-linejoin="round" x1="88.896" y1="94.867" x2="88.996" y2="94.867"/>
			</g>
		</g>
		<g>
			<g>
				
					<line fill="none" stroke="#645F54" stroke-width="2" stroke-linecap="round" stroke-linejoin="round" x1="216.249" y1="94.867" x2="216.148" y2="94.867"/>
				
					<line fill="none" stroke="#645F54" stroke-width="2" stroke-linecap="round" stroke-linejoin="round" stroke-dasharray="0.2093,8.3722" x1="207.777" y1="94.867" x2="151.893" y2="94.867"/>
				
					<line fill="none" stroke="#645F54" stroke-width="2" stroke-linecap="round" stroke-linejoin="round" x1="147.707" y1="94.867" x2="147.606" y2="94.867"/>
			</g>
		</g>
		
			<rect x="115.224" y="91.789" transform="matrix(-0.7071 -0.7071 0.7071 -0.7071 134.8708 245.5997)" fill="#645F54" width="6.154" height="6.155"/>
	</g>
	<g>
		<g>
			<path fill="#645F54" d="M65.708,30.623c7.588,0,13.999,5.168,13.999,13.018c0,14.064-21.194,18.644-21.194,26.166v2.485h19.231
				c1.178,0,2.29,1.374,2.29,3.01c0,1.635-1.112,3.14-2.29,3.14H54.457c-1.309,0-3.075-0.916-3.075-2.289v-6.346
				c0-10.597,21.391-15.896,21.391-25.97c0-3.205-2.093-6.868-7.065-6.868c-3.663,0-6.607,2.027-6.607,6.476
				c0,1.309-1.374,2.617-3.663,2.617c-1.832,0-3.14-0.916-3.14-3.859C52.298,35.202,58.578,30.623,65.708,30.623z"/>
			<path fill="#645F54" d="M85.201,64.246V45.211c0-10.598,6.345-14.588,14.653-14.588c8.242,0,14.718,3.99,14.718,14.588v19.035
				c0,10.598-6.476,14.588-14.718,14.588C91.546,78.834,85.201,74.844,85.201,64.246z M107.639,45.211
				c0-5.757-2.944-8.438-7.785-8.438c-4.906,0-7.719,2.682-7.719,8.438v19.035c0,5.757,2.813,8.438,7.719,8.438
				c4.841,0,7.785-2.682,7.785-8.438V45.211z M102.667,54.762c0,1.635-1.112,2.813-2.748,2.813c-1.701,0-2.813-1.178-2.813-2.813
				c0-1.636,1.112-2.748,2.813-2.748C101.555,52.014,102.667,53.126,102.667,54.762z"/>
			<path fill="#645F54" d="M121.244,64.246V45.211c0-10.598,6.345-14.588,14.653-14.588c8.242,0,14.718,3.99,14.718,14.588v19.035
				c0,10.598-6.476,14.588-14.718,14.588C127.589,78.834,121.244,74.844,121.244,64.246z M143.682,45.211
				c0-5.757-2.944-8.438-7.785-8.438c-4.906,0-7.719,2.682-7.719,8.438v19.035c0,5.757,2.813,8.438,7.719,8.438
				c4.841,0,7.785-2.682,7.785-8.438V45.211z M138.71,54.762c0,1.635-1.112,2.813-2.748,2.813c-1.701,0-2.813-1.178-2.813-2.813
				c0-1.636,1.112-2.748,2.813-2.748C137.598,52.014,138.71,53.126,138.71,54.762z"/>
			<path fill="#645F54" d="M177.893,64.573v-1.242c0-5.233-3.206-7.131-7.981-7.131c-1.635,0-2.224-1.373-2.224-2.747
				c0-1.439,0.589-2.813,2.224-2.813c3.99,0,6.803-1.243,6.803-7.196c0-4.775-2.29-6.737-6.542-6.737
				c-5.298,0-6.803,2.682-6.803,5.364c0,1.7-0.785,2.813-3.271,2.813c-3.074,0-3.598-0.72-3.598-3.205
				c0-4.252,2.943-11.056,13.737-11.056c7.654,0,13.148,3.01,13.148,11.645c0,5.429-2.093,9.419-5.233,10.924
				c3.86,1.505,6.672,4.579,6.672,10.14v1.242c0,10.401-6.672,14.261-14.915,14.261c-10.205,0-14.457-6.346-14.457-11.513
				c0-2.29,0.851-2.944,3.206-2.944c2.878,0,3.598,0.851,3.598,2.617c0,2.878,2.42,5.69,7.719,5.69
				C175.342,72.685,177.893,70.265,177.893,64.573z"/>
		</g>
	</g>
</g>
</svg>
