<?xml version="1.0" encoding="utf-8"?>
<!-- Generator: Adobe Illustrator 16.0.0, SVG Export Plug-In . SVG Version: 6.00 Build 0)  -->
<!DOCTYPE svg PUBLIC "-//W3C//DTD SVG 1.1//EN" "http://www.w3.org/Graphics/SVG/1.1/DTD/svg11.dtd">
<svg version="1.1" id="Capa_1" xmlns="http://www.w3.org/2000/svg" xmlns:xlink="http://www.w3.org/1999/xlink" x="0px" y="0px"
	 width="241px" height="107px" viewBox="0 0 241 107" enable-background="new 0 0 241 107" xml:space="preserve">
<g>
	<g>
		<g>
			<g>
				<g>
					
						<line fill="none" stroke="#645F54" stroke-width="2" stroke-linecap="round" stroke-linejoin="round" x1="155.69" y1="11.375" x2="155.791" y2="11.375"/>
					
						<line fill="none" stroke="#645F54" stroke-width="2" stroke-linecap="round" stroke-linejoin="round" stroke-dasharray="0.1937,7.7472" x1="163.537" y1="11.375" x2="231.132" y2="11.375"/>
					
						<line fill="none" stroke="#645F54" stroke-width="2" stroke-linecap="round" stroke-linejoin="round" x1="235.006" y1="11.375" x2="235.105" y2="11.375"/>
				</g>
			</g>
			<g>
				<g>
					
						<line fill="none" stroke="#645F54" stroke-width="2" stroke-linecap="round" stroke-linejoin="round" x1="6.503" y1="11.375" x2="6.603" y2="11.375"/>
					
						<line fill="none" stroke="#645F54" stroke-width="2" stroke-linecap="round" stroke-linejoin="round" stroke-dasharray="0.1937,7.7472" x1="14.35" y1="11.375" x2="81.944" y2="11.375"/>
					
						<line fill="none" stroke="#645F54" stroke-width="2" stroke-linecap="round" stroke-linejoin="round" x1="85.818" y1="11.375" x2="85.918" y2="11.375"/>
				</g>
			</g>
		</g>
		
			<rect x="115.885" y="6.455" transform="matrix(0.7071 -0.7071 0.7071 0.7071 27.3397 88.753)" fill="#645F54" width="9.839" height="9.839"/>
		<g>
			
				<rect x="135.731" y="8.296" transform="matrix(0.7071 -0.7071 0.7071 0.7071 32.6133 101.4844)" fill="#645F54" width="6.155" height="6.156"/>
			
				<rect x="99.723" y="8.296" transform="matrix(0.707 -0.7072 0.7072 0.707 22.0739 76.0317)" fill="#645F54" width="6.155" height="6.156"/>
		</g>
	</g>
	<g>
		<g>
			<g>
				
					<line fill="none" stroke="#645F54" stroke-width="2" stroke-linecap="round" stroke-linejoin="round" x1="22.856" y1="97.285" x2="22.957" y2="97.285"/>
				
					<line fill="none" stroke="#645F54" stroke-width="2" stroke-linecap="round" stroke-linejoin="round" stroke-dasharray="0.2093,8.3722" x1="31.329" y1="97.285" x2="87.213" y2="97.285"/>
				
					<line fill="none" stroke="#645F54" stroke-width="2" stroke-linecap="round" stroke-linejoin="round" x1="91.399" y1="97.285" x2="91.499" y2="97.285"/>
			</g>
		</g>
		<g>
			<g>
				
					<line fill="none" stroke="#645F54" stroke-width="2" stroke-linecap="round" stroke-linejoin="round" x1="218.752" y1="97.285" x2="218.652" y2="97.285"/>
				
					<line fill="none" stroke="#645F54" stroke-width="2" stroke-linecap="round" stroke-linejoin="round" stroke-dasharray="0.2093,8.3722" x1="210.279" y1="97.285" x2="154.396" y2="97.285"/>
				
					<line fill="none" stroke="#645F54" stroke-width="2" stroke-linecap="round" stroke-linejoin="round" x1="150.209" y1="97.285" x2="150.109" y2="97.285"/>
			</g>
		</g>
		
			<rect x="117.728" y="94.207" transform="matrix(-0.7071 -0.7071 0.7071 -0.7071 137.4355 251.498)" fill="#645F54" width="6.154" height="6.155"/>
	</g>
	<g>
		<g>
			<path fill="#645F54" d="M77.5,33.04c7.588,0,13.999,5.168,13.999,13.018c0,14.064-21.194,18.644-21.194,26.166v2.485h19.231
				c1.178,0,2.29,1.374,2.29,3.01c0,1.635-1.112,3.14-2.29,3.14H66.25c-1.309,0-3.075-0.916-3.075-2.289v-6.346
				c0-10.597,21.391-15.896,21.391-25.97c0-3.205-2.093-6.868-7.065-6.868c-3.663,0-6.607,2.027-6.607,6.476
				c0,1.309-1.374,2.617-3.663,2.617c-1.832,0-3.14-0.916-3.14-3.859C64.091,37.619,70.371,33.04,77.5,33.04z"/>
			<path fill="#645F54" d="M96.994,66.663V47.628c0-10.598,6.345-14.588,14.653-14.588c8.242,0,14.718,3.99,14.718,14.588v19.035
				c0,10.598-6.476,14.588-14.718,14.588C103.339,81.251,96.994,77.261,96.994,66.663z M119.431,47.628
				c0-5.757-2.944-8.438-7.785-8.438c-4.906,0-7.719,2.682-7.719,8.438v19.035c0,5.757,2.813,8.438,7.719,8.438
				c4.841,0,7.785-2.682,7.785-8.438V47.628z M114.459,57.179c0,1.635-1.112,2.813-2.748,2.813c-1.701,0-2.813-1.178-2.813-2.813
				c0-1.636,1.112-2.748,2.813-2.748C113.348,54.431,114.459,55.543,114.459,57.179z"/>
			<path fill="#645F54" d="M136.177,42.198l-2.29,2.879c-0.458,0.457-1.047,0.653-1.439,0.653c-1.374,0-2.355-1.438-2.355-2.813
				c0-0.981,0.523-2.093,1.374-2.682l6.803-6.542c0.458-0.458,0.981-0.72,1.766-0.72c1.439,0,3.075,0.851,3.075,2.29v43.305
				c0,1.504-1.767,2.289-3.467,2.289c-1.766,0-3.467-0.785-3.467-2.289V42.198z"/>
			<path fill="#645F54" d="M171.108,66.99v-1.242c0-5.233-3.206-7.131-7.981-7.131c-1.635,0-2.224-1.373-2.224-2.747
				c0-1.439,0.589-2.813,2.224-2.813c3.99,0,6.803-1.243,6.803-7.196c0-4.775-2.29-6.737-6.542-6.737
				c-5.298,0-6.803,2.682-6.803,5.364c0,1.7-0.785,2.813-3.271,2.813c-3.075,0-3.598-0.72-3.598-3.205
				c0-4.252,2.943-11.056,13.737-11.056c7.654,0,13.148,3.01,13.148,11.645c0,5.429-2.093,9.419-5.233,10.924
				c3.86,1.505,6.672,4.579,6.672,10.14v1.242c0,10.401-6.672,14.261-14.915,14.261c-10.205,0-14.457-6.346-14.457-11.513
				c0-2.29,0.851-2.944,3.206-2.944c2.878,0,3.598,0.851,3.598,2.617c0,2.878,2.42,5.69,7.719,5.69
				C168.557,75.102,171.108,72.682,171.108,66.99z"/>
		</g>
	</g>
</g>
</svg>
