<?xml version="1.0" encoding="utf-8"?>
<!-- Generator: Adobe Illustrator 16.0.0, SVG Export Plug-In . SVG Version: 6.00 Build 0)  -->
<!DOCTYPE svg PUBLIC "-//W3C//DTD SVG 1.1//EN" "http://www.w3.org/Graphics/SVG/1.1/DTD/svg11.dtd">
<svg version="1.1" id="Capa_1" xmlns="http://www.w3.org/2000/svg" xmlns:xlink="http://www.w3.org/1999/xlink" x="0px" y="0px"
	 width="258px" height="261px" viewBox="0 0 258 261" enable-background="new 0 0 258 261" xml:space="preserve">
<g>
	
		<circle fill="none" stroke="#645F54" stroke-width="2" stroke-linecap="round" stroke-linejoin="round" stroke-dasharray="0.2002,8.0076" cx="129.4" cy="129.347" r="125.4"/>
</g>
<circle fill="#00809D" cx="129.399" cy="127.449" r="116.813"/>
<g>
	<path fill="none" stroke="#FFFFFF" stroke-width="2.6438" d="M160.584,82.545c5.485,16.462-3.245,34.186-19.49,39.595
		c-16.249,5.402-33.868-3.548-39.347-20c-5.482-16.448,3.254-34.188,19.503-39.589C137.497,57.138,155.116,66.085,160.584,82.545z"
		/>
	<g>
		<defs>
			<path id="SVGID_1_" d="M121.25,62.551c-16.25,5.401-24.985,23.141-19.503,39.589c5.479,16.452,23.098,25.402,39.347,20
				c16.245-5.409,24.976-23.136,19.49-39.595c-4.386-13.204-16.594-21.573-29.638-21.573C127.73,60.972,124.462,61.48,121.25,62.551
				"/>
		</defs>
		<clipPath id="SVGID_2_">
			<use xlink:href="#SVGID_1_"  overflow="visible"/>
		</clipPath>
		
			<radialGradient id="SVGID_3_" cx="50.896" cy="578.3301" r="0.9562" gradientTransform="matrix(18.63 27.1351 27.1351 -18.63 -16523.3438 9465.8789)" gradientUnits="userSpaceOnUse">
			<stop  offset="0" style="stop-color:#00AEEF"/>
			<stop  offset="0.6496" style="stop-color:#0076BD"/>
			<stop  offset="1" style="stop-color:#005DA6"/>
		</radialGradient>
		<polygon clip-path="url(#SVGID_2_)" fill="url(#SVGID_3_)" points="143.707,28.399 197.132,106.215 118.63,160.115 65.202,82.297 
					"/>
	</g>
	<g>
		<defs>
			<path id="SVGID_4_" d="M120.984,70.05c-11.752,6.127-16.463,20.786-10.519,32.752c5.933,11.955,20.274,16.68,32.022,10.561
				c5.279-2.756,9.14-7.247,11.248-12.429c-7.863,3.688-16.719,2.649-23.405-2.041c1.758-1.84,2.427-3.982,2.427-3.982
				c-18.995-3.759-10.865-25.018-10.865-25.018c-0.07,0.109-0.141,0.203-0.217,0.313c0.077-0.198,0.147-0.398,0.224-0.599
				C121.594,69.75,121.286,69.893,120.984,70.05"/>
		</defs>
		<clipPath id="SVGID_5_">
			<use xlink:href="#SVGID_4_"  overflow="visible"/>
		</clipPath>
		
			<radialGradient id="SVGID_6_" cx="50.9023" cy="578.3389" r="0.9559" gradientTransform="matrix(18.6302 27.1354 27.1354 -18.6302 -16523.8125 9465.9883)" gradientUnits="userSpaceOnUse">
			<stop  offset="0" style="stop-color:#FFFFFF"/>
			<stop  offset="0.4197" style="stop-color:#EAEBEB"/>
			<stop  offset="1" style="stop-color:#D1D3D4"/>
		</radialGradient>
		<polygon clip-path="url(#SVGID_5_)" fill="url(#SVGID_6_)" points="137.969,46.645 177.005,103.506 120.287,142.447 
			81.252,85.585 		"/>
	</g>
	<path fill="#FFFFFF" d="M72.438,142.578c-1.257-6.553-4.785-9.57-10.325-9.57c-6.547,0-12.089,4.029-12.089,16.119
		c0,7.557,3.524,15.111,12.089,15.111c5.037,0,8.563-2.518,11.334-7.053l1.009,0.758c-3.275,6.295-7.808,8.313-13.857,8.313
		c-9.57,0-15.616-7.559-15.616-17.129c0-10.076,7.055-18.137,15.616-18.137c5.544,0,9.776,1.814,11.586,4.031
		c1.261,1.51,1.261,4.533,1.261,7.557H72.438z"/>
	<path fill="#FFFFFF" d="M104.679,159.203c0,3.021,0.505,5.035,3.528,5.035h1.005v1.008h-4.533c-3.524,0-4.533-1.008-4.533-6.043
		v-10.076H85.032v16.119h-4.533v-27.201c0-3.023-0.504-5.037-3.527-5.037h-1.006v-1.01h4.533c3.527,0,4.533,1.01,4.533,6.047v9.064
		h15.114v-15.111h4.533V159.203z"/>
	<path fill="#FFFFFF" d="M142.961,165.246c-0.501,0.152-1.261,0.252-2.015,0.252c-2.266,0-6.347-0.756-8.564-6.549l-1.257-3.271
		H117.02l-4.028,9.568h-2.271L124.827,132h1.51l11.086,26.949c1.559,3.779,2.768,5.041,5.538,5.289V165.246z M117.776,153.66h12.34
		l-6.046-14.609L117.776,153.66z"/>
	<path fill="#FFFFFF" d="M145.98,131.998h4.532v27.205c0,3.021,0.508,5.035,3.527,5.035h1.009v1.008h-4.536
		c-3.523,0-4.532-1.008-4.532-6.043V131.998z"/>
	<path fill="#FFFFFF" d="M169.253,131.998c13.3,0,19.798,6.348,19.798,16.424c0,9.822-6.298,16.824-18.487,16.824h-9.974v-27.201
		c0-3.023-0.503-5.037-3.526-5.037h-1.01v-1.01H169.253z M165.273,162.828c2.067,0.457,3.78,0.656,5.14,0.656
		c7.453,0,13.148-5.744,13.148-14.861c0-8.916-5.545-14.859-13.25-14.859c-1.462,0-3.223,0.252-5.038,0.805V162.828z"/>
	<path fill="#FFFFFF" d="M212.522,131.998c3.527,0,4.284,2.018,4.284,4.027v3.783h-1.009c0-4.031-2.266-5.793-6.298-5.793h-9.37
		v13.094h13.605v2.018H200.13v14.105h8.816c4.537,0,7.051-1.51,8.564-5.541l1.009,0.252l-1.765,4.785
		c-0.555,1.51-1.763,2.518-3.777,2.518h-17.38v-27.201c0-3.023-0.505-5.037-3.524-5.037h-1.009v-1.01H212.522z"/>
	<path fill="#FFFFFF" d="M47.534,177.727h-0.158c-0.238-0.006-0.473-0.039-0.708-0.102c-0.238-0.059-0.466-0.146-0.683-0.262
		c-0.225-0.121-0.424-0.264-0.596-0.428c-0.172-0.164-0.308-0.338-0.406-0.521l0.925-0.477c0.045,0.088,0.115,0.174,0.213,0.262
		c0.098,0.092,0.214,0.172,0.347,0.242c0.133,0.074,0.276,0.133,0.438,0.18c0.158,0.045,0.322,0.07,0.494,0.07h0.018h0.017
		c0.133,0.012,0.298-0.006,0.491-0.047c0.189-0.039,0.378-0.107,0.557-0.207c0.378-0.209,0.582-0.498,0.603-0.854
		c0.018-0.229-0.039-0.416-0.172-0.555c-0.129-0.137-0.315-0.244-0.563-0.322c-0.245-0.076-0.525-0.115-0.837-0.115
		c-0.087,0-0.217-0.008-0.378-0.021c-0.161-0.01-0.336-0.037-0.519-0.082c-0.458-0.117-0.823-0.309-1.089-0.58
		c-0.15-0.168-0.259-0.357-0.333-0.566c-0.077-0.211-0.108-0.438-0.098-0.688c0.027-0.496,0.203-0.914,0.536-1.242
		c0.137-0.145,0.298-0.264,0.483-0.363c0.186-0.1,0.386-0.174,0.606-0.225c0.27-0.063,0.546-0.09,0.827-0.07
		c0.28,0.012,0.56,0.061,0.831,0.139c0.291,0.1,0.55,0.229,0.773,0.387c0.221,0.158,0.389,0.346,0.512,0.566l-0.897,0.508
		c-0.06-0.098-0.143-0.188-0.266-0.266c-0.122-0.082-0.27-0.15-0.431-0.201c-0.183-0.059-0.364-0.09-0.561-0.098
		c-0.192-0.01-0.379,0.008-0.557,0.047c-0.522,0.121-0.795,0.414-0.819,0.881c-0.014,0.131,0,0.236,0.039,0.307
		c0.038,0.072,0.073,0.129,0.104,0.168c0.137,0.133,0.319,0.227,0.554,0.281c0.238,0.055,0.466,0.082,0.683,0.082
		c0.469,0,0.886,0.066,1.257,0.197c0.371,0.133,0.673,0.324,0.904,0.57c0.346,0.367,0.494,0.818,0.448,1.348
		c-0.031,0.387-0.164,0.729-0.388,1.029c-0.193,0.258-0.438,0.475-0.743,0.646c-0.221,0.123-0.456,0.215-0.714,0.279
		C48.024,177.691,47.772,177.727,47.534,177.727"/>
	<path fill="#FFFFFF" d="M54.754,177.709c-0.393,0-0.732-0.041-1.023-0.125s-0.543-0.191-0.747-0.324
		c-0.21-0.133-0.382-0.283-0.521-0.447c-0.141-0.16-0.245-0.322-0.326-0.477c-0.095-0.176-0.165-0.346-0.217-0.521
		c-0.053-0.174-0.092-0.344-0.112-0.498c-0.021-0.156-0.035-0.293-0.039-0.424c-0.003-0.125-0.003-0.223-0.003-0.293v-3.695h1.037
		v3.695c0,0.059,0,0.137,0.003,0.227c0.004,0.098,0.011,0.199,0.025,0.314c0.014,0.109,0.039,0.229,0.074,0.354
		s0.084,0.24,0.146,0.359c0.288,0.545,0.855,0.818,1.703,0.818c0.847,0,1.415-0.273,1.698-0.818c0.067-0.119,0.115-0.234,0.15-0.359
		c0.032-0.125,0.061-0.244,0.074-0.354c0.01-0.115,0.021-0.217,0.024-0.314c0-0.09,0.003-0.168,0.003-0.227v-3.695h1.038v3.695
		c0,0.07-0.004,0.168-0.004,0.293c-0.003,0.131-0.018,0.268-0.039,0.424c-0.024,0.154-0.063,0.324-0.115,0.498
		c-0.049,0.176-0.123,0.346-0.214,0.521c-0.08,0.154-0.189,0.316-0.326,0.477c-0.141,0.164-0.312,0.314-0.519,0.447
		c-0.21,0.133-0.458,0.24-0.749,0.324S55.146,177.709,54.754,177.709"/>
	<polygon fill="#FFFFFF" points="61.146,171.941 61.146,173.582 64.011,173.582 64.011,174.615 61.146,174.615 61.146,176.543 
		64.109,176.543 64.109,177.578 60.106,177.578 60.106,170.904 64.109,170.904 64.109,171.941 	"/>
	<path fill="#FFFFFF" d="M67.398,173.045v4.535h-1.036v-6.99l5.008,4.881v-4.566h1.037v7.021L67.398,173.045z M69.956,171.328
		c-0.178,0-0.347-0.037-0.5-0.102c-0.158-0.068-0.295-0.162-0.417-0.281l-0.102-0.105c-0.052-0.049-0.116-0.076-0.192-0.076
		c-0.021,0-0.048,0.008-0.081,0.014c-0.032,0.01-0.063,0.027-0.088,0.055c-0.028,0.027-0.059,0.064-0.108,0.117
		c-0.042,0.055-0.095,0.115-0.154,0.186l-0.792-0.674c0.045-0.045,0.098-0.102,0.158-0.17c0.06-0.07,0.108-0.127,0.15-0.176
		c0.115-0.123,0.252-0.221,0.414-0.283c0.157-0.063,0.322-0.098,0.493-0.105h0.007c0.175,0,0.343,0.035,0.504,0.102
		c0.161,0.064,0.301,0.16,0.42,0.279l0.105,0.104c0.032,0.035,0.06,0.057,0.095,0.064s0.063,0.016,0.087,0.016
		c0.017,0,0.042-0.008,0.077-0.016c0.032-0.008,0.066-0.029,0.101-0.064c0.042-0.039,0.084-0.084,0.134-0.137
		c0.045-0.053,0.083-0.1,0.119-0.141l0.795,0.656c-0.018,0.029-0.057,0.08-0.122,0.154c-0.06,0.072-0.127,0.139-0.189,0.201
		c-0.126,0.119-0.267,0.213-0.424,0.281C70.292,171.291,70.127,171.328,69.956,171.328"/>
	<path fill="#FFFFFF" d="M79.714,177.805l-0.89-1.867h-2.809l-0.88,1.867l-0.931-0.441l3.212-6.807l3.232,6.807L79.714,177.805z
		 M76.509,174.9h1.821l-0.913-1.926L76.509,174.9z"/>
	<path fill="#FFFFFF" d="M89.249,177.709c-0.466,0-0.918-0.094-1.345-0.277c-0.414-0.172-0.785-0.418-1.107-0.74
		c-0.322-0.322-0.57-0.693-0.742-1.107c-0.186-0.432-0.277-0.881-0.277-1.346c0-0.467,0.091-0.922,0.277-1.359
		c0.172-0.418,0.42-0.783,0.742-1.094c0.319-0.316,0.687-0.566,1.107-0.752c0.21-0.092,0.427-0.16,0.654-0.203
		c0.225-0.043,0.456-0.066,0.69-0.066c0.477,0,0.932,0.088,1.359,0.27c0.2,0.088,0.393,0.197,0.579,0.318
		c0.182,0.123,0.356,0.262,0.515,0.424l-0.722,0.732c-0.238-0.229-0.504-0.406-0.795-0.525c-0.294-0.121-0.606-0.182-0.935-0.182
		c-0.333,0-0.648,0.066-0.942,0.191c-0.301,0.127-0.557,0.301-0.777,0.521c-0.218,0.221-0.393,0.48-0.522,0.777
		s-0.192,0.611-0.192,0.947c0,0.332,0.063,0.648,0.192,0.941c0.13,0.299,0.305,0.555,0.522,0.775
		c0.221,0.221,0.477,0.395,0.777,0.523c0.294,0.129,0.609,0.193,0.942,0.193c0.329,0,0.641-0.061,0.935-0.182
		c0.291-0.121,0.557-0.297,0.795-0.523l0.722,0.725c-0.319,0.322-0.687,0.568-1.093,0.74
		C90.17,177.615,89.715,177.709,89.249,177.709"/>
	<path fill="#FFFFFF" d="M96.815,177.744c-0.47,0-0.926-0.094-1.363-0.275c-0.413-0.176-0.788-0.424-1.113-0.754
		c-0.33-0.328-0.579-0.701-0.754-1.113c-0.182-0.438-0.276-0.895-0.276-1.363c0-0.473,0.095-0.93,0.276-1.365
		c0.175-0.416,0.424-0.785,0.754-1.115c0.325-0.328,0.7-0.578,1.113-0.752c0.438-0.184,0.894-0.277,1.363-0.277
		c0.473,0,0.932,0.094,1.365,0.277c0.414,0.174,0.785,0.424,1.115,0.752c0.329,0.33,0.581,0.699,0.752,1.115
		c0.186,0.436,0.276,0.893,0.276,1.365c0,0.469-0.091,0.926-0.276,1.363c-0.171,0.412-0.424,0.785-0.752,1.113
		c-0.33,0.33-0.701,0.578-1.115,0.754C97.747,177.65,97.288,177.744,96.815,177.744 M96.815,171.766
		c-0.341,0-0.659,0.064-0.957,0.193c-0.301,0.135-0.563,0.307-0.788,0.535c-0.224,0.223-0.398,0.482-0.528,0.785
		c-0.13,0.297-0.197,0.617-0.197,0.959c0,0.336,0.067,0.656,0.197,0.959c0.13,0.297,0.305,0.561,0.528,0.783
		c0.225,0.225,0.487,0.402,0.788,0.533c0.298,0.127,0.616,0.193,0.957,0.193c0.339,0,0.662-0.066,0.959-0.193
		c0.298-0.131,0.561-0.309,0.784-0.533c0.228-0.223,0.403-0.486,0.533-0.783c0.13-0.303,0.196-0.623,0.196-0.959
		c0-0.342-0.066-0.662-0.196-0.959c-0.129-0.303-0.305-0.563-0.533-0.785c-0.224-0.229-0.486-0.4-0.784-0.535
		C97.477,171.83,97.155,171.766,96.815,171.766"/>
	<polygon fill="#FFFFFF" points="103.372,173.043 103.372,177.578 102.335,177.578 102.335,170.592 107.348,175.471 
		107.348,170.904 108.382,170.904 108.382,177.926 	"/>
	<path fill="#FFFFFF" d="M117.432,177.709c-0.392,0-0.732-0.041-1.019-0.125c-0.294-0.084-0.543-0.191-0.753-0.324
		c-0.203-0.133-0.378-0.283-0.515-0.447c-0.141-0.16-0.25-0.322-0.329-0.477c-0.092-0.176-0.165-0.346-0.218-0.521
		c-0.049-0.174-0.087-0.344-0.112-0.498c-0.021-0.156-0.035-0.293-0.038-0.424c0-0.125-0.004-0.223-0.004-0.293v-3.695h1.037v3.695
		c0,0.059,0,0.137,0.004,0.227c0.003,0.098,0.014,0.199,0.023,0.314c0.014,0.109,0.042,0.229,0.074,0.354
		c0.035,0.125,0.084,0.24,0.147,0.359c0.291,0.545,0.858,0.818,1.702,0.818c0.848,0,1.416-0.273,1.703-0.818
		c0.063-0.119,0.112-0.234,0.147-0.359s0.059-0.244,0.073-0.354c0.014-0.115,0.025-0.217,0.028-0.314c0-0.09,0-0.168,0-0.227v-3.695
		h1.036v3.695c0,0.07,0,0.168-0.003,0.293c-0.004,0.131-0.018,0.268-0.039,0.424c-0.021,0.154-0.06,0.324-0.112,0.498
		c-0.052,0.176-0.123,0.346-0.217,0.521c-0.081,0.154-0.188,0.316-0.326,0.477c-0.139,0.164-0.311,0.314-0.518,0.447
		c-0.207,0.133-0.459,0.24-0.746,0.324C118.165,177.668,117.825,177.709,117.432,177.709"/>
	<polygon fill="#FFFFFF" points="123.937,173.043 123.937,177.578 122.9,177.578 122.9,170.592 127.909,175.471 127.909,170.904 
		128.946,170.904 128.946,177.926 	"/>
	<polygon fill="#FFFFFF" points="136.446,173.545 135.304,177.744 134.302,177.475 136.158,170.66 138.628,175.592 141.09,170.652 
		142.965,177.484 141.962,177.752 140.807,173.537 138.628,177.908 	"/>
	<path fill="#FFFFFF" d="M147.741,177.709c-0.392,0-0.734-0.041-1.022-0.125c-0.29-0.084-0.539-0.191-0.749-0.324
		c-0.203-0.133-0.378-0.283-0.519-0.447c-0.137-0.16-0.245-0.322-0.325-0.477c-0.091-0.176-0.165-0.346-0.218-0.521
		c-0.052-0.174-0.091-0.344-0.108-0.498c-0.024-0.156-0.039-0.293-0.042-0.424c-0.003-0.125-0.007-0.223-0.007-0.293v-3.695h1.04
		v3.695c0,0.059,0,0.137,0.004,0.227c0.003,0.098,0.014,0.199,0.024,0.314c0.014,0.109,0.041,0.229,0.073,0.354
		c0.038,0.125,0.084,0.24,0.147,0.359c0.291,0.545,0.857,0.818,1.701,0.818c0.849,0,1.416-0.273,1.703-0.818
		c0.063-0.119,0.112-0.234,0.147-0.359s0.06-0.244,0.073-0.354c0.011-0.115,0.021-0.217,0.025-0.314
		c0.003-0.09,0.006-0.168,0.006-0.227v-3.695h1.037v3.695c0,0.07-0.004,0.168-0.007,0.293c-0.003,0.131-0.015,0.268-0.039,0.424
		c-0.021,0.154-0.06,0.324-0.112,0.498c-0.052,0.176-0.125,0.346-0.216,0.521c-0.081,0.154-0.189,0.316-0.326,0.477
		c-0.14,0.164-0.312,0.314-0.519,0.447c-0.21,0.133-0.459,0.24-0.75,0.324S148.134,177.709,147.741,177.709"/>
	<polygon fill="#FFFFFF" points="154.247,173.043 154.247,177.578 153.21,177.578 153.21,170.592 158.22,175.471 158.22,170.904 
		159.256,170.904 159.256,177.926 	"/>
	<path fill="#FFFFFF" d="M163.841,177.58h-2.322v-6.676h2.322c0.473,0,0.921,0.08,1.342,0.244c0.42,0.162,0.788,0.4,1.104,0.713
		c0.312,0.311,0.55,0.668,0.715,1.074c0.171,0.4,0.255,0.826,0.255,1.275c0,0.461-0.084,0.893-0.237,1.295
		c-0.162,0.402-0.393,0.762-0.701,1.072c-0.302,0.316-0.666,0.561-1.086,0.734C164.794,177.488,164.331,177.58,163.841,177.58
		 M162.556,176.543h1.285c0.354,0,0.672-0.055,0.963-0.174c0.291-0.115,0.54-0.273,0.754-0.477c0.207-0.207,0.371-0.451,0.486-0.736
		c0.115-0.283,0.176-0.6,0.176-0.945c0-0.328-0.061-0.629-0.179-0.908c-0.119-0.275-0.284-0.518-0.497-0.721
		c-0.211-0.203-0.463-0.361-0.75-0.475c-0.291-0.111-0.605-0.166-0.953-0.166h-1.285V176.543z"/>
	<path fill="#FFFFFF" d="M172.367,177.744c-0.474,0-0.929-0.094-1.363-0.275c-0.416-0.176-0.788-0.424-1.117-0.754
		c-0.329-0.328-0.578-0.701-0.75-1.113c-0.185-0.438-0.276-0.895-0.276-1.363c0-0.473,0.092-0.93,0.276-1.365
		c0.172-0.416,0.421-0.785,0.75-1.115c0.329-0.328,0.701-0.578,1.117-0.752c0.435-0.184,0.89-0.277,1.363-0.277
		c0.473,0,0.928,0.094,1.365,0.277c0.414,0.174,0.785,0.424,1.114,0.752c0.329,0.33,0.578,0.699,0.753,1.115
		c0.183,0.436,0.273,0.893,0.273,1.365c0,0.469-0.091,0.926-0.273,1.363c-0.175,0.412-0.424,0.785-0.753,1.113
		c-0.329,0.33-0.7,0.578-1.114,0.754C173.295,177.65,172.84,177.744,172.367,177.744 M172.367,171.766
		c-0.341,0-0.659,0.064-0.96,0.193c-0.298,0.135-0.561,0.307-0.785,0.535c-0.224,0.223-0.402,0.482-0.532,0.785
		c-0.129,0.297-0.192,0.617-0.192,0.959c0,0.336,0.063,0.656,0.192,0.959c0.13,0.297,0.309,0.561,0.532,0.783
		c0.225,0.225,0.487,0.402,0.785,0.533c0.301,0.127,0.619,0.193,0.96,0.193c0.339,0,0.658-0.066,0.96-0.193
		c0.297-0.131,0.561-0.309,0.783-0.533c0.225-0.223,0.404-0.486,0.533-0.783c0.13-0.303,0.192-0.623,0.192-0.959
		c0-0.342-0.063-0.662-0.192-0.959c-0.129-0.303-0.309-0.563-0.533-0.785c-0.223-0.229-0.486-0.4-0.783-0.535
		C173.025,171.83,172.706,171.766,172.367,171.766"/>
	<polygon fill="#FFFFFF" points="182.931,173.545 181.793,177.744 180.788,177.475 182.644,170.66 185.117,175.592 187.58,170.652 
		189.453,177.484 188.448,177.752 187.292,173.537 185.117,177.908 	"/>
	<polygon fill="#FFFFFF" points="192.206,171.941 192.206,173.582 195.075,173.582 195.075,174.615 192.206,174.615 
		192.206,176.543 195.17,176.543 195.17,177.578 191.166,177.578 191.166,170.904 195.17,170.904 195.17,171.941 	"/>
	<path fill="#FFFFFF" d="M199.118,177.709c-0.302,0-0.562-0.035-0.781-0.104c-0.225-0.072-0.414-0.156-0.571-0.254
		c-0.158-0.102-0.291-0.205-0.393-0.311c-0.104-0.109-0.186-0.195-0.241-0.264l-0.027-0.018l0.798-0.672l0.014,0.014
		c0.046,0.057,0.102,0.119,0.165,0.186c0.063,0.066,0.144,0.131,0.238,0.186c0.094,0.061,0.206,0.105,0.336,0.145
		c0.13,0.037,0.283,0.055,0.463,0.055c0.689,0,1.152-0.203,1.379-0.613c0.105-0.178,0.166-0.357,0.189-0.539
		c0.018-0.184,0.028-0.318,0.028-0.41v-0.08v-4.125h1.036v4.16v0.018v0.055c0,0.055-0.003,0.137-0.01,0.24
		c-0.004,0.105-0.018,0.219-0.042,0.35c-0.024,0.129-0.056,0.268-0.102,0.414s-0.112,0.293-0.2,0.438
		c-0.076,0.129-0.172,0.264-0.294,0.396s-0.273,0.254-0.455,0.363c-0.183,0.109-0.396,0.195-0.651,0.268
		C199.745,177.674,199.45,177.709,199.118,177.709"/>
	<path fill="#FFFFFF" d="M207.149,177.744c-0.473,0-0.925-0.094-1.362-0.275c-0.417-0.176-0.788-0.424-1.117-0.754
		c-0.329-0.328-0.578-0.701-0.75-1.113c-0.183-0.438-0.276-0.895-0.276-1.363c0-0.473,0.094-0.93,0.276-1.365
		c0.172-0.416,0.421-0.785,0.75-1.115c0.329-0.328,0.7-0.578,1.117-0.752c0.438-0.184,0.89-0.277,1.362-0.277
		s0.928,0.094,1.366,0.277c0.413,0.174,0.784,0.424,1.114,0.752c0.326,0.33,0.578,0.699,0.75,1.115
		c0.185,0.436,0.276,0.893,0.276,1.365c0,0.469-0.092,0.926-0.276,1.363c-0.172,0.412-0.424,0.785-0.75,1.113
		c-0.33,0.33-0.701,0.578-1.114,0.754C208.077,177.65,207.622,177.744,207.149,177.744 M207.149,171.766
		c-0.34,0-0.658,0.064-0.956,0.193c-0.302,0.135-0.564,0.307-0.788,0.535c-0.225,0.223-0.403,0.482-0.533,0.785
		c-0.129,0.297-0.192,0.617-0.192,0.959c0,0.336,0.063,0.656,0.192,0.959c0.13,0.297,0.309,0.561,0.533,0.783
		c0.224,0.225,0.486,0.402,0.788,0.533c0.298,0.127,0.616,0.193,0.956,0.193s0.658-0.066,0.959-0.193
		c0.299-0.131,0.562-0.309,0.785-0.533c0.229-0.223,0.4-0.486,0.533-0.783c0.129-0.303,0.192-0.623,0.192-0.959
		c0-0.342-0.063-0.662-0.192-0.959c-0.133-0.303-0.305-0.563-0.533-0.785c-0.224-0.229-0.486-0.4-0.785-0.535
		C207.808,171.83,207.489,171.766,207.149,171.766"/>
	<path fill="#FFFFFF" d="M216.558,177.795l-1.912-2.281h-1.089v2.064h-1.038v-6.674h2.215c0.735,0,1.334,0.178,1.797,0.533
		c0.259,0.195,0.455,0.438,0.581,0.721c0.134,0.285,0.196,0.604,0.196,0.955c0,0.336-0.057,0.652-0.172,0.951
		c-0.122,0.285-0.291,0.541-0.512,0.758c-0.227,0.227-0.494,0.395-0.784,0.506l1.51,1.793L216.558,177.795z M213.557,174.479h1.177
		c0.241,0.012,0.462-0.02,0.662-0.09c0.195-0.072,0.364-0.174,0.504-0.309c0.249-0.248,0.371-0.566,0.371-0.967
		c0-0.381-0.126-0.67-0.381-0.863c-0.13-0.098-0.295-0.176-0.491-0.227c-0.2-0.059-0.421-0.082-0.665-0.082h-1.177V174.479z"/>
</g>
</svg>
