<?xml version="1.0" encoding="utf-8"?>
<!-- Generator: Adobe Illustrator 16.0.0, SVG Export Plug-In . SVG Version: 6.00 Build 0)  -->
<!DOCTYPE svg PUBLIC "-//W3C//DTD SVG 1.1//EN" "http://www.w3.org/Graphics/SVG/1.1/DTD/svg11.dtd">
<svg version="1.1" id="Capa_1" xmlns="http://www.w3.org/2000/svg" xmlns:xlink="http://www.w3.org/1999/xlink" x="0px" y="0px"
	 width="295px" height="136px" viewBox="-43.5 7 295 136" enable-background="new -43.5 7 295 136" xml:space="preserve">
<g>
	<g>
		<g>
			<path fill="#00809D" d="M-18.111,22.314c-7.552,0-11.77,4.021-11.77,12.653v28.542c0,8.631,4.218,12.653,11.966,12.653
				c10.004,0,10.887-6.768,11.28-11.083c0.196-2.55,2.256-3.433,5.1-3.433c3.629,0,5.297,1.079,5.297,5.395
				c0,10.79-8.926,18.342-22.363,18.342c-11.868,0-21.676-5.984-21.676-21.874V34.967c0-15.89,9.906-21.873,21.774-21.873
				c13.438,0,22.265,7.356,22.265,17.753c0,4.414-1.667,5.395-5.199,5.395c-3.139,0-5.1-1.078-5.198-3.433
				C-6.831,29.376-8.008,22.314-18.111,22.314z"/>
			<path fill="#00809D" d="M48.288,51.74H23.866v29.622c0,2.256-2.55,3.432-5.199,3.432c-2.55,0-5.198-1.176-5.198-3.432V16.429
				c0-2.354,2.648-3.335,5.198-3.335c2.648,0,5.199,0.981,5.199,3.335V43.5h24.422V16.429c0-2.354,2.648-3.335,5.199-3.335
				c2.648,0,5.198,0.981,5.198,3.335v64.932c0,2.256-2.55,3.432-5.198,3.432c-2.55,0-5.199-1.176-5.199-3.432V51.74z"/>
			<path fill="#00809D" d="M66.528,80.479c0-0.295,0-0.59,0.098-0.883l19.519-63.559c0.785-2.354,3.629-3.53,6.572-3.53
				s5.885,1.177,6.669,3.53l19.421,63.559c0.098,0.293,0.196,0.588,0.196,0.883c0,2.451-3.629,4.314-6.571,4.314
				c-1.667,0-3.041-0.588-3.531-2.158l-4.021-13.927H80.652L76.63,82.635c-0.49,1.57-1.863,2.158-3.629,2.158
				C70.157,84.793,66.528,83.027,66.528,80.479z M102.524,60.371l-9.808-33.643l-9.809,33.643H102.524z"/>
			<path fill="#00809D" d="M126.749,16.429c0-2.354,2.647-3.335,5.198-3.335c2.648,0,5.199,0.981,5.199,3.335v64.932
				c0,2.256-2.551,3.432-5.199,3.432c-2.551,0-5.198-1.176-5.198-3.432V16.429z"/>
			<path fill="#00809D" d="M172.063,13.094c12.456,0,22.068,5.983,22.068,21.873V62.92c0,15.89-9.612,21.873-22.068,21.873h-17.361
				c-2.746,0-4.609-1.568-4.609-3.334v-65.03c0-1.766,1.863-3.335,4.609-3.335H172.063z M160.488,22.314v53.26h11.574
				c7.355,0,11.672-4.022,11.672-12.654V34.967c0-8.632-4.316-12.653-11.672-12.653H160.488z"/>
			<path fill="#00809D" d="M216.688,44.775h15.104c2.157,0,3.433,1.962,3.433,4.218c0,1.864-1.078,4.021-3.433,4.021h-15.104v22.56
				h29.131c2.158,0,3.433,2.158,3.433,4.707c0,2.158-1.079,4.512-3.433,4.512H210.9c-2.256,0-4.609-1.176-4.609-3.432V16.527
				c0-2.256,2.354-3.433,4.609-3.433h34.918c2.354,0,3.433,2.354,3.433,4.512c0,2.551-1.274,4.708-3.433,4.708h-29.131V44.775z"/>
		</g>
	</g>
	<g>
		<path fill="#645F54" d="M-38.49,97.08c0-0.418,0.398-0.629,0.797-0.629h7.385c0.419,0,0.608,0.398,0.608,0.777
			c0,0.439-0.21,0.818-0.608,0.818h-6.42v5.328h3.273c0.399,0,0.608,0.357,0.608,0.756c0,0.336-0.188,0.713-0.608,0.713h-3.273
			v6.336c0,0.42-0.44,0.609-0.881,0.609c-0.44,0-0.881-0.189-0.881-0.609V97.08z"/>
		<path fill="#645F54" d="M-28.502,107.34v-6.314c0-3.336,1.972-4.574,4.511-4.574c2.539,0,4.532,1.238,4.532,4.574v6.314
			c0,3.336-1.993,4.574-4.532,4.574C-26.53,111.914-28.502,110.676-28.502,107.34z M-21.222,101.025c0-2.035-1.049-2.979-2.77-2.979
			c-1.72,0-2.749,0.943-2.749,2.979v6.314c0,2.035,1.028,2.98,2.749,2.98c1.721,0,2.77-0.945,2.77-2.98V101.025z"/>
		<path fill="#645F54" d="M-16.626,97.061c0-0.314,0.251-0.588,0.629-0.609h3.839c2.539,0,4.658,1.008,4.658,4.197
			c0,2.559-1.364,3.734-3.126,4.09l3.105,5.896c0.063,0.105,0.084,0.209,0.084,0.293c0,0.463-0.545,0.902-1.049,0.902
			c-0.357,0-0.608-0.336-0.797-0.691l-3.168-6.148h-2.413v6.168c0,0.42-0.44,0.631-0.881,0.631c-0.44,0-0.881-0.211-0.881-0.631
			V97.061z M-14.864,98.047v5.475h2.707c1.742,0,2.896-0.754,2.896-2.748c0-1.973-1.154-2.727-2.896-2.727H-14.864z"/>
		<path fill="#645F54" d="M1.02,106.104c-0.188,0.355-0.44,0.482-0.692,0.482c-0.209,0-0.461-0.127-0.65-0.482l-3.147-6.043v11.098
			c0,0.42-0.44,0.631-0.881,0.631c-0.44,0-0.881-0.211-0.881-0.631V97.313c0-0.631,0.419-0.861,0.881-0.861
			c0.63,0,1.028,0.379,1.406,1.113l3.294,6.314l3.315-6.314c0.398-0.734,0.776-1.113,1.405-1.113c0.462,0,0.881,0.23,0.881,0.861
			v13.846c0,0.42-0.44,0.631-0.881,0.631c-0.44,0-0.881-0.211-0.881-0.631v-11.014L1.02,106.104z"/>
		<path fill="#645F54" d="M7.797,111.055c0-0.063,0.021-0.105,0.042-0.168l4.28-13.953c0.126-0.42,0.608-0.607,1.091-0.607
			c0.483,0,0.965,0.209,1.091,0.607l4.28,13.953c0,0.063,0.021,0.105,0.021,0.146c0,0.42-0.587,0.756-1.091,0.756
			c-0.294,0-0.545-0.127-0.629-0.398l-0.923-3.127h-5.518l-0.923,3.127c-0.084,0.271-0.336,0.398-0.65,0.398
			C8.406,111.789,7.797,111.494,7.797,111.055z M15.54,106.816l-2.329-7.889l-2.371,7.889H15.54z"/>
		<path fill="#645F54" d="M24.667,97.061c0-0.314,0.272-0.609,0.713-0.609h3.965c2.476,0,4.448,1.217,4.448,4.533v0.188
			c0,3.295-1.993,4.553-4.532,4.553H26.43v5.434c0,0.42-0.44,0.631-0.881,0.631c-0.44,0-0.881-0.211-0.881-0.631V97.061z
			 M26.43,98.047v6.209h2.833c1.72,0,2.77-0.965,2.77-2.979v-0.252c0-2.035-1.049-2.979-2.77-2.979H26.43z"/>
		<path fill="#645F54" d="M33.962,111.055c0-0.063,0.021-0.105,0.042-0.168l4.28-13.953c0.126-0.42,0.608-0.607,1.091-0.607
			c0.483,0,0.965,0.209,1.091,0.607l4.28,13.953c0,0.063,0.021,0.105,0.021,0.146c0,0.42-0.587,0.756-1.091,0.756
			c-0.294,0-0.545-0.127-0.629-0.398l-0.923-3.127h-5.518l-0.923,3.127c-0.084,0.271-0.336,0.398-0.65,0.398
			C34.571,111.789,33.962,111.494,33.962,111.055z M41.705,106.816l-2.329-7.889l-2.371,7.889H41.705z"/>
		<path fill="#645F54" d="M46.636,97.061c0-0.314,0.251-0.588,0.629-0.609h3.839c2.539,0,4.658,1.008,4.658,4.197
			c0,2.559-1.364,3.734-3.126,4.09l3.105,5.896c0.063,0.105,0.084,0.209,0.084,0.293c0,0.463-0.545,0.902-1.049,0.902
			c-0.357,0-0.608-0.336-0.797-0.691l-3.168-6.148h-2.413v6.168c0,0.42-0.44,0.631-0.881,0.631c-0.44,0-0.881-0.211-0.881-0.631
			V97.061z M48.398,98.047v5.475h2.707c1.742,0,2.896-0.754,2.896-2.748c0-1.973-1.154-2.727-2.896-2.727H48.398z"/>
		<path fill="#645F54" d="M65.813,96.451c0.419,0,0.629,0.398,0.629,0.797c0,0.42-0.21,0.84-0.629,0.84h-3.378v13.07
			c0,0.42-0.44,0.631-0.881,0.631c-0.44,0-0.881-0.211-0.881-0.631v-13.07h-3.399c-0.399,0-0.629-0.398-0.629-0.84
			c0-0.377,0.209-0.797,0.629-0.797H65.813z"/>
		<path fill="#645F54" d="M69.989,103.375h3.273c0.378,0,0.608,0.357,0.608,0.756c0,0.336-0.188,0.713-0.608,0.713h-3.273v5.35
			h6.504c0.378,0,0.609,0.379,0.609,0.818c0,0.379-0.189,0.777-0.609,0.777h-7.469c-0.399,0-0.797-0.211-0.797-0.631V97.08
			c0-0.418,0.398-0.629,0.797-0.629h7.469c0.42,0,0.609,0.398,0.609,0.777c0,0.439-0.231,0.818-0.609,0.818h-6.504V103.375z"/>
		<path fill="#645F54" d="M87.719,96.451c2.539,0,4.532,1.238,4.532,4.574v6.189c0,3.336-1.993,4.574-4.532,4.574h-3.713
			c-0.483,0-0.797-0.295-0.797-0.609V97.061c0-0.314,0.314-0.609,0.797-0.609H87.719z M84.971,98.047v12.146h2.749
			c1.72,0,2.77-0.943,2.77-2.979v-6.189c0-2.035-1.049-2.979-2.77-2.979H84.971z"/>
		<path fill="#645F54" d="M96.847,103.375h3.273c0.378,0,0.608,0.357,0.608,0.756c0,0.336-0.188,0.713-0.608,0.713h-3.273v5.35
			h6.504c0.378,0,0.609,0.379,0.609,0.818c0,0.379-0.189,0.777-0.609,0.777h-7.469c-0.399,0-0.797-0.211-0.797-0.631V97.08
			c0-0.418,0.398-0.629,0.797-0.629h7.469c0.42,0,0.609,0.398,0.609,0.777c0,0.439-0.231,0.818-0.609,0.818h-6.504V103.375z"/>
		<path fill="#645F54" d="M110.863,111.789c-0.399,0-0.797-0.211-0.797-0.631V97.061c0-0.42,0.44-0.609,0.881-0.609
			c0.441,0,0.881,0.189,0.881,0.609v13.133h5.728c0.377,0,0.566,0.398,0.566,0.799c0,0.398-0.189,0.797-0.566,0.797H110.863z"/>
		<path fill="#645F54" d="M118.752,111.055c0-0.063,0.021-0.105,0.042-0.168l4.28-13.953c0.127-0.42,0.609-0.607,1.092-0.607
			s0.965,0.209,1.091,0.607l4.28,13.953c0,0.063,0.021,0.105,0.021,0.146c0,0.42-0.587,0.756-1.091,0.756
			c-0.294,0-0.545-0.127-0.629-0.398l-0.924-3.127h-5.518l-0.923,3.127c-0.084,0.271-0.336,0.398-0.65,0.398
			C119.361,111.789,118.752,111.494,118.752,111.055z M126.494,106.816l-2.328-7.889l-2.371,7.889H126.494z"/>
		<path fill="#645F54" d="M137.908,107.719c0-4.217-6.902-2.309-6.902-7.406c0-3.084,2.539-3.902,4.616-3.902
			c1.489,0,3.671,0.439,3.671,1.385c0,0.336-0.272,0.965-0.755,0.965s-1.091-0.797-2.916-0.797c-1.553,0-2.854,0.566-2.854,2.182
			c0,3.545,6.902,1.699,6.902,7.406c0,3-1.931,4.406-4.595,4.406c-2.707,0-4.447-1.469-4.447-2.371c0-0.42,0.377-0.965,0.775-0.965
			c0.63,0,1.112,1.699,3.588,1.699C136.755,110.32,137.908,109.459,137.908,107.719z"/>
		<path fill="#645F54" d="M150.666,96.451c2.539,0,4.532,1.238,4.532,4.574v6.189c0,3.336-1.993,4.574-4.532,4.574h-3.713
			c-0.482,0-0.797-0.295-0.797-0.609V97.061c0-0.314,0.314-0.609,0.797-0.609H150.666z M147.918,98.047v12.146h2.748
			c1.721,0,2.77-0.943,2.77-2.979v-6.189c0-2.035-1.049-2.979-2.77-2.979H147.918z"/>
		<path fill="#645F54" d="M158.031,97.061c0-0.42,0.441-0.609,0.881-0.609c0.441,0,0.882,0.189,0.882,0.609v14.098
			c0,0.42-0.44,0.631-0.882,0.631c-0.439,0-0.881-0.211-0.881-0.631V97.061z"/>
		<path fill="#645F54" d="M164.536,103.375h3.272c0.379,0,0.609,0.357,0.609,0.756c0,0.336-0.189,0.713-0.609,0.713h-3.272v5.35
			h6.504c0.378,0,0.608,0.379,0.608,0.818c0,0.379-0.188,0.777-0.608,0.777h-7.469c-0.399,0-0.798-0.211-0.798-0.631V97.08
			c0-0.418,0.398-0.629,0.798-0.629h7.469c0.42,0,0.608,0.398,0.608,0.777c0,0.439-0.23,0.818-0.608,0.818h-6.504V103.375z"/>
		<path fill="#645F54" d="M177.734,98.047c-1.805,0-2.791,0.943-2.791,2.979v6.314c0,2.035,0.986,2.98,2.854,2.98
			c2.329,0,2.539-1.512,2.664-2.498c0.043-0.418,0.357-0.607,0.882-0.607c0.587,0,0.882,0.189,0.882,0.986
			c0,2.076-1.742,3.713-4.554,3.713c-2.454,0-4.489-1.238-4.489-4.574v-6.314c0-3.336,2.056-4.574,4.51-4.574
			c2.813,0,4.533,1.596,4.533,3.65c0,0.799-0.295,0.965-0.882,0.965c-0.566,0-0.86-0.23-0.882-0.607
			C180.42,99.619,180.084,98.047,177.734,98.047z"/>
		<path fill="#645F54" d="M184.47,97.061c0-0.42,0.44-0.609,0.881-0.609s0.882,0.189,0.882,0.609v14.098
			c0,0.42-0.441,0.631-0.882,0.631s-0.881-0.211-0.881-0.631V97.061z"/>
		<path fill="#645F54" d="M196.43,110.992l-5.455-10.555v10.721c0,0.42-0.441,0.631-0.882,0.631s-0.881-0.211-0.881-0.631V97.061
			c0-0.441,0.419-0.609,0.881-0.609c0.63,0,0.966,0.379,1.343,1.113l5.225,10.217V97.061c0-0.42,0.44-0.609,0.881-0.609
			c0.441,0,0.881,0.189,0.881,0.609v14.098c0,0.42-0.439,0.631-0.881,0.631C197.059,111.789,196.682,111.453,196.43,110.992z"/>
		<path fill="#645F54" d="M208.746,97.061c0-0.42,0.42-0.609,0.881-0.609c0.42,0,0.881,0.189,0.881,0.609v10.279
			c0,3.336-2.014,4.574-4.594,4.574c-2.581,0-4.574-1.238-4.574-4.574V97.061c0-0.42,0.44-0.609,0.881-0.609
			c0.441,0,0.881,0.189,0.881,0.609v10.279c0,2.035,1.05,2.98,2.813,2.98c1.762,0,2.832-0.945,2.832-2.98V97.061z"/>
		<path fill="#645F54" d="M215.188,103.375h3.273c0.378,0,0.608,0.357,0.608,0.756c0,0.336-0.188,0.713-0.608,0.713h-3.273v5.35
			h6.504c0.379,0,0.609,0.379,0.609,0.818c0,0.379-0.189,0.777-0.609,0.777h-7.469c-0.398,0-0.797-0.211-0.797-0.631V97.08
			c0-0.418,0.398-0.629,0.797-0.629h7.469c0.42,0,0.609,0.398,0.609,0.777c0,0.439-0.23,0.818-0.609,0.818h-6.504V103.375z"/>
		<path fill="#645F54" d="M223.119,97.354c-0.021-0.063-0.041-0.105-0.041-0.168c0-0.439,0.608-0.734,1.07-0.734
			c0.314,0,0.566,0.127,0.65,0.398l3.691,12.463l3.672-12.463c0.105-0.271,0.336-0.398,0.63-0.398c0.503,0,1.091,0.336,1.091,0.756
			c0,0.041-0.021,0.084-0.021,0.146l-4.258,13.953c-0.147,0.398-0.609,0.607-1.113,0.607c-0.482,0-0.943-0.188-1.069-0.607
			L223.119,97.354z"/>
		<path fill="#645F54" d="M237.492,103.375h3.273c0.377,0,0.607,0.357,0.607,0.756c0,0.336-0.188,0.713-0.607,0.713h-3.273v5.35
			h6.504c0.378,0,0.609,0.379,0.609,0.818c0,0.379-0.189,0.777-0.609,0.777h-7.469c-0.398,0-0.797-0.211-0.797-0.631V97.08
			c0-0.418,0.398-0.629,0.797-0.629h7.469c0.42,0,0.609,0.398,0.609,0.777c0,0.439-0.231,0.818-0.609,0.818h-6.504V103.375z"/>
		<path fill="#645F54" d="M7.451,128.555h3.273c0.378,0,0.608,0.357,0.608,0.756c0,0.336-0.188,0.713-0.608,0.713H7.451v5.35h6.504
			c0.378,0,0.609,0.379,0.609,0.818c0,0.379-0.189,0.777-0.609,0.777H6.486c-0.399,0-0.797-0.211-0.797-0.631V122.26
			c0-0.418,0.398-0.629,0.797-0.629h7.469c0.42,0,0.609,0.398,0.609,0.777c0,0.439-0.231,0.818-0.609,0.818H7.451V128.555z"/>
		<path fill="#645F54" d="M22.726,131.283c-0.188,0.355-0.44,0.482-0.692,0.482c-0.21,0-0.462-0.127-0.651-0.482l-3.147-6.043
			v11.098c0,0.42-0.44,0.631-0.881,0.631c-0.44,0-0.881-0.211-0.881-0.631v-13.846c0-0.631,0.419-0.861,0.881-0.861
			c0.63,0,1.028,0.379,1.406,1.113l3.294,6.314l3.315-6.314c0.398-0.734,0.776-1.113,1.405-1.113c0.462,0,0.881,0.23,0.881,0.861
			v13.846c0,0.42-0.44,0.631-0.881,0.631c-0.44,0-0.881-0.211-0.881-0.631v-11.014L22.726,131.283z"/>
		<path fill="#645F54" d="M30.637,122.24c0-0.314,0.272-0.609,0.713-0.609h3.965c2.476,0,4.448,1.217,4.448,4.533v0.188
			c0,3.295-1.993,4.553-4.532,4.553h-2.833v5.434c0,0.42-0.44,0.631-0.881,0.631c-0.44,0-0.881-0.211-0.881-0.631V122.24z
			 M32.399,123.227v6.209h2.833c1.72,0,2.77-0.965,2.77-2.979v-0.252c0-2.035-1.049-2.979-2.77-2.979H32.399z"/>
		<path fill="#645F54" d="M41.862,122.24c0-0.314,0.251-0.588,0.629-0.609h3.839c2.539,0,4.658,1.008,4.658,4.197
			c0,2.559-1.364,3.734-3.126,4.09l3.105,5.896c0.063,0.105,0.084,0.209,0.084,0.293c0,0.463-0.545,0.902-1.049,0.902
			c-0.357,0-0.608-0.336-0.797-0.691l-3.168-6.148h-2.413v6.168c0,0.42-0.44,0.631-0.881,0.631c-0.44,0-0.881-0.211-0.881-0.631
			V122.24z M43.625,123.227v5.475h2.707c1.742,0,2.896-0.754,2.896-2.748c0-1.973-1.154-2.727-2.896-2.727H43.625z"/>
		<path fill="#645F54" d="M55.019,128.555h3.273c0.378,0,0.608,0.357,0.608,0.756c0,0.336-0.188,0.713-0.608,0.713h-3.273v5.35
			h6.504c0.378,0,0.609,0.379,0.609,0.818c0,0.379-0.189,0.777-0.609,0.777h-7.469c-0.399,0-0.797-0.211-0.797-0.631V122.26
			c0-0.418,0.398-0.629,0.797-0.629h7.469c0.42,0,0.609,0.398,0.609,0.777c0,0.439-0.231,0.818-0.609,0.818h-6.504V128.555z"/>
		<path fill="#645F54" d="M70.524,132.898c0-4.217-6.903-2.309-6.903-7.406c0-3.084,2.539-3.902,4.616-3.902
			c1.489,0,3.671,0.439,3.671,1.385c0,0.336-0.273,0.965-0.755,0.965s-1.091-0.797-2.916-0.797c-1.553,0-2.854,0.566-2.854,2.182
			c0,3.545,6.902,1.699,6.902,7.406c0,3-1.93,4.406-4.595,4.406c-2.707,0-4.448-1.469-4.448-2.371c0-0.42,0.377-0.965,0.776-0.965
			c0.629,0,1.112,1.699,3.587,1.699C69.37,135.5,70.524,134.639,70.524,132.898z"/>
		<path fill="#645F54" d="M73.441,136.234c0-0.063,0.021-0.105,0.042-0.168l4.28-13.953c0.126-0.42,0.608-0.607,1.091-0.607
			c0.483,0,0.965,0.209,1.091,0.607l4.28,13.953c0,0.063,0.021,0.105,0.021,0.146c0,0.42-0.587,0.756-1.091,0.756
			c-0.294,0-0.545-0.127-0.629-0.398l-0.923-3.127h-5.518l-0.923,3.127c-0.084,0.271-0.336,0.398-0.65,0.398
			C74.05,136.969,73.441,136.674,73.441,136.234z M81.183,131.996l-2.329-7.889l-2.371,7.889H81.183z"/>
		<path fill="#645F54" d="M92.598,132.898c0-4.217-6.903-2.309-6.903-7.406c0-3.084,2.539-3.902,4.616-3.902
			c1.489,0,3.671,0.439,3.671,1.385c0,0.336-0.273,0.965-0.755,0.965s-1.091-0.797-2.916-0.797c-1.553,0-2.854,0.566-2.854,2.182
			c0,3.545,6.903,1.699,6.903,7.406c0,3-1.931,4.406-4.595,4.406c-2.707,0-4.448-1.469-4.448-2.371c0-0.42,0.377-0.965,0.776-0.965
			c0.629,0,1.112,1.699,3.587,1.699C91.444,135.5,92.598,134.639,92.598,132.898z"/>
		<path fill="#645F54" d="M100.844,122.24c0-0.314,0.272-0.609,0.713-0.609h3.965c2.476,0,4.448,1.217,4.448,4.533v0.188
			c0,3.295-1.993,4.553-4.532,4.553h-2.833v5.434c0,0.42-0.44,0.631-0.881,0.631c-0.44,0-0.881-0.211-0.881-0.631V122.24z
			 M102.606,123.227v6.209h2.833c1.72,0,2.77-0.965,2.77-2.979v-0.252c0-2.035-1.049-2.979-2.77-2.979H102.606z"/>
		<path fill="#645F54" d="M112.07,122.24c0-0.314,0.251-0.588,0.629-0.609h3.839c2.539,0,4.658,1.008,4.658,4.197
			c0,2.559-1.364,3.734-3.126,4.09l3.105,5.896c0.063,0.105,0.084,0.209,0.084,0.293c0,0.463-0.545,0.902-1.049,0.902
			c-0.357,0-0.608-0.336-0.797-0.691l-3.168-6.148h-2.413v6.168c0,0.42-0.44,0.631-0.881,0.631c-0.44,0-0.881-0.211-0.881-0.631
			V122.24z M113.832,123.227v5.475h2.707c1.742,0,2.896-0.754,2.896-2.748c0-1.973-1.154-2.727-2.896-2.727H113.832z"/>
		<path fill="#645F54" d="M125.226,128.555h3.272c0.379,0,0.609,0.357,0.609,0.756c0,0.336-0.189,0.713-0.609,0.713h-3.272v5.35
			h6.504c0.378,0,0.608,0.379,0.608,0.818c0,0.379-0.188,0.777-0.608,0.777h-7.469c-0.399,0-0.798-0.211-0.798-0.631V122.26
			c0-0.418,0.398-0.629,0.798-0.629h7.469c0.42,0,0.608,0.398,0.608,0.777c0,0.439-0.23,0.818-0.608,0.818h-6.504V128.555z"/>
		<path fill="#645F54" d="M140.5,131.283c-0.188,0.355-0.439,0.482-0.691,0.482c-0.21,0-0.462-0.127-0.65-0.482l-3.147-6.043v11.098
			c0,0.42-0.44,0.631-0.882,0.631c-0.439,0-0.881-0.211-0.881-0.631v-13.846c0-0.631,0.42-0.861,0.881-0.861
			c0.631,0,1.029,0.379,1.406,1.113l3.294,6.314l3.315-6.314c0.398-0.734,0.775-1.113,1.405-1.113c0.462,0,0.882,0.23,0.882,0.861
			v13.846c0,0.42-0.441,0.631-0.882,0.631s-0.881-0.211-0.881-0.631v-11.014L140.5,131.283z"/>
		<path fill="#645F54" d="M148.412,122.24c0-0.42,0.439-0.609,0.881-0.609c0.44,0,0.881,0.189,0.881,0.609v14.098
			c0,0.42-0.44,0.631-0.881,0.631c-0.441,0-0.881-0.211-0.881-0.631V122.24z"/>
		<path fill="#645F54" d="M152.02,136.234c0-0.063,0.021-0.105,0.043-0.168l4.279-13.953c0.127-0.42,0.609-0.607,1.092-0.607
			s0.965,0.209,1.091,0.607l4.28,13.953c0,0.063,0.021,0.105,0.021,0.146c0,0.42-0.587,0.756-1.091,0.756
			c-0.294,0-0.545-0.127-0.629-0.398l-0.924-3.127h-5.518l-0.924,3.127c-0.084,0.271-0.336,0.398-0.65,0.398
			C152.629,136.969,152.02,136.674,152.02,136.234z M159.762,131.996l-2.328-7.889l-2.371,7.889H159.762z"/>
		<path fill="#645F54" d="M169.205,121.631c2.538,0,4.531,1.238,4.531,4.574v6.189c0,3.336-1.993,4.574-4.531,4.574h-3.714
			c-0.483,0-0.798-0.295-0.798-0.609V122.24c0-0.314,0.314-0.609,0.798-0.609H169.205z M166.456,123.227v12.146h2.749
			c1.72,0,2.77-0.943,2.77-2.979v-6.189c0-2.035-1.05-2.979-2.77-2.979H166.456z"/>
		<path fill="#645F54" d="M175.437,136.234c0-0.063,0.021-0.105,0.042-0.168l4.28-13.953c0.126-0.42,0.608-0.607,1.091-0.607
			s0.965,0.209,1.092,0.607l4.279,13.953c0,0.063,0.021,0.105,0.021,0.146c0,0.42-0.588,0.756-1.092,0.756
			c-0.293,0-0.545-0.127-0.629-0.398l-0.924-3.127h-5.518l-0.923,3.127c-0.084,0.271-0.336,0.398-0.65,0.398
			C176.045,136.969,175.437,136.674,175.437,136.234z M183.179,131.996l-2.329-7.889l-2.371,7.889H183.179z"/>
		<path fill="#645F54" d="M194.594,132.898c0-4.217-6.903-2.309-6.903-7.406c0-3.084,2.539-3.902,4.616-3.902
			c1.489,0,3.672,0.439,3.672,1.385c0,0.336-0.273,0.965-0.756,0.965s-1.091-0.797-2.916-0.797c-1.553,0-2.854,0.566-2.854,2.182
			c0,3.545,6.902,1.699,6.902,7.406c0,3-1.93,4.406-4.595,4.406c-2.706,0-4.448-1.469-4.448-2.371c0-0.42,0.378-0.965,0.777-0.965
			c0.629,0,1.111,1.699,3.587,1.699C193.439,135.5,194.594,134.639,194.594,132.898z"/>
		<path fill="#645F54" d="M200.092,136.004c0,0.566-0.483,1.09-1.07,1.09c-0.63,0-1.092-0.523-1.092-1.09
			c0-0.609,0.462-1.113,1.092-1.113C199.608,134.891,200.092,135.395,200.092,136.004z"/>
	</g>
</g>
</svg>
