<?xml version="1.0" encoding="utf-8"?>
<!-- Generator: Adobe Illustrator 16.0.0, SVG Export Plug-In . SVG Version: 6.00 Build 0)  -->
<!DOCTYPE svg PUBLIC "-//W3C//DTD SVG 1.1//EN" "http://www.w3.org/Graphics/SVG/1.1/DTD/svg11.dtd">
<svg version="1.1" id="Capa_1" xmlns="http://www.w3.org/2000/svg" xmlns:xlink="http://www.w3.org/1999/xlink" x="0px" y="0px"
	 width="143.211px" height="161.983px" viewBox="0 0 143.211 161.983" enable-background="new 0 0 143.211 161.983"
	 xml:space="preserve">
<rect x="-0.028" y="0.226" fill="#645E53" width="143.028" height="161.758"/>
<g>
	<g>
		<path fill="#FFFFFF" d="M112,53.278c0,0.398-0.323,0.722-0.723,0.722H29.722C29.323,54,29,53.677,29,53.278V28.722
			C29,28.323,29.323,28,29.722,28h81.555c0.399,0,0.723,0.323,0.723,0.722V53.278z"/>
		<path opacity="0.1" fill="#FFFFFF" d="M71,28h41.293c0.398,0,0.707,0.575,0.707,0.975v24.558c0,0.398-0.309,0.468-0.707,0.468H71"
			/>
	</g>
	<rect x="21" y="26" fill="#FFFFFF" width="99" height="2"/>
	<g>
		<polygon fill="#C1CBCB" points="29.952,53.415 23.832,66.34 20.962,71.601 121.406,70.645 118.537,65.384 112.293,53.054 		"/>
		<polygon fill="#CBD0D1" points="29.093,53.121 26.777,60 115.955,60 112.779,53.335 		"/>
		<path fill="#C1CBCB" d="M66,51.667C66,54.06,64.06,56,61.666,56H39.334C36.94,56,35,54.06,35,51.667v-2.334
			C35,46.94,36.94,45,39.334,45h22.332C64.06,45,66,46.94,66,49.333V51.667z"/>
		<path fill="#C1CBCB" d="M107,51.667c0,2.393-1.94,4.333-4.334,4.333H80.334C77.94,56,76,54.06,76,51.667v-2.334
			C76,46.94,77.94,45,80.334,45h22.332c2.394,0,4.334,1.94,4.334,4.333V51.667z"/>
	</g>
	<path fill="#FFFFFF" d="M121,88.317c0,0.27,0.298,0.683-0.177,0.683H22.867C22.392,89,22,88.587,22,88.317V71.601
		C22,71.33,22.392,70,22.867,70h97.956c0.475,0,0.177,1.33,0.177,1.601V88.317z"/>
	<path fill="#FFFFFF" d="M71,70h49.823c0.475,0,0.177,1.16,0.177,1.43v16.646c0,0.27,0.298,0.924-0.177,0.924H71"/>
	<rect x="21" y="66" fill="#FFFFFF" width="3" height="28"/>
	<rect x="120" y="65" fill="#FFFFFF" width="2" height="29"/>
</g>
<g>
	<g>
		<path fill="#FFFFFF" d="M52.755,126.048c2.671,0,4.771,1.324,4.771,4.862v6.939c0,3.561-2.1,4.885-4.771,4.885h-4.04
			c-0.411,0-0.685-0.274-0.685-0.57v-15.568c0-0.297,0.274-0.548,0.685-0.548H52.755z M49.537,127.44v13.901h3.219
			c2.032,0,3.265-1.118,3.265-3.492v-6.939c0-2.374-1.233-3.47-3.265-3.47H49.537z"/>
		<path fill="#FFFFFF" d="M68.826,126.596c0-0.388,0.365-0.548,0.753-0.548c0.365,0,0.753,0.16,0.753,0.548v11.391
			c0,3.562-2.123,4.885-4.794,4.885c-2.693,0-4.793-1.323-4.793-4.885v-11.391c0-0.388,0.388-0.548,0.753-0.548
			c0.388,0,0.753,0.16,0.753,0.548v11.391c0,2.374,1.233,3.492,3.287,3.492c2.055,0,3.287-1.118,3.287-3.492V126.596z"/>
		<path fill="#FFFFFF" d="M73.735,126.596c0-0.297,0.229-0.525,0.571-0.548h4.041c2.67,0,4.931,1.072,4.931,4.497
			c0,2.83-1.575,4.063-3.562,4.405l3.516,6.757c0.068,0.092,0.091,0.206,0.091,0.297c0,0.388-0.434,0.776-0.868,0.776
			c-0.365,0-0.616-0.434-0.799-0.799l-3.515-6.849h-2.899v7.008c0,0.389-0.388,0.594-0.753,0.594c-0.388,0-0.753-0.205-0.753-0.594
			V126.596z M75.242,127.44v6.392h3.104c2.031,0,3.424-0.913,3.424-3.219c0-2.283-1.393-3.173-3.424-3.173H75.242z"/>
		<path fill="#FFFFFF" d="M85.628,137.986v-7.076c0-3.538,2.077-4.862,4.748-4.862s4.748,1.324,4.748,4.862v7.076
			c0,3.562-2.077,4.885-4.748,4.885S85.628,141.548,85.628,137.986z M93.618,130.91c0-2.374-1.209-3.47-3.241-3.47
			s-3.241,1.096-3.241,3.47v7.076c0,2.396,1.209,3.492,3.241,3.492s3.241-1.096,3.241-3.492V130.91z"/>
	</g>
</g>
</svg>
