<?xml version="1.0" encoding="utf-8"?>
<!-- Generator: Adobe Illustrator 16.0.0, SVG Export Plug-In . SVG Version: 6.00 Build 0)  -->
<!DOCTYPE svg PUBLIC "-//W3C//DTD SVG 1.1//EN" "http://www.w3.org/Graphics/SVG/1.1/DTD/svg11.dtd">
<svg version="1.1" id="Capa_1" xmlns="http://www.w3.org/2000/svg" xmlns:xlink="http://www.w3.org/1999/xlink" x="0px" y="0px"
	 width="143.211px" height="161.983px" viewBox="0 0 143.211 161.983" enable-background="new 0 0 143.211 161.983"
	 xml:space="preserve">
<rect x="-0.18" y="0.226" fill="#645E53" width="143.028" height="161.758"/>
<g>
	<g>
		<path fill="#FFFFFF" d="M112,54.278c0,0.398-0.323,0.722-0.723,0.722H29.722C29.323,55,29,54.677,29,54.278V29.722
			C29,29.323,29.323,29,29.722,29h81.555c0.399,0,0.723,0.323,0.723,0.722V54.278z"/>
		<path opacity="0.1" fill="#FFFFFF" d="M71,29h41.652c0.398,0,0.348,0.575,0.348,0.975v24.558c0,0.398,0.051,0.468-0.348,0.468H71"
			/>
	</g>
	<rect x="21" y="27" fill="#FFFFFF" width="99" height="2"/>
	<g>
		<polygon fill="#C1CBCB" points="30.312,54.415 24.191,67.34 21.322,72.601 121.766,71.645 118.896,66.384 112.652,54.054 		"/>
		<polygon fill="#CBD0D1" points="29.453,54.121 27.136,61 116.314,61 113.139,54.335 		"/>
		<path fill="#C1CBCB" d="M66,52.667C66,55.061,64.06,57,61.666,57H39.334C36.94,57,35,55.061,35,52.667v-2.334
			C35,47.939,36.94,46,39.334,46h22.332C64.06,46,66,47.939,66,50.333V52.667z"/>
		<path fill="#C1CBCB" d="M107,52.667c0,2.394-1.94,4.333-4.334,4.333H80.334C77.94,57,76,55.061,76,52.667v-2.334
			C76,47.939,77.94,46,80.334,46h22.332c2.394,0,4.334,1.939,4.334,4.333V52.667z"/>
	</g>
	<path fill="#FFFFFF" d="M121,89.317c0,0.27,0.657,0.683,0.183,0.683H23.227C22.751,90,22,89.587,22,89.317V72.601
		C22,72.33,22.751,71,23.227,71h97.956c0.475,0-0.183,1.33-0.183,1.601V89.317z"/>
	<path fill="#FFFFFF" d="M71,71h50.183c0.475,0-0.183,1.16-0.183,1.43v16.646c0,0.27,0.657,0.924,0.183,0.924H71"/>
	<rect x="21" y="67" fill="#FFFFFF" width="3" height="28"/>
	<rect x="120" y="66" fill="#FFFFFF" width="2" height="29"/>
</g>
<g>
	<g>
		<path fill="#FFFFFF" d="M18.11,127.596c0-0.388,0.365-0.548,0.753-0.548c0.365,0,0.753,0.16,0.753,0.548v15.545
			c0,0.389-0.388,0.594-0.753,0.594c-0.388,0-0.753-0.205-0.753-0.594V127.596z"/>
		<path fill="#FFFFFF" d="M30.938,142.867l-6.346-12.35v12.623c0,0.389-0.388,0.594-0.753,0.594c-0.388,0-0.753-0.205-0.753-0.594
			v-15.522c0-0.41,0.365-0.57,0.753-0.57c0.548,0,0.89,0.479,1.187,1.05l6.163,12.145v-12.646c0-0.388,0.365-0.548,0.753-0.548
			c0.365,0,0.753,0.16,0.753,0.548v15.545c0,0.389-0.388,0.594-0.753,0.594C31.509,143.734,31.167,143.323,30.938,142.867z"/>
		<path fill="#FFFFFF" d="M44.499,127.048c0.388,0,0.57,0.342,0.57,0.685c0,0.365-0.183,0.73-0.57,0.73h-3.813v14.678
			c0,0.389-0.388,0.594-0.753,0.594c-0.388,0-0.753-0.205-0.753-0.594v-14.678h-3.835c-0.365,0-0.571-0.343-0.571-0.708
			c0-0.342,0.183-0.707,0.571-0.707H44.499z"/>
		<path fill="#FFFFFF" d="M48.653,134.718h3.584c0.365,0,0.571,0.319,0.571,0.685c0,0.297-0.16,0.616-0.571,0.616h-3.584v6.323
			h7.305c0.365,0,0.571,0.343,0.571,0.708c0,0.319-0.16,0.685-0.571,0.685h-8.126c-0.343,0-0.685-0.205-0.685-0.594v-15.522
			c0-0.388,0.342-0.57,0.685-0.57h8.126c0.411,0,0.571,0.342,0.571,0.662c0,0.388-0.206,0.73-0.571,0.73h-7.305V134.718z"/>
		<path fill="#FFFFFF" d="M58.744,127.596c0-0.297,0.228-0.525,0.571-0.548h4.04c2.671,0,4.931,1.072,4.931,4.497
			c0,2.83-1.575,4.063-3.561,4.405l3.515,6.757c0.068,0.092,0.091,0.206,0.091,0.297c0,0.388-0.434,0.776-0.867,0.776
			c-0.365,0-0.617-0.434-0.799-0.799l-3.515-6.849H60.25v7.008c0,0.389-0.388,0.594-0.753,0.594c-0.388,0-0.753-0.205-0.753-0.594
			V127.596z M60.25,128.44v6.392h3.104c2.032,0,3.424-0.913,3.424-3.219c0-2.283-1.393-3.173-3.424-3.173H60.25z"/>
		<path fill="#FFFFFF" d="M77.303,137.479c-0.183,0.343-0.411,0.479-0.616,0.479c-0.206,0-0.411-0.137-0.594-0.479l-3.767-7.236
			v12.897c0,0.389-0.388,0.594-0.753,0.594c-0.388,0-0.753-0.205-0.753-0.594v-15.362c0-0.548,0.365-0.73,0.753-0.73
			c0.548,0,0.913,0.479,1.21,1.05l3.926,7.579l3.927-7.579c0.296-0.57,0.662-1.05,1.209-1.05c0.411,0,0.753,0.183,0.753,0.73v15.362
			c0,0.389-0.365,0.594-0.753,0.594c-0.365,0-0.753-0.205-0.753-0.594v-12.829L77.303,137.479z"/>
		<path fill="#FFFFFF" d="M87.575,134.718h3.584c0.365,0,0.571,0.319,0.571,0.685c0,0.297-0.16,0.616-0.571,0.616h-3.584v6.323
			h7.305c0.365,0,0.571,0.343,0.571,0.708c0,0.319-0.16,0.685-0.571,0.685h-8.126c-0.343,0-0.685-0.205-0.685-0.594v-15.522
			c0-0.388,0.342-0.57,0.685-0.57h8.126c0.411,0,0.571,0.342,0.571,0.662c0,0.388-0.206,0.73-0.571,0.73h-7.305V134.718z"/>
		<path fill="#FFFFFF" d="M102.391,127.048c2.671,0,4.771,1.324,4.771,4.862v6.939c0,3.561-2.1,4.885-4.771,4.885h-4.04
			c-0.411,0-0.685-0.274-0.685-0.57v-15.568c0-0.297,0.274-0.548,0.685-0.548H102.391z M99.172,128.44v13.901h3.219
			c2.032,0,3.265-1.118,3.265-3.492v-6.939c0-2.374-1.233-3.47-3.265-3.47H99.172z"/>
		<path fill="#FFFFFF" d="M110.45,127.596c0-0.388,0.365-0.548,0.753-0.548c0.365,0,0.753,0.16,0.753,0.548v15.545
			c0,0.389-0.388,0.594-0.753,0.594c-0.388,0-0.753-0.205-0.753-0.594V127.596z"/>
		<path fill="#FFFFFF" d="M115.243,138.986v-7.076c0-3.538,2.077-4.862,4.748-4.862s4.748,1.324,4.748,4.862v7.076
			c0,3.562-2.077,4.885-4.748,4.885S115.243,142.548,115.243,138.986z M123.232,131.91c0-2.374-1.209-3.47-3.241-3.47
			s-3.241,1.096-3.241,3.47v7.076c0,2.396,1.209,3.492,3.241,3.492s3.241-1.096,3.241-3.492V131.91z"/>
	</g>
</g>
</svg>
