<?xml version="1.0" encoding="utf-8"?>
<!-- Generator: Adobe Illustrator 16.0.0, SVG Export Plug-In . SVG Version: 6.00 Build 0)  -->
<!DOCTYPE svg PUBLIC "-//W3C//DTD SVG 1.1//EN" "http://www.w3.org/Graphics/SVG/1.1/DTD/svg11.dtd">
<svg version="1.1" id="Capa_1" xmlns="http://www.w3.org/2000/svg" xmlns:xlink="http://www.w3.org/1999/xlink" x="0px" y="0px"
	 width="143.211px" height="161.983px" viewBox="0 0 143.211 161.983" enable-background="new 0 0 143.211 161.983"
	 xml:space="preserve">
<rect x="0.183" y="0.226" fill="#645E53" width="143.028" height="161.758"/>
<g>
	<g>
		<path fill="#FFFFFF" d="M112,53.278c0,0.398-0.323,0.722-0.723,0.722H29.722C29.323,54,29,53.677,29,53.278V28.722
			C29,28.323,29.323,28,29.722,28h81.555c0.399,0,0.723,0.323,0.723,0.722V53.278z"/>
		<path opacity="0.1" fill="#FFFFFF" d="M71,28h41.754c0.398,0,0.246,0.575,0.246,0.975v24.558c0,0.398,0.152,0.468-0.246,0.468H71"
			/>
	</g>
	<rect x="21" y="26" fill="#FFFFFF" width="99" height="2"/>
	<g>
		<polygon fill="#C1CBCB" points="30.413,53.415 24.293,66.34 21.423,71.601 121.867,70.645 118.998,65.384 112.754,53.054 		"/>
		<polygon fill="#CBD0D1" points="29.554,53.121 27.238,60 116.416,60 113.24,53.335 		"/>
		<path fill="#C1CBCB" d="M66,51.667C66,54.061,64.06,56,61.666,56H39.334C36.94,56,35,54.061,35,51.667v-2.334
			C35,46.939,36.94,45,39.334,45h22.332C64.06,45,66,46.939,66,49.333V51.667z"/>
		<path fill="#C1CBCB" d="M107,51.667c0,2.394-1.94,4.333-4.334,4.333H80.334C77.94,56,76,54.061,76,51.667v-2.334
			C76,46.939,77.94,45,80.334,45h22.332c2.394,0,4.334,1.939,4.334,4.333V51.667z"/>
	</g>
	<path fill="#FFFFFF" d="M121,88.317c0,0.27,0.759,0.683,0.284,0.683H23.328C22.853,89,22,88.587,22,88.317V71.601
		C22,71.33,22.853,70,23.328,70h97.956c0.475,0-0.284,1.33-0.284,1.601V88.317z"/>
	<path fill="#FFFFFF" d="M71,70h50.284c0.475,0-0.284,1.16-0.284,1.43v16.646c0,0.27,0.759,0.924,0.284,0.924H71"/>
	<rect x="21" y="66" fill="#FFFFFF" width="3" height="28"/>
	<rect x="120" y="65" fill="#FFFFFF" width="2" height="29"/>
</g>
<g>
	<g>
		<path fill="#FFFFFF" d="M32.295,137.479c-0.183,0.343-0.411,0.479-0.616,0.479c-0.206,0-0.411-0.137-0.594-0.479l-3.767-7.236
			v12.897c0,0.389-0.388,0.594-0.753,0.594c-0.388,0-0.753-0.205-0.753-0.594v-15.362c0-0.548,0.365-0.73,0.753-0.73
			c0.548,0,0.913,0.479,1.21,1.05l3.926,7.579l3.927-7.579c0.296-0.57,0.662-1.05,1.209-1.05c0.411,0,0.753,0.183,0.753,0.73v15.362
			c0,0.389-0.365,0.594-0.753,0.594c-0.365,0-0.753-0.205-0.753-0.594v-12.829L32.295,137.479z"/>
		<path fill="#FFFFFF" d="M49.074,127.596c0-0.388,0.365-0.548,0.753-0.548c0.365,0,0.753,0.16,0.753,0.548v11.391
			c0,3.562-2.123,4.885-4.794,4.885c-2.693,0-4.793-1.323-4.793-4.885v-11.391c0-0.388,0.388-0.548,0.753-0.548
			c0.388,0,0.753,0.16,0.753,0.548v11.391c0,2.374,1.233,3.492,3.287,3.492c2.055,0,3.287-1.118,3.287-3.492V127.596z"/>
		<path fill="#FFFFFF" d="M57.543,137.343c0-0.068,0-0.114-0.023-0.183l-4.725-9.063c-0.091-0.159-0.114-0.319-0.114-0.411
			c0-0.388,0.457-0.639,0.822-0.639c0.251,0,0.434,0.137,0.594,0.456l4.2,8.332l4.223-8.332c0.16-0.319,0.365-0.456,0.593-0.456
			c0.365,0,0.822,0.251,0.822,0.639c0,0.092-0.023,0.252-0.091,0.411l-4.748,9.063c-0.023,0.068-0.045,0.114-0.045,0.183v5.798
			c0,0.389-0.365,0.594-0.753,0.594c-0.365,0-0.753-0.205-0.753-0.594V137.343z"/>
		<path fill="#FFFFFF" d="M75.395,127.048c2.671,0,4.771,1.324,4.771,4.862v6.939c0,3.561-2.1,4.885-4.771,4.885h-4.04
			c-0.411,0-0.685-0.274-0.685-0.57v-15.568c0-0.297,0.274-0.548,0.685-0.548H75.395z M72.176,128.44v13.901h3.219
			c2.032,0,3.265-1.118,3.265-3.492v-6.939c0-2.374-1.233-3.47-3.265-3.47H72.176z"/>
		<path fill="#FFFFFF" d="M91.466,127.596c0-0.388,0.365-0.548,0.753-0.548c0.365,0,0.753,0.16,0.753,0.548v11.391
			c0,3.562-2.123,4.885-4.794,4.885c-2.693,0-4.793-1.323-4.793-4.885v-11.391c0-0.388,0.388-0.548,0.753-0.548
			c0.388,0,0.753,0.16,0.753,0.548v11.391c0,2.374,1.233,3.492,3.287,3.492c2.055,0,3.287-1.118,3.287-3.492V127.596z"/>
		<path fill="#FFFFFF" d="M96.375,127.596c0-0.297,0.229-0.525,0.571-0.548h4.041c2.67,0,4.931,1.072,4.931,4.497
			c0,2.83-1.575,4.063-3.562,4.405l3.516,6.757c0.068,0.092,0.091,0.206,0.091,0.297c0,0.388-0.434,0.776-0.868,0.776
			c-0.365,0-0.616-0.434-0.799-0.799l-3.515-6.849h-2.899v7.008c0,0.389-0.388,0.594-0.753,0.594c-0.388,0-0.753-0.205-0.753-0.594
			V127.596z M97.881,128.44v6.392h3.104c2.031,0,3.424-0.913,3.424-3.219c0-2.283-1.393-3.173-3.424-3.173H97.881z"/>
		<path fill="#FFFFFF" d="M108.268,138.986v-7.076c0-3.538,2.077-4.862,4.748-4.862s4.748,1.324,4.748,4.862v7.076
			c0,3.562-2.077,4.885-4.748,4.885S108.268,142.548,108.268,138.986z M116.257,131.91c0-2.374-1.21-3.47-3.242-3.47
			s-3.242,1.096-3.242,3.47v7.076c0,2.396,1.21,3.492,3.242,3.492s3.242-1.096,3.242-3.492V131.91z"/>
	</g>
</g>
</svg>
