<?xml version="1.0" encoding="utf-8"?>
<!-- Generator: Adobe Illustrator 16.0.0, SVG Export Plug-In . SVG Version: 6.00 Build 0)  -->
<!DOCTYPE svg PUBLIC "-//W3C//DTD SVG 1.1//EN" "http://www.w3.org/Graphics/SVG/1.1/DTD/svg11.dtd">
<svg version="1.1" id="Capa_1" xmlns="http://www.w3.org/2000/svg" xmlns:xlink="http://www.w3.org/1999/xlink" x="0px" y="0px"
	 width="142.902px" height="161.983px" viewBox="0 0 142.902 161.983" enable-background="new 0 0 142.902 161.983"
	 xml:space="preserve">
<rect x="-0.053" y="0.226" fill="#645E53" width="143.027" height="161.758"/>
<g>
	<g>
		<path fill="#FFFFFF" d="M26.106,137.697l-0.814,1.323c-0.122,0.183-0.265,0.244-0.387,0.244c-0.306,0-0.529-0.285-0.529-0.591
			c0-0.183,0.163-0.488,0.305-0.61l1.669-2.361c0.122-0.163,0.244-0.306,0.509-0.306c0.285,0,0.59,0.184,0.59,0.509v13.862
			c0,0.346-0.346,0.529-0.672,0.529c-0.346,0-0.672-0.184-0.672-0.529V137.697z"/>
		<path fill="#FFFFFF" d="M31.52,149.482c0,0.489-0.427,0.937-0.916,0.937c-0.549,0-0.936-0.447-0.936-0.937
			c0-0.529,0.387-0.956,0.936-0.956C31.093,148.526,31.52,148.953,31.52,149.482z"/>
		<path fill="#FFFFFF" d="M37.137,141.544c2.382,0,4.214,1.12,4.214,4.173v0.387c0,3.135-1.853,4.315-4.214,4.315
			c-2.707,0-4.234-1.608-4.234-3.46c0-0.489,0.265-0.672,0.651-0.672c0.489,0,0.692,0.224,0.692,0.569
			c0,1.486,1.262,2.321,2.87,2.321c1.812,0,2.89-0.978,2.89-3.074v-0.387c0-2.035-1.079-3.013-2.87-3.013h-2.829
			c-0.57,0-0.692-0.224-0.692-0.509c0-0.081,0.021-0.325,0.021-0.407l0.407-5.862c0.041-0.305,0.163-0.509,0.427-0.509h5.7
			c0.305,0,0.448,0.306,0.448,0.611c0,0.325-0.143,0.631-0.448,0.631h-4.926l-0.326,4.885H37.137z"/>
		<path fill="#FFFFFF" d="M43.161,146.063v-6.311c0-3.155,1.852-4.336,4.234-4.336c2.381,0,4.234,1.181,4.234,4.336v6.311
			c0,3.175-1.853,4.355-4.234,4.355C45.013,150.419,43.161,149.238,43.161,146.063z M50.285,139.753c0-2.117-1.079-3.094-2.89-3.094
			s-2.891,0.977-2.891,3.094v6.311c0,2.137,1.079,3.114,2.891,3.114s2.89-0.978,2.89-3.114V139.753z M48.148,142.929
			c0,0.406-0.326,0.753-0.732,0.753c-0.448,0-0.753-0.347-0.753-0.753c0-0.428,0.305-0.733,0.753-0.733
			C47.822,142.195,48.148,142.501,48.148,142.929z"/>
		<path fill="#FFFFFF" d="M57.469,149.503l2.707-4.071l-2.646-3.948c-0.041-0.082-0.102-0.163-0.102-0.265
			c0-0.326,0.468-0.672,0.814-0.672c0.122,0,0.305,0.041,0.407,0.203l2.402,3.726l2.422-3.726c0.082-0.143,0.265-0.203,0.387-0.203
			c0.326,0,0.814,0.325,0.814,0.672c0,0.081-0.041,0.162-0.102,0.265l-2.667,3.948l2.728,4.071c0.041,0.062,0.082,0.163,0.082,0.285
			c0,0.306-0.428,0.651-0.794,0.651c-0.143,0-0.305-0.062-0.387-0.204l-2.483-3.806l-2.463,3.806
			c-0.102,0.143-0.265,0.204-0.428,0.204c-0.305,0-0.773-0.326-0.773-0.651C57.388,149.687,57.429,149.584,57.469,149.503z"/>
		<path fill="#FFFFFF" d="M71.289,137.697l-0.814,1.323c-0.122,0.183-0.265,0.244-0.387,0.244c-0.306,0-0.529-0.285-0.529-0.591
			c0-0.183,0.163-0.488,0.305-0.61l1.669-2.361c0.122-0.163,0.244-0.306,0.509-0.306c0.284,0,0.591,0.184,0.591,0.509v13.862
			c0,0.346-0.347,0.529-0.672,0.529c-0.346,0-0.672-0.184-0.672-0.529V137.697z"/>
		<path fill="#FFFFFF" d="M76.702,149.482c0,0.489-0.427,0.937-0.916,0.937c-0.55,0-0.937-0.447-0.937-0.937
			c0-0.529,0.387-0.956,0.937-0.956C76.275,148.526,76.702,148.953,76.702,149.482z"/>
		<path fill="#FFFFFF" d="M78.391,140.241v-0.488c0-3.155,1.832-4.336,4.214-4.336s4.255,1.181,4.255,4.336v6.311
			c0,3.175-1.873,4.355-4.275,4.355c-2.748,0-4.193-1.71-4.193-3.48c0-0.448,0.244-0.631,0.631-0.631
			c0.347,0,0.692,0.162,0.692,0.569c0,1.404,1.303,2.301,2.891,2.301c1.832,0,2.911-0.978,2.911-3.114v-3.115
			c-0.692,0.957-1.813,1.364-3.074,1.364C80.182,144.313,78.391,143.355,78.391,140.241z M85.516,139.712
			c0-2.137-1.1-3.114-2.911-3.114s-2.87,0.978-2.87,3.114v0.488c0,2.138,1.059,2.952,2.891,2.952c1.75,0,2.891-0.753,2.891-2.769
			V139.712z"/>
		<path fill="#FFFFFF" d="M89.219,146.063v-6.311c0-3.155,1.852-4.336,4.234-4.336c2.381,0,4.233,1.181,4.233,4.336v6.311
			c0,3.175-1.853,4.355-4.233,4.355C91.07,150.419,89.219,149.238,89.219,146.063z M96.343,139.753c0-2.117-1.079-3.094-2.89-3.094
			c-1.813,0-2.891,0.977-2.891,3.094v6.311c0,2.137,1.078,3.114,2.891,3.114c1.811,0,2.89-0.978,2.89-3.114V139.753z
			 M94.205,142.929c0,0.406-0.325,0.753-0.732,0.753c-0.447,0-0.753-0.347-0.753-0.753c0-0.428,0.306-0.733,0.753-0.733
			C93.88,142.195,94.205,142.501,94.205,142.929z"/>
		<path fill="#FFFFFF" d="M110.265,144.292c0-1.466-1.059-2.524-2.321-2.524c-1.18,0-2.401,0.937-2.401,2.586v5.414
			c0,0.265-0.306,0.529-0.672,0.529s-0.651-0.265-0.651-0.529v-8.61c0-0.285,0.285-0.488,0.651-0.488
			c0.347,0,0.632,0.203,0.632,0.488v0.937c0.447-0.794,1.363-1.547,2.707-1.547c1.343,0,2.401,0.834,2.891,2.035
			c0.712-1.384,1.912-2.035,3.094-2.035c1.75,0,3.42,1.384,3.42,3.807v5.414c0,0.265-0.285,0.529-0.672,0.529
			c-0.347,0-0.652-0.265-0.652-0.529v-5.414c0-1.71-1.201-2.586-2.32-2.586c-1.18,0-2.381,0.978-2.381,2.504v5.517
			c0,0.366-0.347,0.509-0.672,0.509c-0.306,0-0.651-0.143-0.651-0.509V144.292z"/>
	</g>
</g>
<g>
	<g>
		<path fill="#FFFFFF" d="M112,53.278c0,0.398-0.323,0.722-0.723,0.722H29.722C29.323,54,29,53.677,29,53.278V28.722
			C29,28.323,29.323,28,29.722,28h81.555c0.399,0,0.723,0.323,0.723,0.722V53.278z"/>
		<path opacity="0.1" fill="#FFFFFF" d="M71,28h41.509c0.399,0,0.491,0.575,0.491,0.975v24.558c0,0.398-0.092,0.468-0.491,0.468H71"
			/>
	</g>
	<rect x="21" y="26" fill="#FFFFFF" width="99" height="2"/>
	<g>
		<polygon fill="#C1CBCB" points="30.168,53.415 24.048,66.34 21.178,71.601 121.623,70.645 118.752,65.384 112.509,53.054 		"/>
		<polygon fill="#CBD0D1" points="29.309,53.121 26.993,60 116.171,60 112.996,53.335 		"/>
		<path fill="#C1CBCB" d="M66,51.667C66,54.06,64.06,56,61.666,56H39.334C36.94,56,35,54.06,35,51.667v-2.334
			C35,46.94,36.94,45,39.334,45h22.332C64.06,45,66,46.94,66,49.333V51.667z"/>
		<path fill="#C1CBCB" d="M107,51.667c0,2.393-1.94,4.333-4.334,4.333H80.334C77.94,56,76,54.06,76,51.667v-2.334
			C76,46.94,77.94,45,80.334,45h22.332c2.394,0,4.334,1.94,4.334,4.333V51.667z"/>
	</g>
	<path fill="#FFFFFF" d="M121,88.317c0,0.27,0.514,0.683,0.039,0.683H23.083C22.608,89,22,88.587,22,88.317V71.601
		C22,71.33,22.608,70,23.083,70h97.956c0.475,0-0.039,1.33-0.039,1.601V88.317z"/>
	<path fill="#FFFFFF" d="M71,70h50.039c0.475,0-0.039,1.16-0.039,1.43v16.646c0,0.27,0.514,0.924,0.039,0.924H71"/>
	<rect x="21" y="66" fill="#FFFFFF" width="3" height="28"/>
	<rect x="120" y="65" fill="#FFFFFF" width="2" height="29"/>
</g>
</svg>
