<?xml version="1.0" encoding="utf-8"?>
<!-- Generator: Adobe Illustrator 16.0.0, SVG Export Plug-In . SVG Version: 6.00 Build 0)  -->
<!DOCTYPE svg PUBLIC "-//W3C//DTD SVG 1.1//EN" "http://www.w3.org/Graphics/SVG/1.1/DTD/svg11.dtd">
<svg version="1.1" id="Capa_1" xmlns="http://www.w3.org/2000/svg" xmlns:xlink="http://www.w3.org/1999/xlink" x="0px" y="0px"
	 width="142.902px" height="161.983px" viewBox="0 0 142.902 161.983" enable-background="new 0 0 142.902 161.983"
	 xml:space="preserve">
<rect x="0.021" y="0.226" fill="#645E53" width="143.028" height="161.758"/>
<g>
	<g>
		<path fill="#FFFFFF" d="M30.179,115.917c2.341,0,4.051,1.71,4.051,3.908c0,4.377-6.839,5.761-6.839,8.468v1.263h6.493
			c0.265,0,0.489,0.284,0.489,0.61c0,0.325-0.224,0.631-0.489,0.631h-7.246c-0.265,0-0.631-0.203-0.631-0.529v-1.975
			c0-3.379,6.88-4.864,6.88-8.427c0-1.282-0.875-2.687-2.748-2.687c-1.404,0-2.463,0.793-2.463,2.401c0,0.265-0.244,0.55-0.712,0.55
			c-0.407,0-0.611-0.224-0.611-0.835C26.352,117.342,28.021,115.917,30.179,115.917z"/>
		<path fill="#FFFFFF" d="M40.721,117.321l-0.427,0.51c-0.082,0.081-0.163,0.102-0.244,0.102c-0.204,0-0.367-0.204-0.367-0.407
			c0-0.143,0.102-0.326,0.204-0.387l1.12-1.12c0.061-0.061,0.163-0.122,0.285-0.122c0.224,0,0.448,0.143,0.448,0.367v6.961
			c0,0.244-0.244,0.366-0.489,0.366c-0.285,0-0.529-0.122-0.529-0.366V117.321z M48.965,115.693c0,0.102-0.021,0.184-0.061,0.265
			l-7.715,15.083c-0.102,0.204-0.285,0.306-0.488,0.306c-0.285,0-0.529-0.244-0.529-0.509c0-0.082,0.021-0.163,0.061-0.244
			l7.755-15.206c0.082-0.183,0.244-0.244,0.407-0.244C48.66,115.144,48.965,115.367,48.965,115.693z M48.517,123.123
			c1.343,0,2.402,0.854,2.402,2.076c0,2.239-3.807,2.972-3.807,4.193v0.488h3.521c0.204,0,0.367,0.203,0.367,0.448
			c0,0.244-0.163,0.468-0.367,0.468h-4.112c-0.204,0-0.468-0.143-0.468-0.346v-1.019c0-1.709,3.847-2.544,3.847-4.192
			c0-0.55-0.427-1.16-1.404-1.16c-0.712,0-1.262,0.325-1.262,1.078c0,0.184-0.204,0.387-0.529,0.387
			c-0.285,0-0.489-0.143-0.489-0.569C46.217,123.855,47.255,123.123,48.517,123.123z"/>
		<path fill="#FFFFFF" d="M57.268,116.405c0-0.264,0.224-0.468,0.57-0.488h3.746c2.361,0,4.193,1.16,4.193,4.315v0.204
			c0,3.154-1.853,4.335-4.234,4.335h-2.931v5.496c0,0.346-0.346,0.529-0.672,0.529c-0.346,0-0.672-0.184-0.672-0.529V116.405z
			 M58.611,117.159v6.452h2.931c1.812,0,2.89-0.997,2.89-3.114v-0.244c0-2.117-1.079-3.094-2.89-3.094H58.611z"/>
		<path fill="#FFFFFF" d="M68.604,130.797c-0.305,0-0.611-0.184-0.611-0.529v-13.862c0-0.346,0.326-0.488,0.672-0.488
			c0.326,0,0.672,0.143,0.672,0.488v13.15h5.802c0.305,0,0.447,0.305,0.447,0.61c0,0.325-0.143,0.631-0.447,0.631H68.604z"/>
		<path fill="#FFFFFF" d="M76.297,130.227c0-0.04,0-0.102,0.021-0.143l4.255-13.82c0.102-0.326,0.447-0.469,0.793-0.469
			c0.367,0,0.713,0.163,0.814,0.469l4.234,13.82c0,0.041,0.02,0.082,0.02,0.123c0,0.325-0.447,0.59-0.814,0.59
			c-0.223,0-0.427-0.102-0.508-0.346l-0.938-3.135h-5.638l-0.937,3.135c-0.061,0.244-0.285,0.346-0.529,0.346
			C76.725,130.797,76.297,130.573,76.297,130.227z M83.828,126.156l-2.463-8.203l-2.482,8.203H83.828z"/>
		<path fill="#FFFFFF" d="M89.079,129.556h6.656c0.346,0,0.509,0.325,0.509,0.61c0,0.306-0.163,0.631-0.509,0.631h-7.897
			c-0.306,0-0.488-0.203-0.488-0.468c0-0.143,0.04-0.306,0.121-0.469l6.779-12.701h-6.148c-0.325,0-0.508-0.306-0.508-0.631
			c0-0.306,0.162-0.611,0.508-0.611h7.389c0.347,0,0.51,0.184,0.51,0.428c0,0.163-0.061,0.346-0.163,0.529L89.079,129.556z"/>
		<path fill="#FFFFFF" d="M97.139,130.227c0-0.04,0-0.102,0.02-0.143l4.255-13.82c0.102-0.326,0.448-0.469,0.794-0.469
			c0.366,0,0.713,0.163,0.814,0.469l4.233,13.82c0,0.041,0.021,0.082,0.021,0.123c0,0.325-0.447,0.59-0.814,0.59
			c-0.224,0-0.428-0.102-0.509-0.346l-0.937-3.135h-5.639l-0.936,3.135c-0.062,0.244-0.285,0.346-0.529,0.346
			C97.566,130.797,97.139,130.573,97.139,130.227z M104.67,126.156l-2.463-8.203l-2.483,8.203H104.67z"/>
		<path fill="#FFFFFF" d="M115.559,126.868c0-4.519-6.758-2.32-6.758-7.287c0-2.972,2.422-3.704,4.314-3.704
			c1.527,0,3.42,0.509,3.42,1.241c0,0.265-0.224,0.753-0.59,0.753c-0.387,0-1.059-0.773-2.85-0.773c-1.507,0-2.951,0.55-2.951,2.361
			c0,3.786,6.758,1.648,6.758,7.287c0,2.891-1.792,4.193-4.295,4.193c-2.605,0-4.174-1.466-4.174-2.198
			c0-0.326,0.306-0.753,0.611-0.753c0.529,0,0.936,1.689,3.48,1.689C114.418,129.678,115.559,128.721,115.559,126.868z"/>
	</g>
</g>
<g>
	<g>
		<path fill="#FFFFFF" d="M25.365,138.697l-0.814,1.323c-0.122,0.183-0.265,0.244-0.387,0.244c-0.306,0-0.529-0.285-0.529-0.591
			c0-0.183,0.163-0.488,0.305-0.61l1.669-2.361c0.122-0.163,0.244-0.306,0.509-0.306c0.285,0,0.59,0.184,0.59,0.509v13.862
			c0,0.346-0.346,0.529-0.672,0.529c-0.346,0-0.672-0.184-0.672-0.529V138.697z"/>
		<path fill="#FFFFFF" d="M30.779,150.482c0,0.489-0.427,0.937-0.916,0.937c-0.549,0-0.936-0.447-0.936-0.937
			c0-0.529,0.387-0.956,0.936-0.956C30.352,149.526,30.779,149.953,30.779,150.482z"/>
		<path fill="#FFFFFF" d="M41.038,146.574v0.489c0,3.175-1.853,4.355-4.234,4.355c-2.382,0-4.234-1.181-4.234-4.355v-6.311
			c0-3.155,1.852-4.336,4.274-4.336c2.728,0,4.193,1.71,4.193,3.48c0,0.448-0.244,0.611-0.631,0.611
			c-0.367,0-0.712-0.143-0.712-0.55c0-1.404-1.303-2.3-2.891-2.3c-1.812,0-2.891,0.977-2.891,3.094v3.114
			c0.692-0.937,1.812-1.344,3.074-1.344C39.246,142.523,41.038,143.48,41.038,146.574z M33.913,147.124
			c0,2.117,1.079,3.094,2.891,3.094s2.891-0.977,2.891-3.094v-0.488c0-2.138-1.079-2.952-2.891-2.952
			c-1.75,0-2.891,0.754-2.891,2.769V147.124z"/>
		<path fill="#FFFFFF" d="M43.092,147.063v-6.311c0-3.155,1.852-4.336,4.234-4.336c2.381,0,4.234,1.181,4.234,4.336v6.311
			c0,3.175-1.853,4.355-4.234,4.355C44.944,151.419,43.092,150.238,43.092,147.063z M50.216,140.753c0-2.117-1.079-3.094-2.89-3.094
			s-2.891,0.977-2.891,3.094v6.311c0,2.137,1.079,3.114,2.891,3.114s2.89-0.978,2.89-3.114V140.753z M48.079,143.929
			c0,0.406-0.326,0.753-0.732,0.753c-0.448,0-0.753-0.347-0.753-0.753c0-0.428,0.305-0.733,0.753-0.733
			C47.753,143.195,48.079,143.501,48.079,143.929z"/>
		<path fill="#FFFFFF" d="M57.4,150.503l2.707-4.071l-2.646-3.948c-0.041-0.082-0.102-0.163-0.102-0.265
			c0-0.326,0.468-0.672,0.814-0.672c0.122,0,0.305,0.041,0.407,0.203l2.402,3.726l2.422-3.726c0.082-0.143,0.265-0.203,0.387-0.203
			c0.326,0,0.814,0.325,0.814,0.672c0,0.081-0.041,0.162-0.102,0.265l-2.667,3.948l2.728,4.071c0.041,0.062,0.082,0.163,0.082,0.285
			c0,0.306-0.428,0.651-0.794,0.651c-0.143,0-0.305-0.062-0.387-0.204l-2.483-3.806l-2.463,3.806
			c-0.102,0.143-0.265,0.204-0.428,0.204c-0.305,0-0.773-0.326-0.773-0.651C57.318,150.687,57.359,150.584,57.4,150.503z"/>
		<path fill="#FFFFFF" d="M74.09,136.417c2.34,0,4.051,1.71,4.051,3.908c0,4.377-6.84,5.761-6.84,8.468v1.263h6.493
			c0.265,0,0.489,0.284,0.489,0.61c0,0.325-0.225,0.631-0.489,0.631h-7.246c-0.265,0-0.631-0.203-0.631-0.529v-1.975
			c0-3.379,6.88-4.864,6.88-8.427c0-1.282-0.875-2.687-2.748-2.687c-1.404,0-2.463,0.793-2.463,2.401c0,0.265-0.244,0.55-0.712,0.55
			c-0.407,0-0.611-0.224-0.611-0.835C70.263,137.842,71.932,136.417,74.09,136.417z"/>
		<path fill="#FFFFFF" d="M81.559,150.482c0,0.489-0.428,0.937-0.916,0.937c-0.549,0-0.937-0.447-0.937-0.937
			c0-0.529,0.388-0.956,0.937-0.956C81.131,149.526,81.559,149.953,81.559,150.482z"/>
		<path fill="#FFFFFF" d="M83.35,147.063v-6.311c0-3.155,1.852-4.336,4.233-4.336s4.233,1.181,4.233,4.336v6.311
			c0,3.175-1.852,4.355-4.233,4.355S83.35,150.238,83.35,147.063z M90.474,140.753c0-2.117-1.079-3.094-2.891-3.094
			s-2.891,0.977-2.891,3.094v6.311c0,2.137,1.079,3.114,2.891,3.114s2.891-0.978,2.891-3.114V140.753z M88.336,143.929
			c0,0.406-0.326,0.753-0.732,0.753c-0.448,0-0.754-0.347-0.754-0.753c0-0.428,0.306-0.733,0.754-0.733
			C88.01,143.195,88.336,143.501,88.336,143.929z"/>
		<path fill="#FFFFFF" d="M94.177,147.063v-6.311c0-3.155,1.853-4.336,4.233-4.336c2.382,0,4.234,1.181,4.234,4.336v6.311
			c0,3.175-1.853,4.355-4.234,4.355C96.029,151.419,94.177,150.238,94.177,147.063z M101.301,140.753
			c0-2.117-1.078-3.094-2.891-3.094c-1.811,0-2.891,0.977-2.891,3.094v6.311c0,2.137,1.08,3.114,2.891,3.114
			c1.813,0,2.891-0.978,2.891-3.114V140.753z M99.164,143.929c0,0.406-0.326,0.753-0.732,0.753c-0.449,0-0.754-0.347-0.754-0.753
			c0-0.428,0.305-0.733,0.754-0.733C98.838,143.195,99.164,143.501,99.164,143.929z"/>
		<path fill="#FFFFFF" d="M115.223,145.292c0-1.466-1.059-2.524-2.32-2.524c-1.182,0-2.402,0.937-2.402,2.586v5.414
			c0,0.265-0.305,0.529-0.672,0.529c-0.366,0-0.651-0.265-0.651-0.529v-8.61c0-0.285,0.285-0.488,0.651-0.488
			c0.346,0,0.631,0.203,0.631,0.488v0.937c0.448-0.794,1.364-1.547,2.707-1.547c1.344,0,2.402,0.834,2.891,2.035
			c0.713-1.384,1.914-2.035,3.094-2.035c1.751,0,3.42,1.384,3.42,3.807v5.414c0,0.265-0.285,0.529-0.672,0.529
			c-0.346,0-0.65-0.265-0.65-0.529v-5.414c0-1.71-1.201-2.586-2.32-2.586c-1.182,0-2.383,0.978-2.383,2.504v5.517
			c0,0.366-0.346,0.509-0.671,0.509c-0.306,0-0.651-0.143-0.651-0.509V145.292z"/>
	</g>
</g>
<g>
	<g>
		<path fill="#FFFFFF" d="M112,52.278c0,0.398-0.323,0.722-0.723,0.722H29.722C29.323,53,29,52.677,29,52.278V27.722
			C29,27.323,29.323,27,29.722,27h81.555c0.399,0,0.723,0.323,0.723,0.722V52.278z"/>
		<path opacity="0.1" fill="#FFFFFF" d="M71,27h41.311c0.398,0,0.689,0.575,0.689,0.975v24.558c0,0.398-0.291,0.468-0.689,0.468H71"
			/>
	</g>
	<rect x="21" y="25" fill="#FFFFFF" width="99" height="2"/>
	<g>
		<polygon fill="#C1CBCB" points="29.97,52.415 23.85,65.34 20.98,70.601 121.424,69.645 118.555,64.384 112.311,52.054 		"/>
		<polygon fill="#CBD0D1" points="29.111,52.121 26.794,59 115.973,59 112.797,52.335 		"/>
		<path fill="#C1CBCB" d="M66,50.667C66,53.06,64.06,55,61.666,55H39.334C36.94,55,35,53.06,35,50.667v-2.334
			C35,45.94,36.94,44,39.334,44h22.332C64.06,44,66,45.94,66,48.333V50.667z"/>
		<path fill="#C1CBCB" d="M107,50.667c0,2.393-1.94,4.333-4.334,4.333H80.334C77.94,55,76,53.06,76,50.667v-2.334
			C76,45.94,77.94,44,80.334,44h22.332c2.394,0,4.334,1.94,4.334,4.333V50.667z"/>
	</g>
	<path fill="#FFFFFF" d="M121,87.317c0,0.27,0.315,0.683-0.159,0.683H22.885C22.41,88,22,87.587,22,87.317V70.601
		C22,70.33,22.41,69,22.885,69h97.956c0.475,0,0.159,1.33,0.159,1.601V87.317z"/>
	<path fill="#FFFFFF" d="M71,69h49.841c0.475,0,0.159,1.16,0.159,1.43v16.646c0,0.27,0.315,0.924-0.159,0.924H71"/>
	<rect x="21" y="65" fill="#FFFFFF" width="3" height="28"/>
	<rect x="120" y="64" fill="#FFFFFF" width="2" height="29"/>
</g>
</svg>
