<?xml version="1.0" encoding="utf-8"?>
<!-- Generator: Adobe Illustrator 16.0.0, SVG Export Plug-In . SVG Version: 6.00 Build 0)  -->
<!DOCTYPE svg PUBLIC "-//W3C//DTD SVG 1.1//EN" "http://www.w3.org/Graphics/SVG/1.1/DTD/svg11.dtd">
<svg version="1.1" id="Capa_1" xmlns="http://www.w3.org/2000/svg" xmlns:xlink="http://www.w3.org/1999/xlink" x="0px" y="0px"
	 width="142.902px" height="161.982px" viewBox="0 0 142.902 161.982" enable-background="new 0 0 142.902 161.982"
	 xml:space="preserve">
<rect x="-0.228" y="0.226" fill="#645E53" width="143.028" height="161.758"/>
<g>
	<g>
		<path fill="#FFFFFF" d="M29.523,118.198l-0.814,1.323c-0.122,0.183-0.265,0.244-0.387,0.244c-0.306,0-0.529-0.285-0.529-0.591
			c0-0.183,0.163-0.488,0.305-0.61l1.669-2.361c0.122-0.163,0.244-0.306,0.509-0.306c0.285,0,0.59,0.184,0.59,0.509v13.862
			c0,0.346-0.346,0.529-0.672,0.529c-0.346,0-0.672-0.184-0.672-0.529V118.198z"/>
		<path fill="#FFFFFF" d="M38.01,117.322l-0.427,0.51c-0.082,0.081-0.163,0.102-0.244,0.102c-0.204,0-0.367-0.204-0.367-0.407
			c0-0.143,0.102-0.326,0.204-0.387l1.12-1.12c0.061-0.061,0.163-0.122,0.285-0.122c0.224,0,0.448,0.143,0.448,0.367v6.961
			c0,0.244-0.245,0.366-0.489,0.366c-0.285,0-0.529-0.122-0.529-0.366V117.322z M46.254,115.694c0,0.102-0.021,0.184-0.061,0.265
			l-7.715,15.083c-0.102,0.204-0.285,0.306-0.488,0.306c-0.285,0-0.529-0.244-0.529-0.509c0-0.082,0.02-0.163,0.061-0.244
			l7.755-15.206c0.082-0.183,0.244-0.244,0.407-0.244C45.948,115.144,46.254,115.367,46.254,115.694z M45.806,123.123
			c1.343,0,2.402,0.854,2.402,2.076c0,2.239-3.807,2.972-3.807,4.193v0.488h3.521c0.204,0,0.367,0.203,0.367,0.448
			c0,0.244-0.163,0.468-0.367,0.468h-4.112c-0.204,0-0.468-0.143-0.468-0.346v-1.019c0-1.709,3.847-2.544,3.847-4.192
			c0-0.55-0.427-1.16-1.404-1.16c-0.712,0-1.262,0.325-1.262,1.078c0,0.184-0.203,0.387-0.529,0.387
			c-0.285,0-0.488-0.143-0.488-0.569C43.506,123.856,44.544,123.123,45.806,123.123z"/>
		<path fill="#FFFFFF" d="M54.556,116.406c0-0.264,0.224-0.468,0.57-0.488h3.746c2.361,0,4.193,1.16,4.193,4.315v0.204
			c0,3.154-1.853,4.335-4.234,4.335H55.9v5.496c0,0.346-0.346,0.529-0.672,0.529c-0.346,0-0.672-0.184-0.672-0.529V116.406z
			 M55.9,117.159v6.452h2.931c1.812,0,2.89-0.997,2.89-3.114v-0.244c0-2.117-1.079-3.094-2.89-3.094H55.9z"/>
		<path fill="#FFFFFF" d="M65.893,130.797c-0.305,0-0.611-0.184-0.611-0.529v-13.862c0-0.346,0.326-0.488,0.672-0.488
			c0.326,0,0.672,0.143,0.672,0.488v13.15h5.802c0.305,0,0.447,0.305,0.447,0.61c0,0.325-0.143,0.631-0.447,0.631H65.893z"/>
		<path fill="#FFFFFF" d="M73.586,130.227c0-0.04,0-0.102,0.021-0.143l4.255-13.82c0.102-0.326,0.447-0.469,0.793-0.469
			c0.367,0,0.713,0.163,0.814,0.469l4.234,13.82c0,0.041,0.02,0.082,0.02,0.123c0,0.325-0.447,0.59-0.814,0.59
			c-0.223,0-0.427-0.102-0.508-0.346l-0.937-3.135h-5.639l-0.937,3.135c-0.061,0.244-0.285,0.346-0.529,0.346
			C74.013,130.797,73.586,130.573,73.586,130.227z M81.117,126.156l-2.463-8.203l-2.482,8.203H81.117z"/>
		<path fill="#FFFFFF" d="M86.367,129.556h6.656c0.346,0,0.51,0.325,0.51,0.61c0,0.306-0.164,0.631-0.51,0.631h-7.897
			c-0.306,0-0.488-0.203-0.488-0.468c0-0.143,0.04-0.306,0.122-0.469l6.778-12.701H85.39c-0.326,0-0.509-0.306-0.509-0.631
			c0-0.306,0.163-0.611,0.509-0.611h7.389c0.346,0,0.51,0.184,0.51,0.428c0,0.163-0.062,0.346-0.164,0.529L86.367,129.556z"/>
		<path fill="#FFFFFF" d="M94.427,130.227c0-0.04,0-0.102,0.021-0.143l4.254-13.82c0.102-0.326,0.448-0.469,0.795-0.469
			c0.365,0,0.712,0.163,0.813,0.469l4.233,13.82c0,0.041,0.021,0.082,0.021,0.123c0,0.325-0.448,0.59-0.814,0.59
			c-0.225,0-0.428-0.102-0.51-0.346l-0.936-3.135h-5.639l-0.937,3.135c-0.062,0.244-0.284,0.346-0.528,0.346
			C94.854,130.797,94.427,130.573,94.427,130.227z M101.959,126.156l-2.463-8.203l-2.484,8.203H101.959z"/>
		<path fill="#FFFFFF" d="M112.847,126.868c0-4.519-6.758-2.32-6.758-7.287c0-2.972,2.422-3.704,4.314-3.704
			c1.527,0,3.42,0.509,3.42,1.241c0,0.265-0.224,0.753-0.59,0.753c-0.387,0-1.059-0.773-2.85-0.773c-1.507,0-2.952,0.55-2.952,2.361
			c0,3.786,6.759,1.648,6.759,7.287c0,2.891-1.792,4.193-4.295,4.193c-2.605,0-4.174-1.466-4.174-2.198
			c0-0.326,0.306-0.753,0.611-0.753c0.529,0,0.936,1.689,3.48,1.689C111.707,129.678,112.847,128.721,112.847,126.868z"/>
	</g>
</g>
<g>
	<g>
		<path fill="#FFFFFF" d="M28.067,138.698l-0.814,1.323c-0.122,0.183-0.265,0.244-0.387,0.244c-0.306,0-0.529-0.285-0.529-0.591
			c0-0.183,0.163-0.488,0.305-0.61l1.669-2.361c0.122-0.163,0.244-0.306,0.509-0.306c0.285,0,0.59,0.184,0.59,0.509v13.862
			c0,0.346-0.346,0.529-0.672,0.529c-0.346,0-0.672-0.184-0.672-0.529V138.698z"/>
		<path fill="#FFFFFF" d="M33.481,150.483c0,0.489-0.427,0.937-0.916,0.937c-0.549,0-0.936-0.447-0.936-0.937
			c0-0.529,0.387-0.956,0.936-0.956C33.054,149.527,33.481,149.953,33.481,150.483z"/>
		<path fill="#FFFFFF" d="M35.272,147.064v-6.311c0-3.155,1.852-4.336,4.234-4.336c2.381,0,4.234,1.181,4.234,4.336v6.311
			c0,3.175-1.853,4.355-4.234,4.355C37.124,151.419,35.272,150.239,35.272,147.064z M42.397,140.753
			c0-2.117-1.079-3.094-2.891-3.094s-2.891,0.977-2.891,3.094v6.311c0,2.137,1.079,3.114,2.891,3.114s2.891-0.978,2.891-3.114
			V140.753z M40.259,143.929c0,0.406-0.326,0.753-0.732,0.753c-0.448,0-0.753-0.347-0.753-0.753c0-0.428,0.305-0.733,0.753-0.733
			C39.933,143.196,40.259,143.501,40.259,143.929z"/>
		<path fill="#FFFFFF" d="M49.723,142.544c2.382,0,4.214,1.12,4.214,4.173v0.387c0,3.135-1.853,4.315-4.214,4.315
			c-2.707,0-4.234-1.608-4.234-3.46c0-0.489,0.265-0.672,0.651-0.672c0.489,0,0.692,0.224,0.692,0.569
			c0,1.486,1.262,2.321,2.87,2.321c1.812,0,2.89-0.978,2.89-3.074v-0.387c0-2.035-1.079-3.013-2.87-3.013h-2.829
			c-0.57,0-0.692-0.224-0.692-0.509c0-0.081,0.021-0.325,0.021-0.407l0.407-5.862c0.041-0.305,0.163-0.509,0.427-0.509h5.7
			c0.305,0,0.448,0.306,0.448,0.611c0,0.325-0.143,0.631-0.448,0.631H47.83l-0.326,4.885H49.723z"/>
		<path fill="#FFFFFF" d="M59.227,150.503l2.707-4.071l-2.646-3.948c-0.041-0.082-0.102-0.163-0.102-0.265
			c0-0.326,0.468-0.672,0.814-0.672c0.122,0,0.305,0.041,0.407,0.203l2.402,3.726l2.422-3.726c0.082-0.143,0.265-0.203,0.387-0.203
			c0.326,0,0.814,0.325,0.814,0.672c0,0.081-0.041,0.162-0.102,0.265l-2.667,3.948l2.728,4.071c0.041,0.062,0.082,0.163,0.082,0.285
			c0,0.306-0.428,0.651-0.794,0.651c-0.143,0-0.305-0.062-0.387-0.204l-2.483-3.806l-2.463,3.806
			c-0.102,0.143-0.265,0.204-0.428,0.204c-0.305,0-0.773-0.326-0.773-0.651C59.146,150.687,59.187,150.584,59.227,150.503z"/>
		<path fill="#FFFFFF" d="M73.047,138.698l-0.814,1.323c-0.122,0.183-0.265,0.244-0.387,0.244c-0.305,0-0.529-0.285-0.529-0.591
			c0-0.183,0.163-0.488,0.305-0.61l1.669-2.361c0.122-0.163,0.244-0.306,0.509-0.306c0.284,0,0.591,0.184,0.591,0.509v13.862
			c0,0.346-0.347,0.529-0.672,0.529c-0.347,0-0.672-0.184-0.672-0.529V138.698z"/>
		<path fill="#FFFFFF" d="M78.461,150.483c0,0.489-0.428,0.937-0.916,0.937c-0.55,0-0.938-0.447-0.938-0.937
			c0-0.529,0.388-0.956,0.938-0.956C78.033,149.527,78.461,149.953,78.461,150.483z"/>
		<path fill="#FFFFFF" d="M80.149,141.241v-0.488c0-3.155,1.831-4.336,4.214-4.336c2.381,0,4.254,1.181,4.254,4.336v6.311
			c0,3.175-1.873,4.355-4.275,4.355c-2.748,0-4.192-1.71-4.192-3.48c0-0.448,0.244-0.631,0.631-0.631
			c0.347,0,0.692,0.162,0.692,0.569c0,1.404,1.303,2.301,2.891,2.301c1.832,0,2.91-0.978,2.91-3.114v-3.115
			c-0.691,0.957-1.812,1.364-3.074,1.364C81.94,145.313,80.149,144.356,80.149,141.241z M87.273,140.712
			c0-2.137-1.1-3.114-2.91-3.114c-1.813,0-2.871,0.978-2.871,3.114v0.488c0,2.138,1.059,2.952,2.891,2.952
			c1.751,0,2.891-0.753,2.891-2.769V140.712z"/>
		<path fill="#FFFFFF" d="M90.976,147.064v-6.311c0-3.155,1.853-4.336,4.234-4.336c2.381,0,4.234,1.181,4.234,4.336v6.311
			c0,3.175-1.854,4.355-4.234,4.355C92.829,151.419,90.976,150.239,90.976,147.064z M98.101,140.753
			c0-2.117-1.079-3.094-2.891-3.094s-2.891,0.977-2.891,3.094v6.311c0,2.137,1.079,3.114,2.891,3.114s2.891-0.978,2.891-3.114
			V140.753z M95.964,143.929c0,0.406-0.325,0.753-0.732,0.753c-0.448,0-0.753-0.347-0.753-0.753c0-0.428,0.305-0.733,0.753-0.733
			C95.638,143.196,95.964,143.501,95.964,143.929z"/>
		<path fill="#FFFFFF" d="M112.023,145.292c0-1.466-1.059-2.524-2.321-2.524c-1.181,0-2.401,0.937-2.401,2.586v5.414
			c0,0.265-0.306,0.529-0.672,0.529c-0.367,0-0.652-0.265-0.652-0.529v-8.61c0-0.285,0.285-0.488,0.652-0.488
			c0.346,0,0.631,0.203,0.631,0.488v0.937c0.447-0.794,1.363-1.547,2.707-1.547s2.402,0.834,2.891,2.035
			c0.713-1.384,1.913-2.035,3.094-2.035c1.75,0,3.42,1.384,3.42,3.807v5.414c0,0.265-0.285,0.529-0.672,0.529
			c-0.346,0-0.651-0.265-0.651-0.529v-5.414c0-1.71-1.201-2.586-2.32-2.586c-1.181,0-2.382,0.978-2.382,2.504v5.517
			c0,0.366-0.346,0.509-0.672,0.509c-0.305,0-0.65-0.143-0.65-0.509V145.292z"/>
	</g>
</g>
<g>
	<g>
		<path fill="#FFFFFF" d="M111.951,53.77c0,0.398-0.323,0.722-0.723,0.722H29.674c-0.399,0-0.723-0.323-0.723-0.722V29.213
			c0-0.398,0.324-0.722,0.723-0.722h81.555c0.399,0,0.723,0.323,0.723,0.722V53.77z"/>
		<path opacity="0.1" fill="#FFFFFF" d="M70.951,28.491h41.342c0.398,0,0.658,0.084,0.658,0.483v24.558
			c0,0.398-0.26,0.959-0.658,0.959H70.951"/>
	</g>
	<rect x="20.951" y="26.491" fill="#FFFFFF" width="99" height="2"/>
	<g>
		<polygon fill="#C1CBCB" points="29.952,53.415 23.832,66.34 20.962,71.601 121.406,70.645 118.537,65.384 112.293,53.054 		"/>
		<polygon fill="#CBD0D1" points="29.093,53.367 26.777,60.491 115.955,60.491 112.779,53.703 		"/>
		<path fill="#C1CBCB" d="M65.951,52.158c0,2.393-1.94,4.333-4.334,4.333H39.285c-2.394,0-4.334-1.94-4.334-4.333v-2.334
			c0-2.393,1.94-4.333,4.334-4.333h22.332c2.394,0,4.334,1.94,4.334,4.333V52.158z"/>
		<path fill="#C1CBCB" d="M106.951,52.158c0,2.393-1.94,4.333-4.334,4.333H80.285c-2.394,0-4.334-1.94-4.334-4.333v-2.334
			c0-2.393,1.94-4.333,4.334-4.333h22.332c2.394,0,4.334,1.94,4.334,4.333V52.158z"/>
	</g>
	<path fill="#FFFFFF" d="M120.951,88.318c0,0.27,0.347,1.174-0.128,1.174H22.867c-0.475,0-0.916-0.904-0.916-1.174V71.601
		c0-0.271,0.441-1.109,0.916-1.109h97.956c0.475,0,0.128,0.839,0.128,1.109V88.318z"/>
	<path fill="#FFFFFF" d="M70.951,70.491h49.872c0.475,0,0.128,0.669,0.128,0.938v16.646c0,0.27,0.347,1.415-0.128,1.415H70.951"/>
	<rect x="20.951" y="66.491" fill="#FFFFFF" width="3" height="28"/>
	<rect x="119.951" y="65.491" fill="#FFFFFF" width="2" height="29"/>
</g>
</svg>
