<?xml version="1.0" encoding="utf-8"?>
<!-- Generator: Adobe Illustrator 16.0.0, SVG Export Plug-In . SVG Version: 6.00 Build 0)  -->
<!DOCTYPE svg PUBLIC "-//W3C//DTD SVG 1.1//EN" "http://www.w3.org/Graphics/SVG/1.1/DTD/svg11.dtd">
<svg version="1.1" id="Capa_1" xmlns="http://www.w3.org/2000/svg" xmlns:xlink="http://www.w3.org/1999/xlink" x="0px" y="0px"
	 width="142.902px" height="161.983px" viewBox="0 0 142.902 161.983" enable-background="new 0 0 142.902 161.983"
	 xml:space="preserve">
<rect x="0.275" y="0.226" fill="#645E53" width="143.028" height="161.758"/>
<g>
	<g>
		<path fill="#FFFFFF" d="M37.768,112.917c2.341,0,4.051,1.71,4.051,3.908c0,4.377-6.839,5.761-6.839,8.468v1.263h6.493
			c0.265,0,0.489,0.284,0.489,0.61c0,0.325-0.224,0.631-0.489,0.631h-7.246c-0.265,0-0.631-0.203-0.631-0.529v-1.975
			c0-3.379,6.88-4.864,6.88-8.427c0-1.282-0.875-2.687-2.748-2.687c-1.404,0-2.463,0.793-2.463,2.401c0,0.265-0.244,0.55-0.712,0.55
			c-0.407,0-0.611-0.224-0.611-0.835C33.941,114.342,35.61,112.917,37.768,112.917z"/>
		<path fill="#FFFFFF" d="M48.188,113.405c0-0.264,0.224-0.468,0.57-0.488h3.746c2.361,0,4.193,1.16,4.193,4.315v0.204
			c0,3.154-1.853,4.335-4.234,4.335h-2.931v5.496c0,0.346-0.346,0.529-0.672,0.529c-0.346,0-0.672-0.184-0.672-0.529V113.405z
			 M49.531,114.159v6.452h2.931c1.812,0,2.89-0.997,2.89-3.114v-0.244c0-2.117-1.079-3.094-2.89-3.094H49.531z"/>
		<path fill="#FFFFFF" d="M59.524,127.797c-0.305,0-0.611-0.184-0.611-0.529v-13.862c0-0.346,0.326-0.488,0.672-0.488
			c0.326,0,0.672,0.143,0.672,0.488v13.15h5.801c0.305,0,0.448,0.305,0.448,0.61c0,0.325-0.143,0.631-0.448,0.631H59.524z"/>
		<path fill="#FFFFFF" d="M67.217,127.227c0-0.04,0-0.102,0.021-0.143l4.254-13.82c0.102-0.326,0.448-0.469,0.794-0.469
			c0.366,0,0.712,0.163,0.813,0.469l4.234,13.82c0,0.041,0.021,0.082,0.021,0.123c0,0.325-0.448,0.59-0.814,0.59
			c-0.224,0-0.427-0.102-0.509-0.346l-0.936-3.135h-5.639l-0.937,3.135c-0.061,0.244-0.285,0.346-0.529,0.346
			C67.645,127.797,67.217,127.573,67.217,127.227z M74.749,123.156l-2.463-8.203l-2.483,8.203H74.749z"/>
		<path fill="#FFFFFF" d="M79.999,126.556h6.656c0.346,0,0.509,0.325,0.509,0.61c0,0.306-0.163,0.631-0.509,0.631h-7.897
			c-0.306,0-0.488-0.203-0.488-0.468c0-0.143,0.04-0.306,0.121-0.469l6.779-12.701h-6.148c-0.325,0-0.508-0.306-0.508-0.631
			c0-0.306,0.162-0.611,0.508-0.611h7.389c0.347,0,0.51,0.184,0.51,0.428c0,0.163-0.061,0.346-0.163,0.529L79.999,126.556z"/>
		<path fill="#FFFFFF" d="M88.059,127.227c0-0.04,0-0.102,0.02-0.143l4.255-13.82c0.102-0.326,0.448-0.469,0.794-0.469
			c0.366,0,0.713,0.163,0.814,0.469l4.233,13.82c0,0.041,0.021,0.082,0.021,0.123c0,0.325-0.447,0.59-0.814,0.59
			c-0.224,0-0.428-0.102-0.509-0.346l-0.937-3.135h-5.639l-0.936,3.135c-0.062,0.244-0.285,0.346-0.529,0.346
			C88.486,127.797,88.059,127.573,88.059,127.227z M95.59,123.156l-2.463-8.203l-2.483,8.203H95.59z"/>
		<path fill="#FFFFFF" d="M106.479,123.868c0-4.519-6.758-2.32-6.758-7.287c0-2.972,2.422-3.704,4.315-3.704
			c1.526,0,3.419,0.509,3.419,1.241c0,0.265-0.223,0.753-0.59,0.753c-0.387,0-1.059-0.773-2.85-0.773
			c-1.506,0-2.951,0.55-2.951,2.361c0,3.786,6.758,1.648,6.758,7.287c0,2.891-1.791,4.193-4.295,4.193
			c-2.605,0-4.173-1.466-4.173-2.198c0-0.326,0.306-0.753,0.61-0.753c0.529,0,0.937,1.689,3.48,1.689
			C105.339,126.678,106.479,125.721,106.479,123.868z"/>
	</g>
</g>
<g>
	<g>
		<path fill="#FFFFFF" d="M27.926,135.697l-0.814,1.323c-0.122,0.183-0.265,0.244-0.387,0.244c-0.306,0-0.529-0.285-0.529-0.591
			c0-0.183,0.163-0.488,0.305-0.61l1.669-2.361c0.122-0.163,0.244-0.306,0.509-0.306c0.285,0,0.59,0.184,0.59,0.509v13.862
			c0,0.346-0.346,0.529-0.672,0.529c-0.346,0-0.672-0.184-0.672-0.529V135.697z"/>
		<path fill="#FFFFFF" d="M33.34,147.482c0,0.489-0.427,0.937-0.916,0.937c-0.549,0-0.936-0.447-0.936-0.937
			c0-0.529,0.387-0.956,0.936-0.956C32.913,146.526,33.34,146.953,33.34,147.482z"/>
		<path fill="#FFFFFF" d="M41.848,144.124v-0.387c0-1.873-1.14-2.707-2.891-2.707c-0.387,0-0.529-0.285-0.529-0.57
			s0.143-0.59,0.509-0.59c1.628,0,2.544-0.591,2.544-2.605c0-1.771-0.753-2.626-2.463-2.626c-2.137,0-2.605,1.303-2.605,2.178
			c0,0.407-0.183,0.651-0.651,0.651c-0.529,0-0.692-0.183-0.692-0.773c0-1.119,0.753-3.277,3.99-3.277
			c2.198,0,3.725,0.957,3.725,3.583c0,1.853-0.732,2.992-1.669,3.439c1.201,0.489,2.076,1.486,2.076,3.298v0.387
			c0,3.114-1.893,4.295-4.254,4.295c-2.891,0-4.214-1.853-4.214-3.358c0-0.57,0.183-0.713,0.631-0.713
			c0.529,0,0.692,0.225,0.692,0.57c0,0.875,0.631,2.26,2.87,2.26C40.81,147.178,41.848,146.221,41.848,144.124z"/>
		<path fill="#FFFFFF" d="M48.87,139.544c2.382,0,4.214,1.12,4.214,4.173v0.387c0,3.135-1.853,4.315-4.214,4.315
			c-2.707,0-4.234-1.608-4.234-3.46c0-0.489,0.265-0.672,0.651-0.672c0.489,0,0.692,0.224,0.692,0.569
			c0,1.486,1.262,2.321,2.87,2.321c1.812,0,2.89-0.978,2.89-3.074v-0.387c0-2.035-1.079-3.013-2.87-3.013h-2.829
			c-0.57,0-0.692-0.224-0.692-0.509c0-0.081,0.021-0.325,0.021-0.407l0.407-5.862c0.041-0.305,0.163-0.509,0.427-0.509h5.7
			c0.305,0,0.448,0.306,0.448,0.611c0,0.325-0.143,0.631-0.448,0.631h-4.926l-0.326,4.885H48.87z"/>
		<path fill="#FFFFFF" d="M58.374,147.503l2.707-4.071l-2.646-3.948c-0.041-0.082-0.102-0.163-0.102-0.265
			c0-0.326,0.468-0.672,0.814-0.672c0.122,0,0.305,0.041,0.407,0.203l2.402,3.726l2.422-3.726c0.081-0.143,0.265-0.203,0.387-0.203
			c0.326,0,0.814,0.325,0.814,0.672c0,0.081-0.041,0.162-0.102,0.265l-2.667,3.948l2.728,4.071c0.041,0.062,0.082,0.163,0.082,0.285
			c0,0.306-0.428,0.651-0.794,0.651c-0.143,0-0.305-0.062-0.387-0.204l-2.483-3.806l-2.463,3.806
			c-0.102,0.143-0.265,0.204-0.428,0.204c-0.305,0-0.773-0.326-0.773-0.651C58.292,147.687,58.333,147.584,58.374,147.503z"/>
		<path fill="#FFFFFF" d="M72.193,135.697l-0.814,1.323c-0.122,0.183-0.265,0.244-0.387,0.244c-0.306,0-0.529-0.285-0.529-0.591
			c0-0.183,0.163-0.488,0.305-0.61l1.669-2.361c0.122-0.163,0.244-0.306,0.509-0.306c0.284,0,0.591,0.184,0.591,0.509v13.862
			c0,0.346-0.347,0.529-0.672,0.529c-0.347,0-0.672-0.184-0.672-0.529V135.697z"/>
		<path fill="#FFFFFF" d="M77.607,147.482c0,0.489-0.428,0.937-0.916,0.937c-0.55,0-0.937-0.447-0.937-0.937
			c0-0.529,0.387-0.956,0.937-0.956C77.18,146.526,77.607,146.953,77.607,147.482z"/>
		<path fill="#FFFFFF" d="M79.296,138.241v-0.488c0-3.155,1.831-4.336,4.214-4.336c2.381,0,4.254,1.181,4.254,4.336v6.311
			c0,3.175-1.873,4.355-4.275,4.355c-2.748,0-4.192-1.71-4.192-3.48c0-0.448,0.244-0.631,0.631-0.631
			c0.347,0,0.692,0.162,0.692,0.569c0,1.404,1.303,2.301,2.891,2.301c1.832,0,2.91-0.978,2.91-3.114v-3.115
			c-0.691,0.957-1.812,1.364-3.074,1.364C81.087,142.313,79.296,141.355,79.296,138.241z M86.42,137.712
			c0-2.137-1.1-3.114-2.91-3.114c-1.813,0-2.871,0.978-2.871,3.114v0.488c0,2.138,1.059,2.952,2.891,2.952
			c1.751,0,2.891-0.753,2.891-2.769V137.712z"/>
		<path fill="#FFFFFF" d="M90.123,144.063v-6.311c0-3.155,1.853-4.336,4.234-4.336c2.381,0,4.234,1.181,4.234,4.336v6.311
			c0,3.175-1.854,4.355-4.234,4.355C91.976,148.419,90.123,147.238,90.123,144.063z M97.248,137.753
			c0-2.117-1.079-3.094-2.891-3.094s-2.891,0.977-2.891,3.094v6.311c0,2.137,1.079,3.114,2.891,3.114s2.891-0.978,2.891-3.114
			V137.753z M95.11,140.929c0,0.406-0.325,0.753-0.732,0.753c-0.448,0-0.753-0.347-0.753-0.753c0-0.428,0.305-0.733,0.753-0.733
			C94.785,140.195,95.11,140.501,95.11,140.929z"/>
		<path fill="#FFFFFF" d="M111.169,142.292c0-1.466-1.058-2.524-2.32-2.524c-1.181,0-2.401,0.937-2.401,2.586v5.414
			c0,0.265-0.306,0.529-0.672,0.529c-0.367,0-0.652-0.265-0.652-0.529v-8.61c0-0.285,0.285-0.488,0.652-0.488
			c0.346,0,0.631,0.203,0.631,0.488v0.937c0.447-0.794,1.363-1.547,2.707-1.547s2.402,0.834,2.891,2.035
			c0.713-1.384,1.913-2.035,3.094-2.035c1.75,0,3.42,1.384,3.42,3.807v5.414c0,0.265-0.285,0.529-0.672,0.529
			c-0.346,0-0.651-0.265-0.651-0.529v-5.414c0-1.71-1.201-2.586-2.32-2.586c-1.181,0-2.382,0.978-2.382,2.504v5.517
			c0,0.366-0.346,0.509-0.672,0.509c-0.305,0-0.651-0.143-0.651-0.509V142.292z"/>
	</g>
</g>
<g>
	<g>
		<path fill="#FFFFFF" d="M112,53.278c0,0.398-0.323,0.722-0.723,0.722H29.722C29.323,54,29,53.677,29,53.278V28.722
			C29,28.323,29.323,28,29.722,28h81.555c0.399,0,0.723,0.323,0.723,0.722V53.278z"/>
		<path opacity="0.1" fill="#FFFFFF" d="M71,28h41.557c0.398,0,0.443,0.575,0.443,0.975v24.558c0,0.398-0.045,0.468-0.443,0.468H71"
			/>
	</g>
	<rect x="21" y="26" fill="#FFFFFF" width="99" height="2"/>
	<g>
		<polygon fill="#C1CBCB" points="30.216,53.415 24.096,66.34 21.226,71.601 121.67,70.645 118.801,65.384 112.557,53.054 		"/>
		<polygon fill="#CBD0D1" points="29.357,53.121 27.041,60 116.219,60 113.043,53.335 		"/>
		<path fill="#C1CBCB" d="M66,51.667C66,54.06,64.06,56,61.666,56H39.334C36.94,56,35,54.06,35,51.667v-2.334
			C35,46.94,36.94,45,39.334,45h22.332C64.06,45,66,46.94,66,49.333V51.667z"/>
		<path fill="#C1CBCB" d="M107,51.667c0,2.393-1.94,4.333-4.334,4.333H80.334C77.94,56,76,54.06,76,51.667v-2.334
			C76,46.94,77.94,45,80.334,45h22.332c2.394,0,4.334,1.94,4.334,4.333V51.667z"/>
	</g>
	<path fill="#FFFFFF" d="M121,88.317c0,0.27,0.562,0.683,0.087,0.683H23.131C22.656,89,22,88.587,22,88.317V71.601
		C22,71.33,22.656,70,23.131,70h97.956c0.475,0-0.087,1.33-0.087,1.601V88.317z"/>
	<path fill="#FFFFFF" d="M71,70h50.087c0.475,0-0.087,1.16-0.087,1.43v16.646c0,0.27,0.562,0.924,0.087,0.924H71"/>
	<rect x="21" y="66" fill="#FFFFFF" width="3" height="28"/>
	<rect x="120" y="65" fill="#FFFFFF" width="2" height="29"/>
</g>
</svg>
