<?xml version="1.0" encoding="utf-8"?>
<!-- Generator: Adobe Illustrator 16.0.0, SVG Export Plug-In . SVG Version: 6.00 Build 0)  -->
<!DOCTYPE svg PUBLIC "-//W3C//DTD SVG 1.1//EN" "http://www.w3.org/Graphics/SVG/1.1/DTD/svg11.dtd">
<svg version="1.1" id="Capa_1" xmlns="http://www.w3.org/2000/svg" xmlns:xlink="http://www.w3.org/1999/xlink" x="0px" y="0px"
	 width="142.902px" height="161.983px" viewBox="0 0 142.902 161.983" enable-background="new 0 0 142.902 161.983"
	 xml:space="preserve">
<rect x="-0.126" y="0.226" fill="#645E53" width="143.028" height="161.758"/>
<g>
	<path fill="#FFFFFF" d="M41.074,121.2v-0.387c0-1.873-1.14-2.707-2.891-2.707c-0.387,0-0.529-0.285-0.529-0.57
		s0.143-0.59,0.509-0.59c1.628,0,2.544-0.591,2.544-2.605c0-1.771-0.753-2.626-2.463-2.626c-2.137,0-2.605,1.303-2.605,2.178
		c0,0.407-0.183,0.651-0.651,0.651c-0.529,0-0.692-0.183-0.692-0.773c0-1.119,0.753-3.277,3.99-3.277
		c2.198,0,3.725,0.957,3.725,3.583c0,1.852-0.732,2.992-1.669,3.439c1.201,0.489,2.076,1.486,2.076,3.298v0.387
		c0,3.114-1.893,4.295-4.254,4.295c-2.891,0-4.214-1.853-4.214-3.358c0-0.57,0.183-0.713,0.631-0.713
		c0.529,0,0.692,0.225,0.692,0.57c0,0.875,0.631,2.26,2.87,2.26C40.036,124.254,41.074,123.297,41.074,121.2z"/>
	<path fill="#FFFFFF" d="M48.909,110.981c0-0.265,0.224-0.468,0.57-0.488h3.746c2.361,0,4.193,1.16,4.193,4.315v0.204
		c0,3.154-1.853,4.335-4.234,4.335h-2.931v5.496c0,0.346-0.346,0.529-0.672,0.529c-0.346,0-0.672-0.184-0.672-0.529V110.981z
		 M50.252,111.735v6.452h2.931c1.812,0,2.89-0.997,2.89-3.114v-0.244c0-2.117-1.079-3.094-2.89-3.094H50.252z"/>
	<path fill="#FFFFFF" d="M60.245,125.373c-0.305,0-0.611-0.184-0.611-0.529v-13.862c0-0.346,0.326-0.488,0.672-0.488
		c0.326,0,0.672,0.143,0.672,0.488v13.15h5.801c0.305,0,0.448,0.305,0.448,0.61c0,0.325-0.143,0.631-0.448,0.631H60.245z"/>
	<path fill="#FFFFFF" d="M67.938,124.803c0-0.04,0-0.102,0.021-0.143l4.254-13.82c0.102-0.326,0.447-0.469,0.794-0.469
		c0.366,0,0.712,0.163,0.813,0.469l4.234,13.82c0,0.041,0.021,0.082,0.021,0.123c0,0.325-0.448,0.59-0.814,0.59
		c-0.224,0-0.427-0.102-0.509-0.346l-0.937-3.135h-5.638l-0.937,3.135c-0.061,0.244-0.285,0.346-0.529,0.346
		C68.366,125.373,67.938,125.149,67.938,124.803z M75.47,120.732l-2.463-8.203l-2.483,8.203H75.47z"/>
	<path fill="#FFFFFF" d="M80.721,124.132h6.656c0.346,0,0.508,0.325,0.508,0.61c0,0.305-0.162,0.631-0.508,0.631h-7.898
		c-0.305,0-0.488-0.203-0.488-0.468c0-0.143,0.041-0.306,0.122-0.469l6.778-12.701h-6.147c-0.325,0-0.509-0.306-0.509-0.631
		c0-0.306,0.162-0.611,0.509-0.611h7.389c0.347,0,0.509,0.184,0.509,0.428c0,0.163-0.061,0.346-0.162,0.529L80.721,124.132z"/>
	<path fill="#FFFFFF" d="M88.779,124.803c0-0.04,0-0.102,0.021-0.143l4.255-13.82c0.102-0.326,0.447-0.469,0.793-0.469
		c0.367,0,0.713,0.163,0.814,0.469l4.234,13.82c0,0.041,0.02,0.082,0.02,0.123c0,0.325-0.447,0.59-0.814,0.59
		c-0.223,0-0.427-0.102-0.508-0.346l-0.937-3.135h-5.639l-0.937,3.135c-0.061,0.244-0.285,0.346-0.529,0.346
		C89.207,125.373,88.779,125.149,88.779,124.803z M96.311,120.732l-2.463-8.203l-2.482,8.203H96.311z"/>
	<path fill="#FFFFFF" d="M107.199,121.444c0-4.519-6.758-2.32-6.758-7.287c0-2.972,2.422-3.704,4.315-3.704
		c1.526,0,3.419,0.509,3.419,1.241c0,0.265-0.223,0.753-0.59,0.753c-0.387,0-1.059-0.773-2.85-0.773
		c-1.506,0-2.951,0.55-2.951,2.361c0,3.786,6.758,1.648,6.758,7.287c0,2.891-1.791,4.193-4.295,4.193
		c-2.605,0-4.173-1.466-4.173-2.198c0-0.326,0.306-0.753,0.61-0.753c0.529,0,0.937,1.689,3.48,1.689
		C106.06,124.254,107.199,123.297,107.199,121.444z"/>
</g>
<g>
	<path fill="#FFFFFF" d="M23.438,132.625c2.341,0,4.051,1.71,4.051,3.908c0,4.377-6.839,5.761-6.839,8.468v1.263h6.493
		c0.265,0,0.489,0.284,0.489,0.61c0,0.325-0.224,0.631-0.489,0.631h-7.246c-0.265,0-0.631-0.203-0.631-0.529v-1.975
		c0-3.379,6.88-4.864,6.88-8.427c0-1.282-0.875-2.687-2.748-2.687c-1.405,0-2.463,0.793-2.463,2.401c0,0.265-0.245,0.55-0.712,0.55
		c-0.407,0-0.611-0.224-0.611-0.835C19.611,134.05,21.28,132.625,23.438,132.625z"/>
	<path fill="#FFFFFF" d="M30.907,146.69c0,0.489-0.427,0.937-0.916,0.937c-0.549,0-0.936-0.447-0.936-0.937
		c0-0.529,0.387-0.956,0.936-0.956C30.479,145.734,30.907,146.161,30.907,146.69z"/>
	<path fill="#FFFFFF" d="M32.698,143.271v-6.311c0-3.155,1.852-4.336,4.234-4.336c2.381,0,4.234,1.181,4.234,4.336v6.311
		c0,3.175-1.853,4.355-4.234,4.355C34.55,147.627,32.698,146.446,32.698,143.271z M39.822,136.961c0-2.117-1.079-3.094-2.891-3.094
		s-2.891,0.977-2.891,3.094v6.311c0,2.137,1.079,3.114,2.891,3.114s2.891-0.978,2.891-3.114V136.961z M37.685,140.137
		c0,0.406-0.326,0.753-0.732,0.753c-0.448,0-0.753-0.347-0.753-0.753c0-0.428,0.305-0.733,0.753-0.733
		C37.359,139.403,37.685,139.709,37.685,140.137z"/>
	<path fill="#FFFFFF" d="M43.525,143.271v-6.311c0-3.155,1.852-4.336,4.234-4.336c2.381,0,4.234,1.181,4.234,4.336v6.311
		c0,3.175-1.853,4.355-4.234,4.355C45.377,147.627,43.525,146.446,43.525,143.271z M50.649,136.961c0-2.117-1.079-3.094-2.89-3.094
		s-2.891,0.977-2.891,3.094v6.311c0,2.137,1.079,3.114,2.891,3.114s2.89-0.978,2.89-3.114V136.961z M48.512,140.137
		c0,0.406-0.326,0.753-0.732,0.753c-0.448,0-0.753-0.347-0.753-0.753c0-0.428,0.305-0.733,0.753-0.733
		C48.187,139.403,48.512,139.709,48.512,140.137z"/>
	<path fill="#FFFFFF" d="M57.833,146.711l2.707-4.071l-2.646-3.948c-0.041-0.082-0.102-0.163-0.102-0.265
		c0-0.326,0.468-0.672,0.814-0.672c0.122,0,0.305,0.041,0.407,0.203l2.402,3.726l2.422-3.726c0.081-0.143,0.265-0.203,0.387-0.203
		c0.326,0,0.814,0.325,0.814,0.672c0,0.081-0.041,0.162-0.102,0.265l-2.667,3.948l2.728,4.071c0.041,0.062,0.082,0.163,0.082,0.285
		c0,0.306-0.428,0.651-0.794,0.651c-0.143,0-0.305-0.062-0.387-0.204l-2.483-3.806l-2.463,3.806
		c-0.102,0.143-0.265,0.204-0.428,0.204c-0.305,0-0.773-0.326-0.773-0.651C57.751,146.895,57.792,146.792,57.833,146.711z"/>
	<path fill="#FFFFFF" d="M74.522,132.625c2.341,0,4.051,1.71,4.051,3.908c0,4.377-6.839,5.761-6.839,8.468v1.263h6.493
		c0.266,0,0.489,0.284,0.489,0.61c0,0.325-0.224,0.631-0.489,0.631h-7.246c-0.265,0-0.631-0.203-0.631-0.529v-1.975
		c0-3.379,6.881-4.864,6.881-8.427c0-1.282-0.876-2.687-2.748-2.687c-1.405,0-2.463,0.793-2.463,2.401
		c0,0.265-0.245,0.55-0.713,0.55c-0.407,0-0.611-0.224-0.611-0.835C70.696,134.05,72.365,132.625,74.522,132.625z"/>
	<path fill="#FFFFFF" d="M81.992,146.69c0,0.489-0.428,0.937-0.916,0.937c-0.55,0-0.937-0.447-0.937-0.937
		c0-0.529,0.387-0.956,0.937-0.956C81.564,145.734,81.992,146.161,81.992,146.69z"/>
	<path fill="#FFFFFF" d="M83.783,143.271v-6.311c0-3.155,1.852-4.336,4.233-4.336s4.233,1.181,4.233,4.336v6.311
		c0,3.175-1.852,4.355-4.233,4.355S83.783,146.446,83.783,143.271z M90.907,136.961c0-2.117-1.079-3.094-2.891-3.094
		s-2.891,0.977-2.891,3.094v6.311c0,2.137,1.079,3.114,2.891,3.114s2.891-0.978,2.891-3.114V136.961z M88.77,140.137
		c0,0.406-0.326,0.753-0.732,0.753c-0.448,0-0.754-0.347-0.754-0.753c0-0.428,0.306-0.733,0.754-0.733
		C88.443,139.403,88.77,139.709,88.77,140.137z"/>
	<path fill="#FFFFFF" d="M94.61,143.271v-6.311c0-3.155,1.853-4.336,4.233-4.336c2.382,0,4.234,1.181,4.234,4.336v6.311
		c0,3.175-1.853,4.355-4.234,4.355C96.463,147.627,94.61,146.446,94.61,143.271z M101.734,136.961c0-2.117-1.078-3.094-2.891-3.094
		c-1.811,0-2.891,0.977-2.891,3.094v6.311c0,2.137,1.08,3.114,2.891,3.114c1.813,0,2.891-0.978,2.891-3.114V136.961z
		 M99.598,140.137c0,0.406-0.326,0.753-0.732,0.753c-0.449,0-0.754-0.347-0.754-0.753c0-0.428,0.305-0.733,0.754-0.733
		C99.271,139.403,99.598,139.709,99.598,140.137z"/>
	<path fill="#FFFFFF" d="M115.655,141.5c0-1.466-1.058-2.524-2.32-2.524c-1.181,0-2.401,0.937-2.401,2.586v5.414
		c0,0.265-0.306,0.529-0.672,0.529c-0.367,0-0.652-0.265-0.652-0.529v-8.61c0-0.285,0.285-0.488,0.652-0.488
		c0.346,0,0.631,0.203,0.631,0.488v0.937c0.447-0.794,1.363-1.547,2.707-1.547s2.402,0.834,2.891,2.035
		c0.713-1.384,1.913-2.035,3.094-2.035c1.75,0,3.42,1.384,3.42,3.807v5.414c0,0.265-0.285,0.529-0.672,0.529
		c-0.346,0-0.651-0.265-0.651-0.529v-5.414c0-1.71-1.201-2.586-2.32-2.586c-1.181,0-2.382,0.978-2.382,2.504v5.517
		c0,0.366-0.346,0.509-0.672,0.509c-0.305,0-0.651-0.143-0.651-0.509V141.5z"/>
</g>
<g>
	<g>
		<path fill="#FFFFFF" d="M112,52.278c0,0.398-0.323,0.722-0.723,0.722H29.722C29.323,53,29,52.677,29,52.278V27.722
			C29,27.323,29.323,27,29.722,27h81.555c0.399,0,0.723,0.323,0.723,0.722V52.278z"/>
		<path opacity="0.1" fill="#FFFFFF" d="M71,27h41.2c0.399,0,0.8,0.575,0.8,0.975v24.558c0,0.398-0.4,0.468-0.8,0.468H71"/>
	</g>
	<rect x="21" y="25" fill="#FFFFFF" width="99" height="2"/>
	<g>
		<polygon fill="#C1CBCB" points="29.859,52.415 23.739,65.34 20.87,70.601 121.314,69.645 118.443,64.384 112.2,52.054 		"/>
		<polygon fill="#CBD0D1" points="29,52.121 26.684,59 115.862,59 112.688,52.335 		"/>
		<path fill="#C1CBCB" d="M66,50.667C66,53.06,64.06,55,61.666,55H39.334C36.94,55,35,53.06,35,50.667v-2.334
			C35,45.94,36.94,44,39.334,44h22.332C64.06,44,66,45.94,66,48.333V50.667z"/>
		<path fill="#C1CBCB" d="M107,50.667c0,2.393-1.94,4.333-4.334,4.333H80.334C77.94,55,76,53.06,76,50.667v-2.334
			C76,45.94,77.94,44,80.334,44h22.332c2.394,0,4.334,1.94,4.334,4.333V50.667z"/>
	</g>
	<path fill="#FFFFFF" d="M121,87.317c0,0.27,0.205,0.683-0.27,0.683H22.774C22.299,88,22,87.587,22,87.317V70.601
		C22,70.33,22.299,69,22.774,69h97.956c0.475,0,0.27,1.33,0.27,1.601V87.317z"/>
	<path fill="#FFFFFF" d="M71,69h49.73c0.475,0,0.27,1.16,0.27,1.43v16.646c0,0.27,0.205,0.924-0.27,0.924H71"/>
	<rect x="21" y="65" fill="#FFFFFF" width="3" height="28"/>
	<rect x="120" y="64" fill="#FFFFFF" width="2" height="29"/>
</g>
</svg>
