<?xml version="1.0" encoding="utf-8"?>
<!-- Generator: Adobe Illustrator 16.0.0, SVG Export Plug-In . SVG Version: 6.00 Build 0)  -->
<!DOCTYPE svg PUBLIC "-//W3C//DTD SVG 1.1//EN" "http://www.w3.org/Graphics/SVG/1.1/DTD/svg11.dtd">
<svg version="1.1" id="Capa_1" xmlns="http://www.w3.org/2000/svg" xmlns:xlink="http://www.w3.org/1999/xlink" x="0px" y="0px"
	 width="142.902px" height="161.982px" viewBox="0 0 142.902 161.982" enable-background="new 0 0 142.902 161.982"
	 xml:space="preserve">
<rect x="0.028" y="0.226" fill="#645E53" width="143.027" height="161.758"/>
<g>
	<g>
		<path fill="#FFFFFF" d="M29.931,118.198l-0.814,1.323c-0.122,0.183-0.265,0.244-0.387,0.244c-0.306,0-0.529-0.285-0.529-0.591
			c0-0.183,0.163-0.488,0.305-0.61l1.669-2.361c0.122-0.163,0.244-0.306,0.509-0.306c0.285,0,0.59,0.184,0.59,0.509v13.862
			c0,0.346-0.346,0.529-0.672,0.529c-0.346,0-0.672-0.184-0.672-0.529V118.198z"/>
		<path fill="#FFFFFF" d="M38.398,117.322l-0.428,0.51c-0.082,0.081-0.163,0.102-0.244,0.102c-0.204,0-0.366-0.204-0.366-0.407
			c0-0.143,0.102-0.326,0.204-0.387l1.119-1.12c0.061-0.061,0.163-0.122,0.285-0.122c0.224,0,0.448,0.143,0.448,0.367v6.961
			c0,0.244-0.244,0.366-0.488,0.366c-0.285,0-0.529-0.122-0.529-0.366V117.322z M46.967,115.694c0,0.102-0.021,0.184-0.061,0.265
			l-7.715,15.083c-0.102,0.204-0.285,0.306-0.488,0.306c-0.285,0-0.529-0.244-0.529-0.509c0-0.082,0.021-0.163,0.061-0.244
			l7.755-15.206c0.082-0.183,0.244-0.244,0.407-0.244C46.662,115.144,46.967,115.367,46.967,115.694z M46.56,129.046h-2.911
			c-0.204,0-0.366-0.142-0.366-0.387c0-0.04,0.02-0.122,0.061-0.203l2.85-5.027c0.122-0.204,0.305-0.306,0.468-0.306
			c0.204,0,0.509,0.163,0.509,0.407c0,0.04-0.021,0.122-0.041,0.163l-2.524,4.396h1.954v-1.567c0-0.224,0.245-0.326,0.509-0.326
			s0.509,0.103,0.509,0.326v1.567h0.61c0.224,0,0.367,0.244,0.367,0.488s-0.183,0.468-0.367,0.468h-0.61v1.405
			c0,0.224-0.244,0.346-0.509,0.346s-0.509-0.122-0.509-0.346V129.046z"/>
		<path fill="#FFFFFF" d="M54.659,116.406c0-0.264,0.224-0.468,0.57-0.488h3.745c2.361,0,4.193,1.16,4.193,4.315v0.204
			c0,3.154-1.853,4.335-4.234,4.335h-2.931v5.496c0,0.346-0.346,0.529-0.672,0.529c-0.346,0-0.672-0.184-0.672-0.529V116.406z
			 M56.003,117.159v6.452h2.931c1.812,0,2.89-0.997,2.89-3.114v-0.244c0-2.117-1.079-3.094-2.89-3.094H56.003z"/>
		<path fill="#FFFFFF" d="M65.996,130.797c-0.305,0-0.611-0.184-0.611-0.529v-13.862c0-0.346,0.326-0.488,0.672-0.488
			c0.326,0,0.672,0.143,0.672,0.488v13.15h5.801c0.306,0,0.448,0.305,0.448,0.61c0,0.325-0.143,0.631-0.448,0.631H65.996z"/>
		<path fill="#FFFFFF" d="M73.689,130.227c0-0.04,0-0.102,0.02-0.143l4.255-13.82c0.102-0.326,0.448-0.469,0.794-0.469
			c0.366,0,0.713,0.163,0.814,0.469l4.233,13.82c0,0.041,0.021,0.082,0.021,0.123c0,0.325-0.447,0.59-0.814,0.59
			c-0.224,0-0.428-0.102-0.509-0.346l-0.937-3.135h-5.639l-0.936,3.135c-0.062,0.244-0.285,0.346-0.529,0.346
			C74.117,130.797,73.689,130.573,73.689,130.227z M81.22,126.156l-2.463-8.203l-2.483,8.203H81.22z"/>
		<path fill="#FFFFFF" d="M86.47,129.556h6.656c0.346,0,0.509,0.325,0.509,0.61c0,0.306-0.163,0.631-0.509,0.631h-7.898
			c-0.305,0-0.488-0.203-0.488-0.468c0-0.143,0.041-0.306,0.123-0.469l6.777-12.701h-6.146c-0.326,0-0.51-0.306-0.51-0.631
			c0-0.306,0.163-0.611,0.51-0.611h7.389c0.346,0,0.509,0.184,0.509,0.428c0,0.163-0.062,0.346-0.163,0.529L86.47,129.556z"/>
		<path fill="#FFFFFF" d="M94.529,130.227c0-0.04,0-0.102,0.021-0.143l4.254-13.82c0.102-0.326,0.447-0.469,0.794-0.469
			c0.366,0,0.712,0.163,0.813,0.469l4.234,13.82c0,0.041,0.021,0.082,0.021,0.123c0,0.325-0.448,0.59-0.814,0.59
			c-0.224,0-0.427-0.102-0.509-0.346l-0.937-3.135h-5.638l-0.938,3.135c-0.061,0.244-0.284,0.346-0.528,0.346
			C94.957,130.797,94.529,130.573,94.529,130.227z M102.061,126.156l-2.463-8.203l-2.483,8.203H102.061z"/>
		<path fill="#FFFFFF" d="M112.949,126.868c0-4.519-6.758-2.32-6.758-7.287c0-2.972,2.423-3.704,4.316-3.704
			c1.525,0,3.419,0.509,3.419,1.241c0,0.265-0.224,0.753-0.591,0.753c-0.387,0-1.058-0.773-2.85-0.773
			c-1.506,0-2.951,0.55-2.951,2.361c0,3.786,6.758,1.648,6.758,7.287c0,2.891-1.791,4.193-4.295,4.193
			c-2.605,0-4.172-1.466-4.172-2.198c0-0.326,0.305-0.753,0.609-0.753c0.529,0,0.938,1.689,3.481,1.689
			C111.81,129.678,112.949,128.721,112.949,126.868z"/>
	</g>
</g>
<g>
	<g>
		<path fill="#FFFFFF" d="M21.993,147.064v-6.311c0-3.155,1.852-4.336,4.234-4.336c2.381,0,4.234,1.181,4.234,4.336v6.311
			c0,3.175-1.853,4.355-4.234,4.355C23.845,151.419,21.993,150.239,21.993,147.064z M29.117,140.753c0-2.117-1.079-3.094-2.89-3.094
			s-2.891,0.977-2.891,3.094v6.311c0,2.137,1.079,3.114,2.891,3.114s2.89-0.978,2.89-3.114V140.753z M26.98,143.929
			c0,0.406-0.326,0.753-0.732,0.753c-0.448,0-0.753-0.347-0.753-0.753c0-0.428,0.305-0.733,0.753-0.733
			C26.655,143.196,26.98,143.501,26.98,143.929z"/>
		<path fill="#FFFFFF" d="M34.103,150.483c0,0.489-0.427,0.937-0.916,0.937c-0.549,0-0.936-0.447-0.936-0.937
			c0-0.529,0.387-0.956,0.936-0.956C33.676,149.527,34.103,149.953,34.103,150.483z"/>
		<path fill="#FFFFFF" d="M35.793,141.241v-0.488c0-3.155,1.832-4.336,4.213-4.336c2.381,0,4.254,1.181,4.254,4.336v6.311
			c0,3.175-1.873,4.355-4.275,4.355c-2.748,0-4.193-1.71-4.193-3.48c0-0.448,0.244-0.631,0.631-0.631
			c0.346,0,0.692,0.162,0.692,0.569c0,1.404,1.303,2.301,2.891,2.301c1.832,0,2.911-0.978,2.911-3.114v-3.115
			c-0.692,0.957-1.812,1.364-3.074,1.364C37.584,145.313,35.793,144.356,35.793,141.241z M42.917,140.712
			c0-2.137-1.099-3.114-2.911-3.114s-2.87,0.978-2.87,3.114v0.488c0,2.138,1.059,2.952,2.891,2.952c1.75,0,2.89-0.753,2.89-2.769
			V140.712z"/>
		<path fill="#FFFFFF" d="M46.62,147.064v-6.311c0-3.155,1.852-4.336,4.234-4.336c2.381,0,4.234,1.181,4.234,4.336v6.311
			c0,3.175-1.853,4.355-4.234,4.355C48.472,151.419,46.62,150.239,46.62,147.064z M53.744,140.753c0-2.117-1.079-3.094-2.89-3.094
			s-2.891,0.977-2.891,3.094v6.311c0,2.137,1.079,3.114,2.891,3.114s2.89-0.978,2.89-3.114V140.753z M51.607,143.929
			c0,0.406-0.326,0.753-0.732,0.753c-0.448,0-0.753-0.347-0.753-0.753c0-0.428,0.305-0.733,0.753-0.733
			C51.281,143.196,51.607,143.501,51.607,143.929z"/>
		<path fill="#FFFFFF" d="M60.928,150.503l2.707-4.071l-2.646-3.948c-0.041-0.082-0.102-0.163-0.102-0.265
			c0-0.326,0.468-0.672,0.814-0.672c0.122,0,0.305,0.041,0.407,0.203l2.402,3.726l2.422-3.726c0.081-0.143,0.265-0.203,0.387-0.203
			c0.326,0,0.814,0.325,0.814,0.672c0,0.081-0.041,0.162-0.102,0.265l-2.667,3.948l2.728,4.071c0.041,0.062,0.082,0.163,0.082,0.285
			c0,0.306-0.428,0.651-0.794,0.651c-0.143,0-0.305-0.062-0.387-0.204l-2.483-3.806l-2.463,3.806
			c-0.102,0.143-0.265,0.204-0.428,0.204c-0.305,0-0.773-0.326-0.773-0.651C60.846,150.687,60.887,150.584,60.928,150.503z"/>
		<path fill="#FFFFFF" d="M74.748,138.698l-0.814,1.323c-0.122,0.183-0.265,0.244-0.387,0.244c-0.305,0-0.529-0.285-0.529-0.591
			c0-0.183,0.162-0.488,0.305-0.61l1.67-2.361c0.122-0.163,0.244-0.306,0.509-0.306c0.284,0,0.591,0.184,0.591,0.509v13.862
			c0,0.346-0.347,0.529-0.672,0.529c-0.347,0-0.672-0.184-0.672-0.529V138.698z"/>
		<path fill="#FFFFFF" d="M80.161,150.483c0,0.489-0.427,0.937-0.916,0.937c-0.55,0-0.937-0.447-0.937-0.937
			c0-0.529,0.387-0.956,0.937-0.956C79.734,149.527,80.161,149.953,80.161,150.483z"/>
		<path fill="#FFFFFF" d="M81.85,141.241v-0.488c0-3.155,1.831-4.336,4.214-4.336c2.381,0,4.254,1.181,4.254,4.336v6.311
			c0,3.175-1.873,4.355-4.275,4.355c-2.748,0-4.192-1.71-4.192-3.48c0-0.448,0.244-0.631,0.631-0.631
			c0.347,0,0.692,0.162,0.692,0.569c0,1.404,1.303,2.301,2.891,2.301c1.832,0,2.91-0.978,2.91-3.114v-3.115
			c-0.691,0.957-1.812,1.364-3.074,1.364C83.641,145.313,81.85,144.356,81.85,141.241z M88.974,140.712
			c0-2.137-1.1-3.114-2.91-3.114c-1.813,0-2.871,0.978-2.871,3.114v0.488c0,2.138,1.059,2.952,2.891,2.952
			c1.751,0,2.891-0.753,2.891-2.769V140.712z"/>
		<path fill="#FFFFFF" d="M92.677,147.064v-6.311c0-3.155,1.853-4.336,4.234-4.336c2.381,0,4.234,1.181,4.234,4.336v6.311
			c0,3.175-1.854,4.355-4.234,4.355C94.53,151.419,92.677,150.239,92.677,147.064z M99.802,140.753c0-2.117-1.079-3.094-2.891-3.094
			s-2.891,0.977-2.891,3.094v6.311c0,2.137,1.079,3.114,2.891,3.114s2.891-0.978,2.891-3.114V140.753z M97.665,143.929
			c0,0.406-0.325,0.753-0.732,0.753c-0.448,0-0.753-0.347-0.753-0.753c0-0.428,0.305-0.733,0.753-0.733
			C97.34,143.196,97.665,143.501,97.665,143.929z"/>
		<path fill="#FFFFFF" d="M113.722,145.292c0-1.466-1.058-2.524-2.32-2.524c-1.18,0-2.401,0.937-2.401,2.586v5.414
			c0,0.265-0.306,0.529-0.672,0.529s-0.651-0.265-0.651-0.529v-8.61c0-0.285,0.285-0.488,0.651-0.488
			c0.347,0,0.632,0.203,0.632,0.488v0.937c0.447-0.794,1.363-1.547,2.707-1.547c1.343,0,2.401,0.834,2.891,2.035
			c0.712-1.384,1.912-2.035,3.094-2.035c1.75,0,3.42,1.384,3.42,3.807v5.414c0,0.265-0.285,0.529-0.672,0.529
			c-0.347,0-0.652-0.265-0.652-0.529v-5.414c0-1.71-1.201-2.586-2.32-2.586c-1.18,0-2.381,0.978-2.381,2.504v5.517
			c0,0.366-0.346,0.509-0.672,0.509c-0.306,0-0.652-0.143-0.652-0.509V145.292z"/>
	</g>
</g>
<g>
	<g>
		<path fill="#FFFFFF" d="M111.951,54.77c0,0.398-0.323,0.722-0.723,0.722H29.674c-0.399,0-0.723-0.323-0.723-0.722V30.213
			c0-0.398,0.324-0.722,0.723-0.722h81.555c0.399,0,0.723,0.323,0.723,0.722V54.77z"/>
		<path opacity="0.1" fill="#FFFFFF" d="M70.951,29.491h41.867c0.399,0,0.133,0.084,0.133,0.483v24.558
			c0,0.398,0.267,0.959-0.133,0.959H70.951"/>
	</g>
	<rect x="20.951" y="27.491" fill="#FFFFFF" width="99" height="2"/>
	<g>
		<polygon fill="#C1CBCB" points="30.478,54.415 24.358,67.34 21.488,72.601 121.932,71.645 119.062,66.384 112.818,54.054 		"/>
		<polygon fill="#CBD0D1" points="29.619,54.367 27.302,61.491 116.48,61.491 113.305,54.703 		"/>
		<path fill="#C1CBCB" d="M65.951,53.158c0,2.393-1.94,4.333-4.334,4.333H39.285c-2.394,0-4.334-1.94-4.334-4.333v-2.334
			c0-2.393,1.94-4.333,4.334-4.333h22.332c2.394,0,4.334,1.94,4.334,4.333V53.158z"/>
		<path fill="#C1CBCB" d="M106.951,53.158c0,2.393-1.94,4.333-4.334,4.333H80.285c-2.394,0-4.334-1.94-4.334-4.333v-2.334
			c0-2.393,1.94-4.333,4.334-4.333h22.332c2.394,0,4.334,1.94,4.334,4.333V53.158z"/>
	</g>
	<path fill="#FFFFFF" d="M120.951,89.318c0,0.27,0.873,1.174,0.398,1.174H23.393c-0.475,0-1.442-0.904-1.442-1.174V72.601
		c0-0.271,0.967-1.109,1.442-1.109h97.957c0.475,0-0.398,0.839-0.398,1.109V89.318z"/>
	<path fill="#FFFFFF" d="M70.951,71.491h50.398c0.475,0-0.398,0.669-0.398,0.938v16.646c0,0.27,0.873,1.415,0.398,1.415H70.951"/>
	<rect x="20.951" y="67.491" fill="#FFFFFF" width="3" height="28"/>
	<rect x="119.951" y="66.491" fill="#FFFFFF" width="2" height="29"/>
</g>
</svg>
