<?xml version="1.0" encoding="utf-8"?>
<!-- Generator: Adobe Illustrator 16.0.0, SVG Export Plug-In . SVG Version: 6.00 Build 0)  -->
<!DOCTYPE svg PUBLIC "-//W3C//DTD SVG 1.1//EN" "http://www.w3.org/Graphics/SVG/1.1/DTD/svg11.dtd">
<svg version="1.1" id="Capa_1" xmlns="http://www.w3.org/2000/svg" xmlns:xlink="http://www.w3.org/1999/xlink" x="0px" y="0px"
	 width="143.775px" height="161.758px" viewBox="0 0 143.775 161.758" enable-background="new 0 0 143.775 161.758"
	 xml:space="preserve">
<rect x="0.117" fill="#645E53" width="143.658" height="161.758"/>
<g>
	<g>
		<path fill="#FFFFFF" d="M27.729,146.095c0-0.034,0-0.085,0.017-0.119l3.556-11.552c0.085-0.272,0.374-0.392,0.664-0.392
			c0.306,0,0.595,0.136,0.681,0.392l3.538,11.552c0,0.034,0.018,0.068,0.018,0.103c0,0.272-0.375,0.493-0.681,0.493
			c-0.188,0-0.357-0.085-0.426-0.289l-0.782-2.62h-4.713l-0.782,2.62c-0.052,0.204-0.238,0.289-0.442,0.289
			C28.086,146.571,27.729,146.384,27.729,146.095z M34.024,142.692l-2.059-6.856l-2.076,6.856H34.024z"/>
		<path fill="#FFFFFF" d="M41.374,134.135c1.99,0,3.556,0.986,3.556,3.623v5.173c0,2.654-1.565,3.641-3.556,3.641h-3.012
			c-0.307,0-0.511-0.204-0.511-0.426v-11.603c0-0.222,0.204-0.408,0.511-0.408H41.374z M38.975,135.172v10.361h2.399
			c1.514,0,2.433-0.833,2.433-2.603v-5.173c0-1.769-0.919-2.586-2.433-2.586H38.975z"/>
		<path fill="#FFFFFF" d="M47.243,143.032v-5.274c0-2.637,1.548-3.623,3.539-3.623c1.99,0,3.538,0.986,3.538,3.623v5.274
			c0,2.654-1.548,3.642-3.538,3.642C48.791,146.674,47.243,145.687,47.243,143.032z M53.198,137.758
			c0-1.769-0.902-2.586-2.416-2.586c-1.515,0-2.416,0.817-2.416,2.586v5.274c0,1.787,0.901,2.604,2.416,2.604
			c1.514,0,2.416-0.816,2.416-2.604V137.758z"/>
		<path fill="#FFFFFF" d="M57.28,146.571c-0.255,0-0.51-0.153-0.51-0.442v-11.586c0-0.289,0.272-0.408,0.562-0.408
			c0.271,0,0.562,0.119,0.562,0.408v10.99h4.849c0.255,0,0.374,0.256,0.374,0.511c0,0.272-0.119,0.527-0.374,0.527H57.28z"/>
		<path fill="#FFFFFF" d="M65.771,139.851h2.671c0.272,0,0.425,0.238,0.425,0.511c0,0.221-0.119,0.459-0.425,0.459h-2.671v4.713
			h5.444c0.271,0,0.425,0.256,0.425,0.527c0,0.238-0.119,0.511-0.425,0.511h-6.058c-0.255,0-0.51-0.153-0.51-0.442V134.56
			c0-0.289,0.255-0.425,0.51-0.425h6.058c0.306,0,0.425,0.255,0.425,0.493c0,0.289-0.153,0.544-0.425,0.544h-5.444V139.851z"/>
		<path fill="#FFFFFF" d="M76.506,135.172c-1.583,0-2.45,0.817-2.45,2.586v5.274c0,1.787,0.867,2.604,2.518,2.604
			c2.024,0,2.212-1.276,2.314-2.093c0.033-0.272,0.204-0.442,0.562-0.442c0.391,0,0.561,0.136,0.561,0.697
			c0,1.549-1.31,2.876-3.556,2.876c-1.922,0-3.521-0.987-3.521-3.642v-5.274c0-2.637,1.633-3.623,3.573-3.623
			c2.229,0,3.504,1.31,3.504,2.841c0,0.562-0.17,0.681-0.561,0.681c-0.392,0-0.545-0.188-0.562-0.426
			C78.854,136.499,78.53,135.172,76.506,135.172z"/>
		<path fill="#FFFFFF" d="M83.09,139.851h2.671c0.272,0,0.425,0.238,0.425,0.511c0,0.221-0.119,0.459-0.425,0.459H83.09v4.713h5.444
			c0.271,0,0.425,0.256,0.425,0.527c0,0.238-0.119,0.511-0.425,0.511h-6.058c-0.255,0-0.51-0.153-0.51-0.442V134.56
			c0-0.289,0.255-0.425,0.51-0.425h6.058c0.306,0,0.425,0.255,0.425,0.493c0,0.289-0.153,0.544-0.425,0.544H83.09V139.851z"/>
		<path fill="#FFFFFF" d="M96.462,145.925l-4.729-9.204v9.408c0,0.289-0.29,0.442-0.562,0.442c-0.289,0-0.562-0.153-0.562-0.442
			V134.56c0-0.306,0.272-0.425,0.562-0.425c0.408,0,0.663,0.356,0.885,0.782l4.594,9.051v-9.425c0-0.289,0.271-0.408,0.562-0.408
			c0.271,0,0.561,0.119,0.561,0.408v11.586c0,0.289-0.289,0.442-0.561,0.442C96.887,146.571,96.632,146.265,96.462,145.925z"/>
		<path fill="#FFFFFF" d="M106.567,134.135c0.289,0,0.426,0.255,0.426,0.51c0,0.272-0.137,0.545-0.426,0.545h-2.841v10.939
			c0,0.289-0.289,0.442-0.562,0.442c-0.289,0-0.562-0.153-0.562-0.442v-10.939h-2.858c-0.272,0-0.425-0.256-0.425-0.527
			c0-0.256,0.136-0.527,0.425-0.527H106.567z"/>
		<path fill="#FFFFFF" d="M109.664,139.851h2.671c0.272,0,0.425,0.238,0.425,0.511c0,0.221-0.119,0.459-0.425,0.459h-2.671v4.713
			h5.444c0.271,0,0.425,0.256,0.425,0.527c0,0.238-0.119,0.511-0.425,0.511h-6.058c-0.255,0-0.51-0.153-0.51-0.442V134.56
			c0-0.289,0.255-0.425,0.51-0.425h6.058c0.306,0,0.425,0.255,0.425,0.493c0,0.289-0.153,0.544-0.425,0.544h-5.444V139.851z"/>
	</g>
</g>
<g>
	<rect x="31.488" y="7.841" fill="none" width="77.32" height="109.515"/>
	<g>
		<path fill="#FFFFFF" d="M95.832,37.335c3.449,0,6.686-1.967,8.276-5.028c1.611-3.102,1.318-6.958-0.742-9.781
			c-2.051-2.81-5.579-4.263-9.014-3.714c-3.378,0.54-6.258,2.979-7.353,6.218c-1.116,3.31-0.248,7.058,2.206,9.541
			C90.948,36.331,93.357,37.335,95.832,37.335L95.832,37.335z M95.832,37.335"/>
		<path fill="#FFFFFF" d="M49.301,33.225c1.685,1.521,3.903,2.372,6.173,2.372c3.446,0,6.677-1.989,8.231-5.066
			c1.575-3.119,1.215-6.971-0.907-9.745c-2.117-2.765-5.695-4.119-9.112-3.448c-3.353,0.659-6.134,3.218-7.073,6.502
			C45.652,27.194,46.712,30.89,49.301,33.225L49.301,33.225z M49.301,33.225"/>
	</g>
	<path fill="#FFFFFF" d="M111.767,69.203c-0.008-0.366-0.005-0.225-0.004-0.082c-0.024-1.145-0.069-2.283-0.125-3.425
		c-0.054-0.696-0.107-1.392-0.163-2.089c-0.199-1.834-0.453-3.639-0.773-5.447c-0.115-0.542-0.23-1.089-0.347-1.638
		c-0.138-0.547-0.273-1.096-0.418-1.646c-0.407-1.373-0.843-2.399-1.346-3.723c-0.326-0.768-0.666-1.52-1.018-2.269
		c-1.767-3.44-4.124-6.432-7.098-8.26c-2.087-1.282-5.689-2.223-8.942-0.046c-3.554,2.377-6.437,6.145-8.27,10.547l-0.059,0.314
		c-0.043,0.1-0.092,0.197-0.135,0.299c-0.503,1.324-0.938,2.351-1.346,3.723c-0.145,0.55-0.279,1.1-0.417,1.646
		c-0.116,0.549-0.231,1.097-0.348,1.638c-0.319,1.808-0.573,3.612-0.772,5.447c-0.057,0.697-0.11,1.393-0.164,2.089
		c-0.042,0.879-0.07,1.757-0.096,2.636l-0.011,0.054c-0.003,0.137-0.006,0.296-0.009,0.466c-0.002,0.09-0.008,0.179-0.01,0.269
		c0.002-0.144,0.005-0.285-0.004,0.082c0,0.071,0,0.079,0,0.059c-0.004,0.264,0.002,0.528,0.001,0.792
		c-0.008,1.133-0.009,2.271-0.009,2.271c0.006,0.22,0.027,0.434,0.062,0.641c0.01,0.058,0.026,0.112,0.038,0.168
		c0.262,1.278,1.048,2.25,2.113,2.387c1.383,0.176,2.668-1.121,2.782-2.849l0.008-0.117c0.007-0.107,0.015-0.214,0.021-0.321
		c0.059-0.85,0.124-1.698,0.201-2.543c0.106-1.066,0.215-2.131,0.349-3.195c0.408-2.617,0.914-5.183,1.704-7.666
		c0.049-0.142,0.099-0.282,0.146-0.425v2.243l1.191,8.665l-3.962,13.92l-1.651,5.394c-0.09,0.568,0.026,1.141,0.317,1.579
		c0.29,0.437,0.718,0.688,1.175,0.688h3.45l0.949,22.831c0.08,1.9,1.383,3.439,2.914,3.436c1.168-0.003,2.195-0.909,2.652-2.182
		c0.295-0.533,0.483-1.161,0.513-1.84l0.949-22.83h0.366l0.888,22.817c0.078,1.898,1.374,3.444,2.902,3.448
		c1.532,0.005,2.834-1.534,2.914-3.436l0.949-22.83h3.45c0.457,0,0.886-0.253,1.175-0.688c0.291-0.439,0.407-1.012,0.318-1.579
		l-5.707-18.637l1.284-9.342V58.29c0.072,0.212,0.145,0.426,0.217,0.64c0.127,0.432,0.255,0.862,0.38,1.288
		c0.383,1.488,0.704,2.979,0.989,4.501c0.094,0.599,0.186,1.199,0.278,1.799c0.245,1.994,0.424,3.981,0.559,5.991l0.008,0.127
		c0.113,1.643,1.285,2.911,2.605,2.833c1.305-0.074,2.364-1.447,2.377-3.07c0.009-1.046,0.02-2.091,0.004-3.137
		C111.768,69.282,111.768,69.274,111.767,69.203z"/>
	<line fill="none" stroke="#645E53" stroke-miterlimit="10" x1="67.059" y1="24.786" x2="43.685" y2="24.786"/>
	<polygon fill="#FFFFFF" points="41.454,21.899 47.747,21.899 47.747,24.26 38.454,24.26 	"/>
	<g>
		<path fill="#FFFFFF" d="M74.847,60.853c-0.465-5.315-1.882-10.667-4.938-15.093c-1.168-1.691-2.567-3.223-4.165-4.51
			c-1.021-0.852-2.127-1.603-3.322-2.228c-0.676-0.354-1.374-0.665-2.092-0.917c-3.292-1.16-7.272-1.176-10.857,0.352
			c-1.011,0.431-1.979,0.967-2.894,1.579c-2.184,1.459-4.053,3.369-5.547,5.533c-3.055,4.426-4.473,9.778-4.938,15.093
			c-0.357,4.095-0.182,8.246,0.334,12.32l0.005,0.036c0.211,1.606,1.684,2.793,3.285,2.659c1.613-0.136,2.868-1.576,2.796-3.204
			c-0.03,0-0.052-2.225-0.052-2.453c-0.004-1.239,0.029-2.477,0.105-3.712c0.167-2.671,0.536-5.34,1.239-7.924
			c0.5-1.84,1.18-3.636,2.104-5.304l0.166,15.983c0.562,2.176-0.95,7.237-0.459,10.846l1.583,33.614
			c0.096,1.89,1.697,3.427,3.577,3.418c1.872-0.009,3.453-1.545,3.537-3.427l1.131-25.394l1.094,23.65l0.086,1.937
			c0.083,1.882,1.665,3.416,3.537,3.425c1.88,0.009,3.481-1.526,3.577-3.416l1.582-33.615c0.348-4.619,0.089-9.125-0.236-11.972
			l-0.017-14.529c2.354,4.55,3.051,9.865,3.159,14.932c-0.035,1.212-0.037,3.94-0.037,3.94c0.031,1.046,0.479,1.974,1.199,2.562
			c0.487,0.466,1.126,0.775,1.832,0.834c1.602,0.134,3.074-1.053,3.285-2.659l0.005-0.036
			C75.029,69.099,75.205,64.948,74.847,60.853z"/>
	</g>
</g>
</svg>
