<?xml version="1.0" encoding="utf-8"?>
<!-- Generator: Adobe Illustrator 16.0.0, SVG Export Plug-In . SVG Version: 6.00 Build 0)  -->
<!DOCTYPE svg PUBLIC "-//W3C//DTD SVG 1.1//EN" "http://www.w3.org/Graphics/SVG/1.1/DTD/svg11.dtd">
<svg version="1.1" id="Capa_1" xmlns="http://www.w3.org/2000/svg" xmlns:xlink="http://www.w3.org/1999/xlink" x="0px" y="0px"
	 width="143.028px" height="161.758px" viewBox="0 0 143.028 161.758" enable-background="new 0 0 143.028 161.758"
	 xml:space="preserve">
<rect x="0.023" fill="#645E53" width="143.028" height="161.758"/>
<g>
	<path fill="#FFFFFF" d="M48.026,141.925l-4.729-9.204v9.408c0,0.289-0.29,0.442-0.562,0.442c-0.289,0-0.562-0.153-0.562-0.442
		V130.56c0-0.306,0.272-0.425,0.562-0.425c0.408,0,0.663,0.356,0.885,0.782l4.594,9.051v-9.425c0-0.289,0.271-0.408,0.562-0.408
		c0.271,0,0.561,0.119,0.561,0.408v11.586c0,0.289-0.289,0.442-0.561,0.442C48.451,142.571,48.196,142.265,48.026,141.925z"/>
	<path fill="#FFFFFF" d="M51.921,130.543c0-0.289,0.272-0.408,0.562-0.408c0.272,0,0.562,0.119,0.562,0.408v11.586
		c0,0.289-0.289,0.442-0.562,0.442c-0.289,0-0.562-0.153-0.562-0.442V130.543z"/>
	<path fill="#FFFFFF" d="M61.483,141.925l-4.729-9.204v9.408c0,0.289-0.29,0.442-0.562,0.442c-0.289,0-0.562-0.153-0.562-0.442
		V130.56c0-0.306,0.272-0.425,0.562-0.425c0.408,0,0.663,0.356,0.885,0.782l4.594,9.051v-9.425c0-0.289,0.271-0.408,0.562-0.408
		c0.271,0,0.561,0.119,0.561,0.408v11.586c0,0.289-0.289,0.442-0.561,0.442C61.908,142.571,61.653,142.265,61.483,141.925z"/>
	<path fill="#FFFFFF" d="M68.782,131.172c-1.515,0-2.416,0.817-2.416,2.586v5.274c0,1.77,0.901,2.604,2.416,2.604
		c1.514,0,2.416-0.834,2.416-2.604v-2.024h-2.28c-0.255,0-0.408-0.238-0.408-0.493c0-0.238,0.153-0.477,0.408-0.477h2.994
		c0.272,0,0.408,0.204,0.408,0.442v2.552c0,2.654-1.548,3.642-3.538,3.642c-1.991,0-3.539-0.987-3.539-3.642v-5.274
		c0-2.637,1.548-3.623,3.521-3.623c2.178,0,3.556,1.241,3.556,2.943c0,0.442-0.221,0.578-0.561,0.578
		c-0.29,0-0.545-0.119-0.562-0.426C71.044,131.921,70.261,131.172,68.782,131.172z"/>
	<path fill="#FFFFFF" d="M80.554,130.543c0-0.289,0.272-0.408,0.562-0.408c0.272,0,0.562,0.119,0.562,0.408v8.489
		c0,2.654-1.582,3.642-3.572,3.642c-2.008,0-3.573-0.987-3.573-3.642v-8.489c0-0.289,0.289-0.408,0.562-0.408
		c0.289,0,0.562,0.119,0.562,0.408v8.489c0,1.77,0.919,2.604,2.45,2.604s2.449-0.834,2.449-2.604V130.543z"/>
	<path fill="#FFFFFF" d="M90.064,141.925l-4.729-9.204v9.408c0,0.289-0.289,0.442-0.562,0.442c-0.289,0-0.562-0.153-0.562-0.442
		V130.56c0-0.306,0.272-0.425,0.562-0.425c0.408,0,0.664,0.356,0.885,0.782l4.594,9.051v-9.425c0-0.289,0.272-0.408,0.562-0.408
		c0.272,0,0.562,0.119,0.562,0.408v11.586c0,0.289-0.289,0.442-0.562,0.442C90.49,142.571,90.235,142.265,90.064,141.925z"/>
	<path fill="#FFFFFF" d="M93.824,139.032v-5.274c0-2.637,1.549-3.623,3.539-3.623c1.991,0,3.539,0.986,3.539,3.623v5.274
		c0,2.654-1.548,3.642-3.539,3.642C95.373,142.674,93.824,141.687,93.824,139.032z M99.779,133.758c0-1.769-0.901-2.586-2.416-2.586
		c-1.514,0-2.416,0.817-2.416,2.586v5.274c0,1.787,0.902,2.604,2.416,2.604c1.515,0,2.416-0.816,2.416-2.604V133.758z"/>
</g>
<g>
	<g>
		<path fill="#FFFFFF" d="M100.583,43.668c-3.762-3.669-8.958-5.508-15.592-5.508c-1.838,0-3.712,0.32-5.621,0.957
			c-1.912,0.636-3.688,1.495-5.33,2.573c-1.646,1.081-3.057,2.099-4.244,3.044c-1.185,0.948-2.308,1.957-3.376,3.022
			c-1.064-1.065-2.19-2.074-3.376-3.022c-1.184-0.945-2.598-1.96-4.24-3.044c-1.645-1.081-3.422-1.938-5.333-2.573
			c-1.909-0.637-3.783-0.957-5.618-0.957c-6.634,0-11.831,1.839-15.593,5.508c-3.762,3.673-5.641,8.77-5.641,15.283
			c0,1.982,0.349,4.027,1.043,6.128c0.699,2.104,1.489,3.896,2.378,5.377c0.889,1.479,1.896,2.924,3.021,4.332
			c1.124,1.408,1.947,2.377,2.465,2.907c0.517,0.533,0.924,0.921,1.219,1.157l27.721,26.74c0.532,0.535,1.185,0.803,1.954,0.803
			c0.772,0,1.422-0.268,1.957-0.8l27.676-26.656c6.78-6.78,10.173-13.443,10.173-19.988
			C106.226,52.438,104.343,47.341,100.583,43.668L100.583,43.668z M100.583,43.668"/>
	</g>
	<path fill="#FFFFFF" stroke="#625D52" stroke-width="4" stroke-miterlimit="10" d="M113.017,58.733
		c-0.828-0.829-1.91-1.241-3.004-1.241c-0.551,0-1.104,0.104-1.623,0.317c-0.499,0.214-0.977,0.509-1.38,0.924L80.191,85.563
		l-9.212-9.212c-0.828-0.829-1.911-1.242-3.003-1.242s-2.175,0.413-3.003,1.242l-6.198,6.197c-1.656,1.656-1.656,4.34,0,6.007
		l5.71,5.709l9.604,9.604c1.613,1.613,3.81,2.527,6.103,2.527c2.292,0,4.479-0.914,6.103-2.527l32.92-32.931
		c1.656-1.656,1.656-4.341,0-6.008L113.017,58.733z M113.017,58.733"/>
</g>
</svg>
