<?xml version="1.0" encoding="utf-8"?>
<!-- Generator: Adobe Illustrator 16.0.0, SVG Export Plug-In . SVG Version: 6.00 Build 0)  -->
<!DOCTYPE svg PUBLIC "-//W3C//DTD SVG 1.1//EN" "http://www.w3.org/Graphics/SVG/1.1/DTD/svg11.dtd">
<svg version="1.1" id="Capa_1" xmlns="http://www.w3.org/2000/svg" xmlns:xlink="http://www.w3.org/1999/xlink" x="0px" y="0px"
	 width="143.028px" height="161.758px" viewBox="0 0 143.028 161.758" enable-background="new 0 0 143.028 161.758"
	 xml:space="preserve">
<rect x="0" fill="#645E53" width="143.027" height="161.758"/>
<g>
	<path fill="#FFFFFF" d="M30.596,145.127c0-3.303-4.939-1.696-4.939-5.326c0-2.172,1.771-2.708,3.154-2.708
		c1.116,0,2.499,0.372,2.499,0.907c0,0.194-0.164,0.551-0.431,0.551c-0.283,0-0.774-0.565-2.083-0.565
		c-1.101,0-2.157,0.402-2.157,1.726c0,2.768,4.939,1.205,4.939,5.326c0,2.113-1.309,3.065-3.139,3.065
		c-1.904,0-3.05-1.071-3.05-1.607c0-0.237,0.223-0.55,0.446-0.55c0.387,0,0.685,1.234,2.544,1.234
		C29.763,147.18,30.596,146.48,30.596,145.127z"/>
	<path fill="#FFFFFF" d="M32.512,147.581c0-0.029,0-0.074,0.015-0.104l3.109-10.102c0.075-0.238,0.328-0.343,0.581-0.343
		c0.268,0,0.521,0.119,0.595,0.343l3.095,10.102c0,0.029,0.015,0.06,0.015,0.089c0,0.238-0.327,0.432-0.595,0.432
		c-0.164,0-0.313-0.074-0.372-0.253l-0.685-2.291h-4.121l-0.684,2.291c-0.045,0.179-0.208,0.253-0.387,0.253
		C32.825,147.998,32.512,147.834,32.512,147.581z M38.017,144.606l-1.8-5.996l-1.815,5.996H38.017z"/>
	<path fill="#FFFFFF" d="M41.808,147.998c-0.223,0-0.446-0.134-0.446-0.387v-10.132c0-0.253,0.238-0.356,0.491-0.356
		c0.238,0,0.491,0.104,0.491,0.356v9.611h4.24c0.223,0,0.327,0.223,0.327,0.446c0,0.237-0.104,0.461-0.327,0.461H41.808z"/>
	<path fill="#FFFFFF" d="M53.201,137.479c0-0.253,0.238-0.356,0.491-0.356c0.238,0,0.491,0.104,0.491,0.356v7.424
		c0,2.321-1.383,3.184-3.124,3.184c-1.756,0-3.125-0.862-3.125-3.184v-7.424c0-0.253,0.253-0.356,0.491-0.356
		c0.253,0,0.491,0.104,0.491,0.356v7.424c0,1.548,0.803,2.276,2.143,2.276c1.339,0,2.142-0.729,2.142-2.276V137.479z"/>
	<path fill="#FFFFFF" d="M59.477,137.123c1.741,0,3.109,0.862,3.109,3.169v4.522c0,2.32-1.369,3.184-3.109,3.184h-2.633
		c-0.268,0-0.446-0.179-0.446-0.372v-10.146c0-0.193,0.178-0.356,0.446-0.356H59.477z M57.379,138.03v9.061h2.098
		c1.324,0,2.127-0.729,2.127-2.276v-4.522c0-1.548-0.804-2.262-2.127-2.262H57.379z"/>
	<path fill="#FFFFFF" d="M70.705,138.03c-1.383,0-2.142,0.714-2.142,2.262v4.611c0,1.563,0.759,2.276,2.202,2.276
		c1.771,0,1.934-1.115,2.023-1.83c0.03-0.237,0.179-0.387,0.491-0.387c0.342,0,0.491,0.119,0.491,0.61
		c0,1.354-1.146,2.514-3.109,2.514c-1.681,0-3.08-0.862-3.08-3.184v-4.611c0-2.307,1.428-3.169,3.124-3.169
		c1.949,0,3.065,1.146,3.065,2.484c0,0.491-0.149,0.595-0.491,0.595c-0.342,0-0.476-0.163-0.491-0.372
		C72.758,139.19,72.476,138.03,70.705,138.03z"/>
	<path fill="#FFFFFF" d="M75.478,137.479c0-0.193,0.148-0.342,0.372-0.356h2.633c1.741,0,3.214,0.699,3.214,2.931
		c0,1.845-1.027,2.648-2.321,2.871l2.292,4.403c0.044,0.06,0.06,0.135,0.06,0.193c0,0.253-0.283,0.506-0.565,0.506
		c-0.238,0-0.402-0.282-0.521-0.521l-2.291-4.463H76.46v4.567c0,0.253-0.253,0.387-0.491,0.387c-0.253,0-0.491-0.134-0.491-0.387
		V137.479z M76.46,138.03v4.166h2.023c1.324,0,2.232-0.596,2.232-2.098c0-1.488-0.908-2.068-2.232-2.068H76.46z"/>
	<path fill="#FFFFFF" d="M83.226,144.903v-4.611c0-2.307,1.354-3.169,3.094-3.169c1.741,0,3.095,0.862,3.095,3.169v4.611
		c0,2.321-1.354,3.184-3.095,3.184C84.58,148.087,83.226,147.225,83.226,144.903z M88.433,140.292c0-1.548-0.789-2.262-2.113-2.262
		c-1.324,0-2.112,0.714-2.112,2.262v4.611c0,1.563,0.789,2.276,2.112,2.276c1.324,0,2.113-0.714,2.113-2.276V140.292z
		 M85.874,135.382c-0.044,0.03-0.104,0.045-0.148,0.045c-0.208,0-0.387-0.208-0.387-0.417c0-0.104,0.045-0.208,0.164-0.268
		l1.666-0.907c0.03-0.03,0.089-0.045,0.119-0.045c0.223,0,0.357,0.224,0.357,0.417c0,0.134-0.06,0.268-0.179,0.327L85.874,135.382z"
		/>
	<path fill="#FFFFFF" d="M96.672,147.433l-4.136-8.049v8.228c0,0.253-0.253,0.387-0.491,0.387c-0.253,0-0.491-0.134-0.491-0.387
		v-10.116c0-0.269,0.238-0.372,0.491-0.372c0.357,0,0.58,0.313,0.773,0.684l4.017,7.915v-8.242c0-0.253,0.238-0.356,0.491-0.356
		c0.238,0,0.491,0.104,0.491,0.356v10.132c0,0.253-0.253,0.387-0.491,0.387C97.044,147.998,96.821,147.73,96.672,147.433z"/>
	<path fill="#FFFFFF" d="M100.076,137.479c0-0.253,0.238-0.356,0.491-0.356c0.238,0,0.491,0.104,0.491,0.356v10.132
		c0,0.253-0.253,0.387-0.491,0.387c-0.253,0-0.491-0.134-0.491-0.387V137.479z"/>
	<path fill="#FFFFFF" d="M106.323,138.03c-1.383,0-2.142,0.714-2.142,2.262v4.611c0,1.563,0.759,2.276,2.202,2.276
		c1.771,0,1.934-1.115,2.023-1.83c0.03-0.237,0.179-0.387,0.491-0.387c0.342,0,0.491,0.119,0.491,0.61
		c0,1.354-1.146,2.514-3.109,2.514c-1.681,0-3.08-0.862-3.08-3.184v-4.611c0-2.307,1.428-3.169,3.124-3.169
		c1.949,0,3.065,1.146,3.065,2.484c0,0.491-0.149,0.595-0.491,0.595c-0.342,0-0.476-0.163-0.491-0.372
		C108.376,139.19,108.094,138.03,106.323,138.03z"/>
	<path fill="#FFFFFF" d="M110.977,144.903v-4.611c0-2.307,1.354-3.169,3.094-3.169c1.741,0,3.095,0.862,3.095,3.169v4.611
		c0,2.321-1.354,3.184-3.095,3.184C112.331,148.087,110.977,147.225,110.977,144.903z M116.184,140.292
		c0-1.548-0.789-2.262-2.113-2.262c-1.324,0-2.112,0.714-2.112,2.262v4.611c0,1.563,0.789,2.276,2.112,2.276
		c1.324,0,2.113-0.714,2.113-2.276V140.292z"/>
</g>
<g>
	<path fill="#FFFFFF" d="M31.055,120.979c0-0.193,0.164-0.342,0.417-0.356h2.737c1.726,0,3.065,0.848,3.065,3.153v0.149
		c0,2.306-1.354,3.169-3.095,3.169h-2.142v4.017c0,0.253-0.253,0.387-0.491,0.387c-0.253,0-0.491-0.134-0.491-0.387V120.979z
		 M32.037,121.53v4.716h2.142c1.324,0,2.113-0.729,2.113-2.276v-0.178c0-1.548-0.789-2.262-2.113-2.262H32.037z"/>
	<path fill="#FFFFFF" d="M38.893,120.979c0-0.193,0.148-0.342,0.372-0.356h2.633c1.741,0,3.214,0.699,3.214,2.931
		c0,1.845-1.027,2.648-2.321,2.871l2.292,4.403c0.044,0.06,0.059,0.135,0.059,0.193c0,0.253-0.282,0.506-0.565,0.506
		c-0.238,0-0.402-0.282-0.521-0.521l-2.291-4.463h-1.889v4.567c0,0.253-0.253,0.387-0.491,0.387c-0.253,0-0.491-0.134-0.491-0.387
		V120.979z M39.875,121.53v4.166h2.023c1.324,0,2.232-0.596,2.232-2.098c0-1.488-0.908-2.068-2.232-2.068H39.875z"/>
	<path fill="#FFFFFF" d="M46.641,128.403v-4.611c0-2.307,1.354-3.169,3.094-3.169c1.741,0,3.095,0.862,3.095,3.169v4.611
		c0,2.321-1.354,3.184-3.095,3.184C47.995,131.587,46.641,130.725,46.641,128.403z M51.848,123.792c0-1.548-0.789-2.262-2.113-2.262
		c-1.324,0-2.112,0.714-2.112,2.262v4.611c0,1.563,0.789,2.276,2.112,2.276c1.324,0,2.113-0.714,2.113-2.276V123.792z"/>
	<path fill="#FFFFFF" d="M54.969,120.995c0-0.253,0.223-0.372,0.446-0.372h2.44c1.666,0,3.035,0.431,3.035,2.529
		c0,1.249-0.506,2.127-1.265,2.454c0.908,0.372,1.533,1.042,1.533,2.56v0.268c0,2.261-1.294,3.064-2.946,3.064h-2.797
		c-0.283,0-0.446-0.179-0.446-0.372V120.995z M55.936,125.175h1.949c1.369,0,2.023-0.506,2.023-1.919
		c0-1.368-0.863-1.726-2.083-1.726h-1.89V125.175z M58.093,130.591c1.294,0,2.083-0.67,2.083-2.202v-0.253
		c0-1.547-0.789-2.112-2.083-2.112h-2.157v4.567H58.093z"/>
	<path fill="#FFFFFF" d="M63.417,131.498c-0.223,0-0.446-0.134-0.446-0.387v-10.132c0-0.253,0.238-0.356,0.491-0.356
		c0.238,0,0.491,0.104,0.491,0.356v9.611h4.24c0.223,0,0.327,0.223,0.327,0.446c0,0.237-0.104,0.461-0.327,0.461H63.417z"/>
	<path fill="#FFFFFF" d="M70.838,125.621h2.335c0.238,0,0.372,0.209,0.372,0.446c0,0.194-0.104,0.402-0.372,0.402h-2.335v4.121
		h4.761c0.238,0,0.372,0.223,0.372,0.461c0,0.208-0.104,0.446-0.372,0.446h-5.296c-0.223,0-0.446-0.134-0.446-0.387v-10.116
		c0-0.253,0.223-0.372,0.446-0.372h5.296c0.268,0,0.372,0.223,0.372,0.431c0,0.253-0.134,0.477-0.372,0.477h-4.761V125.621z"/>
	<path fill="#FFFFFF" d="M81.636,127.422c-0.119,0.223-0.268,0.313-0.402,0.313s-0.268-0.09-0.387-0.313l-2.455-4.717v8.406
		c0,0.253-0.253,0.387-0.491,0.387c-0.253,0-0.491-0.134-0.491-0.387v-10.013c0-0.356,0.238-0.476,0.491-0.476
		c0.357,0,0.595,0.313,0.789,0.684l2.559,4.939l2.559-4.939c0.193-0.371,0.432-0.684,0.789-0.684c0.268,0,0.491,0.119,0.491,0.476
		v10.013c0,0.253-0.238,0.387-0.491,0.387c-0.238,0-0.491-0.134-0.491-0.387v-8.361L81.636,127.422z"/>
	<path fill="#FFFFFF" d="M86.527,131.081c0-0.029,0-0.074,0.015-0.104l3.109-10.102c0.075-0.238,0.328-0.343,0.581-0.343
		c0.268,0,0.521,0.119,0.595,0.343l3.095,10.102c0,0.029,0.015,0.06,0.015,0.089c0,0.238-0.327,0.432-0.595,0.432
		c-0.164,0-0.313-0.074-0.372-0.253l-0.685-2.291h-4.121l-0.684,2.291c-0.045,0.179-0.208,0.253-0.387,0.253
		C86.84,131.498,86.527,131.334,86.527,131.081z M92.032,128.106l-1.8-5.996l-1.815,5.996H92.032z"/>
	<path fill="#FFFFFF" d="M101.431,120.623c1.74,0,3.109,0.862,3.109,3.169v4.522c0,2.32-1.369,3.184-3.109,3.184h-2.633
		c-0.268,0-0.446-0.179-0.446-0.372v-10.146c0-0.193,0.178-0.356,0.446-0.356H101.431z M99.333,121.53v9.061h2.098
		c1.324,0,2.127-0.729,2.127-2.276v-4.522c0-1.548-0.804-2.262-2.127-2.262H99.333z"/>
	<path fill="#FFFFFF" d="M107.661,125.621h2.335c0.238,0,0.372,0.209,0.372,0.446c0,0.194-0.104,0.402-0.372,0.402h-2.335v4.121
		h4.761c0.238,0,0.372,0.223,0.372,0.461c0,0.208-0.104,0.446-0.372,0.446h-5.296c-0.223,0-0.446-0.134-0.446-0.387v-10.116
		c0-0.253,0.223-0.372,0.446-0.372h5.296c0.268,0,0.372,0.223,0.372,0.431c0,0.253-0.134,0.477-0.372,0.477h-4.761V125.621z"/>
</g>
<g>
	<g>
		<defs>
			<rect id="SVGID_1_" x="31.282" y="19.678" width="80.465" height="84.7"/>
		</defs>
		<clipPath id="SVGID_2_">
			<use xlink:href="#SVGID_1_"  overflow="visible"/>
		</clipPath>
		<path clip-path="url(#SVGID_2_)" fill="#FFFFFF" d="M111.336,57.217c-1.889-21.161-27.931-14.93-32.107-2.881
			c-2.041-5.856-9.208-10.299-16.279-10.934l-0.319,2.538c0.47,0.675,0.717,1.461,0.717,2.288c0,7.499-5.459,13.84-12.726,15.137
			c-0.414,2.233-1.196,4.08-2.163,5.692c3.6,11.58,13.305,20.266,20.899,25.519c3.653-2.923,5.377-7.858,6.148-13.111
			c-3.858-1.487-6.603-5.224-6.603-9.608c0-5.693,4.618-10.325,10.326-10.325c5.693,0,10.312,4.632,10.312,10.325
			c0,4.881-3.392,8.934-7.94,10.022c-1.145,7.721-3.667,12.834-6.865,16.129c2.688,1.572,4.48,2.413,4.48,2.413
			S113.776,84.458,111.336,57.217L111.336,57.217z M111.336,57.217"/>
		<path clip-path="url(#SVGID_2_)" fill="#FFFFFF" d="M85.418,71.856c0-3.418-2.771-6.203-6.189-6.203
			c-3.42,0-6.189,2.771-6.189,6.203c0,2.991,2.136,5.5,4.977,6.066c-0.648,8.781-3.584,21.465-17.15,21.465
			c-1.475,0-3.021,0.055-4.563,0.096c-11.113,0.387-21.63,0.718-22.94-15.757c-0.345-4.302,2.495-6.259,6.092-8.754
			c3.903-2.688,8.618-6.038,9.349-13.469c6.963-0.455,12.49-6.204,12.49-13.275c0-0.663-0.331-1.224-0.825-1.6l2.619-20.871
			c0.039-0.428-0.181-0.854-0.564-1.049l-3.34-1.664c0-0.086,0.043-0.152,0.043-0.237c0-1.725-1.404-3.13-3.116-3.13
			c-1.723,0-3.131,1.405-3.131,3.13c0,1.723,1.409,3.115,3.131,3.115c0.896,0,1.684-0.382,2.247-0.992l2.592,1.296l-2.511,20.099
			c-0.758,0.317-1.28,1.048-1.28,1.903c0,5.104-4.136,9.235-9.223,9.235c-5.102,0-9.234-4.132-9.234-9.235
			c0-0.855-0.526-1.586-1.27-1.903l-2.511-20.099l2.582-1.279c0.563,0.594,1.361,0.976,2.257,0.976c1.727,0,3.118-1.393,3.118-3.115
			c0-1.725-1.391-3.13-3.118-3.13c-1.721,0-3.125,1.405-3.125,3.13c0,0.085,0.038,0.151,0.052,0.237l-3.334,1.664
			c-0.398,0.194-0.621,0.607-0.565,1.049l2.62,20.857c-0.498,0.372-0.839,0.95-0.839,1.613c0,6.976,5.389,12.642,12.2,13.248
			c-0.692,6.354-4.62,9.14-8.482,11.814c-3.637,2.509-7.399,5.114-6.958,10.601c1.252,15.826,10.668,17.77,20.306,17.77
			c1.597,0,3.183-0.055,4.739-0.109c1.532-0.041,3.05-0.097,4.512-0.097c11.44,0,17.836-7.926,19.119-23.478
			C83.047,77.592,85.418,75.015,85.418,71.856L85.418,71.856z M85.418,71.856"/>
	</g>
</g>
</svg>
