<?xml version="1.0" encoding="utf-8"?>
<!-- Generator: Adobe Illustrator 16.0.0, SVG Export Plug-In . SVG Version: 6.00 Build 0)  -->
<!DOCTYPE svg PUBLIC "-//W3C//DTD SVG 1.1//EN" "http://www.w3.org/Graphics/SVG/1.1/DTD/svg11.dtd">
<svg version="1.1" id="Capa_1" xmlns="http://www.w3.org/2000/svg" xmlns:xlink="http://www.w3.org/1999/xlink" x="0px" y="0px"
	 width="143.028px" height="161.758px" viewBox="0 0 143.028 161.758" enable-background="new 0 0 143.028 161.758"
	 xml:space="preserve">
<rect x="0" fill="#645E53" width="143.027" height="161.758"/>
<g>
	<path fill="#FFFFFF" d="M11.008,133.03c-1.383,0-2.142,0.714-2.142,2.262v4.611c0,1.563,0.759,2.276,2.202,2.276
		c1.771,0,1.934-1.115,2.023-1.83c0.03-0.237,0.179-0.387,0.491-0.387c0.342,0,0.491,0.119,0.491,0.61
		c0,1.354-1.146,2.514-3.109,2.514c-1.681,0-3.08-0.862-3.08-3.184v-4.611c0-2.307,1.428-3.169,3.124-3.169
		c1.949,0,3.065,1.146,3.065,2.484c0,0.491-0.149,0.595-0.491,0.595c-0.342,0-0.476-0.163-0.491-0.372
		C13.062,134.19,12.779,133.03,11.008,133.03z"/>
	<path fill="#FFFFFF" d="M15.662,139.903v-4.611c0-2.307,1.354-3.169,3.094-3.169c1.741,0,3.095,0.862,3.095,3.169v4.611
		c0,2.321-1.354,3.184-3.095,3.184C17.016,143.087,15.662,142.225,15.662,139.903z M20.869,135.292c0-1.548-0.789-2.262-2.113-2.262
		c-1.324,0-2.112,0.714-2.112,2.262v4.611c0,1.563,0.789,2.276,2.112,2.276c1.324,0,2.113-0.714,2.113-2.276V135.292z"/>
	<path fill="#FFFFFF" d="M24.437,142.998c-0.223,0-0.446-0.134-0.446-0.387v-10.132c0-0.253,0.238-0.356,0.491-0.356
		c0.238,0,0.491,0.104,0.491,0.356v9.611h4.24c0.223,0,0.327,0.223,0.327,0.446c0,0.237-0.104,0.461-0.327,0.461H24.437z"/>
	<path fill="#FFFFFF" d="M35.831,132.479c0-0.253,0.238-0.356,0.491-0.356c0.238,0,0.491,0.104,0.491,0.356v7.424
		c0,2.321-1.384,3.184-3.124,3.184c-1.756,0-3.125-0.862-3.125-3.184v-7.424c0-0.253,0.253-0.356,0.491-0.356
		c0.253,0,0.491,0.104,0.491,0.356v7.424c0,1.548,0.803,2.276,2.143,2.276c1.339,0,2.142-0.729,2.142-2.276V132.479z"/>
	<path fill="#FFFFFF" d="M43.251,138.922c-0.119,0.223-0.268,0.313-0.402,0.313s-0.268-0.09-0.387-0.313l-2.455-4.717v8.406
		c0,0.253-0.253,0.387-0.491,0.387c-0.253,0-0.491-0.134-0.491-0.387v-10.013c0-0.356,0.238-0.476,0.491-0.476
		c0.357,0,0.595,0.313,0.789,0.684l2.559,4.939l2.559-4.939c0.193-0.371,0.432-0.684,0.789-0.684c0.268,0,0.491,0.119,0.491,0.476
		v10.013c0,0.253-0.238,0.387-0.491,0.387c-0.238,0-0.491-0.134-0.491-0.387v-8.361L43.251,138.922z"/>
	<path fill="#FFFFFF" d="M54.079,142.433l-4.136-8.049v8.228c0,0.253-0.253,0.387-0.491,0.387c-0.253,0-0.491-0.134-0.491-0.387
		v-10.116c0-0.269,0.238-0.372,0.491-0.372c0.357,0,0.58,0.313,0.773,0.684l4.017,7.915v-8.242c0-0.253,0.238-0.356,0.491-0.356
		c0.238,0,0.491,0.104,0.491,0.356v10.132c0,0.253-0.253,0.387-0.491,0.387C54.451,142.998,54.228,142.73,54.079,142.433z"/>
	<path fill="#FFFFFF" d="M56.665,142.581c0-0.029,0-0.074,0.015-0.104l3.109-10.102c0.075-0.238,0.328-0.343,0.581-0.343
		c0.268,0,0.521,0.119,0.595,0.343l3.095,10.102c0,0.029,0.015,0.06,0.015,0.089c0,0.238-0.327,0.432-0.595,0.432
		c-0.164,0-0.313-0.074-0.372-0.253l-0.685-2.291h-4.121l-0.684,2.291c-0.045,0.179-0.208,0.253-0.387,0.253
		C56.977,142.998,56.665,142.834,56.665,142.581z M62.169,139.606l-1.8-5.996l-1.815,5.996H62.169z"/>
	<path fill="#FFFFFF" d="M67.67,132.644c-0.015-0.03-0.015-0.074-0.015-0.104c0-0.253,0.313-0.416,0.565-0.416
		c0.179,0,0.342,0.074,0.387,0.253l2.752,9.135l2.737-9.135c0.06-0.179,0.208-0.253,0.372-0.253c0.268,0,0.595,0.193,0.595,0.431
		c0,0.03-0.015,0.06-0.015,0.09l-3.094,10.087c-0.075,0.238-0.327,0.356-0.595,0.356c-0.253,0-0.506-0.104-0.58-0.356L67.67,132.644
		z"/>
	<path fill="#FFFFFF" d="M77.471,137.121h2.335c0.238,0,0.372,0.209,0.372,0.446c0,0.194-0.104,0.402-0.372,0.402h-2.335v4.121
		h4.761c0.238,0,0.372,0.223,0.372,0.461c0,0.208-0.104,0.446-0.372,0.446h-5.296c-0.223,0-0.446-0.134-0.446-0.387v-10.116
		c0-0.253,0.223-0.372,0.446-0.372h5.296c0.268,0,0.372,0.223,0.372,0.431c0,0.253-0.134,0.477-0.372,0.477h-4.761V137.121z"/>
	<path fill="#FFFFFF" d="M84.044,132.479c0-0.193,0.148-0.342,0.372-0.356h2.633c1.741,0,3.214,0.699,3.214,2.931
		c0,1.845-1.027,2.648-2.321,2.871l2.292,4.403c0.044,0.06,0.06,0.135,0.06,0.193c0,0.253-0.283,0.506-0.565,0.506
		c-0.238,0-0.402-0.282-0.521-0.521l-2.291-4.463h-1.889v4.567c0,0.253-0.253,0.387-0.491,0.387c-0.253,0-0.491-0.134-0.491-0.387
		V132.479z M85.026,133.03v4.166h2.023c1.324,0,2.232-0.596,2.232-2.098c0-1.488-0.908-2.068-2.232-2.068H85.026z"/>
	<path fill="#FFFFFF" d="M97.223,132.123c0.253,0,0.372,0.223,0.372,0.446c0,0.237-0.119,0.476-0.372,0.476h-2.485v9.566
		c0,0.253-0.253,0.387-0.491,0.387c-0.253,0-0.491-0.134-0.491-0.387v-9.566h-2.499c-0.238,0-0.372-0.223-0.372-0.461
		c0-0.224,0.119-0.461,0.372-0.461H97.223z"/>
	<path fill="#FFFFFF" d="M99.928,137.121h2.335c0.238,0,0.372,0.209,0.372,0.446c0,0.194-0.104,0.402-0.372,0.402h-2.335v4.121
		h4.761c0.238,0,0.372,0.223,0.372,0.461c0,0.208-0.104,0.446-0.372,0.446h-5.296c-0.223,0-0.446-0.134-0.446-0.387v-10.116
		c0-0.253,0.223-0.372,0.446-0.372h5.296c0.268,0,0.372,0.223,0.372,0.431c0,0.253-0.134,0.477-0.372,0.477h-4.761V137.121z"/>
	<path fill="#FFFFFF" d="M106.501,132.495c0-0.253,0.223-0.372,0.446-0.372h2.44c1.666,0,3.035,0.431,3.035,2.529
		c0,1.249-0.506,2.127-1.265,2.454c0.908,0.372,1.533,1.042,1.533,2.56v0.268c0,2.261-1.294,3.064-2.946,3.064h-2.797
		c-0.283,0-0.446-0.179-0.446-0.372V132.495z M107.468,136.675h1.949c1.369,0,2.023-0.506,2.023-1.919
		c0-1.368-0.863-1.726-2.083-1.726h-1.89V136.675z M109.625,142.091c1.294,0,2.083-0.67,2.083-2.202v-0.253
		c0-1.547-0.789-2.112-2.083-2.112h-2.157v4.567H109.625z"/>
	<path fill="#FFFFFF" d="M114.502,132.479c0-0.193,0.148-0.342,0.372-0.356h2.633c1.741,0,3.214,0.699,3.214,2.931
		c0,1.845-1.027,2.648-2.321,2.871l2.292,4.403c0.044,0.06,0.059,0.135,0.059,0.193c0,0.253-0.282,0.506-0.565,0.506
		c-0.238,0-0.402-0.282-0.521-0.521l-2.291-4.463h-1.889v4.567c0,0.253-0.253,0.387-0.491,0.387c-0.253,0-0.491-0.134-0.491-0.387
		V132.479z M115.484,133.03v4.166h2.023c1.324,0,2.232-0.596,2.232-2.098c0-1.488-0.908-2.068-2.232-2.068H115.484z"/>
	<path fill="#FFFFFF" d="M121.551,142.581c0-0.029,0-0.074,0.015-0.104l3.109-10.102c0.075-0.238,0.328-0.343,0.581-0.343
		c0.268,0,0.521,0.119,0.595,0.343l3.095,10.102c0,0.029,0.015,0.06,0.015,0.089c0,0.238-0.327,0.432-0.595,0.432
		c-0.164,0-0.313-0.074-0.372-0.253l-0.685-2.291h-4.121l-0.684,2.291c-0.045,0.179-0.208,0.253-0.387,0.253
		C121.863,142.998,121.551,142.834,121.551,142.581z M127.055,139.606l-1.8-5.996l-1.815,5.996H127.055z"/>
	<path fill="#FFFFFF" d="M130.847,142.998c-0.223,0-0.446-0.134-0.446-0.387v-10.132c0-0.253,0.238-0.356,0.491-0.356
		c0.238,0,0.491,0.104,0.491,0.356v9.611h4.24c0.223,0,0.327,0.223,0.327,0.446c0,0.237-0.104,0.461-0.327,0.461H130.847z"/>
</g>
<g>
	<g>
		<defs>
			<rect id="SVGID_1_" x="49.236" y="28.853" width="44.556" height="81.543"/>
		</defs>
		<clipPath id="SVGID_2_">
			<use xlink:href="#SVGID_1_"  overflow="visible"/>
		</clipPath>
		<path clip-path="url(#SVGID_2_)" fill="#FFFFFF" d="M75.471,67.495v3.67h7.002c1.833,0,3.325,1.491,3.325,3.325v4.355l6.563,2.303
			c0.855,0.299,1.305,1.234,1.005,2.091c-0.236,0.676-0.871,1.099-1.549,1.099c-0.18,0-0.364-0.029-0.542-0.094l-5.478-1.919v2.46
			c0,1.727-1.351,3.183-3.073,3.313l-7.254,0.553v3.671h7.002c1.833,0,3.325,1.491,3.325,3.324v4.357l6.563,2.302
			c0.855,0.3,1.305,1.234,1.005,2.091c-0.236,0.678-0.871,1.1-1.549,1.1c-0.18,0-0.364-0.03-0.542-0.094l-5.478-1.92v2.46
			c0,1.728-1.351,3.185-3.073,3.313l-11.126,0.846c-0.085,0.007-0.168,0.01-0.25,0.01c-0.084,0-0.169-0.003-0.252-0.01
			l-11.126-0.846c-1.724-0.129-3.073-1.586-3.073-3.313v-2.46l-5.478,1.92c-0.179,0.063-0.362,0.094-0.543,0.094
			c-0.677,0-1.31-0.422-1.548-1.1c-0.299-0.856,0.15-1.791,1.005-2.091l6.563-2.302v-4.357c0-1.833,1.492-3.324,3.325-3.324h7.001
			V88.65l-7.254-0.553c-1.724-0.13-3.073-1.586-3.073-3.313v-2.46l-5.478,1.919c-0.179,0.064-0.362,0.094-0.543,0.094
			c-0.677,0-1.31-0.423-1.548-1.099c-0.299-0.856,0.15-1.792,1.005-2.091l6.563-2.303v-4.357c0-1.834,1.492-3.323,3.325-3.323h7.001
			v-3.67l-7.254-0.551c-1.724-0.133-3.073-1.59-3.073-3.315v-2.46l-5.478,1.92c-0.179,0.063-0.362,0.093-0.543,0.093
			c-0.677,0-1.31-0.423-1.548-1.099c-0.299-0.854,0.15-1.793,1.005-2.092l6.563-2.302v-4.356c0-1.833,1.492-3.324,3.325-3.324h7.001
			v-3.671l-7.254-0.552c-1.724-0.129-3.073-1.586-3.073-3.313v-2.46l-5.478,1.92c-0.179,0.063-0.362,0.094-0.543,0.094
			c-0.677,0-1.31-0.423-1.548-1.1c-0.299-0.855,0.15-1.791,1.005-2.092l6.563-2.302v-4.357c0-1.833,1.49-3.323,3.323-3.323h22.253
			c1.833,0,3.325,1.49,3.325,3.323v4.357l6.563,2.302c0.855,0.301,1.305,1.236,1.005,2.092c-0.236,0.677-0.871,1.1-1.549,1.1
			c-0.18,0-0.364-0.03-0.542-0.094l-5.478-1.92v2.46c0,1.728-1.351,3.185-3.073,3.313l-7.254,0.552v3.671h7.002
			c1.833,0,3.325,1.491,3.325,3.324v4.356l6.563,2.302c0.855,0.299,1.305,1.237,1.005,2.092c-0.236,0.676-0.871,1.099-1.549,1.099
			c-0.18,0-0.364-0.028-0.542-0.093l-5.478-1.92v2.46c0,1.728-1.351,3.183-3.073,3.315L75.471,67.495z M75.471,67.495"/>
	</g>
</g>
</svg>
