<?xml version="1.0" encoding="utf-8"?>
<!-- Generator: Adobe Illustrator 16.0.0, SVG Export Plug-In . SVG Version: 6.00 Build 0)  -->
<!DOCTYPE svg PUBLIC "-//W3C//DTD SVG 1.1//EN" "http://www.w3.org/Graphics/SVG/1.1/DTD/svg11.dtd">
<svg version="1.1" id="Capa_1" xmlns="http://www.w3.org/2000/svg" xmlns:xlink="http://www.w3.org/1999/xlink" x="0px" y="0px"
	 width="143.028px" height="161.758px" viewBox="0 0 143.028 161.758" enable-background="new 0 0 143.028 161.758"
	 xml:space="preserve">
<rect fill="#645E53" width="143.028" height="161.758"/>
<g>
	<g>
		<path fill="#FFFFFF" d="M20.875,146.095c0-0.034,0-0.085,0.017-0.119l3.556-11.552c0.085-0.272,0.374-0.392,0.664-0.392
			c0.306,0,0.595,0.136,0.681,0.392l3.538,11.552c0,0.034,0.018,0.068,0.018,0.103c0,0.272-0.375,0.493-0.681,0.493
			c-0.188,0-0.357-0.085-0.426-0.289l-0.782-2.62h-4.713l-0.782,2.62c-0.052,0.204-0.238,0.289-0.442,0.289
			C21.231,146.571,20.875,146.384,20.875,146.095z M27.17,142.692l-2.059-6.856l-2.076,6.856H27.17z"/>
		<path fill="#FFFFFF" d="M34.52,134.135c1.99,0,3.556,0.986,3.556,3.623v5.173c0,2.654-1.565,3.641-3.556,3.641h-3.012
			c-0.307,0-0.511-0.204-0.511-0.426v-11.603c0-0.222,0.204-0.408,0.511-0.408H34.52z M32.12,135.172v10.361h2.399
			c1.514,0,2.433-0.833,2.433-2.603v-5.173c0-1.769-0.919-2.586-2.433-2.586H32.12z"/>
		<path fill="#FFFFFF" d="M46.496,134.543c0-0.289,0.272-0.408,0.562-0.408c0.272,0,0.562,0.119,0.562,0.408v8.489
			c0,2.654-1.582,3.642-3.572,3.642c-2.008,0-3.573-0.987-3.573-3.642v-8.489c0-0.289,0.289-0.408,0.562-0.408
			c0.289,0,0.562,0.119,0.562,0.408v8.489c0,1.77,0.919,2.604,2.45,2.604s2.449-0.834,2.449-2.604V134.543z"/>
		<path fill="#FFFFFF" d="M50.664,146.571c-0.255,0-0.51-0.153-0.51-0.442v-11.586c0-0.289,0.272-0.408,0.562-0.408
			c0.271,0,0.562,0.119,0.562,0.408v10.99h4.849c0.255,0,0.374,0.256,0.374,0.511c0,0.272-0.119,0.527-0.374,0.527H50.664z"/>
		<path fill="#FFFFFF" d="M62.54,134.135c0.289,0,0.425,0.255,0.425,0.51c0,0.272-0.136,0.545-0.425,0.545h-2.842v10.939
			c0,0.289-0.289,0.442-0.562,0.442c-0.289,0-0.561-0.153-0.561-0.442v-10.939h-2.858c-0.272,0-0.426-0.256-0.426-0.527
			c0-0.256,0.136-0.527,0.426-0.527H62.54z"/>
		<path fill="#FFFFFF" d="M64.088,143.032v-5.274c0-2.637,1.548-3.623,3.539-3.623c1.99,0,3.538,0.986,3.538,3.623v5.274
			c0,2.654-1.548,3.642-3.538,3.642C65.636,146.674,64.088,145.687,64.088,143.032z M70.043,137.758
			c0-1.769-0.902-2.586-2.416-2.586c-1.515,0-2.416,0.817-2.416,2.586v5.274c0,1.787,0.901,2.604,2.416,2.604
			c1.514,0,2.416-0.816,2.416-2.604V137.758z"/>
		<path fill="#FFFFFF" d="M81.85,141.909c-0.137,0.256-0.307,0.357-0.46,0.357s-0.306-0.102-0.442-0.357l-2.807-5.393v9.612
			c0,0.289-0.29,0.442-0.562,0.442c-0.289,0-0.562-0.153-0.562-0.442v-11.45c0-0.408,0.272-0.544,0.562-0.544
			c0.408,0,0.681,0.356,0.901,0.782l2.927,5.648l2.926-5.648c0.222-0.426,0.493-0.782,0.902-0.782c0.306,0,0.562,0.136,0.562,0.544
			v11.45c0,0.289-0.272,0.442-0.562,0.442c-0.272,0-0.562-0.153-0.562-0.442v-9.562L81.85,141.909z"/>
		<path fill="#FFFFFF" d="M87.446,146.095c0-0.034,0-0.085,0.018-0.119l3.556-11.552c0.085-0.272,0.374-0.392,0.663-0.392
			c0.307,0,0.596,0.136,0.681,0.392l3.539,11.552c0,0.034,0.017,0.068,0.017,0.103c0,0.272-0.374,0.493-0.681,0.493
			c-0.187,0-0.357-0.085-0.425-0.289l-0.783-2.62h-4.712l-0.783,2.62c-0.051,0.204-0.238,0.289-0.442,0.289
			C87.804,146.571,87.446,146.384,87.446,146.095z M93.741,142.692l-2.059-6.856l-2.075,6.856H93.741z"/>
		<path fill="#FFFFFF" d="M99.22,141.808c0-0.051,0-0.085-0.017-0.136l-3.522-6.755c-0.067-0.119-0.085-0.238-0.085-0.307
			c0-0.289,0.341-0.476,0.612-0.476c0.188,0,0.323,0.102,0.442,0.34l3.131,6.21l3.147-6.21c0.119-0.238,0.272-0.34,0.442-0.34
			c0.272,0,0.612,0.187,0.612,0.476c0,0.068-0.017,0.188-0.067,0.307l-3.539,6.755c-0.018,0.051-0.034,0.085-0.034,0.136v4.321
			c0,0.289-0.272,0.442-0.562,0.442c-0.272,0-0.562-0.153-0.562-0.442V141.808z"/>
		<path fill="#FFFFFF" d="M105.276,143.032v-5.274c0-2.637,1.548-3.623,3.539-3.623c1.99,0,3.538,0.986,3.538,3.623v5.274
			c0,2.654-1.548,3.642-3.538,3.642C106.824,146.674,105.276,145.687,105.276,143.032z M111.231,137.758
			c0-1.769-0.902-2.586-2.416-2.586c-1.515,0-2.416,0.817-2.416,2.586v5.274c0,1.787,0.901,2.604,2.416,2.604
			c1.514,0,2.416-0.816,2.416-2.604V137.758z"/>
		<path fill="#FFFFFF" d="M114.804,134.543c0-0.222,0.17-0.392,0.425-0.408h3.012c1.99,0,3.675,0.799,3.675,3.352
			c0,2.109-1.174,3.028-2.654,3.283l2.62,5.036c0.052,0.068,0.068,0.153,0.068,0.222c0,0.289-0.323,0.578-0.646,0.578
			c-0.272,0-0.459-0.323-0.596-0.596l-2.62-5.104h-2.16v5.223c0,0.289-0.29,0.442-0.562,0.442c-0.289,0-0.562-0.153-0.562-0.442
			V134.543z M115.927,135.172v4.764h2.313c1.515,0,2.552-0.68,2.552-2.398c0-1.701-1.037-2.365-2.552-2.365H115.927z"/>
	</g>
</g>
<rect x="32.854" y="11.841" fill="none" width="77.32" height="109.515"/>
<path fill="#645E53" d="M71.514,105.918"/>
<g>
	<defs>
		<rect id="SVGID_1_" x="21.406" y="16.357" width="100.216" height="104.849"/>
	</defs>
	<clipPath id="SVGID_2_">
		<use xlink:href="#SVGID_1_"  overflow="visible"/>
	</clipPath>
	<path clip-path="url(#SVGID_2_)" fill="#FFFFFF" d="M43.825,40.184c3.947,0,7.707-2.011,9.907-5.288
		c2.231-3.323,2.634-7.669,1.052-11.346c-1.541-3.583-4.836-6.25-8.666-6.996c-3.917-0.764-8.039,0.519-10.827,3.374
		c-2.79,2.857-3.973,7.017-3.11,10.915c0.841,3.808,3.588,7.035,7.204,8.487C40.793,39.896,42.306,40.184,43.825,40.184
		L43.825,40.184z M43.825,40.184"/>
	<path clip-path="url(#SVGID_2_)" d="M57.56,69.693C57.825,68.957,57.544,69.518,57.56,69.693L57.56,69.693z M57.56,69.693"/>
	<path clip-path="url(#SVGID_2_)" fill="#FFFFFF" d="M65.979,65.958c0.193-1.781,0.236-3.569,0.264-5.359
		c-0.051-1.597-0.076-3.215-0.33-4.797c-0.307-2.464-0.89-4.93-1.82-7.235l-0.373-0.916c-0.432-0.907-0.888-1.787-1.379-2.664
		c-1.036-1.687-2.238-3.239-3.655-4.624c-0.467-0.43-0.921-0.856-1.397-1.23c-0.465-0.393-0.95-0.728-1.414-1.064
		c-0.604-0.393-1.205-0.78-1.836-1.125c-3.137,3.434-7.896,5.075-12.484,4.29c-3.016-0.515-5.81-2.063-7.865-4.327
		c-0.168,0.089-0.336,0.184-0.506,0.284c-0.465,0.259-0.925,0.568-1.404,0.879c-0.465,0.335-0.951,0.67-1.416,1.063
		c-0.479,0.374-0.931,0.8-1.397,1.229c-1.419,1.386-2.622,2.938-3.66,4.625c-0.491,0.877-0.945,1.757-1.378,2.664l-0.371,0.917
		c-0.934,2.305-1.514,4.771-1.822,7.235c-0.253,1.582-0.275,3.2-0.327,4.797c0.022,1.409,0.07,2.809,0.16,4.215
		c0.064,1.013,0.198,2.022,0.31,3.032c0.209,1.846,1.877,3.259,3.734,3.147c1.855-0.111,3.342-1.706,3.324-3.565l-0.002-0.169
		c-0.006-0.844-0.039-1.691-0.008-2.533c0.045-1.242,0.12-2.475,0.223-3.714c0.17-1.265,0.305-2.563,0.646-3.798
		c0.396-1.742,0.976-3.484,1.819-5.062l0.305-0.58l0.338-0.545c0.211-0.374,0.471-0.696,0.703-1.037
		c0.021-0.025,0.04-0.049,0.059-0.074l-2.753,19.25c-0.462,3.341,0.298,6.782,2.175,9.589l1.824,38.481
		c0.104,2.026,1.731,3.736,3.756,3.918c1.994,0.179,3.881-1.151,4.374-3.094c0.069-0.273,0.11-0.554,0.124-0.836l1.311-29.246
		l1.363,29.254c0.101,2.026,1.727,3.737,3.751,3.921c1.993,0.182,3.884-1.147,4.376-3.091c0.07-0.272,0.113-0.552,0.125-0.834
		l1.75-38.287c1.227-1.775,2.041-3.841,2.328-6.042c0.558,0.794,1.678,1.017,2.494,0.492c0.369-0.236,0.645-0.602,0.77-1.021
		c0.068-0.228,0.068-0.45,0.082-0.685c0.018-0.307,0.088-0.609,0.207-0.893c1.436,0.507,3.061,0.024,3.987-1.182
		c0.718,0.484,1.19,1.305,1.19,2.233v46.234c0,1.002,0.836,1.837,1.837,1.837s1.836-0.835,1.836-1.837V71.846
		C69.924,69.192,68.292,66.914,65.979,65.958L65.979,65.958z M58.726,67.702c-0.502,0.582-0.9,1.255-1.166,1.991
		c-0.016-0.175-0.036-0.35-0.061-0.525l-2.727-19.057c0.209,0.297,0.434,0.588,0.619,0.918l0.338,0.545l0.305,0.58
		c0.844,1.578,1.424,3.32,1.82,5.062c0.342,1.234,0.477,2.533,0.646,3.798c0.103,1.24,0.178,2.472,0.225,3.713
		c0.031,0.843-0.003,1.69-0.01,2.533l-0.002,0.186C58.714,67.533,58.718,67.617,58.726,67.702L58.726,67.702z M58.726,67.702"/>
	<path clip-path="url(#SVGID_2_)" fill="#FFFFFF" d="M94.407,40.184c3.949,0,7.711-2.011,9.908-5.288
		c2.232-3.323,2.634-7.669,1.053-11.346c-1.542-3.583-4.836-6.25-8.667-6.996c-3.917-0.764-8.038,0.519-10.827,3.374
		c-2.789,2.857-3.973,7.017-3.11,10.915c0.843,3.808,3.587,7.035,7.204,8.487C91.378,39.896,92.892,40.184,94.407,40.184
		L94.407,40.184z M94.407,40.184"/>
	<path clip-path="url(#SVGID_2_)" fill="#FFFFFF" d="M116.578,65.82c0.188-1.735,0.222-3.478,0.247-5.221
		c-0.05-1.597-0.074-3.215-0.328-4.797c-0.308-2.464-0.889-4.93-1.821-7.235l-0.372-0.916c-0.434-0.907-0.887-1.787-1.378-2.664
		c-1.036-1.687-2.239-3.239-3.655-4.624c-0.468-0.43-0.922-0.856-1.4-1.23c-0.463-0.393-0.949-0.728-1.413-1.064
		c-0.602-0.393-1.204-0.78-1.834-1.125c-3.138,3.434-7.898,5.075-12.483,4.29c-3.018-0.515-5.813-2.063-7.867-4.327
		c-0.169,0.089-0.336,0.184-0.504,0.284c-0.467,0.259-0.928,0.568-1.406,0.879c-0.465,0.335-0.951,0.67-1.416,1.063
		c-0.477,0.374-0.931,0.8-1.397,1.229c-1.42,1.384-2.622,2.938-3.659,4.625c-0.492,0.877-0.947,1.758-1.38,2.664l-0.37,0.917
		c-0.933,2.305-1.514,4.771-1.822,7.235c-0.254,1.582-0.275,3.2-0.326,4.797c0.021,1.409,0.069,2.809,0.159,4.215
		c0.065,1.013,0.198,2.022,0.309,3.032c0.209,1.846,1.877,3.259,3.735,3.147c1.855-0.111,3.342-1.706,3.324-3.565v-0.169
		c-0.008-0.844-0.042-1.691-0.01-2.533c0.045-1.242,0.121-2.475,0.223-3.714c0.169-1.265,0.305-2.563,0.646-3.798
		c0.395-1.742,0.975-3.484,1.818-5.062l0.305-0.58l0.338-0.545c0.21-0.374,0.471-0.696,0.705-1.037
		c0.019-0.025,0.039-0.049,0.059-0.074l-2.756,19.251c-0.074,0.532-0.115,1.086-0.129,1.648c-1.476,4.621-2.713,9.32-3.646,14.081
		c-1.064,5.436-1.744,10.962-1.813,16.506c-0.009,0.71-0.023,1.375,0.428,1.968c0.396,0.519,1.025,0.829,1.679,0.829h7.007
		l0.617,13.038c0.104,2.027,1.731,3.736,3.756,3.918c1.992,0.18,3.882-1.151,4.373-3.094c0.07-0.273,0.111-0.554,0.125-0.834
		l0.583-13.028h1.483l0.606,13.035c0.101,2.025,1.728,3.736,3.752,3.921c1.993,0.181,3.882-1.148,4.376-3.089
		c0.07-0.275,0.111-0.555,0.124-0.837l0.596-13.03h6.933c0.581,0,1.147-0.244,1.545-0.67c0.422-0.452,0.57-1.014,0.566-1.617
		c-0.01-1.416-0.057-2.835-0.143-4.248c-0.167-2.785-0.477-5.562-0.898-8.32c-0.773-5.068-1.924-10.075-3.35-14.998
		c-0.145-0.505-0.295-1.008-0.446-1.51c0.45,0.908,1.589,1.287,2.491,0.82c0.404-0.209,0.723-0.57,0.881-0.997
		c0.086-0.234,0.107-0.468,0.114-0.714c0.01-0.327,0.079-0.652,0.204-0.955c1.284,0.065,2.458-0.566,3.129-1.582
		c1.178,0.29,2.054,1.351,2.054,2.615v46.232c0,1.001,0.836,1.837,1.839,1.837c1.001,0,1.836-0.836,1.836-1.837V72.026
		C121.519,69.005,119.404,66.47,116.578,65.82L116.578,65.82z M108.967,70.492c-0.139,0.562-0.246,1.199-0.169,1.779
		c-0.201-0.652-0.4-1.286-0.598-1.901c-0.023-0.398-0.061-0.799-0.117-1.202l-2.727-19.057c0.209,0.297,0.434,0.588,0.619,0.918
		l0.338,0.545l0.305,0.58c0.844,1.579,1.424,3.32,1.821,5.062c0.342,1.234,0.476,2.533,0.645,3.798
		c0.103,1.24,0.179,2.472,0.225,3.713c0.03,0.843-0.002,1.69-0.01,2.533l-0.001,0.186c-0.003,0.514,0.109,1.003,0.309,1.451
		C109.321,69.396,109.104,69.934,108.967,70.492L108.967,70.492z M108.967,70.492"/>
</g>
<path d="M111.311,76.269C111.301,76.189,111.109,75.619,111.311,76.269L111.311,76.269z M111.311,76.269"/>
</svg>
