<?xml version="1.0" encoding="utf-8"?>
<!-- Generator: Adobe Illustrator 16.0.0, SVG Export Plug-In . SVG Version: 6.00 Build 0)  -->
<!DOCTYPE svg PUBLIC "-//W3C//DTD SVG 1.1//EN" "http://www.w3.org/Graphics/SVG/1.1/DTD/svg11.dtd">
<svg version="1.1" id="Capa_1" xmlns="http://www.w3.org/2000/svg" xmlns:xlink="http://www.w3.org/1999/xlink" x="0px" y="0px"
	 width="143.775px" height="161.758px" viewBox="0 0 143.775 161.758" enable-background="new 0 0 143.775 161.758"
	 xml:space="preserve">
<rect x="0.374" y="0" fill="#645E53" width="148.253" height="161.758"/>
<g>
	<g>
		<path fill="#FFFFFF" d="M46.343,146.094c0-0.034,0-0.085,0.017-0.119l3.556-11.552c0.085-0.272,0.374-0.392,0.664-0.392
			c0.306,0,0.595,0.136,0.681,0.392l3.538,11.552c0,0.034,0.018,0.068,0.018,0.103c0,0.272-0.375,0.493-0.681,0.493
			c-0.188,0-0.357-0.085-0.426-0.289l-0.782-2.62h-4.713l-0.782,2.62c-0.052,0.204-0.238,0.289-0.442,0.289
			C46.699,146.57,46.343,146.383,46.343,146.094z M52.638,142.691l-2.059-6.856l-2.076,6.856H52.638z"/>
		<path fill="#FFFFFF" d="M59.987,134.134c1.99,0,3.556,0.986,3.556,3.623v5.173c0,2.654-1.565,3.641-3.556,3.641h-3.012
			c-0.307,0-0.511-0.204-0.511-0.426v-11.603c0-0.222,0.204-0.408,0.511-0.408H59.987z M57.588,135.171v10.361h2.399
			c1.514,0,2.433-0.833,2.433-2.603v-5.173c0-1.769-0.919-2.586-2.433-2.586H57.588z"/>
		<path fill="#FFFFFF" d="M71.964,134.542c0-0.289,0.272-0.408,0.562-0.408c0.272,0,0.562,0.119,0.562,0.408v8.489
			c0,2.654-1.582,3.642-3.572,3.642c-2.008,0-3.573-0.987-3.573-3.642v-8.489c0-0.289,0.289-0.408,0.562-0.408
			c0.289,0,0.562,0.119,0.562,0.408v8.489c0,1.77,0.919,2.604,2.45,2.604s2.449-0.834,2.449-2.604V134.542z"/>
		<path fill="#FFFFFF" d="M76.132,146.57c-0.255,0-0.51-0.153-0.51-0.442v-11.586c0-0.289,0.272-0.408,0.562-0.408
			c0.271,0,0.562,0.119,0.562,0.408v10.99h4.849c0.255,0,0.374,0.256,0.374,0.511c0,0.272-0.119,0.527-0.374,0.527H76.132z"/>
		<path fill="#FFFFFF" d="M88.008,134.134c0.289,0,0.425,0.255,0.425,0.51c0,0.272-0.136,0.545-0.425,0.545h-2.842v10.939
			c0,0.289-0.289,0.442-0.562,0.442c-0.289,0-0.561-0.153-0.561-0.442v-10.939h-2.858c-0.272,0-0.426-0.256-0.426-0.527
			c0-0.256,0.136-0.527,0.426-0.527H88.008z"/>
		<path fill="#FFFFFF" d="M89.556,143.031v-5.274c0-2.637,1.548-3.623,3.539-3.623c1.99,0,3.538,0.986,3.538,3.623v5.274
			c0,2.654-1.548,3.642-3.538,3.642C91.104,146.673,89.556,145.686,89.556,143.031z M95.511,137.757
			c0-1.769-0.902-2.586-2.416-2.586c-1.515,0-2.416,0.817-2.416,2.586v5.274c0,1.787,0.901,2.604,2.416,2.604
			c1.514,0,2.416-0.816,2.416-2.604V137.757z"/>
	</g>
</g>
<g>
	<path fill="#FFFFFF" d="M89.489,36.262c4.149,0,8.043-2.367,9.957-6.049c1.938-3.732,1.586-8.371-0.894-11.767
		c-2.466-3.38-6.711-5.129-10.844-4.468c-4.063,0.649-7.528,3.584-8.845,7.48c-1.344,3.982-0.299,8.492,2.654,11.478
		C83.614,35.052,86.512,36.262,89.489,36.262L89.489,36.262z M89.489,36.262"/>
	<path fill="#FFFFFF" d="M110.556,69.777c0.001,0.021,0.001,0.013,0-0.063c-0.012-0.393-0.008-0.242-0.005-0.087
		c-0.033-1.227-0.094-2.446-0.167-3.67c-0.072-0.747-0.143-1.492-0.219-2.239c-0.266-1.966-0.604-3.899-1.031-5.837
		c-0.154-0.581-0.308-1.167-0.464-1.755c-0.183-0.586-0.363-1.175-0.556-1.764c-0.544-1.471-1.125-2.571-1.795-3.99
		c-0.436-0.823-0.889-1.628-1.358-2.431c-2.356-3.686-5.501-6.893-9.469-8.852c-2.784-1.375-7.589-2.382-11.929-0.05
		c-4.741,2.548-8.586,6.585-11.033,11.303c-2.075-5.205-5.693-9.863-10.726-12.478c-0.729-0.379-1.482-0.712-2.257-0.983
		c-3.55-1.242-7.843-1.258-11.709,0.377c-1.09,0.461-2.133,1.036-3.12,1.691c-2.355,1.563-4.371,3.607-5.982,5.925
		c-3.295,4.74-4.825,10.472-5.326,16.165c-0.385,4.385-0.196,8.831,0.361,13.194l0.006,0.038c0.228,1.72,1.815,2.991,3.543,2.848
		c1.74-0.146,3.093-1.687,3.014-3.431c-0.032,0-0.054-2.383-0.054-2.626c-0.005-1.327,0.031-2.652,0.113-3.976
		c0.18-2.861,0.578-5.72,1.337-8.486c0.54-1.971,1.271-3.894,2.269-5.681l-2.427,20.038c-0.352,3.05,0.381,6.154,2.11,8.696
		l1.708,36c0.103,2.022,1.83,3.668,3.857,3.658c2.02-0.01,3.725-1.652,3.814-3.668l1.219-27.197l1.268,27.203
		c0.101,2.023,1.827,3.67,3.856,3.662c2.019-0.008,3.725-1.65,3.818-3.665l1.649-36.125c1.613-2.437,2.403-5.436,2.024-8.564
		l-2.398-19.796c2.673,4.94,3.449,10.764,3.57,16.308c-0.038,1.298-0.04,4.22-0.04,4.22c0.054,1.784,1.242,3.249,2.952,3.425
		c1.845,0.189,3.559-1.2,3.712-3.052l0.01-0.125c0.063-0.744,0.123-1.489,0.184-2.233c0.167-1.425,0.357-2.841,0.578-4.259
		c0.545-2.805,1.22-5.554,2.273-8.215c0.195-0.451,0.375-0.911,0.582-1.354v3.127l-5.91,29.536
		c-0.117,0.599,0.038,1.212,0.426,1.683c0.387,0.471,0.959,0.74,1.569,0.74h4.657l1.184,24.451c0.104,2.033,1.833,3.691,3.873,3.696
		c2.042,0.005,3.779-1.644,3.885-3.683l1.268-24.464h0.488l1.184,24.45c0.105,2.034,1.834,3.692,3.872,3.696
		c2.044,0.005,3.78-1.644,3.888-3.683l1.266-24.464h4.604c0.609,0,1.18-0.27,1.567-0.739c0.388-0.469,0.543-1.082,0.425-1.689
		l-5.9-29.983v-2.528c0.096,0.228,0.192,0.457,0.288,0.686c0.171,0.462,0.34,0.923,0.507,1.38c0.511,1.594,0.94,3.193,1.321,4.823
		c0.124,0.642,0.247,1.285,0.37,1.928c0.328,2.136,0.566,4.266,0.745,6.419l0.011,0.138c0.151,1.759,1.714,3.118,3.477,3.036
		c1.739-0.08,3.152-1.551,3.171-3.291C110.562,72.018,110.577,70.898,110.556,69.777L110.556,69.777z M110.556,69.777"/>
	<path fill="#FFFFFF" d="M46.807,31.316c2.026,1.83,4.696,2.854,7.426,2.854c4.147,0,8.033-2.393,9.904-6.095
		c1.895-3.752,1.461-8.387-1.092-11.724c-2.546-3.326-6.851-4.956-10.962-4.147c-4.033,0.792-7.38,3.871-8.51,7.822
		C42.417,24.061,43.692,28.507,46.807,31.316L46.807,31.316z M46.807,31.316"/>
</g>
<rect x="33.227" y="11.84" fill="none" width="77.321" height="109.515"/>
<path fill="#645E53" d="M91.686,105.918"/>
</svg>
