<?xml version="1.0" encoding="utf-8"?>
<!-- Generator: Adobe Illustrator 16.0.0, SVG Export Plug-In . SVG Version: 6.00 Build 0)  -->
<!DOCTYPE svg PUBLIC "-//W3C//DTD SVG 1.1//EN" "http://www.w3.org/Graphics/SVG/1.1/DTD/svg11.dtd">
<svg version="1.1" id="Capa_1" xmlns="http://www.w3.org/2000/svg" xmlns:xlink="http://www.w3.org/1999/xlink" x="0px" y="0px"
	 width="143.211px" height="161.983px" viewBox="0 0 143.211 161.983" enable-background="new 0 0 143.211 161.983"
	 xml:space="preserve">
<rect x="-0.267" y="0.226" fill="#645E53" width="143.027" height="161.758"/>
<g>
	<g>
		<path fill="#FFFFFF" d="M112,54.278c0,0.398-0.323,0.722-0.723,0.722H29.723C29.323,55,29,54.677,29,54.278V29.722
			C29,29.323,29.323,29,29.723,29h81.555c0.399,0,0.723,0.323,0.723,0.722V54.278z"/>
		<path opacity="0.1" fill="#FFFFFF" d="M71,29h41.565c0.399,0,0.435,0.575,0.435,0.975v24.558c0,0.398-0.035,0.468-0.435,0.468H71"
			/>
	</g>
	<rect x="21" y="27" fill="#FFFFFF" width="99" height="2"/>
	<g>
		<polygon fill="#C1CBCB" points="30.226,54.415 24.104,67.34 21.235,72.601 121.68,71.645 118.81,66.384 112.565,54.054 		"/>
		<polygon fill="#CBD0D1" points="29.366,54.121 27.05,61 116.228,61 113.053,54.335 		"/>
		<path fill="#C1CBCB" d="M66,52.667C66,55.061,64.06,57,61.666,57H39.334C36.94,57,35,55.061,35,52.667v-2.334
			C35,47.939,36.94,46,39.334,46h22.332C64.06,46,66,47.939,66,50.333V52.667z"/>
		<path fill="#C1CBCB" d="M107,52.667c0,2.394-1.94,4.333-4.334,4.333H80.334C77.94,57,76,55.061,76,52.667v-2.334
			C76,47.939,77.94,46,80.334,46h22.332c2.394,0,4.334,1.939,4.334,4.333V52.667z"/>
	</g>
	<path fill="#FFFFFF" d="M121,89.317c0,0.27,0.571,0.683,0.097,0.683H23.14C22.665,90,22,89.587,22,89.317V72.601
		C22,72.33,22.665,71,23.14,71h97.957c0.475,0-0.097,1.33-0.097,1.601V89.317z"/>
	<path fill="#FFFFFF" d="M71,71h50.097c0.475,0-0.097,1.16-0.097,1.43v16.646c0,0.27,0.571,0.924,0.097,0.924H71"/>
	<rect x="21" y="67" fill="#FFFFFF" width="3" height="28"/>
	<rect x="120" y="66" fill="#FFFFFF" width="2" height="29"/>
</g>
<g>
	<g>
		<path fill="#FFFFFF" d="M50.359,138.329c0-5.068-7.579-2.603-7.579-8.173c0-3.332,2.717-4.154,4.84-4.154
			c1.712,0,3.835,0.571,3.835,1.393c0,0.297-0.251,0.845-0.662,0.845c-0.434,0-1.187-0.867-3.196-0.867
			c-1.689,0-3.31,0.616-3.31,2.647c0,4.246,7.579,1.849,7.579,8.172c0,3.242-2.009,4.703-4.816,4.703
			c-2.922,0-4.68-1.644-4.68-2.466c0-0.365,0.342-0.845,0.685-0.845c0.593,0,1.05,1.895,3.903,1.895
			C49.081,141.479,50.359,140.406,50.359,138.329z"/>
		<path fill="#FFFFFF" d="M62.571,126.596c0-0.388,0.365-0.548,0.753-0.548c0.365,0,0.753,0.16,0.753,0.548v11.391
			c0,3.562-2.123,4.885-4.794,4.885c-2.693,0-4.793-1.323-4.793-4.885v-11.391c0-0.388,0.388-0.548,0.753-0.548
			c0.388,0,0.753,0.16,0.753,0.548v11.391c0,2.374,1.233,3.492,3.287,3.492c2.055,0,3.287-1.118,3.287-3.492V126.596z"/>
		<path fill="#FFFFFF" d="M66.111,142.095c0-0.045,0-0.113,0.022-0.159l4.771-15.5c0.114-0.365,0.502-0.524,0.89-0.524
			c0.411,0,0.799,0.183,0.913,0.524l4.748,15.5c0,0.046,0.023,0.091,0.023,0.137c0,0.365-0.502,0.662-0.913,0.662
			c-0.251,0-0.479-0.114-0.571-0.388l-1.05-3.516h-6.323l-1.05,3.516c-0.068,0.273-0.32,0.388-0.594,0.388
			C66.59,142.734,66.111,142.483,66.111,142.095z M74.557,137.53l-2.762-9.2l-2.785,9.2H74.557z"/>
		<path fill="#FFFFFF" d="M77.548,126.847c-0.023-0.046-0.023-0.114-0.023-0.16c0-0.388,0.479-0.639,0.867-0.639
			c0.274,0,0.525,0.114,0.594,0.388l4.223,14.017l4.2-14.017c0.091-0.273,0.319-0.388,0.571-0.388c0.411,0,0.913,0.297,0.913,0.662
			c0,0.045-0.023,0.091-0.023,0.137l-4.748,15.477c-0.114,0.365-0.502,0.548-0.913,0.548c-0.388,0-0.776-0.159-0.89-0.548
			L77.548,126.847z"/>
		<path fill="#FFFFFF" d="M92.591,133.718h3.584c0.365,0,0.571,0.319,0.571,0.685c0,0.297-0.16,0.616-0.571,0.616h-3.584v6.323
			h7.305c0.365,0,0.571,0.343,0.571,0.708c0,0.319-0.16,0.685-0.571,0.685H91.77c-0.343,0-0.685-0.205-0.685-0.594v-15.522
			c0-0.388,0.342-0.57,0.685-0.57h8.126c0.411,0,0.571,0.342,0.571,0.662c0,0.388-0.206,0.73-0.571,0.73h-7.305V133.718z"/>
	</g>
</g>
</svg>
