<?xml version="1.0" encoding="utf-8"?>
<!-- Generator: Adobe Illustrator 16.0.0, SVG Export Plug-In . SVG Version: 6.00 Build 0)  -->
<!DOCTYPE svg PUBLIC "-//W3C//DTD SVG 1.1//EN" "http://www.w3.org/Graphics/SVG/1.1/DTD/svg11.dtd">
<svg version="1.1" id="Capa_1" xmlns="http://www.w3.org/2000/svg" xmlns:xlink="http://www.w3.org/1999/xlink" x="0px" y="0px"
	 width="143.775px" height="161.758px" viewBox="0 0 143.775 161.758" enable-background="new 0 0 143.775 161.758"
	 xml:space="preserve">
<rect x="0.864" fill="#645E53" width="143.028" height="161.758"/>
<g>
	<g>
		<path fill="#FFFFFF" d="M42.529,144.925l-4.729-9.204v9.408c0,0.289-0.29,0.442-0.562,0.442c-0.289,0-0.562-0.153-0.562-0.442
			V133.56c0-0.306,0.272-0.425,0.562-0.425c0.408,0,0.663,0.356,0.885,0.782l4.594,9.051v-9.425c0-0.289,0.271-0.408,0.562-0.408
			c0.271,0,0.561,0.119,0.561,0.408v11.586c0,0.289-0.289,0.442-0.561,0.442C42.954,145.571,42.699,145.265,42.529,144.925z"/>
		<path fill="#FFFFFF" d="M46.424,133.543c0-0.289,0.272-0.408,0.562-0.408c0.272,0,0.562,0.119,0.562,0.408v11.586
			c0,0.289-0.289,0.442-0.562,0.442c-0.289,0-0.562-0.153-0.562-0.442V133.543z"/>
		<path fill="#FFFFFF" d="M55.986,144.925l-4.729-9.204v9.408c0,0.289-0.29,0.442-0.562,0.442c-0.289,0-0.562-0.153-0.562-0.442
			V133.56c0-0.306,0.272-0.425,0.562-0.425c0.408,0,0.663,0.356,0.885,0.782l4.594,9.051v-9.425c0-0.289,0.271-0.408,0.562-0.408
			c0.271,0,0.561,0.119,0.561,0.408v11.586c0,0.289-0.289,0.442-0.561,0.442C56.411,145.571,56.156,145.265,55.986,144.925z
			 M51.358,130.838c-0.221,0-0.323-0.238-0.323-0.426c0-0.629,0.953-0.97,1.497-0.97c0.885,0,1.361,0.578,2.246,0.578
			c0.766,0,0.885-0.493,1.191-0.493c0.221,0,0.34,0.238,0.34,0.392c0,0.697-0.936,0.97-1.429,0.97c-0.919,0-1.345-0.596-2.264-0.596
			C51.885,130.293,51.647,130.838,51.358,130.838z"/>
		<path fill="#FFFFFF" d="M59.746,142.032v-5.274c0-2.637,1.548-3.623,3.539-3.623c1.99,0,3.538,0.986,3.538,3.623v5.274
			c0,2.654-1.548,3.642-3.538,3.642C61.293,145.674,59.746,144.687,59.746,142.032z M65.701,136.758
			c0-1.769-0.902-2.586-2.416-2.586c-1.515,0-2.416,0.817-2.416,2.586v5.274c0,1.787,0.901,2.604,2.416,2.604
			c1.514,0,2.416-0.816,2.416-2.604V136.758z"/>
		<path fill="#FFFFFF" d="M75.687,132.947c0,0.085-0.018,0.153-0.068,0.221l-6.448,12.607c-0.067,0.17-0.238,0.255-0.408,0.255
			c-0.238,0-0.442-0.204-0.442-0.425c0-0.068,0.018-0.137,0.051-0.204l6.482-12.709c0.068-0.153,0.204-0.204,0.341-0.204
			C75.415,132.488,75.687,132.675,75.687,132.947z"/>
		<path fill="#FFFFFF" d="M83.189,144.925l-4.729-9.204v9.408c0,0.289-0.289,0.442-0.562,0.442c-0.289,0-0.562-0.153-0.562-0.442
			V133.56c0-0.306,0.272-0.425,0.562-0.425c0.408,0,0.664,0.356,0.885,0.782l4.594,9.051v-9.425c0-0.289,0.272-0.408,0.562-0.408
			c0.272,0,0.562,0.119,0.562,0.408v11.586c0,0.289-0.289,0.442-0.562,0.442C83.615,145.571,83.36,145.265,83.189,144.925z"/>
		<path fill="#FFFFFF" d="M87.085,133.543c0-0.289,0.272-0.408,0.562-0.408c0.271,0,0.562,0.119,0.562,0.408v11.586
			c0,0.289-0.29,0.442-0.562,0.442c-0.289,0-0.562-0.153-0.562-0.442V133.543z"/>
		<path fill="#FFFFFF" d="M96.647,144.925l-4.729-9.204v9.408c0,0.289-0.29,0.442-0.562,0.442c-0.289,0-0.562-0.153-0.562-0.442
			V133.56c0-0.306,0.272-0.425,0.562-0.425c0.408,0,0.663,0.356,0.885,0.782l4.594,9.051v-9.425c0-0.289,0.271-0.408,0.562-0.408
			c0.271,0,0.561,0.119,0.561,0.408v11.586c0,0.289-0.289,0.442-0.561,0.442C97.072,145.571,96.817,145.265,96.647,144.925z
			 M92.019,130.838c-0.221,0-0.323-0.238-0.323-0.426c0-0.629,0.953-0.97,1.497-0.97c0.885,0,1.361,0.578,2.246,0.578
			c0.766,0,0.885-0.493,1.191-0.493c0.221,0,0.34,0.238,0.34,0.392c0,0.697-0.936,0.97-1.429,0.97c-0.919,0-1.345-0.596-2.264-0.596
			C92.546,130.293,92.308,130.838,92.019,130.838z"/>
		<path fill="#FFFFFF" d="M99.607,145.095c0-0.034,0-0.085,0.017-0.119l3.556-11.552c0.085-0.272,0.374-0.392,0.664-0.392
			c0.306,0,0.595,0.136,0.681,0.392l3.538,11.552c0,0.034,0.018,0.068,0.018,0.103c0,0.272-0.375,0.493-0.681,0.493
			c-0.188,0-0.357-0.085-0.426-0.289l-0.782-2.62h-4.713l-0.782,2.62c-0.052,0.204-0.238,0.289-0.442,0.289
			C99.963,145.571,99.607,145.384,99.607,145.095z M105.902,141.692l-2.059-6.856l-2.076,6.856H105.902z"/>
	</g>
</g>
<rect x="33.718" y="11.841" fill="none" width="77.32" height="109.515"/>
<g>
	<g>
		<path fill="#FFFFFF" d="M61.59,42.114c0,4.623-3.746,8.371-8.37,8.371c-4.624,0-8.37-3.748-8.37-8.371
			c0-4.623,3.747-8.371,8.37-8.371C57.844,33.743,61.59,37.491,61.59,42.114L61.59,42.114z M61.59,42.114"/>
		<path fill="#FFFFFF" d="M66.762,78.611c1.645,0,2.972-1.327,2.972-2.978c0-14.343-7.971-20.896-9.69-22.133
			c-0.574-0.52-1.326-1.033-2.33-1.583c-0.753-0.423-1.575-0.739-2.406-0.95L53.22,53.07l-2.028-2.126c0,0-0.008,0.007-0.016,0.007
			c-1.304,0.31-2.555,0.928-3.627,1.765c-0.088,0.045-0.181,0.082-0.271,0.135c-0.406,0.264-10.022,6.643-10.022,22.375
			c0,1.635,1.335,2.97,2.979,2.97c1.645,0,2.971-1.335,2.971-2.97c0-3.575,0.604-6.501,1.447-8.892v10.392
			c0,0.867,0.167,1.689,0.469,2.436c-0.023,0.167-0.038,0.339-0.038,0.513v27.426c0,2.119,1.719,3.838,3.837,3.838
			c2.12,0,3.84-1.719,3.84-3.838V84.087c0.149,0.007,0.3,0.021,0.459,0.021c0.03,0,0.06,0,0.09,0v22.992
			c0,2.119,1.721,3.838,3.839,3.838c2.118,0,3.838-1.719,3.838-3.838V79.87c0.505-0.935,0.8-1.991,0.8-3.144V65.325
			c1.13,2.609,1.998,5.987,1.998,10.316C63.792,77.277,65.12,78.611,66.762,78.611L66.762,78.611z M66.762,78.611"/>
	</g>
	<g>
		<path fill="#FFFFFF" d="M99.235,41.088c0,4.691-3.8,8.499-8.491,8.499c-4.691,0-8.491-3.808-8.491-8.499
			c0-4.69,3.8-8.491,8.491-8.491C95.435,32.597,99.235,36.398,99.235,41.088L99.235,41.088z M99.235,41.088"/>
		<path fill="#FFFFFF" d="M97.667,52.648c-0.581-0.528-1.342-1.056-2.36-1.605c-0.77-0.43-1.607-0.754-2.443-0.966l-2.119,2.134
			l-2.051-2.156c-0.007,0-0.015,0.007-0.023,0.007c-1.32,0.317-2.594,0.935-3.68,1.787c-0.09,0.045-0.188,0.083-0.271,0.135
			c-0.416,0.272-10.173,6.75-10.173,22.706c0,1.667,1.35,3.024,3.017,3.024c1.672,0,3.023-1.357,3.023-3.024
			c0-3.627,0.604-6.598,1.455-9.018v6.198l-3.084,17.463h3.521l0.008,17.707c0,2.156,1.742,3.898,3.891,3.898
			c2.158,0,3.899-1.742,3.899-3.898V89.333h0.55v17.707c0,2.156,1.75,3.898,3.899,3.898c2.156,0,3.898-1.742,3.898-3.898V89.333
			h3.876L99.44,72.021v-7.375c1.146,2.647,2.02,6.078,2.02,10.467c0,1.667,1.35,3.023,3.025,3.023c1.666,0,3.016-1.349,3.016-3.023
			C107.508,60.551,99.409,53.908,97.667,52.648L97.667,52.648z M97.667,52.648"/>
	</g>
</g>
</svg>
