<?xml version="1.0" encoding="utf-8"?>
<!-- Generator: Adobe Illustrator 16.0.0, SVG Export Plug-In . SVG Version: 6.00 Build 0)  -->
<!DOCTYPE svg PUBLIC "-//W3C//DTD SVG 1.1//EN" "http://www.w3.org/Graphics/SVG/1.1/DTD/svg11.dtd">
<svg version="1.1" id="Capa_1" xmlns="http://www.w3.org/2000/svg" xmlns:xlink="http://www.w3.org/1999/xlink" x="0px" y="0px"
	 width="143.028px" height="161.758px" viewBox="0 0 143.028 161.758" enable-background="new 0 0 143.028 161.758"
	 xml:space="preserve">
<rect fill="#645E53" width="143.028" height="161.758"/>
<g>
	<path fill="#FFFFFF" d="M92.41,59.244c-0.501-5.692-2.029-11.424-5.324-16.164c-1.26-1.812-2.77-3.452-4.492-4.831
		c-1.101-0.912-2.295-1.717-3.582-2.386c-0.729-0.379-1.482-0.712-2.258-0.982c-3.55-1.242-7.842-1.259-11.708,0.377
		c-1.09,0.461-2.133,1.035-3.12,1.69c-2.355,1.563-4.371,3.607-5.982,5.925c-3.294,4.74-4.824,10.472-5.325,16.164
		c-0.385,4.386-0.196,8.831,0.36,13.194l0.005,0.038c0.228,1.72,1.815,2.991,3.543,2.847c1.74-0.145,3.093-1.687,3.015-3.431
		c-0.032,0-0.055-2.383-0.055-2.626c-0.004-1.327,0.031-2.652,0.113-3.976c0.18-2.861,0.578-5.719,1.337-8.486
		c0.539-1.971,1.271-3.894,2.269-5.68l-2.427,20.038c-0.351,3.05,0.381,6.154,2.11,8.696l1.707,36
		c0.103,2.023,1.831,3.668,3.858,3.658c2.019-0.01,3.725-1.652,3.814-3.668l1.22-27.195l1.179,25.328l0.093,2.074
		c0.09,2.015,1.797,3.658,3.814,3.668c2.027,0.009,3.756-1.636,3.858-3.659l1.706-36c1.73-2.542,2.463-5.646,2.111-8.696
		l-2.385-19.686c2.539,4.873,3.291,10.565,3.408,15.992c-0.038,1.298-0.04,4.22-0.04,4.22c0.034,1.12,0.516,2.114,1.293,2.743
		c0.526,0.499,1.214,0.83,1.976,0.894c1.728,0.144,3.315-1.127,3.543-2.847l0.005-0.038C92.607,68.075,92.796,63.629,92.41,59.244z"
		/>
	<path fill="#FFFFFF" d="M64.013,29.317c2.027,1.829,4.697,2.854,7.427,2.854c4.147,0,8.033-2.394,9.903-6.095
		c1.896-3.751,1.461-8.387-1.092-11.724c-2.546-3.326-6.851-4.956-10.962-4.148c-4.034,0.792-7.38,3.871-8.51,7.823
		C59.624,22.062,60.899,26.507,64.013,29.317L64.013,29.317z M64.013,29.317"/>
</g>
<g>
	<path fill="#FFFFFF" d="M37.879,136.543c0-0.289,0.272-0.408,0.562-0.408c0.272,0,0.562,0.119,0.562,0.408v11.586
		c0,0.289-0.289,0.442-0.562,0.442c-0.289,0-0.562-0.153-0.562-0.442V136.543z"/>
	<path fill="#FFFFFF" d="M47.44,147.925l-4.729-9.204v9.408c0,0.289-0.29,0.442-0.562,0.442c-0.289,0-0.562-0.153-0.562-0.442
		V136.56c0-0.306,0.272-0.425,0.562-0.425c0.408,0,0.663,0.356,0.885,0.782l4.594,9.051v-9.425c0-0.289,0.271-0.408,0.561-0.408
		c0.272,0,0.562,0.119,0.562,0.408v11.586c0,0.289-0.289,0.442-0.562,0.442C47.865,148.571,47.61,148.265,47.44,147.925z"/>
	<path fill="#FFFFFF" d="M54.858,136.135c1.99,0,3.556,0.986,3.556,3.623v5.173c0,2.654-1.565,3.641-3.556,3.641h-3.012
		c-0.307,0-0.511-0.204-0.511-0.426v-11.603c0-0.222,0.204-0.408,0.511-0.408H54.858z M52.459,137.172v10.361h2.399
		c1.514,0,2.433-0.833,2.433-2.603v-5.173c0-1.769-0.919-2.586-2.433-2.586H52.459z"/>
	<path fill="#FFFFFF" d="M60.863,136.543c0-0.289,0.272-0.408,0.562-0.408c0.272,0,0.562,0.119,0.562,0.408v11.586
		c0,0.289-0.289,0.442-0.562,0.442c-0.289,0-0.562-0.153-0.562-0.442V136.543z"/>
	<path fill="#FFFFFF" d="M63.637,136.729c-0.018-0.033-0.018-0.085-0.018-0.119c0-0.289,0.357-0.476,0.646-0.476
		c0.204,0,0.392,0.085,0.442,0.289l3.147,10.446l3.131-10.446c0.068-0.204,0.238-0.289,0.425-0.289c0.307,0,0.681,0.221,0.681,0.493
		c0,0.034-0.017,0.068-0.017,0.102l-3.539,11.535c-0.085,0.272-0.374,0.409-0.681,0.409c-0.289,0-0.578-0.119-0.663-0.409
		L63.637,136.729z"/>
	<path fill="#FFFFFF" d="M73.726,136.543c0-0.289,0.272-0.408,0.562-0.408c0.271,0,0.562,0.119,0.562,0.408v11.586
		c0,0.289-0.29,0.442-0.562,0.442c-0.289,0-0.562-0.153-0.562-0.442V136.543z"/>
	<path fill="#FFFFFF" d="M80.956,136.135c1.99,0,3.556,0.986,3.556,3.623v5.173c0,2.654-1.565,3.641-3.556,3.641h-3.012
		c-0.307,0-0.511-0.204-0.511-0.426v-11.603c0-0.222,0.204-0.408,0.511-0.408H80.956z M78.557,137.172v10.361h2.399
		c1.514,0,2.433-0.833,2.433-2.603v-5.173c0-1.769-0.919-2.586-2.433-2.586H78.557z"/>
	<path fill="#FFFFFF" d="M86.961,136.543c0-0.289,0.272-0.408,0.562-0.408c0.272,0,0.562,0.119,0.562,0.408v11.586
		c0,0.289-0.289,0.442-0.562,0.442c-0.289,0-0.562-0.153-0.562-0.442V136.543z"/>
	<path fill="#FFFFFF" d="M89.734,148.095c0-0.034,0-0.085,0.017-0.119l3.556-11.552c0.085-0.272,0.374-0.392,0.664-0.392
		c0.306,0,0.595,0.136,0.681,0.392l3.538,11.552c0,0.034,0.018,0.068,0.018,0.103c0,0.272-0.375,0.493-0.681,0.493
		c-0.188,0-0.357-0.085-0.426-0.289l-0.782-2.62h-4.713l-0.782,2.62c-0.052,0.204-0.238,0.289-0.442,0.289
		C90.091,148.571,89.734,148.384,89.734,148.095z M96.029,144.692l-2.059-6.856l-2.076,6.856H96.029z"/>
	<path fill="#FFFFFF" d="M100.367,148.571c-0.255,0-0.511-0.153-0.511-0.442v-11.586c0-0.289,0.272-0.408,0.562-0.408
		c0.272,0,0.562,0.119,0.562,0.408v10.99h4.849c0.256,0,0.375,0.256,0.375,0.511c0,0.272-0.119,0.527-0.375,0.527H100.367z"/>
</g>
</svg>
