<?xml version="1.0" encoding="utf-8"?>
<!-- Generator: Adobe Illustrator 16.0.0, SVG Export Plug-In . SVG Version: 6.00 Build 0)  -->
<!DOCTYPE svg PUBLIC "-//W3C//DTD SVG 1.1//EN" "http://www.w3.org/Graphics/SVG/1.1/DTD/svg11.dtd">
<svg version="1.1" id="Capa_1" xmlns="http://www.w3.org/2000/svg" xmlns:xlink="http://www.w3.org/1999/xlink" x="0px" y="0px"
	 width="143.028px" height="161.758px" viewBox="0 0 143.028 161.758" enable-background="new 0 0 143.028 161.758"
	 xml:space="preserve">
<rect fill="#645E53" width="143.028" height="161.758"/>
<g>
	<g>
		<path fill="#FFFFFF" d="M46.343,136.543c0-0.222,0.188-0.392,0.477-0.408h3.131c1.974,0,3.505,0.97,3.505,3.606v0.17
			c0,2.638-1.549,3.624-3.539,3.624h-2.45v4.594c0,0.289-0.289,0.442-0.562,0.442c-0.289,0-0.562-0.153-0.562-0.442V136.543z
			 M47.466,137.172v5.394h2.45c1.514,0,2.416-0.834,2.416-2.603v-0.205c0-1.769-0.902-2.586-2.416-2.586H47.466z"/>
		<path fill="#FFFFFF" d="M53.692,148.095c0-0.034,0-0.085,0.018-0.119l3.556-11.552c0.085-0.272,0.374-0.392,0.663-0.392
			c0.307,0,0.596,0.136,0.681,0.392l3.539,11.552c0,0.034,0.017,0.068,0.017,0.103c0,0.272-0.374,0.493-0.681,0.493
			c-0.187,0-0.357-0.085-0.425-0.289l-0.783-2.62h-4.712l-0.783,2.62c-0.051,0.204-0.238,0.289-0.442,0.289
			C54.05,148.571,53.692,148.384,53.692,148.095z M59.987,144.692l-2.059-6.856l-2.075,6.856H59.987z"/>
		<path fill="#FFFFFF" d="M63.815,136.543c0-0.222,0.17-0.392,0.425-0.408h3.012c1.99,0,3.675,0.799,3.675,3.352
			c0,2.109-1.174,3.028-2.654,3.283l2.62,5.036c0.052,0.068,0.068,0.153,0.068,0.222c0,0.289-0.323,0.578-0.646,0.578
			c-0.272,0-0.459-0.323-0.596-0.596l-2.62-5.104h-2.16v5.223c0,0.289-0.29,0.442-0.562,0.442c-0.289,0-0.562-0.153-0.562-0.442
			V136.543z M64.938,137.172v4.764h2.313c1.515,0,2.552-0.68,2.552-2.398c0-1.701-1.037-2.365-2.552-2.365H64.938z"/>
		<path fill="#FFFFFF" d="M73.938,141.851h2.671c0.272,0,0.425,0.238,0.425,0.511c0,0.221-0.119,0.459-0.425,0.459h-2.671v4.713
			h5.444c0.271,0,0.425,0.256,0.425,0.527c0,0.238-0.119,0.511-0.425,0.511h-6.058c-0.255,0-0.51-0.153-0.51-0.442V136.56
			c0-0.289,0.255-0.425,0.51-0.425h6.058c0.306,0,0.425,0.255,0.425,0.493c0,0.289-0.153,0.544-0.425,0.544h-5.444V141.851z"/>
		<path fill="#FFFFFF" d="M84.112,137.172c-0.272,0-0.426-0.255-0.426-0.544c0-0.238,0.136-0.493,0.426-0.493h2.994
			c0.272,0,0.527,0.136,0.527,0.425v8.473c0,2.654-1.548,3.642-3.505,3.642c-2.178,0-3.573-1.26-3.573-2.995
			c0-0.442,0.205-0.578,0.545-0.578c0.289,0,0.578,0.119,0.578,0.442c0,1.293,0.953,2.093,2.416,2.093
			c1.515,0,2.416-0.834,2.416-2.604v-7.86H84.112z"/>
		<path fill="#FFFFFF" d="M89.148,148.095c0-0.034,0-0.085,0.017-0.119l3.556-11.552c0.085-0.272,0.374-0.392,0.664-0.392
			c0.306,0,0.595,0.136,0.681,0.392l3.538,11.552c0,0.034,0.018,0.068,0.018,0.103c0,0.272-0.375,0.493-0.681,0.493
			c-0.188,0-0.357-0.085-0.426-0.289l-0.782-2.62H91.02l-0.782,2.62c-0.052,0.204-0.238,0.289-0.442,0.289
			C89.505,148.571,89.148,148.384,89.148,148.095z M95.443,144.692l-2.059-6.856l-2.076,6.856H95.443z"/>
	</g>
</g>
<g>
	<path fill="#FFFFFF" d="M89.117,34.262c4.149,0,8.042-2.367,9.956-6.049c1.939-3.732,1.586-8.371-0.893-11.767
		c-2.466-3.38-6.711-5.129-10.844-4.468c-4.063,0.649-7.528,3.584-8.845,7.48c-1.344,3.982-0.299,8.492,2.654,11.478
		C83.241,33.053,86.139,34.262,89.117,34.262L89.117,34.262z M89.117,34.262"/>
	<path fill="#FFFFFF" d="M110.183,67.777c0.001,0.021,0.001,0.013,0-0.063c-0.011-0.393-0.008-0.242-0.005-0.087
		c-0.033-1.227-0.094-2.446-0.167-3.67c-0.071-0.747-0.143-1.492-0.218-2.239c-0.266-1.966-0.604-3.899-1.031-5.837
		c-0.154-0.581-0.308-1.167-0.464-1.755c-0.182-0.586-0.363-1.175-0.556-1.764c-0.544-1.471-1.125-2.571-1.795-3.99
		c-0.435-0.823-0.889-1.628-1.358-2.431c-2.356-3.686-5.501-6.893-9.469-8.852c-2.784-1.375-7.589-2.382-11.929-0.05
		c-4.741,2.548-8.586,6.585-11.032,11.303c-2.075-5.205-5.693-9.863-10.726-12.478c-0.729-0.379-1.482-0.712-2.257-0.983
		c-3.55-1.242-7.843-1.258-11.709,0.377c-1.09,0.461-2.133,1.036-3.12,1.691c-2.355,1.563-4.371,3.607-5.982,5.925
		c-3.295,4.74-4.825,10.472-5.326,16.165c-0.385,4.385-0.196,8.831,0.361,13.194l0.006,0.038c0.228,1.72,1.815,2.991,3.543,2.848
		c1.74-0.146,3.093-1.687,3.014-3.431c-0.032,0-0.054-2.383-0.054-2.626c-0.005-1.327,0.031-2.652,0.113-3.976
		c0.18-2.861,0.578-5.72,1.337-8.486c0.54-1.971,1.271-3.894,2.269-5.681l-2.427,20.038c-0.352,3.05,0.381,6.154,2.11,8.696
		l1.708,36c0.103,2.023,1.83,3.668,3.857,3.658c2.02-0.01,3.725-1.652,3.814-3.668l1.219-27.196l1.268,27.203
		c0.101,2.023,1.827,3.669,3.856,3.662c2.019-0.007,3.725-1.649,3.818-3.665l1.649-36.125c1.613-2.437,2.403-5.436,2.024-8.564
		l-2.398-19.796c2.673,4.94,3.449,10.764,3.57,16.308c-0.038,1.298-0.04,4.22-0.04,4.22c0.054,1.784,1.242,3.249,2.952,3.425
		c1.845,0.189,3.559-1.2,3.712-3.052l0.01-0.125c0.063-0.744,0.123-1.489,0.184-2.233c0.167-1.425,0.357-2.841,0.579-4.259
		c0.544-2.805,1.219-5.554,2.272-8.215c0.196-0.451,0.375-0.911,0.583-1.354v3.127l-5.91,29.536
		c-0.118,0.599,0.038,1.211,0.425,1.682c0.388,0.471,0.959,0.741,1.57,0.741h4.657l1.183,24.451
		c0.104,2.033,1.833,3.691,3.873,3.696c2.042,0.005,3.779-1.644,3.885-3.683l1.268-24.463h0.488l1.184,24.45
		c0.105,2.034,1.833,3.692,3.872,3.696c2.044,0.005,3.781-1.644,3.887-3.683l1.267-24.463h4.603c0.609,0,1.18-0.27,1.567-0.739
		c0.388-0.47,0.543-1.082,0.425-1.69l-5.9-29.983v-2.528c0.096,0.228,0.192,0.457,0.288,0.686c0.171,0.462,0.34,0.923,0.507,1.38
		c0.51,1.594,0.94,3.193,1.321,4.823c0.124,0.642,0.247,1.285,0.371,1.928c0.327,2.136,0.565,4.266,0.745,6.419l0.011,0.138
		c0.151,1.759,1.713,3.118,3.476,3.036c1.74-0.08,3.153-1.551,3.171-3.291C110.188,70.018,110.204,68.898,110.183,67.777
		L110.183,67.777z M110.183,67.777"/>
	<path fill="#FFFFFF" d="M46.434,29.317c2.026,1.83,4.696,2.854,7.426,2.854c4.147,0,8.033-2.393,9.904-6.095
		c1.895-3.752,1.461-8.387-1.092-11.724c-2.546-3.326-6.851-4.956-10.962-4.147c-4.033,0.792-7.38,3.871-8.51,7.822
		C42.044,22.062,43.319,26.507,46.434,29.317L46.434,29.317z M46.434,29.317"/>
</g>
<rect x="32.854" y="11.841" fill="none" width="77.32" height="109.515"/>
</svg>
